%TF.GenerationSoftware,KiCad,Pcbnew,7.0.2-0*%
%TF.CreationDate,2023-05-11T18:07:37+02:00*%
%TF.ProjectId,main,6d61696e-2e6b-4696-9361-645f70636258,v.1.2.0*%
%TF.SameCoordinates,Original*%
%TF.FileFunction,Paste,Top*%
%TF.FilePolarity,Positive*%
%FSLAX46Y46*%
G04 Gerber Fmt 4.6, Leading zero omitted, Abs format (unit mm)*
G04 Created by KiCad (PCBNEW 7.0.2-0) date 2023-05-11 18:07:37*
%MOMM*%
%LPD*%
G01*
G04 APERTURE LIST*
G04 Aperture macros list*
%AMRoundRect*
0 Rectangle with rounded corners*
0 $1 Rounding radius*
0 $2 $3 $4 $5 $6 $7 $8 $9 X,Y pos of 4 corners*
0 Add a 4 corners polygon primitive as box body*
4,1,4,$2,$3,$4,$5,$6,$7,$8,$9,$2,$3,0*
0 Add four circle primitives for the rounded corners*
1,1,$1+$1,$2,$3*
1,1,$1+$1,$4,$5*
1,1,$1+$1,$6,$7*
1,1,$1+$1,$8,$9*
0 Add four rect primitives between the rounded corners*
20,1,$1+$1,$2,$3,$4,$5,0*
20,1,$1+$1,$4,$5,$6,$7,0*
20,1,$1+$1,$6,$7,$8,$9,0*
20,1,$1+$1,$8,$9,$2,$3,0*%
G04 Aperture macros list end*
%ADD10RoundRect,0.200000X0.275000X-0.200000X0.275000X0.200000X-0.275000X0.200000X-0.275000X-0.200000X0*%
%ADD11RoundRect,0.200000X0.200000X0.275000X-0.200000X0.275000X-0.200000X-0.275000X0.200000X-0.275000X0*%
%ADD12RoundRect,0.200000X-0.275000X0.200000X-0.275000X-0.200000X0.275000X-0.200000X0.275000X0.200000X0*%
%ADD13RoundRect,0.225000X0.250000X-0.225000X0.250000X0.225000X-0.250000X0.225000X-0.250000X-0.225000X0*%
%ADD14RoundRect,0.218750X0.256250X-0.218750X0.256250X0.218750X-0.256250X0.218750X-0.256250X-0.218750X0*%
%ADD15RoundRect,0.225000X-0.250000X0.225000X-0.250000X-0.225000X0.250000X-0.225000X0.250000X0.225000X0*%
%ADD16RoundRect,0.125000X-0.625000X-0.125000X0.625000X-0.125000X0.625000X0.125000X-0.625000X0.125000X0*%
%ADD17RoundRect,0.125000X-0.125000X-0.625000X0.125000X-0.625000X0.125000X0.625000X-0.125000X0.625000X0*%
%ADD18RoundRect,0.250000X-0.250000X-0.475000X0.250000X-0.475000X0.250000X0.475000X-0.250000X0.475000X0*%
%ADD19RoundRect,0.250000X0.650000X-0.325000X0.650000X0.325000X-0.650000X0.325000X-0.650000X-0.325000X0*%
%ADD20RoundRect,0.150000X0.150000X-0.512500X0.150000X0.512500X-0.150000X0.512500X-0.150000X-0.512500X0*%
G04 APERTURE END LIST*
D10*
%TO.C,R11*%
X42950000Y-85660000D03*
X42950000Y-84010000D03*
%TD*%
D11*
%TO.C,R38*%
X183959000Y-89154000D03*
X182309000Y-89154000D03*
%TD*%
D12*
%TO.C,R4*%
X37338000Y-66485000D03*
X37338000Y-68135000D03*
%TD*%
D11*
%TO.C,R30*%
X145859000Y-75946000D03*
X144209000Y-75946000D03*
%TD*%
D13*
%TO.C,C3*%
X47156000Y-97329000D03*
X47156000Y-95779000D03*
%TD*%
D11*
%TO.C,R15*%
X129349000Y-75946000D03*
X127699000Y-75946000D03*
%TD*%
%TO.C,R35*%
X83629000Y-75946000D03*
X81979000Y-75946000D03*
%TD*%
%TO.C,R52*%
X153479000Y-89154000D03*
X151829000Y-89154000D03*
%TD*%
%TO.C,R33*%
X88709000Y-75946000D03*
X87059000Y-75946000D03*
%TD*%
%TO.C,R39*%
X131889000Y-89154000D03*
X130239000Y-89154000D03*
%TD*%
%TO.C,R27*%
X103949000Y-75946000D03*
X102299000Y-75946000D03*
%TD*%
%TO.C,R14*%
X181419000Y-75946000D03*
X179769000Y-75946000D03*
%TD*%
D14*
%TO.C,D1*%
X44558000Y-112087500D03*
X44558000Y-110512500D03*
%TD*%
D11*
%TO.C,R45*%
X121729000Y-89154000D03*
X120079000Y-89154000D03*
%TD*%
D15*
%TO.C,C6*%
X41450000Y-82460000D03*
X41450000Y-84010000D03*
%TD*%
D11*
%TO.C,R21*%
X119189000Y-75946000D03*
X117539000Y-75946000D03*
%TD*%
%TO.C,R32*%
X140779000Y-75946000D03*
X139129000Y-75946000D03*
%TD*%
%TO.C,R34*%
X135699000Y-75946000D03*
X134049000Y-75946000D03*
%TD*%
%TO.C,R42*%
X178879000Y-89154000D03*
X177229000Y-89154000D03*
%TD*%
%TO.C,R54*%
X148399000Y-89154000D03*
X146749000Y-89154000D03*
%TD*%
%TO.C,R29*%
X98869000Y-75946000D03*
X97219000Y-75946000D03*
%TD*%
%TO.C,R20*%
X171259000Y-75946000D03*
X169609000Y-75946000D03*
%TD*%
%TO.C,R46*%
X168719000Y-89154000D03*
X167069000Y-89154000D03*
%TD*%
%TO.C,R19*%
X124269000Y-75946000D03*
X122619000Y-75946000D03*
%TD*%
D16*
%TO.C,U3*%
X44725000Y-77160000D03*
X44725000Y-77960000D03*
X44725000Y-78760000D03*
X44725000Y-79560000D03*
X44725000Y-80360000D03*
X44725000Y-81160000D03*
X44725000Y-81960000D03*
X44725000Y-82760000D03*
D17*
X46100000Y-84135000D03*
X46900000Y-84135000D03*
X47700000Y-84135000D03*
X48500000Y-84135000D03*
X49300000Y-84135000D03*
X50100000Y-84135000D03*
X50900000Y-84135000D03*
X51700000Y-84135000D03*
D16*
X53075000Y-82760000D03*
X53075000Y-81960000D03*
X53075000Y-81160000D03*
X53075000Y-80360000D03*
X53075000Y-79560000D03*
X53075000Y-78760000D03*
X53075000Y-77960000D03*
X53075000Y-77160000D03*
D17*
X51700000Y-75785000D03*
X50900000Y-75785000D03*
X50100000Y-75785000D03*
X49300000Y-75785000D03*
X48500000Y-75785000D03*
X47700000Y-75785000D03*
X46900000Y-75785000D03*
X46100000Y-75785000D03*
%TD*%
D12*
%TO.C,R3*%
X37338000Y-71565000D03*
X37338000Y-73215000D03*
%TD*%
D11*
%TO.C,R44*%
X173799000Y-89154000D03*
X172149000Y-89154000D03*
%TD*%
%TO.C,R37*%
X195389000Y-89154000D03*
X193739000Y-89154000D03*
%TD*%
%TO.C,R25*%
X109029000Y-75946000D03*
X107379000Y-75946000D03*
%TD*%
%TO.C,R9*%
X42227000Y-64960000D03*
X40577000Y-64960000D03*
%TD*%
%TO.C,R57*%
X91249000Y-89154000D03*
X89599000Y-89154000D03*
%TD*%
D18*
%TO.C,C5*%
X42650000Y-95410000D03*
X44550000Y-95410000D03*
%TD*%
D12*
%TO.C,R2*%
X37338000Y-76645000D03*
X37338000Y-78295000D03*
%TD*%
%TO.C,R8*%
X44558000Y-106919000D03*
X44558000Y-108569000D03*
%TD*%
D11*
%TO.C,R23*%
X114109000Y-75946000D03*
X112459000Y-75946000D03*
%TD*%
%TO.C,R53*%
X101409000Y-89154000D03*
X99759000Y-89154000D03*
%TD*%
%TO.C,R13*%
X192849000Y-75946000D03*
X191199000Y-75946000D03*
%TD*%
%TO.C,R28*%
X150939000Y-75946000D03*
X149289000Y-75946000D03*
%TD*%
%TO.C,R5*%
X42227000Y-66548000D03*
X40577000Y-66548000D03*
%TD*%
%TO.C,R18*%
X176339000Y-75946000D03*
X174689000Y-75946000D03*
%TD*%
%TO.C,R48*%
X163639000Y-89154000D03*
X161989000Y-89154000D03*
%TD*%
%TO.C,R59*%
X86169000Y-89154000D03*
X84519000Y-89154000D03*
%TD*%
D18*
%TO.C,C2*%
X42650000Y-102310000D03*
X44550000Y-102310000D03*
%TD*%
D15*
%TO.C,C8*%
X42544000Y-79435000D03*
X42544000Y-80985000D03*
%TD*%
D19*
%TO.C,C7*%
X40335200Y-80850000D03*
X40335200Y-77900000D03*
%TD*%
D11*
%TO.C,R58*%
X138239000Y-89154000D03*
X136589000Y-89154000D03*
%TD*%
D14*
%TO.C,D2*%
X48114000Y-112087500D03*
X48114000Y-110512500D03*
%TD*%
D11*
%TO.C,R6*%
X42227000Y-68072000D03*
X40577000Y-68072000D03*
%TD*%
%TO.C,R56*%
X143319000Y-89154000D03*
X141669000Y-89154000D03*
%TD*%
%TO.C,R55*%
X96329000Y-89154000D03*
X94679000Y-89154000D03*
%TD*%
%TO.C,R51*%
X106489000Y-89154000D03*
X104839000Y-89154000D03*
%TD*%
%TO.C,R31*%
X93789000Y-75946000D03*
X92139000Y-75946000D03*
%TD*%
%TO.C,R49*%
X111569000Y-89154000D03*
X109919000Y-89154000D03*
%TD*%
%TO.C,R43*%
X126809000Y-89154000D03*
X125159000Y-89154000D03*
%TD*%
D20*
%TO.C,U1*%
X42650000Y-99977500D03*
X43600000Y-99977500D03*
X44550000Y-99977500D03*
X44550000Y-97702500D03*
X42650000Y-97702500D03*
%TD*%
D11*
%TO.C,R47*%
X116649000Y-89154000D03*
X114999000Y-89154000D03*
%TD*%
%TO.C,R26*%
X156019000Y-75946000D03*
X154369000Y-75946000D03*
%TD*%
%TO.C,R36*%
X190309000Y-89154000D03*
X188659000Y-89154000D03*
%TD*%
%TO.C,R50*%
X158559000Y-89154000D03*
X156909000Y-89154000D03*
%TD*%
%TO.C,R12*%
X187769000Y-75946000D03*
X186119000Y-75946000D03*
%TD*%
D12*
%TO.C,R10*%
X48114000Y-106919000D03*
X48114000Y-108569000D03*
%TD*%
D11*
%TO.C,R24*%
X161099000Y-75946000D03*
X159449000Y-75946000D03*
%TD*%
%TO.C,R7*%
X42227000Y-69596000D03*
X40577000Y-69596000D03*
%TD*%
%TO.C,R22*%
X166179000Y-75946000D03*
X164529000Y-75946000D03*
%TD*%
D10*
%TO.C,R1*%
X35550000Y-82885000D03*
X35550000Y-81235000D03*
%TD*%
M02*
