M48
; DRILL file {KiCad 7.0.2-0} date 2023 May 17, Wednesday 15:37:38
; FORMAT={3:3/ absolute / metric / suppress leading zeros}
; #@! TF.CreationDate,2023-05-17T15:37:38+02:00
; #@! TF.GenerationSoftware,Kicad,Pcbnew,7.0.2-0
; #@! TF.FileFunction,Plated,1,2,PTH
FMAT,2
METRIC,TZ
; #@! TA.AperFunction,Plated,PTH,ViaDrill
T1C0.300
; #@! TA.AperFunction,Plated,PTH,ComponentDrill
T2C0.800
; #@! TA.AperFunction,Plated,PTH,ComponentDrill
T3C1.000
; #@! TA.AperFunction,Plated,PTH,ComponentDrill
T4C1.300
; #@! TA.AperFunction,Plated,PTH,ComponentDrill
T5C1.600
%
G90
G05
T1
X36322Y-67564
X36322Y-72644
X36322Y-77724
X36400Y-82910
X39218Y-77089
X39561Y-70358
X40575Y-82060
X40600Y-83610
X41148Y-98806
X41478Y-77064
X41850Y-81330
X42672Y-98806
X44196Y-76200
X44704Y-75388
X45574Y-111554
X46875Y-77913
X47098Y-111554
X47490Y-77180
X48110Y-89408
X48110Y-105890
X54102Y-56134
T2
X38400Y-91260
X38400Y-93760
X83820Y-66040
X83820Y-73660
X83820Y-91440
X83820Y-99060
X86360Y-66040
X86360Y-73660
X86360Y-91440
X86360Y-99060
X88900Y-66040
X88900Y-73660
X88900Y-91440
X88900Y-99060
X91440Y-66040
X91440Y-73660
X91440Y-91440
X91440Y-99060
X93980Y-66040
X93980Y-73660
X93980Y-91440
X93980Y-99060
X96520Y-66040
X96520Y-73660
X96520Y-91440
X96520Y-99060
X99060Y-66040
X99060Y-73660
X99060Y-91440
X99060Y-99060
X101600Y-66040
X101600Y-73660
X101600Y-91440
X101600Y-99060
X104140Y-66040
X104140Y-73660
X104140Y-91440
X104140Y-99060
X106680Y-66040
X106680Y-73660
X106680Y-91440
X106680Y-99060
X109220Y-66040
X109220Y-73660
X109220Y-91440
X109220Y-99060
X111760Y-66040
X111760Y-73660
X111760Y-91440
X111760Y-99060
X114300Y-66040
X114300Y-73660
X114300Y-91440
X114300Y-99060
X116840Y-66040
X116840Y-73660
X116840Y-91440
X116840Y-99060
X119380Y-66040
X119380Y-73660
X119380Y-91440
X119380Y-99060
X121920Y-66040
X121920Y-73660
X121920Y-91440
X121920Y-99060
X124460Y-66040
X124460Y-73660
X124460Y-91440
X124460Y-99060
X127000Y-66040
X127000Y-73660
X127000Y-91440
X127000Y-99060
X129540Y-66040
X129540Y-73660
X129540Y-91440
X129540Y-99060
X132080Y-66040
X132080Y-73660
X132080Y-91440
X132080Y-99060
X135890Y-66040
X135890Y-73660
X135890Y-91440
X135890Y-99060
X138430Y-66040
X138430Y-73660
X138430Y-91440
X138430Y-99060
X140970Y-66040
X140970Y-73660
X140970Y-91440
X140970Y-99060
X143510Y-66040
X143510Y-73660
X143510Y-91440
X143510Y-99060
X146050Y-66040
X146050Y-73660
X146050Y-91440
X146050Y-99060
X148590Y-66040
X148590Y-73660
X148590Y-91440
X148590Y-99060
X151130Y-66040
X151130Y-73660
X151130Y-91440
X151130Y-99060
X153670Y-66040
X153670Y-73660
X153670Y-91440
X153670Y-99060
X156210Y-66040
X156210Y-73660
X156210Y-91440
X156210Y-99060
X158750Y-66040
X158750Y-73660
X158750Y-91440
X158750Y-99060
X161290Y-66040
X161290Y-73660
X161290Y-91440
X161290Y-99060
X163830Y-66040
X163830Y-73660
X163830Y-91440
X163830Y-99060
X166370Y-66040
X166370Y-73660
X166370Y-91440
X166370Y-99060
X168910Y-66040
X168910Y-73660
X168910Y-91440
X168910Y-99060
X171450Y-66040
X171450Y-73660
X171450Y-91440
X171450Y-99060
X173990Y-66040
X173990Y-73660
X173990Y-91440
X173990Y-99060
X176530Y-66040
X176530Y-73660
X176530Y-91440
X176530Y-99060
X179070Y-66040
X179070Y-73660
X179070Y-91440
X179070Y-99060
X181610Y-66040
X181610Y-73660
X181610Y-91440
X181610Y-99060
X184150Y-66040
X184150Y-73660
X184150Y-91440
X184150Y-99060
X187960Y-66040
X187960Y-73660
X187960Y-91440
X187960Y-99060
X190500Y-66040
X190500Y-73660
X190500Y-91440
X190500Y-99060
X193040Y-66040
X193040Y-73660
X193040Y-91440
X193040Y-99060
X195580Y-66040
X195580Y-73660
X195580Y-91440
X195580Y-99060
T3
X30700Y-63505
X30700Y-66045
X30700Y-68585
X30700Y-71125
X30700Y-73665
X30700Y-76205
X30700Y-78745
X30700Y-81285
X30700Y-83825
X30700Y-86365
X30700Y-88905
X30700Y-91445
X30700Y-93985
X30700Y-96525
X30700Y-99065
X30700Y-101605
X33240Y-63505
X33240Y-66045
X33240Y-68585
X33240Y-71125
X33240Y-73665
X33240Y-76205
X33240Y-78745
X33240Y-81285
X33240Y-83825
X33240Y-86365
X33240Y-88905
X33240Y-91445
X33240Y-93985
X33240Y-96525
X33240Y-99065
X33240Y-101605
X40132Y-68072
X42672Y-68072
X45212Y-68072
X45250Y-88310
X45250Y-90850
X47752Y-68072
X50292Y-68072
X56400Y-67280
X56400Y-69820
X56400Y-72360
X56400Y-74900
X56400Y-77440
X56400Y-79980
X56400Y-82520
X56400Y-85060
X56400Y-87600
X56400Y-90140
X56400Y-92680
X56400Y-95220
X56400Y-97760
X58940Y-67280
X58940Y-69820
X58940Y-72360
X58940Y-74900
X58940Y-77440
X58940Y-79980
X58940Y-82520
X58940Y-85060
X58940Y-87600
X58940Y-90140
X58940Y-92680
X58940Y-95220
X58940Y-97760
T4
X86360Y-57404
X86360Y-107696
X91440Y-57404
X91440Y-107696
X96520Y-57404
X96520Y-107696
X101600Y-57404
X101600Y-107696
X106680Y-57404
X106680Y-107696
X111760Y-57404
X111760Y-107696
X116840Y-57404
X116840Y-107696
X121920Y-57404
X121920Y-107696
X127000Y-57404
X127000Y-107696
X132080Y-57404
X132080Y-107696
X138430Y-57404
X138430Y-107696
X143510Y-57404
X143510Y-107696
X148590Y-57404
X148590Y-107696
X153670Y-57404
X153670Y-107696
X158750Y-57404
X158750Y-107696
X163830Y-57404
X163830Y-107696
X168910Y-57404
X168910Y-107696
X173990Y-57404
X173990Y-107696
X179070Y-57404
X179070Y-107696
X184150Y-57404
X184150Y-107696
X190500Y-57404
X190500Y-107696
X195580Y-57404
X195580Y-107696
T5
X33782Y-55880
X33900Y-107180
X33900Y-112260
X36819Y-87169
X38832Y-55880
X43882Y-55880
T0
M30
