%TF.GenerationSoftware,KiCad,Pcbnew,7.0.2-0*%
%TF.CreationDate,2023-05-11T18:07:36+02:00*%
%TF.ProjectId,main,6d61696e-2e6b-4696-9361-645f70636258,v.1.2.0*%
%TF.SameCoordinates,Original*%
%TF.FileFunction,Copper,L1,Top*%
%TF.FilePolarity,Positive*%
%FSLAX46Y46*%
G04 Gerber Fmt 4.6, Leading zero omitted, Abs format (unit mm)*
G04 Created by KiCad (PCBNEW 7.0.2-0) date 2023-05-11 18:07:36*
%MOMM*%
%LPD*%
G01*
G04 APERTURE LIST*
G04 Aperture macros list*
%AMRoundRect*
0 Rectangle with rounded corners*
0 $1 Rounding radius*
0 $2 $3 $4 $5 $6 $7 $8 $9 X,Y pos of 4 corners*
0 Add a 4 corners polygon primitive as box body*
4,1,4,$2,$3,$4,$5,$6,$7,$8,$9,$2,$3,0*
0 Add four circle primitives for the rounded corners*
1,1,$1+$1,$2,$3*
1,1,$1+$1,$4,$5*
1,1,$1+$1,$6,$7*
1,1,$1+$1,$8,$9*
0 Add four rect primitives between the rounded corners*
20,1,$1+$1,$2,$3,$4,$5,0*
20,1,$1+$1,$4,$5,$6,$7,0*
20,1,$1+$1,$6,$7,$8,$9,0*
20,1,$1+$1,$8,$9,$2,$3,0*%
G04 Aperture macros list end*
%TA.AperFunction,EtchedComponent*%
%ADD10C,1.270000*%
%TD*%
%TA.AperFunction,EtchedComponent*%
%ADD11C,0.381000*%
%TD*%
%TA.AperFunction,ComponentPad*%
%ADD12C,3.000000*%
%TD*%
%TA.AperFunction,ComponentPad*%
%ADD13R,2.600000X2.600000*%
%TD*%
%TA.AperFunction,ComponentPad*%
%ADD14C,2.600000*%
%TD*%
%TA.AperFunction,SMDPad,CuDef*%
%ADD15RoundRect,0.200000X0.275000X-0.200000X0.275000X0.200000X-0.275000X0.200000X-0.275000X-0.200000X0*%
%TD*%
%TA.AperFunction,SMDPad,CuDef*%
%ADD16RoundRect,0.200000X0.200000X0.275000X-0.200000X0.275000X-0.200000X-0.275000X0.200000X-0.275000X0*%
%TD*%
%TA.AperFunction,ComponentPad*%
%ADD17R,1.600000X1.600000*%
%TD*%
%TA.AperFunction,ComponentPad*%
%ADD18O,1.600000X1.600000*%
%TD*%
%TA.AperFunction,SMDPad,CuDef*%
%ADD19RoundRect,0.200000X-0.275000X0.200000X-0.275000X-0.200000X0.275000X-0.200000X0.275000X0.200000X0*%
%TD*%
%TA.AperFunction,SMDPad,CuDef*%
%ADD20RoundRect,0.225000X0.250000X-0.225000X0.250000X0.225000X-0.250000X0.225000X-0.250000X-0.225000X0*%
%TD*%
%TA.AperFunction,ComponentPad*%
%ADD21R,1.700000X1.700000*%
%TD*%
%TA.AperFunction,ComponentPad*%
%ADD22O,1.700000X1.700000*%
%TD*%
%TA.AperFunction,SMDPad,CuDef*%
%ADD23R,1.500000X1.000000*%
%TD*%
%TA.AperFunction,SMDPad,CuDef*%
%ADD24RoundRect,0.218750X0.256250X-0.218750X0.256250X0.218750X-0.256250X0.218750X-0.256250X-0.218750X0*%
%TD*%
%TA.AperFunction,SMDPad,CuDef*%
%ADD25RoundRect,0.225000X-0.250000X0.225000X-0.250000X-0.225000X0.250000X-0.225000X0.250000X0.225000X0*%
%TD*%
%TA.AperFunction,ComponentPad*%
%ADD26C,1.600000*%
%TD*%
%TA.AperFunction,SMDPad,CuDef*%
%ADD27RoundRect,0.125000X-0.625000X-0.125000X0.625000X-0.125000X0.625000X0.125000X-0.625000X0.125000X0*%
%TD*%
%TA.AperFunction,SMDPad,CuDef*%
%ADD28RoundRect,0.125000X-0.125000X-0.625000X0.125000X-0.625000X0.125000X0.625000X-0.125000X0.625000X0*%
%TD*%
%TA.AperFunction,SMDPad,CuDef*%
%ADD29RoundRect,0.250000X-0.250000X-0.475000X0.250000X-0.475000X0.250000X0.475000X-0.250000X0.475000X0*%
%TD*%
%TA.AperFunction,ComponentPad*%
%ADD30RoundRect,0.249999X0.525001X-0.525001X0.525001X0.525001X-0.525001X0.525001X-0.525001X-0.525001X0*%
%TD*%
%TA.AperFunction,ComponentPad*%
%ADD31C,1.550000*%
%TD*%
%TA.AperFunction,SMDPad,CuDef*%
%ADD32RoundRect,0.250000X0.650000X-0.325000X0.650000X0.325000X-0.650000X0.325000X-0.650000X-0.325000X0*%
%TD*%
%TA.AperFunction,SMDPad,CuDef*%
%ADD33RoundRect,0.150000X0.150000X-0.512500X0.150000X0.512500X-0.150000X0.512500X-0.150000X-0.512500X0*%
%TD*%
%TA.AperFunction,ComponentPad*%
%ADD34RoundRect,0.250000X-0.600000X-0.600000X0.600000X-0.600000X0.600000X0.600000X-0.600000X0.600000X0*%
%TD*%
%TA.AperFunction,ComponentPad*%
%ADD35C,1.700000*%
%TD*%
%TA.AperFunction,ViaPad*%
%ADD36C,0.700000*%
%TD*%
%TA.AperFunction,Conductor*%
%ADD37C,0.250000*%
%TD*%
%TA.AperFunction,Conductor*%
%ADD38C,0.500000*%
%TD*%
%TA.AperFunction,Conductor*%
%ADD39C,1.000000*%
%TD*%
%TA.AperFunction,Conductor*%
%ADD40C,0.750000*%
%TD*%
G04 APERTURE END LIST*
D10*
%TO.C,SYM1*%
X202946000Y-66548000D02*
X211836000Y-55118000D01*
D11*
X210439000Y-61849000D02*
X211836000Y-61849000D01*
X210439000Y-64643000D02*
X211201000Y-64008000D01*
X210566000Y-63627000D02*
X210439000Y-64643000D01*
X210693000Y-64135000D02*
X210566000Y-63627000D01*
X210693000Y-64262000D02*
X212471000Y-61468000D01*
X210820000Y-61722000D02*
X212090000Y-61722000D01*
X211201000Y-61468000D02*
X212979000Y-59436000D01*
X211201000Y-64008000D02*
X210693000Y-64262000D01*
D10*
X211836000Y-55118000D02*
X220726000Y-66548000D01*
D11*
X211836000Y-61849000D02*
X210693000Y-64135000D01*
X211963000Y-59563000D02*
X210439000Y-61849000D01*
X212217000Y-59817000D02*
X210820000Y-61722000D01*
X212217000Y-59944000D02*
X212090000Y-59436000D01*
X212471000Y-61468000D02*
X211201000Y-61468000D01*
X212979000Y-59436000D02*
X212217000Y-59944000D01*
D10*
X220726000Y-66548000D02*
X202946000Y-66548000D01*
%TA.AperFunction,EtchedComponent*%
%TO.C,JP1*%
G36*
X37700000Y-101660000D02*
G01*
X37100000Y-101660000D01*
X37100000Y-101160000D01*
X37700000Y-101160000D01*
X37700000Y-101660000D01*
G37*
%TD.AperFunction*%
%TD*%
D12*
%TO.P,TP2,1,1*%
%TO.N,+3.3V*%
X33900000Y-107180000D03*
%TD*%
D13*
%TO.P,J5,1,Pin_1*%
%TO.N,Net-(J5-Pin_1)*%
X138430000Y-57404000D03*
D14*
%TO.P,J5,2,Pin_2*%
%TO.N,Net-(J5-Pin_2)*%
X143510000Y-57404000D03*
%TO.P,J5,3,Pin_3*%
%TO.N,Net-(J5-Pin_3)*%
X148590000Y-57404000D03*
%TO.P,J5,4,Pin_4*%
%TO.N,Net-(J5-Pin_4)*%
X153670000Y-57404000D03*
%TO.P,J5,5,Pin_5*%
%TO.N,Net-(J5-Pin_5)*%
X158750000Y-57404000D03*
%TO.P,J5,6,Pin_6*%
%TO.N,Net-(J5-Pin_6)*%
X163830000Y-57404000D03*
%TO.P,J5,7,Pin_7*%
%TO.N,Net-(J5-Pin_7)*%
X168910000Y-57404000D03*
%TO.P,J5,8,Pin_8*%
%TO.N,Net-(J5-Pin_8)*%
X173990000Y-57404000D03*
%TO.P,J5,9,Pin_9*%
%TO.N,Net-(J5-Pin_9)*%
X179070000Y-57404000D03*
%TO.P,J5,10,Pin_10*%
%TO.N,Net-(J5-Pin_10)*%
X184150000Y-57404000D03*
%TD*%
D13*
%TO.P,J4,1,Pin_1*%
%TO.N,/Relays/Input pins/Out_HIGH*%
X190500000Y-57404000D03*
D14*
%TO.P,J4,2,Pin_2*%
%TO.N,/Relays/Input pins/Out_LOW*%
X195580000Y-57404000D03*
%TD*%
D15*
%TO.P,R11,1*%
%TO.N,Net-(J3-Pin_1)*%
X42950000Y-85660000D03*
%TO.P,R11,2*%
%TO.N,/Microcontroller/TX*%
X42950000Y-84010000D03*
%TD*%
D16*
%TO.P,R38,1*%
%TO.N,Net-(R38-Pad1)*%
X183959000Y-89154000D03*
%TO.P,R38,2*%
%TO.N,/Microcontroller/CH11*%
X182309000Y-89154000D03*
%TD*%
D17*
%TO.P,U19,1*%
%TO.N,Net-(R29-Pad1)*%
X99060000Y-73660000D03*
D18*
%TO.P,U19,2*%
%TO.N,GND*%
X101600000Y-73660000D03*
%TO.P,U19,3*%
%TO.N,Net-(J6-Pin_4)*%
X101600000Y-66040000D03*
%TO.P,U19,4*%
%TO.N,/Relays/Input pins/Out_HIGH*%
X99060000Y-66040000D03*
%TD*%
D19*
%TO.P,R4,1*%
%TO.N,/DATA*%
X37338000Y-66485000D03*
%TO.P,R4,2*%
%TO.N,GND*%
X37338000Y-68135000D03*
%TD*%
D17*
%TO.P,U34,1*%
%TO.N,Net-(R46-Pad1)*%
X168910000Y-91440000D03*
D18*
%TO.P,U34,2*%
%TO.N,GND*%
X166370000Y-91440000D03*
%TO.P,U34,3*%
%TO.N,/Relays/Input pins/Bus_LOW*%
X166370000Y-99060000D03*
%TO.P,U34,4*%
%TO.N,Net-(J8-Pin_4)*%
X168910000Y-99060000D03*
%TD*%
D16*
%TO.P,R30,1*%
%TO.N,Net-(R30-Pad1)*%
X145859000Y-75946000D03*
%TO.P,R30,2*%
%TO.N,/Microcontroller/CH4*%
X144209000Y-75946000D03*
%TD*%
D20*
%TO.P,C3,1*%
%TO.N,Net-(U1-NR)*%
X47156000Y-97329000D03*
%TO.P,C3,2*%
%TO.N,GND*%
X47156000Y-95779000D03*
%TD*%
D12*
%TO.P,TP6,1,1*%
%TO.N,/STROBE*%
X48200000Y-55880000D03*
%TD*%
D21*
%TO.P,J2,1,Pin_1*%
%TO.N,+3.3V*%
X46754000Y-70180000D03*
D22*
%TO.P,J2,2,Pin_2*%
%TO.N,/Microcontroller/SWCLK*%
X46754000Y-67640000D03*
%TO.P,J2,3,Pin_3*%
%TO.N,GND*%
X46754000Y-65100000D03*
%TO.P,J2,4,Pin_4*%
%TO.N,/Microcontroller/SWDIO*%
X46754000Y-62560000D03*
%TO.P,J2,5,Pin_5*%
%TO.N,/~{NRST}*%
X46754000Y-60020000D03*
%TD*%
D17*
%TO.P,U41,1*%
%TO.N,Net-(R53-Pad1)*%
X101600000Y-91440000D03*
D18*
%TO.P,U41,2*%
%TO.N,GND*%
X99060000Y-91440000D03*
%TO.P,U41,3*%
%TO.N,/Relays/Input pins/Bus_HIGH*%
X99060000Y-99060000D03*
%TO.P,U41,4*%
%TO.N,Net-(J9-Pin_7)*%
X101600000Y-99060000D03*
%TD*%
D17*
%TO.P,U42,1*%
%TO.N,Net-(R54-Pad1)*%
X148590000Y-91440000D03*
D18*
%TO.P,U42,2*%
%TO.N,GND*%
X146050000Y-91440000D03*
%TO.P,U42,3*%
%TO.N,/Relays/Input pins/Bus_LOW*%
X146050000Y-99060000D03*
%TO.P,U42,4*%
%TO.N,Net-(J8-Pin_8)*%
X148590000Y-99060000D03*
%TD*%
D16*
%TO.P,R15,1*%
%TO.N,Net-(R15-Pad1)*%
X129349000Y-75946000D03*
%TO.P,R15,2*%
%TO.N,/Microcontroller/CH6*%
X127699000Y-75946000D03*
%TD*%
D17*
%TO.P,U36,1*%
%TO.N,Net-(R48-Pad1)*%
X163830000Y-91440000D03*
D18*
%TO.P,U36,2*%
%TO.N,GND*%
X161290000Y-91440000D03*
%TO.P,U36,3*%
%TO.N,/Relays/Input pins/Bus_HIGH*%
X161290000Y-99060000D03*
%TO.P,U36,4*%
%TO.N,Net-(J8-Pin_5)*%
X163830000Y-99060000D03*
%TD*%
D17*
%TO.P,U31,1*%
%TO.N,Net-(R43-Pad1)*%
X127000000Y-91440000D03*
D18*
%TO.P,U31,2*%
%TO.N,GND*%
X124460000Y-91440000D03*
%TO.P,U31,3*%
%TO.N,/Relays/Input pins/Bus_LOW*%
X124460000Y-99060000D03*
%TO.P,U31,4*%
%TO.N,Net-(J9-Pin_2)*%
X127000000Y-99060000D03*
%TD*%
D16*
%TO.P,R35,1*%
%TO.N,Net-(R35-Pad1)*%
X83629000Y-75946000D03*
%TO.P,R35,2*%
%TO.N,/Microcontroller/CH10*%
X81979000Y-75946000D03*
%TD*%
D17*
%TO.P,U11,1*%
%TO.N,Net-(R21-Pad1)*%
X119380000Y-73660000D03*
D18*
%TO.P,U11,2*%
%TO.N,GND*%
X121920000Y-73660000D03*
%TO.P,U11,3*%
%TO.N,Net-(J6-Pin_8)*%
X121920000Y-66040000D03*
%TO.P,U11,4*%
%TO.N,/Relays/Input pins/Out_HIGH*%
X119380000Y-66040000D03*
%TD*%
D17*
%TO.P,U6,1*%
%TO.N,Net-(R14-Pad1)*%
X181610000Y-73660000D03*
D18*
%TO.P,U6,2*%
%TO.N,GND*%
X184150000Y-73660000D03*
%TO.P,U6,3*%
%TO.N,Net-(J5-Pin_10)*%
X184150000Y-66040000D03*
%TO.P,U6,4*%
%TO.N,/Relays/Input pins/Out_HIGH*%
X181610000Y-66040000D03*
%TD*%
D17*
%TO.P,U20,1*%
%TO.N,Net-(R30-Pad1)*%
X146050000Y-73660000D03*
D18*
%TO.P,U20,2*%
%TO.N,GND*%
X148590000Y-73660000D03*
%TO.P,U20,3*%
%TO.N,Net-(J5-Pin_3)*%
X148590000Y-66040000D03*
%TO.P,U20,4*%
%TO.N,/Relays/Input pins/Out_LOW*%
X146050000Y-66040000D03*
%TD*%
D17*
%TO.P,U44,1*%
%TO.N,Net-(R56-Pad1)*%
X143510000Y-91440000D03*
D18*
%TO.P,U44,2*%
%TO.N,GND*%
X140970000Y-91440000D03*
%TO.P,U44,3*%
%TO.N,/Relays/Input pins/Bus_HIGH*%
X140970000Y-99060000D03*
%TO.P,U44,4*%
%TO.N,Net-(J8-Pin_9)*%
X143510000Y-99060000D03*
%TD*%
D16*
%TO.P,R52,1*%
%TO.N,Net-(R52-Pad1)*%
X153479000Y-89154000D03*
%TO.P,R52,2*%
%TO.N,/Microcontroller/CH14*%
X151829000Y-89154000D03*
%TD*%
%TO.P,R33,1*%
%TO.N,Net-(R33-Pad1)*%
X88709000Y-75946000D03*
%TO.P,R33,2*%
%TO.N,/Microcontroller/CH10*%
X87059000Y-75946000D03*
%TD*%
%TO.P,R39,1*%
%TO.N,Net-(R39-Pad1)*%
X131889000Y-89154000D03*
%TO.P,R39,2*%
%TO.N,/Microcontroller/CH16*%
X130239000Y-89154000D03*
%TD*%
D17*
%TO.P,U12,1*%
%TO.N,Net-(R22-Pad1)*%
X166370000Y-73660000D03*
D18*
%TO.P,U12,2*%
%TO.N,GND*%
X168910000Y-73660000D03*
%TO.P,U12,3*%
%TO.N,Net-(J5-Pin_7)*%
X168910000Y-66040000D03*
%TO.P,U12,4*%
%TO.N,/Relays/Input pins/Out_LOW*%
X166370000Y-66040000D03*
%TD*%
D17*
%TO.P,U4,1*%
%TO.N,Net-(R12-Pad1)*%
X187960000Y-73660000D03*
D18*
%TO.P,U4,2*%
%TO.N,GND*%
X190500000Y-73660000D03*
%TO.P,U4,3*%
%TO.N,/Relays/Input pins/Out_HIGH*%
X190500000Y-66040000D03*
%TO.P,U4,4*%
%TO.N,/Relays/Input pins/Bus_HIGH*%
X187960000Y-66040000D03*
%TD*%
D17*
%TO.P,U13,1*%
%TO.N,Net-(R23-Pad1)*%
X114300000Y-73660000D03*
D18*
%TO.P,U13,2*%
%TO.N,GND*%
X116840000Y-73660000D03*
%TO.P,U13,3*%
%TO.N,Net-(J6-Pin_7)*%
X116840000Y-66040000D03*
%TO.P,U13,4*%
%TO.N,/Relays/Input pins/Out_LOW*%
X114300000Y-66040000D03*
%TD*%
D17*
%TO.P,U8,1*%
%TO.N,Net-(R18-Pad1)*%
X176530000Y-73660000D03*
D18*
%TO.P,U8,2*%
%TO.N,GND*%
X179070000Y-73660000D03*
%TO.P,U8,3*%
%TO.N,Net-(J5-Pin_9)*%
X179070000Y-66040000D03*
%TO.P,U8,4*%
%TO.N,/Relays/Input pins/Out_LOW*%
X176530000Y-66040000D03*
%TD*%
D16*
%TO.P,R27,1*%
%TO.N,Net-(R27-Pad1)*%
X103949000Y-75946000D03*
%TO.P,R27,2*%
%TO.N,/Microcontroller/CH8*%
X102299000Y-75946000D03*
%TD*%
D23*
%TO.P,JP1,1,A*%
%TO.N,/DATA*%
X37400000Y-102060000D03*
%TO.P,JP1,2,C*%
%TO.N,/ID*%
X37400000Y-100760000D03*
%TO.P,JP1,3,B*%
%TO.N,+5V*%
X37400000Y-99460000D03*
%TD*%
D16*
%TO.P,R14,1*%
%TO.N,Net-(R14-Pad1)*%
X181419000Y-75946000D03*
%TO.P,R14,2*%
%TO.N,/Microcontroller/CH1*%
X179769000Y-75946000D03*
%TD*%
D17*
%TO.P,U7,1*%
%TO.N,Net-(R15-Pad1)*%
X129540000Y-73660000D03*
D18*
%TO.P,U7,2*%
%TO.N,GND*%
X132080000Y-73660000D03*
%TO.P,U7,3*%
%TO.N,Net-(J6-Pin_10)*%
X132080000Y-66040000D03*
%TO.P,U7,4*%
%TO.N,/Relays/Input pins/Out_HIGH*%
X129540000Y-66040000D03*
%TD*%
D24*
%TO.P,D1,1,K*%
%TO.N,GND*%
X44558000Y-112087500D03*
%TO.P,D1,2,A*%
%TO.N,Net-(D1-A)*%
X44558000Y-110512500D03*
%TD*%
D16*
%TO.P,R45,1*%
%TO.N,Net-(R45-Pad1)*%
X121729000Y-89154000D03*
%TO.P,R45,2*%
%TO.N,/Microcontroller/CH17*%
X120079000Y-89154000D03*
%TD*%
D17*
%TO.P,U18,1*%
%TO.N,Net-(R28-Pad1)*%
X151130000Y-73660000D03*
D18*
%TO.P,U18,2*%
%TO.N,GND*%
X153670000Y-73660000D03*
%TO.P,U18,3*%
%TO.N,Net-(J5-Pin_4)*%
X153670000Y-66040000D03*
%TO.P,U18,4*%
%TO.N,/Relays/Input pins/Out_HIGH*%
X151130000Y-66040000D03*
%TD*%
D25*
%TO.P,C6,1*%
%TO.N,Net-(U3-NRST)*%
X41450000Y-82460000D03*
%TO.P,C6,2*%
%TO.N,GND*%
X41450000Y-84010000D03*
%TD*%
D16*
%TO.P,R21,1*%
%TO.N,Net-(R21-Pad1)*%
X119189000Y-75946000D03*
%TO.P,R21,2*%
%TO.N,/Microcontroller/CH7*%
X117539000Y-75946000D03*
%TD*%
D17*
%TO.P,C1,1*%
%TO.N,+5V*%
X38400000Y-93760000D03*
D26*
%TO.P,C1,2*%
%TO.N,GND*%
X38400000Y-91260000D03*
%TD*%
D16*
%TO.P,R32,1*%
%TO.N,Net-(R32-Pad1)*%
X140779000Y-75946000D03*
%TO.P,R32,2*%
%TO.N,/Microcontroller/CH5*%
X139129000Y-75946000D03*
%TD*%
%TO.P,R34,1*%
%TO.N,Net-(R34-Pad1)*%
X135699000Y-75946000D03*
%TO.P,R34,2*%
%TO.N,/Microcontroller/CH5*%
X134049000Y-75946000D03*
%TD*%
%TO.P,R42,1*%
%TO.N,Net-(R42-Pad1)*%
X178879000Y-89154000D03*
%TO.P,R42,2*%
%TO.N,/Microcontroller/CH11*%
X177229000Y-89154000D03*
%TD*%
D17*
%TO.P,U24,1*%
%TO.N,Net-(R34-Pad1)*%
X135890000Y-73660000D03*
D18*
%TO.P,U24,2*%
%TO.N,GND*%
X138430000Y-73660000D03*
%TO.P,U24,3*%
%TO.N,Net-(J5-Pin_1)*%
X138430000Y-66040000D03*
%TO.P,U24,4*%
%TO.N,/Relays/Input pins/Out_LOW*%
X135890000Y-66040000D03*
%TD*%
D16*
%TO.P,R54,1*%
%TO.N,Net-(R54-Pad1)*%
X148399000Y-89154000D03*
%TO.P,R54,2*%
%TO.N,/Microcontroller/CH14*%
X146749000Y-89154000D03*
%TD*%
D12*
%TO.P,TP5,1,1*%
%TO.N,/CLK*%
X43150000Y-55880000D03*
%TD*%
D16*
%TO.P,R29,1*%
%TO.N,Net-(R29-Pad1)*%
X98869000Y-75946000D03*
%TO.P,R29,2*%
%TO.N,/Microcontroller/CH9*%
X97219000Y-75946000D03*
%TD*%
%TO.P,R20,1*%
%TO.N,Net-(R20-Pad1)*%
X171259000Y-75946000D03*
%TO.P,R20,2*%
%TO.N,/Microcontroller/CH2*%
X169609000Y-75946000D03*
%TD*%
D17*
%TO.P,U43,1*%
%TO.N,Net-(R55-Pad1)*%
X96520000Y-91440000D03*
D18*
%TO.P,U43,2*%
%TO.N,GND*%
X93980000Y-91440000D03*
%TO.P,U43,3*%
%TO.N,/Relays/Input pins/Bus_LOW*%
X93980000Y-99060000D03*
%TO.P,U43,4*%
%TO.N,Net-(J9-Pin_8)*%
X96520000Y-99060000D03*
%TD*%
D16*
%TO.P,R46,1*%
%TO.N,Net-(R46-Pad1)*%
X168719000Y-89154000D03*
%TO.P,R46,2*%
%TO.N,/Microcontroller/CH12*%
X167069000Y-89154000D03*
%TD*%
%TO.P,R19,1*%
%TO.N,Net-(R19-Pad1)*%
X124269000Y-75946000D03*
%TO.P,R19,2*%
%TO.N,/Microcontroller/CH6*%
X122619000Y-75946000D03*
%TD*%
D27*
%TO.P,U3,1,PB9*%
%TO.N,/Microcontroller/DATA*%
X44725000Y-77160000D03*
%TO.P,U3,2,PC14*%
%TO.N,/Microcontroller/CLK*%
X44725000Y-77960000D03*
%TO.P,U3,3,PC15*%
%TO.N,/Microcontroller/STROBE*%
X44725000Y-78760000D03*
%TO.P,U3,4,VDD/VDDA*%
%TO.N,+3.3V*%
X44725000Y-79560000D03*
%TO.P,U3,5,VSS/VSSA*%
%TO.N,GND*%
X44725000Y-80360000D03*
%TO.P,U3,6,NRST*%
%TO.N,Net-(U3-NRST)*%
X44725000Y-81160000D03*
%TO.P,U3,7,PA0*%
%TO.N,/Microcontroller/TX*%
X44725000Y-81960000D03*
%TO.P,U3,8,PA1*%
%TO.N,/Microcontroller/LED*%
X44725000Y-82760000D03*
D28*
%TO.P,U3,9,PA2*%
%TO.N,/Microcontroller/CH20*%
X46100000Y-84135000D03*
%TO.P,U3,10,PA3*%
%TO.N,/Microcontroller/CH19*%
X46900000Y-84135000D03*
%TO.P,U3,11,PA4*%
%TO.N,/Microcontroller/CH18*%
X47700000Y-84135000D03*
%TO.P,U3,12,PA5*%
%TO.N,/Microcontroller/CH17*%
X48500000Y-84135000D03*
%TO.P,U3,13,PA6*%
%TO.N,/Microcontroller/CH16*%
X49300000Y-84135000D03*
%TO.P,U3,14,PA7*%
%TO.N,/Microcontroller/CH15*%
X50100000Y-84135000D03*
%TO.P,U3,15,PB0*%
%TO.N,/Microcontroller/CH14*%
X50900000Y-84135000D03*
%TO.P,U3,16,PB1*%
%TO.N,/Microcontroller/CH13*%
X51700000Y-84135000D03*
D27*
%TO.P,U3,17,PB2*%
%TO.N,/Microcontroller/CH12*%
X53075000Y-82760000D03*
%TO.P,U3,18,PA8*%
%TO.N,/Microcontroller/CH11*%
X53075000Y-81960000D03*
%TO.P,U3,19,PA9*%
%TO.N,/Microcontroller/Bus2_sense_enable*%
X53075000Y-81160000D03*
%TO.P,U3,20,PC6*%
%TO.N,/Microcontroller/Bus2_input_enable*%
X53075000Y-80360000D03*
%TO.P,U3,21,PA10*%
%TO.N,/Microcontroller/CH1*%
X53075000Y-79560000D03*
%TO.P,U3,22,PA11*%
%TO.N,/Microcontroller/CH2*%
X53075000Y-78760000D03*
%TO.P,U3,23,PA12*%
%TO.N,/Microcontroller/CH3*%
X53075000Y-77960000D03*
%TO.P,U3,24,PA13*%
%TO.N,/Microcontroller/SWDIO*%
X53075000Y-77160000D03*
D28*
%TO.P,U3,25,PA14*%
%TO.N,/Microcontroller/SWCLK*%
X51700000Y-75785000D03*
%TO.P,U3,26,PA15*%
%TO.N,/Microcontroller/CH4*%
X50900000Y-75785000D03*
%TO.P,U3,27,PB3*%
%TO.N,/Microcontroller/CH5*%
X50100000Y-75785000D03*
%TO.P,U3,28,PB4*%
%TO.N,/Microcontroller/CH6*%
X49300000Y-75785000D03*
%TO.P,U3,29,PB5*%
%TO.N,/Microcontroller/CH7*%
X48500000Y-75785000D03*
%TO.P,U3,30,PB6*%
%TO.N,/Microcontroller/CH8*%
X47700000Y-75785000D03*
%TO.P,U3,31,PB7*%
%TO.N,/Microcontroller/CH9*%
X46900000Y-75785000D03*
%TO.P,U3,32,PB8*%
%TO.N,/Microcontroller/CH10*%
X46100000Y-75785000D03*
%TD*%
D19*
%TO.P,R3,1*%
%TO.N,/CLK*%
X37338000Y-71565000D03*
%TO.P,R3,2*%
%TO.N,GND*%
X37338000Y-73215000D03*
%TD*%
D16*
%TO.P,R44,1*%
%TO.N,Net-(R44-Pad1)*%
X173799000Y-89154000D03*
%TO.P,R44,2*%
%TO.N,/Microcontroller/CH12*%
X172149000Y-89154000D03*
%TD*%
D17*
%TO.P,U25,1*%
%TO.N,Net-(R35-Pad1)*%
X83820000Y-73660000D03*
D18*
%TO.P,U25,2*%
%TO.N,GND*%
X86360000Y-73660000D03*
%TO.P,U25,3*%
%TO.N,Net-(J6-Pin_1)*%
X86360000Y-66040000D03*
%TO.P,U25,4*%
%TO.N,/Relays/Input pins/Out_LOW*%
X83820000Y-66040000D03*
%TD*%
D16*
%TO.P,R37,1*%
%TO.N,Net-(R37-Pad1)*%
X195389000Y-89154000D03*
%TO.P,R37,2*%
%TO.N,/Microcontroller/Bus2_sense_enable*%
X193739000Y-89154000D03*
%TD*%
D17*
%TO.P,U17,1*%
%TO.N,Net-(R27-Pad1)*%
X104140000Y-73660000D03*
D18*
%TO.P,U17,2*%
%TO.N,GND*%
X106680000Y-73660000D03*
%TO.P,U17,3*%
%TO.N,Net-(J6-Pin_5)*%
X106680000Y-66040000D03*
%TO.P,U17,4*%
%TO.N,/Relays/Input pins/Out_LOW*%
X104140000Y-66040000D03*
%TD*%
D17*
%TO.P,U10,1*%
%TO.N,Net-(R20-Pad1)*%
X171450000Y-73660000D03*
D18*
%TO.P,U10,2*%
%TO.N,GND*%
X173990000Y-73660000D03*
%TO.P,U10,3*%
%TO.N,Net-(J5-Pin_8)*%
X173990000Y-66040000D03*
%TO.P,U10,4*%
%TO.N,/Relays/Input pins/Out_HIGH*%
X171450000Y-66040000D03*
%TD*%
D16*
%TO.P,R25,1*%
%TO.N,Net-(R25-Pad1)*%
X109029000Y-75946000D03*
%TO.P,R25,2*%
%TO.N,/Microcontroller/CH8*%
X107379000Y-75946000D03*
%TD*%
D21*
%TO.P,J3,1,Pin_1*%
%TO.N,Net-(J3-Pin_1)*%
X45250000Y-88310000D03*
D22*
%TO.P,J3,2,Pin_2*%
%TO.N,GND*%
X45250000Y-90850000D03*
%TD*%
D16*
%TO.P,R9,1*%
%TO.N,/Microcontroller/SWDIO*%
X42227000Y-64960000D03*
%TO.P,R9,2*%
%TO.N,GND*%
X40577000Y-64960000D03*
%TD*%
D17*
%TO.P,U38,1*%
%TO.N,Net-(R50-Pad1)*%
X158750000Y-91440000D03*
D18*
%TO.P,U38,2*%
%TO.N,GND*%
X156210000Y-91440000D03*
%TO.P,U38,3*%
%TO.N,/Relays/Input pins/Bus_LOW*%
X156210000Y-99060000D03*
%TO.P,U38,4*%
%TO.N,Net-(J8-Pin_6)*%
X158750000Y-99060000D03*
%TD*%
D16*
%TO.P,R57,1*%
%TO.N,Net-(R57-Pad1)*%
X91249000Y-89154000D03*
%TO.P,R57,2*%
%TO.N,/Microcontroller/CH20*%
X89599000Y-89154000D03*
%TD*%
D17*
%TO.P,U15,1*%
%TO.N,Net-(R25-Pad1)*%
X109220000Y-73660000D03*
D18*
%TO.P,U15,2*%
%TO.N,GND*%
X111760000Y-73660000D03*
%TO.P,U15,3*%
%TO.N,Net-(J6-Pin_6)*%
X111760000Y-66040000D03*
%TO.P,U15,4*%
%TO.N,/Relays/Input pins/Out_HIGH*%
X109220000Y-66040000D03*
%TD*%
D29*
%TO.P,C5,1*%
%TO.N,+3.3V*%
X42650000Y-95410000D03*
%TO.P,C5,2*%
%TO.N,GND*%
X44550000Y-95410000D03*
%TD*%
D17*
%TO.P,U5,1*%
%TO.N,Net-(R13-Pad1)*%
X193040000Y-73660000D03*
D18*
%TO.P,U5,2*%
%TO.N,GND*%
X195580000Y-73660000D03*
%TO.P,U5,3*%
%TO.N,/Relays/Input pins/Out_LOW*%
X195580000Y-66040000D03*
%TO.P,U5,4*%
%TO.N,/Relays/Input pins/Bus_LOW*%
X193040000Y-66040000D03*
%TD*%
D19*
%TO.P,R2,1*%
%TO.N,/STROBE*%
X37338000Y-76645000D03*
%TO.P,R2,2*%
%TO.N,GND*%
X37338000Y-78295000D03*
%TD*%
D17*
%TO.P,U37,1*%
%TO.N,Net-(R49-Pad1)*%
X111760000Y-91440000D03*
D18*
%TO.P,U37,2*%
%TO.N,GND*%
X109220000Y-91440000D03*
%TO.P,U37,3*%
%TO.N,/Relays/Input pins/Bus_HIGH*%
X109220000Y-99060000D03*
%TO.P,U37,4*%
%TO.N,Net-(J9-Pin_5)*%
X111760000Y-99060000D03*
%TD*%
D19*
%TO.P,R8,1*%
%TO.N,+3.3V*%
X44558000Y-106919000D03*
%TO.P,R8,2*%
%TO.N,Net-(D1-A)*%
X44558000Y-108569000D03*
%TD*%
D16*
%TO.P,R23,1*%
%TO.N,Net-(R23-Pad1)*%
X114109000Y-75946000D03*
%TO.P,R23,2*%
%TO.N,/Microcontroller/CH7*%
X112459000Y-75946000D03*
%TD*%
%TO.P,R53,1*%
%TO.N,Net-(R53-Pad1)*%
X101409000Y-89154000D03*
%TO.P,R53,2*%
%TO.N,/Microcontroller/CH19*%
X99759000Y-89154000D03*
%TD*%
%TO.P,R13,1*%
%TO.N,Net-(R13-Pad1)*%
X192849000Y-75946000D03*
%TO.P,R13,2*%
%TO.N,/Microcontroller/Bus2_input_enable*%
X191199000Y-75946000D03*
%TD*%
%TO.P,R28,1*%
%TO.N,Net-(R28-Pad1)*%
X150939000Y-75946000D03*
%TO.P,R28,2*%
%TO.N,/Microcontroller/CH4*%
X149289000Y-75946000D03*
%TD*%
%TO.P,R5,1*%
%TO.N,/Microcontroller/DATA*%
X42227000Y-66548000D03*
%TO.P,R5,2*%
%TO.N,/DATA*%
X40577000Y-66548000D03*
%TD*%
D17*
%TO.P,U22,1*%
%TO.N,Net-(R32-Pad1)*%
X140970000Y-73660000D03*
D18*
%TO.P,U22,2*%
%TO.N,GND*%
X143510000Y-73660000D03*
%TO.P,U22,3*%
%TO.N,Net-(J5-Pin_2)*%
X143510000Y-66040000D03*
%TO.P,U22,4*%
%TO.N,/Relays/Input pins/Out_HIGH*%
X140970000Y-66040000D03*
%TD*%
D16*
%TO.P,R18,1*%
%TO.N,Net-(R18-Pad1)*%
X176339000Y-75946000D03*
%TO.P,R18,2*%
%TO.N,/Microcontroller/CH1*%
X174689000Y-75946000D03*
%TD*%
D17*
%TO.P,U33,1*%
%TO.N,Net-(R45-Pad1)*%
X121920000Y-91440000D03*
D18*
%TO.P,U33,2*%
%TO.N,GND*%
X119380000Y-91440000D03*
%TO.P,U33,3*%
%TO.N,/Relays/Input pins/Bus_HIGH*%
X119380000Y-99060000D03*
%TO.P,U33,4*%
%TO.N,Net-(J9-Pin_3)*%
X121920000Y-99060000D03*
%TD*%
D16*
%TO.P,R48,1*%
%TO.N,Net-(R48-Pad1)*%
X163639000Y-89154000D03*
%TO.P,R48,2*%
%TO.N,/Microcontroller/CH13*%
X161989000Y-89154000D03*
%TD*%
D30*
%TO.P,J1,a1,Pin_a1*%
%TO.N,GND*%
X30700000Y-101605080D03*
D31*
%TO.P,J1,a2,Pin_a2*%
X30700000Y-99065080D03*
%TO.P,J1,a3,Pin_a3*%
X30700000Y-96525080D03*
%TO.P,J1,a4,Pin_a4*%
X30700000Y-93985080D03*
%TO.P,J1,a5,Pin_a5*%
%TO.N,+5V*%
X30700000Y-91445080D03*
%TO.P,J1,a6,Pin_a6*%
X30700000Y-88905080D03*
%TO.P,J1,a7,Pin_a7*%
X30700000Y-86365080D03*
%TO.P,J1,a8,Pin_a8*%
X30700000Y-83825080D03*
%TO.P,J1,a9,Pin_a9*%
%TO.N,/~{NRST}*%
X30700000Y-81285080D03*
%TO.P,J1,a10,Pin_a10*%
%TO.N,GND*%
X30700000Y-78745080D03*
%TO.P,J1,a11,Pin_a11*%
%TO.N,/STROBE*%
X30700000Y-76205080D03*
%TO.P,J1,a12,Pin_a12*%
%TO.N,GND*%
X30700000Y-73665080D03*
%TO.P,J1,a13,Pin_a13*%
%TO.N,/CLK*%
X30700000Y-71125080D03*
%TO.P,J1,a14,Pin_a14*%
%TO.N,GND*%
X30700000Y-68585080D03*
%TO.P,J1,a15,Pin_a15*%
%TO.N,/DATA*%
X30700000Y-66045080D03*
%TO.P,J1,a16,Pin_a16*%
%TO.N,GND*%
X30700000Y-63505080D03*
%TO.P,J1,b1,Pin_b1*%
X33240000Y-101605080D03*
%TO.P,J1,b2,Pin_b2*%
X33240000Y-99065080D03*
%TO.P,J1,b3,Pin_b3*%
X33240000Y-96525080D03*
%TO.P,J1,b4,Pin_b4*%
%TO.N,/ID*%
X33240000Y-93985080D03*
%TO.P,J1,b5,Pin_b5*%
%TO.N,+5V*%
X33240000Y-91445080D03*
%TO.P,J1,b6,Pin_b6*%
X33240000Y-88905080D03*
%TO.P,J1,b7,Pin_b7*%
X33240000Y-86365080D03*
%TO.P,J1,b8,Pin_b8*%
X33240000Y-83825080D03*
%TO.P,J1,b9,Pin_b9*%
%TO.N,/~{NRST}*%
X33240000Y-81285080D03*
%TO.P,J1,b10,Pin_b10*%
%TO.N,GND*%
X33240000Y-78745080D03*
%TO.P,J1,b11,Pin_b11*%
%TO.N,/STROBE*%
X33240000Y-76205080D03*
%TO.P,J1,b12,Pin_b12*%
%TO.N,GND*%
X33240000Y-73665080D03*
%TO.P,J1,b13,Pin_b13*%
%TO.N,/CLK*%
X33240000Y-71125080D03*
%TO.P,J1,b14,Pin_b14*%
%TO.N,GND*%
X33240000Y-68585080D03*
%TO.P,J1,b15,Pin_b15*%
%TO.N,/DATA*%
X33240000Y-66045080D03*
%TO.P,J1,b16,Pin_b16*%
%TO.N,GND*%
X33240000Y-63505080D03*
%TD*%
D17*
%TO.P,U23,1*%
%TO.N,Net-(R33-Pad1)*%
X88900000Y-73660000D03*
D18*
%TO.P,U23,2*%
%TO.N,GND*%
X91440000Y-73660000D03*
%TO.P,U23,3*%
%TO.N,Net-(J6-Pin_2)*%
X91440000Y-66040000D03*
%TO.P,U23,4*%
%TO.N,/Relays/Input pins/Out_HIGH*%
X88900000Y-66040000D03*
%TD*%
D17*
%TO.P,U39,1*%
%TO.N,Net-(R51-Pad1)*%
X106680000Y-91440000D03*
D18*
%TO.P,U39,2*%
%TO.N,GND*%
X104140000Y-91440000D03*
%TO.P,U39,3*%
%TO.N,/Relays/Input pins/Bus_LOW*%
X104140000Y-99060000D03*
%TO.P,U39,4*%
%TO.N,Net-(J9-Pin_6)*%
X106680000Y-99060000D03*
%TD*%
D16*
%TO.P,R59,1*%
%TO.N,Net-(R59-Pad1)*%
X86169000Y-89154000D03*
%TO.P,R59,2*%
%TO.N,/Microcontroller/CH20*%
X84519000Y-89154000D03*
%TD*%
D17*
%TO.P,U47,1*%
%TO.N,Net-(R59-Pad1)*%
X86360000Y-91440000D03*
D18*
%TO.P,U47,2*%
%TO.N,GND*%
X83820000Y-91440000D03*
%TO.P,U47,3*%
%TO.N,/Relays/Input pins/Bus_LOW*%
X83820000Y-99060000D03*
%TO.P,U47,4*%
%TO.N,Net-(J9-Pin_10)*%
X86360000Y-99060000D03*
%TD*%
D29*
%TO.P,C2,1*%
%TO.N,+5V*%
X42650000Y-102310000D03*
%TO.P,C2,2*%
%TO.N,GND*%
X44550000Y-102310000D03*
%TD*%
D17*
%TO.P,U46,1*%
%TO.N,Net-(R58-Pad1)*%
X138430000Y-91440000D03*
D18*
%TO.P,U46,2*%
%TO.N,GND*%
X135890000Y-91440000D03*
%TO.P,U46,3*%
%TO.N,/Relays/Input pins/Bus_LOW*%
X135890000Y-99060000D03*
%TO.P,U46,4*%
%TO.N,Net-(J8-Pin_10)*%
X138430000Y-99060000D03*
%TD*%
D12*
%TO.P,TP1,1,1*%
%TO.N,+5V*%
X36819000Y-87169000D03*
%TD*%
D25*
%TO.P,C8,1*%
%TO.N,+3.3V*%
X42544000Y-79435000D03*
%TO.P,C8,2*%
%TO.N,GND*%
X42544000Y-80985000D03*
%TD*%
D13*
%TO.P,J7,1,Pin_1*%
%TO.N,/Relays/Input/Sense pins/Sense_LOW*%
X195580000Y-107696000D03*
D14*
%TO.P,J7,2,Pin_2*%
%TO.N,/Relays/Input/Sense pins/Sense_HIGH*%
X190500000Y-107696000D03*
%TD*%
D13*
%TO.P,J9,1,Pin_1*%
%TO.N,Net-(J9-Pin_1)*%
X132080000Y-107696000D03*
D14*
%TO.P,J9,2,Pin_2*%
%TO.N,Net-(J9-Pin_2)*%
X127000000Y-107696000D03*
%TO.P,J9,3,Pin_3*%
%TO.N,Net-(J9-Pin_3)*%
X121920000Y-107696000D03*
%TO.P,J9,4,Pin_4*%
%TO.N,Net-(J9-Pin_4)*%
X116840000Y-107696000D03*
%TO.P,J9,5,Pin_5*%
%TO.N,Net-(J9-Pin_5)*%
X111760000Y-107696000D03*
%TO.P,J9,6,Pin_6*%
%TO.N,Net-(J9-Pin_6)*%
X106680000Y-107696000D03*
%TO.P,J9,7,Pin_7*%
%TO.N,Net-(J9-Pin_7)*%
X101600000Y-107696000D03*
%TO.P,J9,8,Pin_8*%
%TO.N,Net-(J9-Pin_8)*%
X96520000Y-107696000D03*
%TO.P,J9,9,Pin_9*%
%TO.N,Net-(J9-Pin_9)*%
X91440000Y-107696000D03*
%TO.P,J9,10,Pin_10*%
%TO.N,Net-(J9-Pin_10)*%
X86360000Y-107696000D03*
%TD*%
D32*
%TO.P,C7,1*%
%TO.N,+3.3V*%
X40335200Y-80850000D03*
%TO.P,C7,2*%
%TO.N,GND*%
X40335200Y-77900000D03*
%TD*%
D12*
%TO.P,TP3,1,1*%
%TO.N,GND*%
X33900000Y-112260000D03*
%TD*%
D17*
%TO.P,U16,1*%
%TO.N,Net-(R26-Pad1)*%
X156210000Y-73660000D03*
D18*
%TO.P,U16,2*%
%TO.N,GND*%
X158750000Y-73660000D03*
%TO.P,U16,3*%
%TO.N,Net-(J5-Pin_5)*%
X158750000Y-66040000D03*
%TO.P,U16,4*%
%TO.N,/Relays/Input pins/Out_LOW*%
X156210000Y-66040000D03*
%TD*%
D17*
%TO.P,U35,1*%
%TO.N,Net-(R47-Pad1)*%
X116840000Y-91440000D03*
D18*
%TO.P,U35,2*%
%TO.N,GND*%
X114300000Y-91440000D03*
%TO.P,U35,3*%
%TO.N,/Relays/Input pins/Bus_LOW*%
X114300000Y-99060000D03*
%TO.P,U35,4*%
%TO.N,Net-(J9-Pin_4)*%
X116840000Y-99060000D03*
%TD*%
D17*
%TO.P,U9,1*%
%TO.N,Net-(R19-Pad1)*%
X124460000Y-73660000D03*
D18*
%TO.P,U9,2*%
%TO.N,GND*%
X127000000Y-73660000D03*
%TO.P,U9,3*%
%TO.N,Net-(J6-Pin_9)*%
X127000000Y-66040000D03*
%TO.P,U9,4*%
%TO.N,/Relays/Input pins/Out_LOW*%
X124460000Y-66040000D03*
%TD*%
D16*
%TO.P,R58,1*%
%TO.N,Net-(R58-Pad1)*%
X138239000Y-89154000D03*
%TO.P,R58,2*%
%TO.N,/Microcontroller/CH15*%
X136589000Y-89154000D03*
%TD*%
D24*
%TO.P,D2,1,K*%
%TO.N,GND*%
X48114000Y-112087500D03*
%TO.P,D2,2,A*%
%TO.N,Net-(D2-A)*%
X48114000Y-110512500D03*
%TD*%
D16*
%TO.P,R6,1*%
%TO.N,/Microcontroller/CLK*%
X42227000Y-68072000D03*
%TO.P,R6,2*%
%TO.N,/CLK*%
X40577000Y-68072000D03*
%TD*%
%TO.P,R56,1*%
%TO.N,Net-(R56-Pad1)*%
X143319000Y-89154000D03*
%TO.P,R56,2*%
%TO.N,/Microcontroller/CH15*%
X141669000Y-89154000D03*
%TD*%
%TO.P,R55,1*%
%TO.N,Net-(R55-Pad1)*%
X96329000Y-89154000D03*
%TO.P,R55,2*%
%TO.N,/Microcontroller/CH19*%
X94679000Y-89154000D03*
%TD*%
D17*
%TO.P,U21,1*%
%TO.N,Net-(R31-Pad1)*%
X93980000Y-73660000D03*
D18*
%TO.P,U21,2*%
%TO.N,GND*%
X96520000Y-73660000D03*
%TO.P,U21,3*%
%TO.N,Net-(J6-Pin_3)*%
X96520000Y-66040000D03*
%TO.P,U21,4*%
%TO.N,/Relays/Input pins/Out_LOW*%
X93980000Y-66040000D03*
%TD*%
D16*
%TO.P,R51,1*%
%TO.N,Net-(R51-Pad1)*%
X106489000Y-89154000D03*
%TO.P,R51,2*%
%TO.N,/Microcontroller/CH18*%
X104839000Y-89154000D03*
%TD*%
%TO.P,R31,1*%
%TO.N,Net-(R31-Pad1)*%
X93789000Y-75946000D03*
%TO.P,R31,2*%
%TO.N,/Microcontroller/CH9*%
X92139000Y-75946000D03*
%TD*%
D17*
%TO.P,U28,1*%
%TO.N,Net-(R38-Pad1)*%
X184150000Y-91440000D03*
D18*
%TO.P,U28,2*%
%TO.N,GND*%
X181610000Y-91440000D03*
%TO.P,U28,3*%
%TO.N,/Relays/Input pins/Bus_HIGH*%
X181610000Y-99060000D03*
%TO.P,U28,4*%
%TO.N,Net-(J8-Pin_1)*%
X184150000Y-99060000D03*
%TD*%
D17*
%TO.P,U29,1*%
%TO.N,Net-(R39-Pad1)*%
X132080000Y-91440000D03*
D18*
%TO.P,U29,2*%
%TO.N,GND*%
X129540000Y-91440000D03*
%TO.P,U29,3*%
%TO.N,/Relays/Input pins/Bus_HIGH*%
X129540000Y-99060000D03*
%TO.P,U29,4*%
%TO.N,Net-(J9-Pin_1)*%
X132080000Y-99060000D03*
%TD*%
D16*
%TO.P,R49,1*%
%TO.N,Net-(R49-Pad1)*%
X111569000Y-89154000D03*
%TO.P,R49,2*%
%TO.N,/Microcontroller/CH18*%
X109919000Y-89154000D03*
%TD*%
D17*
%TO.P,U40,1*%
%TO.N,Net-(R52-Pad1)*%
X153670000Y-91440000D03*
D18*
%TO.P,U40,2*%
%TO.N,GND*%
X151130000Y-91440000D03*
%TO.P,U40,3*%
%TO.N,/Relays/Input pins/Bus_HIGH*%
X151130000Y-99060000D03*
%TO.P,U40,4*%
%TO.N,Net-(J8-Pin_7)*%
X153670000Y-99060000D03*
%TD*%
D16*
%TO.P,R43,1*%
%TO.N,Net-(R43-Pad1)*%
X126809000Y-89154000D03*
%TO.P,R43,2*%
%TO.N,/Microcontroller/CH16*%
X125159000Y-89154000D03*
%TD*%
D33*
%TO.P,U1,1,IN*%
%TO.N,+5V*%
X42650000Y-99977500D03*
%TO.P,U1,2,GND*%
%TO.N,GND*%
X43600000Y-99977500D03*
%TO.P,U1,3,EN*%
%TO.N,+5V*%
X44550000Y-99977500D03*
%TO.P,U1,4,NR*%
%TO.N,Net-(U1-NR)*%
X44550000Y-97702500D03*
%TO.P,U1,5,OUT*%
%TO.N,+3.3V*%
X42650000Y-97702500D03*
%TD*%
D17*
%TO.P,U45,1*%
%TO.N,Net-(R57-Pad1)*%
X91440000Y-91440000D03*
D18*
%TO.P,U45,2*%
%TO.N,GND*%
X88900000Y-91440000D03*
%TO.P,U45,3*%
%TO.N,/Relays/Input pins/Bus_HIGH*%
X88900000Y-99060000D03*
%TO.P,U45,4*%
%TO.N,Net-(J9-Pin_9)*%
X91440000Y-99060000D03*
%TD*%
D16*
%TO.P,R47,1*%
%TO.N,Net-(R47-Pad1)*%
X116649000Y-89154000D03*
%TO.P,R47,2*%
%TO.N,/Microcontroller/CH17*%
X114999000Y-89154000D03*
%TD*%
D17*
%TO.P,U14,1*%
%TO.N,Net-(R24-Pad1)*%
X161290000Y-73660000D03*
D18*
%TO.P,U14,2*%
%TO.N,GND*%
X163830000Y-73660000D03*
%TO.P,U14,3*%
%TO.N,Net-(J5-Pin_6)*%
X163830000Y-66040000D03*
%TO.P,U14,4*%
%TO.N,/Relays/Input pins/Out_HIGH*%
X161290000Y-66040000D03*
%TD*%
D17*
%TO.P,U26,1*%
%TO.N,Net-(R36-Pad1)*%
X190500000Y-91440000D03*
D18*
%TO.P,U26,2*%
%TO.N,GND*%
X187960000Y-91440000D03*
%TO.P,U26,3*%
%TO.N,/Relays/Input pins/Bus_HIGH*%
X187960000Y-99060000D03*
%TO.P,U26,4*%
%TO.N,/Relays/Input/Sense pins/Sense_HIGH*%
X190500000Y-99060000D03*
%TD*%
D16*
%TO.P,R26,1*%
%TO.N,Net-(R26-Pad1)*%
X156019000Y-75946000D03*
%TO.P,R26,2*%
%TO.N,/Microcontroller/CH3*%
X154369000Y-75946000D03*
%TD*%
D17*
%TO.P,U32,1*%
%TO.N,Net-(R44-Pad1)*%
X173990000Y-91440000D03*
D18*
%TO.P,U32,2*%
%TO.N,GND*%
X171450000Y-91440000D03*
%TO.P,U32,3*%
%TO.N,/Relays/Input pins/Bus_HIGH*%
X171450000Y-99060000D03*
%TO.P,U32,4*%
%TO.N,Net-(J8-Pin_3)*%
X173990000Y-99060000D03*
%TD*%
D16*
%TO.P,R36,1*%
%TO.N,Net-(R36-Pad1)*%
X190309000Y-89154000D03*
%TO.P,R36,2*%
%TO.N,/Microcontroller/Bus2_sense_enable*%
X188659000Y-89154000D03*
%TD*%
D17*
%TO.P,U30,1*%
%TO.N,Net-(R42-Pad1)*%
X179070000Y-91440000D03*
D18*
%TO.P,U30,2*%
%TO.N,GND*%
X176530000Y-91440000D03*
%TO.P,U30,3*%
%TO.N,/Relays/Input pins/Bus_LOW*%
X176530000Y-99060000D03*
%TO.P,U30,4*%
%TO.N,Net-(J8-Pin_2)*%
X179070000Y-99060000D03*
%TD*%
D16*
%TO.P,R50,1*%
%TO.N,Net-(R50-Pad1)*%
X158559000Y-89154000D03*
%TO.P,R50,2*%
%TO.N,/Microcontroller/CH13*%
X156909000Y-89154000D03*
%TD*%
%TO.P,R12,1*%
%TO.N,Net-(R12-Pad1)*%
X187769000Y-75946000D03*
%TO.P,R12,2*%
%TO.N,/Microcontroller/Bus2_input_enable*%
X186119000Y-75946000D03*
%TD*%
D19*
%TO.P,R10,1*%
%TO.N,/Microcontroller/LED*%
X48114000Y-106919000D03*
%TO.P,R10,2*%
%TO.N,Net-(D2-A)*%
X48114000Y-108569000D03*
%TD*%
D16*
%TO.P,R24,1*%
%TO.N,Net-(R24-Pad1)*%
X161099000Y-75946000D03*
%TO.P,R24,2*%
%TO.N,/Microcontroller/CH3*%
X159449000Y-75946000D03*
%TD*%
%TO.P,R7,1*%
%TO.N,/Microcontroller/STROBE*%
X42227000Y-69596000D03*
%TO.P,R7,2*%
%TO.N,/STROBE*%
X40577000Y-69596000D03*
%TD*%
%TO.P,R22,1*%
%TO.N,Net-(R22-Pad1)*%
X166179000Y-75946000D03*
%TO.P,R22,2*%
%TO.N,/Microcontroller/CH2*%
X164529000Y-75946000D03*
%TD*%
D13*
%TO.P,J8,1,Pin_1*%
%TO.N,Net-(J8-Pin_1)*%
X184150000Y-107696000D03*
D14*
%TO.P,J8,2,Pin_2*%
%TO.N,Net-(J8-Pin_2)*%
X179070000Y-107696000D03*
%TO.P,J8,3,Pin_3*%
%TO.N,Net-(J8-Pin_3)*%
X173990000Y-107696000D03*
%TO.P,J8,4,Pin_4*%
%TO.N,Net-(J8-Pin_4)*%
X168910000Y-107696000D03*
%TO.P,J8,5,Pin_5*%
%TO.N,Net-(J8-Pin_5)*%
X163830000Y-107696000D03*
%TO.P,J8,6,Pin_6*%
%TO.N,Net-(J8-Pin_6)*%
X158750000Y-107696000D03*
%TO.P,J8,7,Pin_7*%
%TO.N,Net-(J8-Pin_7)*%
X153670000Y-107696000D03*
%TO.P,J8,8,Pin_8*%
%TO.N,Net-(J8-Pin_8)*%
X148590000Y-107696000D03*
%TO.P,J8,9,Pin_9*%
%TO.N,Net-(J8-Pin_9)*%
X143510000Y-107696000D03*
%TO.P,J8,10,Pin_10*%
%TO.N,Net-(J8-Pin_10)*%
X138430000Y-107696000D03*
%TD*%
D12*
%TO.P,TP4,1,1*%
%TO.N,/DATA*%
X38100000Y-55880000D03*
%TD*%
D17*
%TO.P,U27,1*%
%TO.N,Net-(R37-Pad1)*%
X195580000Y-91440000D03*
D18*
%TO.P,U27,2*%
%TO.N,GND*%
X193040000Y-91440000D03*
%TO.P,U27,3*%
%TO.N,/Relays/Input pins/Bus_LOW*%
X193040000Y-99060000D03*
%TO.P,U27,4*%
%TO.N,/Relays/Input/Sense pins/Sense_LOW*%
X195580000Y-99060000D03*
%TD*%
D13*
%TO.P,J6,1,Pin_1*%
%TO.N,Net-(J6-Pin_1)*%
X86360000Y-57404000D03*
D14*
%TO.P,J6,2,Pin_2*%
%TO.N,Net-(J6-Pin_2)*%
X91440000Y-57404000D03*
%TO.P,J6,3,Pin_3*%
%TO.N,Net-(J6-Pin_3)*%
X96520000Y-57404000D03*
%TO.P,J6,4,Pin_4*%
%TO.N,Net-(J6-Pin_4)*%
X101600000Y-57404000D03*
%TO.P,J6,5,Pin_5*%
%TO.N,Net-(J6-Pin_5)*%
X106680000Y-57404000D03*
%TO.P,J6,6,Pin_6*%
%TO.N,Net-(J6-Pin_6)*%
X111760000Y-57404000D03*
%TO.P,J6,7,Pin_7*%
%TO.N,Net-(J6-Pin_7)*%
X116840000Y-57404000D03*
%TO.P,J6,8,Pin_8*%
%TO.N,Net-(J6-Pin_8)*%
X121920000Y-57404000D03*
%TO.P,J6,9,Pin_9*%
%TO.N,Net-(J6-Pin_9)*%
X127000000Y-57404000D03*
%TO.P,J6,10,Pin_10*%
%TO.N,Net-(J6-Pin_10)*%
X132080000Y-57404000D03*
%TD*%
D34*
%TO.P,J10,1,Pin_1*%
%TO.N,/Microcontroller/CH10*%
X56400000Y-67280000D03*
D35*
%TO.P,J10,2,Pin_2*%
%TO.N,/Microcontroller/CH9*%
X58940000Y-67280000D03*
%TO.P,J10,3,Pin_3*%
%TO.N,/Microcontroller/CH8*%
X56400000Y-69820000D03*
%TO.P,J10,4,Pin_4*%
%TO.N,/Microcontroller/CH7*%
X58940000Y-69820000D03*
%TO.P,J10,5,Pin_5*%
%TO.N,/Microcontroller/CH6*%
X56400000Y-72360000D03*
%TO.P,J10,6,Pin_6*%
%TO.N,/Microcontroller/CH5*%
X58940000Y-72360000D03*
%TO.P,J10,7,Pin_7*%
%TO.N,/Microcontroller/CH4*%
X56400000Y-74900000D03*
%TO.P,J10,8,Pin_8*%
%TO.N,/Microcontroller/CH3*%
X58940000Y-74900000D03*
%TO.P,J10,9,Pin_9*%
%TO.N,/Microcontroller/CH2*%
X56400000Y-77440000D03*
%TO.P,J10,10,Pin_10*%
%TO.N,/Microcontroller/CH1*%
X58940000Y-77440000D03*
%TO.P,J10,11,Pin_11*%
%TO.N,/Microcontroller/Bus2_input_enable*%
X56400000Y-79980000D03*
%TO.P,J10,12,Pin_12*%
%TO.N,/Microcontroller/Bus2_sense_enable*%
X58940000Y-79980000D03*
%TO.P,J10,13,Pin_13*%
%TO.N,/Microcontroller/CH11*%
X56400000Y-82520000D03*
%TO.P,J10,14,Pin_14*%
%TO.N,/Microcontroller/CH12*%
X58940000Y-82520000D03*
%TO.P,J10,15,Pin_15*%
%TO.N,/Microcontroller/CH13*%
X56400000Y-85060000D03*
%TO.P,J10,16,Pin_16*%
%TO.N,/Microcontroller/CH14*%
X58940000Y-85060000D03*
%TO.P,J10,17,Pin_17*%
%TO.N,/Microcontroller/CH15*%
X56400000Y-87600000D03*
%TO.P,J10,18,Pin_18*%
%TO.N,/Microcontroller/CH16*%
X58940000Y-87600000D03*
%TO.P,J10,19,Pin_19*%
%TO.N,/Microcontroller/CH17*%
X56400000Y-90140000D03*
%TO.P,J10,20,Pin_20*%
%TO.N,/Microcontroller/CH18*%
X58940000Y-90140000D03*
%TO.P,J10,21,Pin_21*%
%TO.N,/Microcontroller/CH19*%
X56400000Y-92680000D03*
%TO.P,J10,22,Pin_22*%
%TO.N,/Microcontroller/CH20*%
X58940000Y-92680000D03*
%TO.P,J10,23,Pin_23*%
%TO.N,+3.3V*%
X56400000Y-95220000D03*
%TO.P,J10,24,Pin_24*%
X58940000Y-95220000D03*
%TO.P,J10,25,Pin_25*%
%TO.N,GND*%
X56400000Y-97760000D03*
%TO.P,J10,26,Pin_26*%
X58940000Y-97760000D03*
%TD*%
D15*
%TO.P,R1,1*%
%TO.N,Net-(U3-NRST)*%
X35550000Y-82885000D03*
%TO.P,R1,2*%
%TO.N,/~{NRST}*%
X35550000Y-81235000D03*
%TD*%
D36*
%TO.N,GND*%
X45600000Y-95410000D03*
X47098000Y-111554000D03*
X36322000Y-67564000D03*
X46140000Y-96300000D03*
X45574000Y-111554000D03*
X36322000Y-72644000D03*
X36322000Y-77724000D03*
X41850000Y-81330000D03*
X39217600Y-77089000D03*
X40600000Y-83610000D03*
X40640000Y-64008000D03*
X41478200Y-77063600D03*
X44600000Y-101310000D03*
X44600000Y-103410000D03*
%TO.N,Net-(U3-NRST)*%
X40575000Y-82060000D03*
X36400000Y-82910000D03*
%TO.N,/Microcontroller/SWDIO*%
X44196000Y-76200000D03*
X46874907Y-77913000D03*
%TO.N,/Microcontroller/SWCLK*%
X44704000Y-75388000D03*
X47490000Y-77180000D03*
%TO.N,/Microcontroller/LED*%
X48110000Y-89408000D03*
X48110000Y-105890000D03*
%TD*%
D37*
%TO.N,GND*%
X37338000Y-73215000D02*
X36893000Y-73215000D01*
X36893000Y-68135000D02*
X37338000Y-68135000D01*
X46661000Y-95779000D02*
X46140000Y-96300000D01*
X47631500Y-112087500D02*
X47098000Y-111554000D01*
X48114000Y-112087500D02*
X47631500Y-112087500D01*
X36322000Y-77724000D02*
X36893000Y-78295000D01*
X45040500Y-112087500D02*
X45574000Y-111554000D01*
X44558000Y-112087500D02*
X45040500Y-112087500D01*
X36893000Y-78295000D02*
X37338000Y-78295000D01*
X36893000Y-73215000D02*
X36322000Y-72644000D01*
X36322000Y-67564000D02*
X36893000Y-68135000D01*
X47156000Y-95779000D02*
X46661000Y-95779000D01*
D38*
X40055800Y-77901800D02*
X39243000Y-77089000D01*
X41850000Y-81330000D02*
X42544000Y-81010000D01*
X44550000Y-95410000D02*
X45600000Y-95410000D01*
X41478200Y-77063600D02*
X40640000Y-77901800D01*
X43600000Y-99977500D02*
X43600000Y-101310000D01*
X43600000Y-101310000D02*
X44600000Y-102310000D01*
X42544000Y-81010000D02*
X43194000Y-80360000D01*
X44550000Y-102310000D02*
X44550000Y-103360000D01*
D37*
X40577000Y-64960000D02*
X40640000Y-64008000D01*
X41450000Y-84010000D02*
X40600000Y-83610000D01*
D38*
X43194000Y-80360000D02*
X44725000Y-80360000D01*
D39*
%TO.N,+5V*%
X30600000Y-83760000D02*
X30600000Y-91260000D01*
X38550000Y-97810000D02*
X38550000Y-93760000D01*
D38*
X43117000Y-98815000D02*
X44105000Y-98815000D01*
X42600000Y-101110000D02*
X42650000Y-101060000D01*
X42650000Y-102310000D02*
X40900000Y-102310000D01*
D39*
X34300000Y-91460000D02*
X33200000Y-91460000D01*
D38*
X42650000Y-99282000D02*
X43117000Y-98815000D01*
D39*
X36600000Y-93760000D02*
X34300000Y-91460000D01*
X30700000Y-91360000D02*
X33300000Y-91360000D01*
D38*
X44550000Y-99282000D02*
X44108000Y-98840000D01*
D39*
X36819000Y-87169000D02*
X33309000Y-87169000D01*
D38*
X44105000Y-98815000D02*
X44120000Y-98830000D01*
D39*
X39600000Y-101260000D02*
X39600000Y-98860000D01*
X38400000Y-93760000D02*
X36600000Y-93760000D01*
X40700000Y-102360000D02*
X39600000Y-101260000D01*
X33240000Y-91445080D02*
X33240000Y-83820000D01*
D38*
X44550000Y-99940000D02*
X44550000Y-99282000D01*
X42650000Y-101060000D02*
X42650000Y-99282000D01*
X42600000Y-102310000D02*
X42600000Y-101110000D01*
D39*
X39600000Y-98860000D02*
X38550000Y-97810000D01*
D37*
X37400000Y-99460000D02*
X39600000Y-99460000D01*
D39*
X33180000Y-83760000D02*
X30600000Y-83760000D01*
X42600000Y-102360000D02*
X40700000Y-102360000D01*
X33309000Y-87169000D02*
X33300000Y-87160000D01*
D37*
%TO.N,Net-(U1-NR)*%
X45873000Y-97329000D02*
X47156000Y-97329000D01*
X44550000Y-97740000D02*
X45462000Y-97740000D01*
X45462000Y-97740000D02*
X45873000Y-97329000D01*
D38*
%TO.N,+3.3V*%
X42650000Y-97740000D02*
X42650000Y-96366000D01*
X42534800Y-79425800D02*
X40309800Y-79425800D01*
X42650000Y-96366000D02*
X42650000Y-95460000D01*
X41104318Y-80873600D02*
X40360600Y-80873600D01*
X42542918Y-79435000D02*
X41104318Y-80873600D01*
X44725000Y-79560000D02*
X42594000Y-79560000D01*
D37*
%TO.N,/~{NRST}*%
X33240000Y-81285080D02*
X35625080Y-81285080D01*
X37084000Y-52832000D02*
X28702000Y-61214000D01*
X51080000Y-53340000D02*
X51080000Y-58180000D01*
X51080000Y-53340000D02*
X50572000Y-52832000D01*
X28702000Y-79287080D02*
X30700000Y-81285080D01*
X28702000Y-61214000D02*
X28702000Y-79287080D01*
X50572000Y-52832000D02*
X37084000Y-52832000D01*
X49250000Y-60010000D02*
X46750000Y-60010000D01*
X51080000Y-58180000D02*
X49250000Y-60010000D01*
%TO.N,Net-(U3-NRST)*%
X40575000Y-82060000D02*
X41050000Y-82060000D01*
X41850000Y-82080000D02*
X41520000Y-82410000D01*
X36400000Y-82910000D02*
X35650000Y-82910000D01*
X43621817Y-81160000D02*
X43621817Y-81230711D01*
X43621817Y-81230711D02*
X42772528Y-82080000D01*
X44725000Y-81160000D02*
X43621817Y-81160000D01*
X42772528Y-82080000D02*
X41850000Y-82080000D01*
X41050000Y-82060000D02*
X41425000Y-82435000D01*
%TO.N,Net-(D1-A)*%
X44558000Y-110512500D02*
X44558000Y-108569000D01*
%TO.N,/ID*%
X29845000Y-95250000D02*
X31975080Y-95250000D01*
X31975080Y-95250000D02*
X33240000Y-93985080D01*
X30480000Y-104140000D02*
X29210000Y-102870000D01*
X29210000Y-102870000D02*
X29210000Y-95885000D01*
X29210000Y-95885000D02*
X29845000Y-95250000D01*
X35400000Y-102760000D02*
X35400000Y-101260000D01*
X30480000Y-104140000D02*
X34020000Y-104140000D01*
X34020000Y-104140000D02*
X35400000Y-102760000D01*
X37400000Y-100760000D02*
X35900000Y-100760000D01*
X35900000Y-100760000D02*
X35400000Y-101260000D01*
%TO.N,/Microcontroller/SWDIO*%
X52208000Y-77160000D02*
X53075000Y-77160000D01*
X46754000Y-62560000D02*
X44354000Y-64960000D01*
X46844000Y-77928000D02*
X51440000Y-77928000D01*
X44260000Y-65054000D02*
X44260000Y-74050000D01*
X44354000Y-64960000D02*
X44260000Y-65054000D01*
X44260000Y-74050000D02*
X43979000Y-74331000D01*
X51440000Y-77928000D02*
X52208000Y-77160000D01*
X43979000Y-75983000D02*
X44196000Y-76200000D01*
X42227000Y-64960000D02*
X44354000Y-64960000D01*
X43979000Y-74331000D02*
X43979000Y-75983000D01*
%TO.N,/Microcontroller/SWCLK*%
X44760000Y-67950000D02*
X44760000Y-75170000D01*
X46754000Y-67640000D02*
X45070000Y-67640000D01*
X47490000Y-77180000D02*
X51440000Y-77166000D01*
X51440000Y-77166000D02*
X51700000Y-76906000D01*
X51700000Y-76906000D02*
X51700000Y-75785000D01*
X45070000Y-67640000D02*
X44760000Y-67950000D01*
X44760000Y-75170000D02*
X44580000Y-75350000D01*
%TO.N,Net-(D2-A)*%
X48114000Y-108569000D02*
X48114000Y-110512500D01*
D40*
%TO.N,/Relays/Input pins/Out_HIGH*%
X120650000Y-62738000D02*
X119380000Y-64008000D01*
X149860000Y-62738000D02*
X142240000Y-62738000D01*
X130810000Y-62738000D02*
X139700000Y-62738000D01*
X118110000Y-62738000D02*
X110490000Y-62738000D01*
X129540000Y-64008000D02*
X129540000Y-66040000D01*
X190500000Y-61468000D02*
X189230000Y-62738000D01*
X182880000Y-62738000D02*
X181610000Y-64008000D01*
X170180000Y-62738000D02*
X162560000Y-62738000D01*
X109220000Y-64008000D02*
X109220000Y-66040000D01*
X172720000Y-62738000D02*
X171450000Y-64008000D01*
X128270000Y-62738000D02*
X120650000Y-62738000D01*
X130810000Y-62738000D02*
X129540000Y-64008000D01*
X110490000Y-62738000D02*
X109220000Y-64008000D01*
X181610000Y-64008000D02*
X180340000Y-62738000D01*
X119380000Y-64008000D02*
X119380000Y-66040000D01*
X161290000Y-64008000D02*
X160020000Y-62738000D01*
X162560000Y-62738000D02*
X161290000Y-64008000D01*
X171450000Y-64008000D02*
X170180000Y-62738000D01*
X100330000Y-62738000D02*
X99060000Y-64008000D01*
X90170000Y-62738000D02*
X88900000Y-64008000D01*
X171450000Y-64008000D02*
X171450000Y-66040000D01*
X180340000Y-62738000D02*
X172720000Y-62738000D01*
X88900000Y-64008000D02*
X88900000Y-66040000D01*
X181610000Y-64008000D02*
X181610000Y-66040000D01*
X119380000Y-64008000D02*
X118110000Y-62738000D01*
X151130000Y-64008000D02*
X149860000Y-62738000D01*
X140970000Y-64008000D02*
X140970000Y-66040000D01*
X99060000Y-64008000D02*
X97790000Y-62738000D01*
X140970000Y-64008000D02*
X139700000Y-62738000D01*
X152400000Y-62738000D02*
X151130000Y-64008000D01*
X151130000Y-64008000D02*
X151130000Y-66040000D01*
X129540000Y-64008000D02*
X128270000Y-62738000D01*
X97790000Y-62738000D02*
X90170000Y-62738000D01*
X107950000Y-62738000D02*
X100330000Y-62738000D01*
X190500000Y-64008000D02*
X189230000Y-62738000D01*
X161290000Y-64008000D02*
X161290000Y-66040000D01*
X109220000Y-64008000D02*
X107950000Y-62738000D01*
X190500000Y-66040000D02*
X190500000Y-64008000D01*
X160020000Y-62738000D02*
X152400000Y-62738000D01*
X99060000Y-64008000D02*
X99060000Y-66040000D01*
X142240000Y-62738000D02*
X140970000Y-64008000D01*
X189230000Y-62738000D02*
X182880000Y-62738000D01*
X190500000Y-61468000D02*
X190500000Y-57404000D01*
%TO.N,/Relays/Input pins/Out_LOW*%
X167640000Y-69342000D02*
X166370000Y-68072000D01*
X157480000Y-69342000D02*
X156210000Y-68072000D01*
X92710000Y-69342000D02*
X85090000Y-69342000D01*
X123190000Y-69342000D02*
X115570000Y-69342000D01*
X93980000Y-68072000D02*
X92710000Y-69342000D01*
X124460000Y-68072000D02*
X124460000Y-66040000D01*
X114300000Y-68072000D02*
X114300000Y-66040000D01*
X85090000Y-69342000D02*
X83820000Y-68072000D01*
X125730000Y-69342000D02*
X134620000Y-69342000D01*
X93980000Y-68072000D02*
X93980000Y-66040000D01*
X135890000Y-68072000D02*
X134620000Y-69342000D01*
X95250000Y-69342000D02*
X93980000Y-68072000D01*
X166370000Y-68072000D02*
X165100000Y-69342000D01*
X125730000Y-69342000D02*
X124460000Y-68072000D01*
X115570000Y-69342000D02*
X114300000Y-68072000D01*
X166370000Y-68072000D02*
X166370000Y-66040000D01*
X113030000Y-69342000D02*
X105410000Y-69342000D01*
X146050000Y-68072000D02*
X146050000Y-66040000D01*
X154940000Y-69342000D02*
X147320000Y-69342000D01*
X193802000Y-69342000D02*
X177800000Y-69342000D01*
X147320000Y-69342000D02*
X146050000Y-68072000D01*
X135890000Y-68072000D02*
X135890000Y-66040000D01*
X177800000Y-69342000D02*
X176530000Y-68072000D01*
X156210000Y-68072000D02*
X156210000Y-66040000D01*
X105410000Y-69342000D02*
X104140000Y-68072000D01*
X146050000Y-68072000D02*
X144780000Y-69342000D01*
X156210000Y-68072000D02*
X154940000Y-69342000D01*
X114300000Y-68072000D02*
X113030000Y-69342000D01*
X104140000Y-68072000D02*
X102870000Y-69342000D01*
X83820000Y-68072000D02*
X83820000Y-66040000D01*
X137160000Y-69342000D02*
X135890000Y-68072000D01*
X104140000Y-68072000D02*
X104140000Y-66040000D01*
X165100000Y-69342000D02*
X157480000Y-69342000D01*
X144780000Y-69342000D02*
X137160000Y-69342000D01*
X195580000Y-67564000D02*
X193802000Y-69342000D01*
X195580000Y-66040000D02*
X195580000Y-67564000D01*
X175260000Y-69342000D02*
X167640000Y-69342000D01*
X102870000Y-69342000D02*
X95250000Y-69342000D01*
X124460000Y-68072000D02*
X123190000Y-69342000D01*
X176530000Y-68072000D02*
X176530000Y-66040000D01*
X176530000Y-68072000D02*
X175260000Y-69342000D01*
D37*
%TO.N,Net-(J3-Pin_1)*%
X44400000Y-88310000D02*
X45250000Y-88310000D01*
X42950000Y-86860000D02*
X44400000Y-88310000D01*
X42950000Y-85660000D02*
X42950000Y-86860000D01*
%TO.N,/DATA*%
X38100000Y-61976000D02*
X37338000Y-62738000D01*
X33240000Y-66045080D02*
X34803080Y-66045080D01*
X31978600Y-67306480D02*
X33240000Y-66045080D01*
X38672000Y-66485000D02*
X38735000Y-66548000D01*
X38100000Y-55880000D02*
X38100000Y-61976000D01*
X34803080Y-66045080D02*
X35243000Y-66485000D01*
X37338000Y-62738000D02*
X37338000Y-66485000D01*
X37338000Y-66485000D02*
X38672000Y-66485000D01*
X31978600Y-82003900D02*
X31978600Y-67306480D01*
X38735000Y-66548000D02*
X40577000Y-66548000D01*
X28575000Y-83693000D02*
X29781500Y-82486500D01*
X35243000Y-66485000D02*
X37338000Y-66485000D01*
X31496000Y-82486500D02*
X31978600Y-82003900D01*
X29781500Y-82486500D02*
X31496000Y-82486500D01*
X28575000Y-103505000D02*
X28575000Y-83693000D01*
X28575000Y-103505000D02*
X29830000Y-104760000D01*
X29830000Y-104760000D02*
X36400000Y-104760000D01*
X37400000Y-103760000D02*
X37400000Y-102260000D01*
X36400000Y-104760000D02*
X37400000Y-103760000D01*
%TO.N,/STROBE*%
X37338000Y-74930000D02*
X37338000Y-76645000D01*
X45660000Y-53340000D02*
X37338000Y-53340000D01*
X33240000Y-76205080D02*
X35311080Y-76205080D01*
X29210000Y-74715080D02*
X30700000Y-76205080D01*
X40577000Y-69596000D02*
X39878000Y-69596000D01*
X29210000Y-61468000D02*
X29210000Y-74715080D01*
X39878000Y-69596000D02*
X39116000Y-70358000D01*
X38862000Y-73406000D02*
X37338000Y-74930000D01*
X35311080Y-76205080D02*
X35751000Y-76645000D01*
X39116000Y-70358000D02*
X39116000Y-71628000D01*
X38862000Y-71882000D02*
X38862000Y-73406000D01*
X35751000Y-76645000D02*
X37338000Y-76645000D01*
X39116000Y-71628000D02*
X38862000Y-71882000D01*
X48200000Y-55880000D02*
X45660000Y-53340000D01*
X37338000Y-53340000D02*
X29210000Y-61468000D01*
%TO.N,/CLK*%
X38608000Y-71247000D02*
X38608000Y-69088000D01*
X38608000Y-69088000D02*
X39624000Y-68072000D01*
X35184080Y-71125080D02*
X35624000Y-71565000D01*
X41402000Y-61214000D02*
X43150000Y-59466000D01*
X35624000Y-71565000D02*
X37338000Y-71565000D01*
X40577000Y-68072000D02*
X41148000Y-68072000D01*
X39624000Y-68072000D02*
X40577000Y-68072000D01*
X37338000Y-71565000D02*
X38290000Y-71565000D01*
X41148000Y-68072000D02*
X41402000Y-67818000D01*
X38290000Y-71565000D02*
X38608000Y-71247000D01*
X43150000Y-59466000D02*
X43150000Y-55880000D01*
X33240000Y-71125080D02*
X35184080Y-71125080D01*
X41402000Y-67818000D02*
X41402000Y-61214000D01*
%TO.N,/Microcontroller/DATA*%
X42227000Y-66548000D02*
X43048000Y-66548000D01*
X43048000Y-66548000D02*
X43760000Y-67260000D01*
X43760000Y-67260000D02*
X43760000Y-72170000D01*
X43267893Y-76917893D02*
X43390000Y-77040000D01*
X44725000Y-77160000D02*
X43500000Y-77160000D01*
X43500000Y-77160000D02*
X43400000Y-77060000D01*
X43267893Y-72662107D02*
X43267893Y-76917893D01*
X43760000Y-72170000D02*
X43267893Y-72662107D01*
%TO.N,/Microcontroller/CLK*%
X44725000Y-77960000D02*
X43250000Y-77960000D01*
X42227000Y-68072000D02*
X42932000Y-68072000D01*
X43250000Y-77960000D02*
X42950000Y-77660000D01*
X42932000Y-68072000D02*
X43260000Y-68400000D01*
X43260000Y-68400000D02*
X43260000Y-71070000D01*
X42767893Y-71562107D02*
X42767893Y-77467893D01*
X43260000Y-71070000D02*
X42767893Y-71562107D01*
X42767893Y-77467893D02*
X42950000Y-77650000D01*
%TO.N,/Microcontroller/STROBE*%
X42227000Y-77777000D02*
X43210000Y-78760000D01*
X42227000Y-69596000D02*
X42227000Y-77777000D01*
X44725000Y-78760000D02*
X43210000Y-78760000D01*
%TO.N,/Microcontroller/LED*%
X48130000Y-88730000D02*
X44710000Y-85310000D01*
X44710000Y-85310000D02*
X44710000Y-82730000D01*
X48110000Y-88750000D02*
X48130000Y-88730000D01*
X48110000Y-89408000D02*
X48110000Y-88750000D01*
X48110000Y-105890000D02*
X48110000Y-106860000D01*
%TO.N,/Microcontroller/TX*%
X43600000Y-81960000D02*
X42980000Y-82580000D01*
X44725000Y-81960000D02*
X43600000Y-81960000D01*
X42980000Y-82580000D02*
X42980000Y-83960000D01*
%TO.N,/Microcontroller/Bus2_input_enable*%
X191199000Y-75946000D02*
X191199000Y-76834000D01*
X191199000Y-76834000D02*
X190817000Y-77216000D01*
X186182000Y-77216000D02*
X186119000Y-77153000D01*
X186119000Y-77153000D02*
X186119000Y-75946000D01*
X190817000Y-77216000D02*
X186182000Y-77216000D01*
X74064940Y-82296000D02*
X180976000Y-82296000D01*
X186119000Y-77153000D02*
X180976000Y-82296000D01*
X56400000Y-79980000D02*
X57625000Y-78755000D01*
X57625000Y-78755000D02*
X70523940Y-78755000D01*
X70523940Y-78755000D02*
X74064940Y-82296000D01*
X53075000Y-80360000D02*
X56030000Y-80360000D01*
%TO.N,Net-(R12-Pad1)*%
X187769000Y-74867000D02*
X187769000Y-75946000D01*
X187960000Y-73660000D02*
X187960000Y-74676000D01*
X187960000Y-74676000D02*
X187769000Y-74867000D01*
%TO.N,Net-(R13-Pad1)*%
X192849000Y-74867000D02*
X192849000Y-75946000D01*
X193040000Y-73660000D02*
X193040000Y-74676000D01*
X193040000Y-74676000D02*
X192849000Y-74867000D01*
%TO.N,/Microcontroller/CH1*%
X179769000Y-75946000D02*
X179769000Y-76834000D01*
X174689000Y-77153000D02*
X174689000Y-75946000D01*
X179769000Y-76834000D02*
X179387000Y-77216000D01*
X174752000Y-77216000D02*
X174689000Y-77153000D01*
X179387000Y-77216000D02*
X174752000Y-77216000D01*
X58940000Y-77440000D02*
X69916046Y-77440000D01*
X170054000Y-81788000D02*
X76000000Y-81788000D01*
X55455000Y-78755000D02*
X56817412Y-78755000D01*
X69916046Y-77440000D02*
X74272046Y-81796000D01*
X54650000Y-79560000D02*
X55455000Y-78755000D01*
X56817412Y-78755000D02*
X58122412Y-77450000D01*
X53075000Y-79560000D02*
X54650000Y-79560000D01*
X74272046Y-81796000D02*
X76174600Y-81796000D01*
X174689000Y-77153000D02*
X170054000Y-81788000D01*
X58122412Y-77450000D02*
X58950000Y-77450000D01*
%TO.N,Net-(R14-Pad1)*%
X181419000Y-74867000D02*
X181419000Y-75946000D01*
X181610000Y-73660000D02*
X181610000Y-74676000D01*
X181610000Y-74676000D02*
X181419000Y-74867000D01*
%TO.N,/Microcontroller/CH6*%
X127699000Y-76834000D02*
X127317000Y-77216000D01*
X122682000Y-77216000D02*
X122619000Y-77153000D01*
X122619000Y-75946000D02*
X122619000Y-77153000D01*
X127699000Y-75946000D02*
X127699000Y-76834000D01*
X127317000Y-77216000D02*
X122682000Y-77216000D01*
X56450000Y-72340000D02*
X51110000Y-72340000D01*
X49300000Y-74154000D02*
X49300000Y-75785000D01*
X56400000Y-72360000D02*
X57715000Y-71045000D01*
X57715000Y-71045000D02*
X67056576Y-71045000D01*
X67056576Y-71045000D02*
X75251576Y-79240000D01*
X120524000Y-79248000D02*
X76000000Y-79248000D01*
X51110000Y-72340000D02*
X49300000Y-74150000D01*
X122619000Y-77153000D02*
X120524000Y-79248000D01*
X75301575Y-79250000D02*
X76010000Y-79250000D01*
%TO.N,Net-(R15-Pad1)*%
X129540000Y-74676000D02*
X129349000Y-74867000D01*
X129540000Y-73660000D02*
X129540000Y-74676000D01*
X129349000Y-74867000D02*
X129349000Y-75946000D01*
%TO.N,Net-(R18-Pad1)*%
X176339000Y-74867000D02*
X176339000Y-75946000D01*
X176530000Y-74676000D02*
X176339000Y-74867000D01*
X176530000Y-73660000D02*
X176530000Y-74676000D01*
%TO.N,Net-(R19-Pad1)*%
X124460000Y-73660000D02*
X124460000Y-74676000D01*
X124460000Y-74676000D02*
X124269000Y-74867000D01*
X124269000Y-74867000D02*
X124269000Y-75946000D01*
%TO.N,/Microcontroller/CH2*%
X169227000Y-77216000D02*
X164592000Y-77216000D01*
X164592000Y-77216000D02*
X164529000Y-77153000D01*
X169609000Y-76834000D02*
X169227000Y-77216000D01*
X169609000Y-75946000D02*
X169609000Y-76834000D01*
X164529000Y-77153000D02*
X164529000Y-75946000D01*
X69308152Y-76125000D02*
X74455152Y-81272000D01*
X74455152Y-81272000D02*
X76377800Y-81272000D01*
X164529000Y-77153000D02*
X160402000Y-81280000D01*
X56400000Y-77440000D02*
X57715000Y-76125000D01*
X160402000Y-81280000D02*
X76000000Y-81280000D01*
X57715000Y-76125000D02*
X69308152Y-76125000D01*
X54400000Y-78760000D02*
X55710000Y-77450000D01*
X53075000Y-78760000D02*
X54400000Y-78760000D01*
%TO.N,Net-(R20-Pad1)*%
X171450000Y-74676000D02*
X171259000Y-74867000D01*
X171259000Y-74867000D02*
X171259000Y-75946000D01*
X171450000Y-73660000D02*
X171450000Y-74676000D01*
%TO.N,/Microcontroller/CH7*%
X117539000Y-76834000D02*
X117157000Y-77216000D01*
X112522000Y-77216000D02*
X112459000Y-77153000D01*
X117157000Y-77216000D02*
X112522000Y-77216000D01*
X117539000Y-75946000D02*
X117539000Y-76834000D01*
X112459000Y-75946000D02*
X112459000Y-77153000D01*
X58940000Y-69820000D02*
X66538682Y-69820000D01*
X66538682Y-69820000D02*
X75458682Y-78740000D01*
X48500000Y-74054000D02*
X51509000Y-71045000D01*
X48500000Y-75785000D02*
X48500000Y-74054000D01*
X75458681Y-78740000D02*
X110890000Y-78740000D01*
X56907412Y-71045000D02*
X58142412Y-69810000D01*
X110872000Y-78740000D02*
X112459000Y-77153000D01*
X51509000Y-71045000D02*
X56907412Y-71045000D01*
X58142412Y-69810000D02*
X58950000Y-69810000D01*
%TO.N,Net-(R21-Pad1)*%
X119380000Y-74676000D02*
X119189000Y-74867000D01*
X119380000Y-73660000D02*
X119380000Y-74676000D01*
X119189000Y-74867000D02*
X119189000Y-75946000D01*
%TO.N,Net-(R22-Pad1)*%
X166179000Y-74867000D02*
X166179000Y-75946000D01*
X166370000Y-74676000D02*
X166179000Y-74867000D01*
X166370000Y-73660000D02*
X166370000Y-74676000D01*
%TO.N,Net-(R23-Pad1)*%
X114300000Y-73660000D02*
X114300000Y-74676000D01*
X114300000Y-74676000D02*
X114109000Y-74867000D01*
X114109000Y-74867000D02*
X114109000Y-75946000D01*
%TO.N,/Microcontroller/CH3*%
X159449000Y-76834000D02*
X159067000Y-77216000D01*
X154432000Y-77216000D02*
X154369000Y-77153000D01*
X154369000Y-77153000D02*
X154369000Y-75946000D01*
X159067000Y-77216000D02*
X154432000Y-77216000D01*
X159449000Y-75946000D02*
X159449000Y-76834000D01*
X55892588Y-76125000D02*
X56945000Y-76125000D01*
X58180000Y-74890000D02*
X58940000Y-74890000D01*
X68790258Y-74900000D02*
X74654258Y-80764000D01*
X56945000Y-76125000D02*
X58180000Y-74890000D01*
X150750000Y-80772000D02*
X76000000Y-80772000D01*
X53075000Y-77960000D02*
X54057588Y-77960000D01*
X54057588Y-77960000D02*
X55892588Y-76125000D01*
X74654258Y-80764000D02*
X76098400Y-80764000D01*
X154369000Y-77153000D02*
X150750000Y-80772000D01*
X58940000Y-74900000D02*
X68790258Y-74900000D01*
%TO.N,Net-(R24-Pad1)*%
X161099000Y-74867000D02*
X161099000Y-75946000D01*
X161290000Y-74676000D02*
X161099000Y-74867000D01*
X161290000Y-73660000D02*
X161290000Y-74676000D01*
%TO.N,/Microcontroller/CH8*%
X102299000Y-77153000D02*
X102299000Y-75946000D01*
X106997000Y-77216000D02*
X102362000Y-77216000D01*
X107379000Y-75946000D02*
X107379000Y-76834000D01*
X107379000Y-76834000D02*
X106997000Y-77216000D01*
X102362000Y-77216000D02*
X102299000Y-77153000D01*
X47700000Y-73954000D02*
X51830000Y-69824000D01*
X66005788Y-68580000D02*
X75665788Y-78240000D01*
X102299000Y-77153000D02*
X101220000Y-78232000D01*
X75665788Y-78240000D02*
X75980000Y-78240000D01*
X101220000Y-78232000D02*
X76000000Y-78232000D01*
X47700000Y-75785000D02*
X47700000Y-73954000D01*
X57207588Y-69820000D02*
X58447588Y-68580000D01*
X51834000Y-69820000D02*
X56450000Y-69820000D01*
X51830000Y-69824000D02*
X51830000Y-69820000D01*
X58447588Y-68580000D02*
X66005788Y-68580000D01*
X56400000Y-69820000D02*
X57207588Y-69820000D01*
%TO.N,Net-(R25-Pad1)*%
X109220000Y-74676000D02*
X109029000Y-74867000D01*
X109220000Y-73660000D02*
X109220000Y-74676000D01*
X109029000Y-74867000D02*
X109029000Y-75946000D01*
%TO.N,Net-(R26-Pad1)*%
X156210000Y-74676000D02*
X156019000Y-74867000D01*
X156210000Y-73660000D02*
X156210000Y-74676000D01*
X156019000Y-74867000D02*
X156019000Y-75946000D01*
%TO.N,Net-(R27-Pad1)*%
X104140000Y-73660000D02*
X104140000Y-74676000D01*
X103949000Y-74867000D02*
X103949000Y-75946000D01*
X104140000Y-74676000D02*
X103949000Y-74867000D01*
%TO.N,/Microcontroller/CH4*%
X144209000Y-75946000D02*
X144209000Y-77153000D01*
X149289000Y-76834000D02*
X148907000Y-77216000D01*
X148907000Y-77216000D02*
X144272000Y-77216000D01*
X149289000Y-75946000D02*
X149289000Y-76834000D01*
X144272000Y-77216000D02*
X144209000Y-77153000D01*
X68272364Y-73675000D02*
X74861364Y-80264000D01*
X144209000Y-77153000D02*
X141098000Y-80264000D01*
X50900000Y-74554000D02*
X50900000Y-75785000D01*
X74861364Y-80264000D02*
X141098000Y-80264000D01*
X51444000Y-74010000D02*
X55510000Y-74010000D01*
X51444000Y-74010000D02*
X50900000Y-74554000D01*
X57625000Y-73675000D02*
X68272364Y-73675000D01*
X55510000Y-74010000D02*
X56430000Y-74930000D01*
X56400000Y-74900000D02*
X57625000Y-73675000D01*
%TO.N,Net-(R28-Pad1)*%
X150939000Y-74867000D02*
X150939000Y-75946000D01*
X151130000Y-74676000D02*
X150939000Y-74867000D01*
X151130000Y-73660000D02*
X151130000Y-74676000D01*
%TO.N,/Microcontroller/CH9*%
X92139000Y-75946000D02*
X92139000Y-77153000D01*
X97219000Y-76771000D02*
X96774000Y-77216000D01*
X97219000Y-75946000D02*
X97219000Y-76771000D01*
X92202000Y-77216000D02*
X92139000Y-77153000D01*
X96774000Y-77216000D02*
X92202000Y-77216000D01*
X46900000Y-75785000D02*
X46900000Y-73800000D01*
X92139000Y-77279000D02*
X91694000Y-77724000D01*
X65412894Y-67280000D02*
X75852894Y-77720000D01*
X91694000Y-77724000D02*
X76000000Y-77724000D01*
X57245000Y-68595000D02*
X58550000Y-67290000D01*
X52105000Y-68595000D02*
X57245000Y-68595000D01*
X75852894Y-77720000D02*
X75970000Y-77720000D01*
X46900000Y-73800000D02*
X52105000Y-68595000D01*
X58940000Y-67280000D02*
X65412894Y-67280000D01*
X92139000Y-77153000D02*
X92139000Y-77279000D01*
%TO.N,Net-(R29-Pad1)*%
X99060000Y-74676000D02*
X98869000Y-74867000D01*
X99060000Y-73660000D02*
X99060000Y-74676000D01*
X98869000Y-74867000D02*
X98869000Y-75946000D01*
%TO.N,Net-(R30-Pad1)*%
X145859000Y-74867000D02*
X145859000Y-75946000D01*
X146050000Y-73660000D02*
X146050000Y-74676000D01*
X146050000Y-74676000D02*
X145859000Y-74867000D01*
%TO.N,Net-(R31-Pad1)*%
X93789000Y-74867000D02*
X93789000Y-75946000D01*
X93980000Y-73660000D02*
X93980000Y-74676000D01*
X93980000Y-74676000D02*
X93789000Y-74867000D01*
%TO.N,/Microcontroller/CH5*%
X139129000Y-75946000D02*
X139129000Y-76834000D01*
X134049000Y-77153000D02*
X134049000Y-75946000D01*
X134112000Y-77216000D02*
X134049000Y-77153000D01*
X139129000Y-76834000D02*
X138747000Y-77216000D01*
X138747000Y-77216000D02*
X134112000Y-77216000D01*
X50100000Y-75785000D02*
X50100000Y-74223867D01*
X58092412Y-72400000D02*
X58950000Y-72400000D01*
X75054470Y-79750000D02*
X75996800Y-79750000D01*
X50100000Y-74223867D02*
X50813867Y-73510000D01*
X55817588Y-73510000D02*
X55892588Y-73585000D01*
X131446000Y-79756000D02*
X76000000Y-79756000D01*
X67634470Y-72330000D02*
X75054470Y-79750000D01*
X55892588Y-73585000D02*
X56907412Y-73585000D01*
X56907412Y-73585000D02*
X58092412Y-72400000D01*
X58930000Y-72330000D02*
X67634470Y-72330000D01*
X134049000Y-77153000D02*
X131446000Y-79756000D01*
X50813867Y-73510000D02*
X55817588Y-73510000D01*
%TO.N,Net-(R32-Pad1)*%
X140779000Y-74867000D02*
X140779000Y-75946000D01*
X140970000Y-74676000D02*
X140779000Y-74867000D01*
X140970000Y-73660000D02*
X140970000Y-74676000D01*
%TO.N,/Microcontroller/CH10*%
X86677000Y-77153000D02*
X81979000Y-77153000D01*
X87059000Y-76771000D02*
X86677000Y-77153000D01*
X81979000Y-77153000D02*
X81979000Y-75946000D01*
X87059000Y-75946000D02*
X87059000Y-76771000D01*
X56400000Y-67280000D02*
X58030000Y-65650000D01*
X58030000Y-65650000D02*
X64490000Y-65650000D01*
X52764000Y-67290000D02*
X56370000Y-67290000D01*
X46100000Y-75785000D02*
X46100000Y-73892894D01*
X76000000Y-77160000D02*
X64490000Y-65650000D01*
X46100000Y-73892894D02*
X52702894Y-67290000D01*
X52702894Y-67290000D02*
X52760000Y-67290000D01*
X81979000Y-77153000D02*
X76000000Y-77160000D01*
%TO.N,Net-(R33-Pad1)*%
X88900000Y-73660000D02*
X88900000Y-74676000D01*
X88900000Y-74676000D02*
X88709000Y-74867000D01*
X88709000Y-74867000D02*
X88709000Y-75946000D01*
%TO.N,Net-(R34-Pad1)*%
X135890000Y-73660000D02*
X135890000Y-74676000D01*
X135699000Y-74867000D02*
X135699000Y-75946000D01*
X135890000Y-74676000D02*
X135699000Y-74867000D01*
%TO.N,Net-(R35-Pad1)*%
X83629000Y-74867000D02*
X83629000Y-75946000D01*
X83820000Y-74676000D02*
X83629000Y-74867000D01*
X83820000Y-73660000D02*
X83820000Y-74676000D01*
%TO.N,/Microcontroller/Bus2_sense_enable*%
X193739000Y-88583000D02*
X193739000Y-89154000D01*
X193040000Y-87884000D02*
X193739000Y-88583000D01*
X188596000Y-87884000D02*
X193040000Y-87884000D01*
X58130000Y-79980000D02*
X57750000Y-80360000D01*
X53120000Y-81205000D02*
X56907412Y-81205000D01*
X183516000Y-82804000D02*
X188659000Y-87947000D01*
X73865834Y-82804000D02*
X76123800Y-82804000D01*
X58940000Y-79980000D02*
X58130000Y-79980000D01*
X188659000Y-87947000D02*
X188659000Y-89154000D01*
X58940000Y-79980000D02*
X71041834Y-79980000D01*
X56907412Y-81205000D02*
X57740000Y-80372412D01*
X183510000Y-82800000D02*
X76000000Y-82804000D01*
X71041834Y-79980000D02*
X73865834Y-82804000D01*
%TO.N,Net-(R36-Pad1)*%
X190309000Y-89154000D02*
X190309000Y-89979000D01*
X190500000Y-90170000D02*
X190500000Y-91440000D01*
X190309000Y-89979000D02*
X190500000Y-90170000D01*
%TO.N,Net-(R37-Pad1)*%
X195580000Y-90170000D02*
X195580000Y-91440000D01*
X195389000Y-89979000D02*
X195580000Y-90170000D01*
X195389000Y-89154000D02*
X195389000Y-89979000D01*
%TO.N,/Microcontroller/CH11*%
X177166000Y-87884000D02*
X181610000Y-87884000D01*
X182309000Y-88583000D02*
X182309000Y-89154000D01*
X181610000Y-87884000D02*
X182309000Y-88583000D01*
X73658735Y-83304008D02*
X75792912Y-83304008D01*
X57715000Y-81205000D02*
X71559728Y-81205000D01*
X53075000Y-81960000D02*
X55860000Y-81960000D01*
X56400000Y-82520000D02*
X57715000Y-81205000D01*
X71559728Y-81205000D02*
X73658735Y-83304008D01*
X75792912Y-83304008D02*
X75792935Y-83303985D01*
X177229000Y-87947000D02*
X172594000Y-83312000D01*
X172594000Y-83312000D02*
X76000000Y-83312000D01*
X177229000Y-89154000D02*
X177229000Y-87947000D01*
X55860000Y-81960000D02*
X56410000Y-82510000D01*
%TO.N,Net-(R38-Pad1)*%
X183959000Y-89979000D02*
X184150000Y-90170000D01*
X184150000Y-90170000D02*
X184150000Y-91440000D01*
X183959000Y-89154000D02*
X183959000Y-89979000D01*
%TO.N,/Microcontroller/CH16*%
X129540000Y-87884000D02*
X130239000Y-88583000D01*
X125159000Y-87947000D02*
X125159000Y-89154000D01*
X125096000Y-87884000D02*
X125159000Y-87947000D01*
X125096000Y-87884000D02*
X129540000Y-87884000D01*
X130239000Y-88583000D02*
X130239000Y-89154000D01*
X58092412Y-87640000D02*
X58960000Y-87640000D01*
X56907412Y-88825000D02*
X58092412Y-87640000D01*
X52939000Y-88825000D02*
X56907412Y-88825000D01*
X123063000Y-85852000D02*
X76000000Y-85852000D01*
X125095000Y-87884000D02*
X123063000Y-85852000D01*
X49300000Y-85186000D02*
X52939000Y-88825000D01*
X73448800Y-85860000D02*
X75996800Y-85860000D01*
X125096000Y-87884000D02*
X125095000Y-87884000D01*
X71708800Y-87600000D02*
X73448800Y-85860000D01*
X58940000Y-87600000D02*
X71708800Y-87600000D01*
X49300000Y-84135000D02*
X49300000Y-85186000D01*
%TO.N,Net-(R39-Pad1)*%
X132080000Y-90170000D02*
X132080000Y-91440000D01*
X131889000Y-89979000D02*
X132080000Y-90170000D01*
X131889000Y-89154000D02*
X131889000Y-89979000D01*
%TO.N,Net-(R42-Pad1)*%
X178879000Y-89154000D02*
X178879000Y-89979000D01*
X178879000Y-89979000D02*
X179070000Y-90170000D01*
X179070000Y-90170000D02*
X179070000Y-91440000D01*
%TO.N,Net-(R43-Pad1)*%
X127000000Y-90170000D02*
X127000000Y-91440000D01*
X126809000Y-89154000D02*
X126809000Y-89979000D01*
X126809000Y-89979000D02*
X127000000Y-90170000D01*
%TO.N,/Microcontroller/CH12*%
X172149000Y-88583000D02*
X172149000Y-89154000D01*
X171450000Y-87884000D02*
X172149000Y-88583000D01*
X167006000Y-87884000D02*
X171450000Y-87884000D01*
X58142412Y-82510000D02*
X58980000Y-82510000D01*
X167069000Y-87947000D02*
X162942000Y-83820000D01*
X72167622Y-82520000D02*
X73459622Y-83812000D01*
X73459622Y-83812000D02*
X76098400Y-83812000D01*
X56907412Y-83745000D02*
X58142412Y-82510000D01*
X58940000Y-82520000D02*
X72167622Y-82520000D01*
X167069000Y-89154000D02*
X167069000Y-87947000D01*
X162942000Y-83820000D02*
X76000000Y-83820000D01*
X55255000Y-83745000D02*
X56907412Y-83745000D01*
X53075000Y-82760000D02*
X54270000Y-82760000D01*
X54270000Y-82760000D02*
X55255000Y-83745000D01*
%TO.N,Net-(R44-Pad1)*%
X173799000Y-89154000D02*
X173799000Y-89979000D01*
X173990000Y-90170000D02*
X173990000Y-91440000D01*
X173799000Y-89979000D02*
X173990000Y-90170000D01*
%TO.N,/Microcontroller/CH17*%
X114936000Y-87884000D02*
X119380000Y-87884000D01*
X119380000Y-87884000D02*
X120079000Y-88583000D01*
X120079000Y-88583000D02*
X120079000Y-89154000D01*
X57715000Y-88825000D02*
X71296600Y-88825000D01*
X56400000Y-90140000D02*
X57715000Y-88825000D01*
X71296600Y-88825000D02*
X73753600Y-86368000D01*
X73753600Y-86368000D02*
X75996800Y-86368000D01*
X48500000Y-84135000D02*
X48500000Y-85148000D01*
X114999000Y-87947000D02*
X113412000Y-86360000D01*
X113412000Y-86360000D02*
X76000000Y-86360000D01*
X53502000Y-90150000D02*
X56440000Y-90150000D01*
X114999000Y-89154000D02*
X114999000Y-87947000D01*
X48500000Y-85148000D02*
X53502000Y-90150000D01*
%TO.N,Net-(R45-Pad1)*%
X121920000Y-90170000D02*
X121920000Y-91440000D01*
X121729000Y-89979000D02*
X121920000Y-90170000D01*
X121729000Y-89154000D02*
X121729000Y-89979000D01*
%TO.N,Net-(R46-Pad1)*%
X168719000Y-89979000D02*
X168910000Y-90170000D01*
X168910000Y-90170000D02*
X168910000Y-91440000D01*
X168719000Y-89154000D02*
X168719000Y-89979000D01*
%TO.N,Net-(R47-Pad1)*%
X116649000Y-89154000D02*
X116649000Y-89979000D01*
X116840000Y-90170000D02*
X116840000Y-91440000D01*
X116649000Y-89979000D02*
X116840000Y-90170000D01*
%TO.N,/Microcontroller/CH13*%
X156846000Y-87884000D02*
X161290000Y-87884000D01*
X161290000Y-87884000D02*
X161989000Y-88583000D01*
X161989000Y-88583000D02*
X161989000Y-89154000D01*
X72543600Y-83745000D02*
X73126600Y-84328000D01*
X51700000Y-85300000D02*
X51948000Y-85548000D01*
X156909000Y-89154000D02*
X156909000Y-87947000D01*
X51948000Y-85548000D02*
X55942000Y-85548000D01*
X57715000Y-83745000D02*
X72543600Y-83745000D01*
X156909000Y-87947000D02*
X153290000Y-84328000D01*
X73126600Y-84328000D02*
X153290000Y-84328000D01*
X51700000Y-84135000D02*
X51700000Y-85300000D01*
X56400000Y-85060000D02*
X57715000Y-83745000D01*
%TO.N,Net-(R48-Pad1)*%
X163830000Y-90170000D02*
X163830000Y-91440000D01*
X163639000Y-89979000D02*
X163830000Y-90170000D01*
X163639000Y-89154000D02*
X163639000Y-89979000D01*
%TO.N,/Microcontroller/CH18*%
X109919000Y-88583000D02*
X109919000Y-89154000D01*
X109220000Y-87884000D02*
X109919000Y-88583000D01*
X104776000Y-87884000D02*
X109220000Y-87884000D01*
X58940000Y-90140000D02*
X70794400Y-90140000D01*
X104839000Y-89154000D02*
X104839000Y-87947000D01*
X58142412Y-90130000D02*
X58960000Y-90130000D01*
X104839000Y-87947000D02*
X103760000Y-86868000D01*
X74066400Y-86868000D02*
X103760000Y-86868000D01*
X54045000Y-91455000D02*
X56817412Y-91455000D01*
X47700000Y-84135000D02*
X47700000Y-85110000D01*
X47700000Y-85110000D02*
X54045000Y-91455000D01*
X56817412Y-91455000D02*
X58142412Y-90130000D01*
X70794400Y-90140000D02*
X74066400Y-86868000D01*
%TO.N,Net-(R49-Pad1)*%
X111760000Y-90170000D02*
X111760000Y-91440000D01*
X111569000Y-89154000D02*
X111569000Y-89979000D01*
X111569000Y-89979000D02*
X111760000Y-90170000D01*
%TO.N,Net-(R50-Pad1)*%
X158559000Y-89154000D02*
X158559000Y-89979000D01*
X158559000Y-89979000D02*
X158750000Y-90170000D01*
X158750000Y-90170000D02*
X158750000Y-91440000D01*
%TO.N,Net-(R51-Pad1)*%
X106489000Y-89154000D02*
X106489000Y-89979000D01*
X106680000Y-90170000D02*
X106680000Y-91440000D01*
X106489000Y-89979000D02*
X106680000Y-90170000D01*
%TO.N,/Microcontroller/CH14*%
X151130000Y-87884000D02*
X151829000Y-88583000D01*
X146686000Y-87884000D02*
X151130000Y-87884000D01*
X151829000Y-88583000D02*
X151829000Y-89154000D01*
X51923000Y-86285000D02*
X56907412Y-86285000D01*
X56907412Y-86285000D02*
X58020000Y-85172412D01*
X72829800Y-84828000D02*
X76073000Y-84828000D01*
X50900000Y-84135000D02*
X50900000Y-85262000D01*
X72597800Y-85060000D02*
X72829800Y-84828000D01*
X143638000Y-84836000D02*
X76000000Y-84836000D01*
X146749000Y-87947000D02*
X143638000Y-84836000D01*
X58020000Y-85172412D02*
X58847588Y-85172412D01*
X146749000Y-89154000D02*
X146749000Y-87947000D01*
X58940000Y-85060000D02*
X72597800Y-85060000D01*
X50900000Y-85262000D02*
X51923000Y-86285000D01*
%TO.N,Net-(R52-Pad1)*%
X153670000Y-90170000D02*
X153670000Y-91440000D01*
X153479000Y-89154000D02*
X153479000Y-89979000D01*
X153479000Y-89979000D02*
X153670000Y-90170000D01*
%TO.N,/Microcontroller/CH19*%
X99060000Y-87884000D02*
X99759000Y-88583000D01*
X94616000Y-87884000D02*
X99060000Y-87884000D01*
X99759000Y-88583000D02*
X99759000Y-89154000D01*
X74273506Y-87368000D02*
X76073000Y-87368000D01*
X57715000Y-91365000D02*
X70280600Y-91365000D01*
X94679000Y-89154000D02*
X94679000Y-87947000D01*
X94679000Y-87947000D02*
X94108000Y-87376000D01*
X94108000Y-87376000D02*
X76000000Y-87376000D01*
X70458400Y-91183106D02*
X74273506Y-87368000D01*
X46900000Y-85266000D02*
X54344000Y-92710000D01*
X56400000Y-92680000D02*
X57715000Y-91365000D01*
X70280600Y-91365000D02*
X70459600Y-91186000D01*
X46900000Y-84135000D02*
X46900000Y-85266000D01*
X54344000Y-92710000D02*
X56410000Y-92710000D01*
%TO.N,Net-(R53-Pad1)*%
X101600000Y-90170000D02*
X101600000Y-91440000D01*
X101409000Y-89979000D02*
X101600000Y-90170000D01*
X101409000Y-89154000D02*
X101409000Y-89979000D01*
%TO.N,Net-(R54-Pad1)*%
X148399000Y-89979000D02*
X148590000Y-90170000D01*
X148399000Y-89154000D02*
X148399000Y-89979000D01*
X148590000Y-90170000D02*
X148590000Y-91440000D01*
%TO.N,Net-(R55-Pad1)*%
X96520000Y-90170000D02*
X96520000Y-91440000D01*
X96329000Y-89154000D02*
X96329000Y-89979000D01*
X96329000Y-89979000D02*
X96520000Y-90170000D01*
%TO.N,/Microcontroller/CH15*%
X136526000Y-87884000D02*
X140970000Y-87884000D01*
X141669000Y-88583000D02*
X141669000Y-89154000D01*
X140970000Y-87884000D02*
X141669000Y-88583000D01*
X133986000Y-85344000D02*
X76000000Y-85344000D01*
X136589000Y-87947000D02*
X133986000Y-85344000D01*
X136589000Y-89154000D02*
X136589000Y-87947000D01*
X73220200Y-85352000D02*
X76022200Y-85352000D01*
X72232200Y-86340000D02*
X73220200Y-85352000D01*
X56400000Y-87600000D02*
X57660000Y-86340000D01*
X50100000Y-84135000D02*
X50100000Y-85224000D01*
X52496000Y-87620000D02*
X56420000Y-87620000D01*
X50100000Y-85224000D02*
X52496000Y-87620000D01*
X57660000Y-86340000D02*
X72232200Y-86340000D01*
%TO.N,Net-(R56-Pad1)*%
X143319000Y-89154000D02*
X143319000Y-89979000D01*
X143319000Y-89979000D02*
X143510000Y-90170000D01*
X143510000Y-90170000D02*
X143510000Y-91440000D01*
%TO.N,/Microcontroller/CH20*%
X84519000Y-89154000D02*
X84519000Y-87947000D01*
X84456000Y-87884000D02*
X84519000Y-87947000D01*
X89599000Y-88583000D02*
X89599000Y-89154000D01*
X88900000Y-87884000D02*
X89599000Y-88583000D01*
X84456000Y-87884000D02*
X88900000Y-87884000D01*
X58940000Y-92680000D02*
X69672706Y-92680000D01*
X54539000Y-93905000D02*
X57745000Y-93905000D01*
X46100000Y-84135000D02*
X46100000Y-85466000D01*
X57745000Y-93905000D02*
X58990000Y-92660000D01*
X46100000Y-85466000D02*
X54539000Y-93905000D01*
X69672706Y-92680000D02*
X74468706Y-87884000D01*
X74468706Y-87884000D02*
X84456000Y-87884000D01*
%TO.N,Net-(R57-Pad1)*%
X91249000Y-89979000D02*
X91440000Y-90170000D01*
X91440000Y-90170000D02*
X91440000Y-91440000D01*
X91249000Y-89154000D02*
X91249000Y-89979000D01*
%TO.N,Net-(R58-Pad1)*%
X138430000Y-90170000D02*
X138430000Y-91440000D01*
X138239000Y-89154000D02*
X138239000Y-89979000D01*
X138239000Y-89979000D02*
X138430000Y-90170000D01*
%TO.N,Net-(R59-Pad1)*%
X86169000Y-89154000D02*
X86169000Y-89979000D01*
X86169000Y-89979000D02*
X86360000Y-90170000D01*
X86360000Y-90170000D02*
X86360000Y-91440000D01*
D40*
%TO.N,/Relays/Input pins/Bus_HIGH*%
X187960000Y-101092000D02*
X187960000Y-99060000D01*
X149860000Y-102362000D02*
X142240000Y-102362000D01*
X109220000Y-101092000D02*
X109220000Y-99060000D01*
X118110000Y-102362000D02*
X110490000Y-102362000D01*
X186690000Y-102362000D02*
X182880000Y-102362000D01*
X151130000Y-101092000D02*
X149860000Y-102362000D01*
X129540000Y-101092000D02*
X128270000Y-102362000D01*
X128270000Y-102362000D02*
X120650000Y-102362000D01*
X180340000Y-102362000D02*
X172720000Y-102362000D01*
X119380000Y-101092000D02*
X118110000Y-102362000D01*
X181610000Y-101092000D02*
X181610000Y-99060000D01*
X100330000Y-102362000D02*
X99060000Y-101092000D01*
X97790000Y-102362000D02*
X90170000Y-102362000D01*
X88900000Y-101092000D02*
X88900000Y-99060000D01*
X182880000Y-102362000D02*
X181610000Y-101092000D01*
X151130000Y-101092000D02*
X151130000Y-99060000D01*
X142240000Y-102362000D02*
X140970000Y-101092000D01*
X110490000Y-102362000D02*
X109220000Y-101092000D01*
X129540000Y-101092000D02*
X129540000Y-99060000D01*
X107950000Y-102362000D02*
X100330000Y-102362000D01*
X160020000Y-102362000D02*
X152400000Y-102362000D01*
X109220000Y-101092000D02*
X107950000Y-102362000D01*
X181610000Y-101092000D02*
X180340000Y-102362000D01*
X161290000Y-101092000D02*
X161290000Y-99060000D01*
X162560000Y-102362000D02*
X161290000Y-101092000D01*
X187960000Y-101092000D02*
X186690000Y-102362000D01*
X152400000Y-102362000D02*
X151130000Y-101092000D01*
X130810000Y-102362000D02*
X129540000Y-101092000D01*
X119380000Y-101092000D02*
X119380000Y-99060000D01*
X171450000Y-101092000D02*
X170180000Y-102362000D01*
X171450000Y-101092000D02*
X171450000Y-99060000D01*
X161290000Y-101092000D02*
X160020000Y-102362000D01*
X120650000Y-102362000D02*
X119380000Y-101092000D01*
X172720000Y-102362000D02*
X171450000Y-101092000D01*
X130810000Y-102362000D02*
X139700000Y-102362000D01*
X140970000Y-101092000D02*
X140970000Y-99060000D01*
X170180000Y-102362000D02*
X162560000Y-102362000D01*
X99060000Y-101092000D02*
X97790000Y-102362000D01*
X90170000Y-102362000D02*
X88900000Y-101092000D01*
X140970000Y-101092000D02*
X139700000Y-102362000D01*
X99060000Y-101092000D02*
X99060000Y-99060000D01*
%TO.N,/Relays/Input pins/Bus_LOW*%
X146050000Y-97028000D02*
X144780000Y-95758000D01*
X156210000Y-97028000D02*
X156210000Y-99060000D01*
X102870000Y-95758000D02*
X95250000Y-95758000D01*
X114300000Y-97028000D02*
X113030000Y-95758000D01*
X157480000Y-95758000D02*
X156210000Y-97028000D01*
X200787000Y-94488000D02*
X199517000Y-95758000D01*
X191770000Y-95758000D02*
X177800000Y-95758000D01*
X193040000Y-64008000D02*
X194310000Y-62738000D01*
X176530000Y-97028000D02*
X176530000Y-99060000D01*
X93980000Y-97028000D02*
X92710000Y-95758000D01*
X137160000Y-95758000D02*
X135890000Y-97028000D01*
X135890000Y-97028000D02*
X135890000Y-99060000D01*
X154940000Y-95758000D02*
X147320000Y-95758000D01*
X123190000Y-95758000D02*
X115570000Y-95758000D01*
X194310000Y-95758000D02*
X193040000Y-97028000D01*
X124460000Y-97028000D02*
X123190000Y-95758000D01*
X146050000Y-97028000D02*
X146050000Y-99060000D01*
X124460000Y-97028000D02*
X124460000Y-99060000D01*
X199517000Y-95758000D02*
X194310000Y-95758000D01*
X193040000Y-66040000D02*
X193040000Y-64008000D01*
X135890000Y-97028000D02*
X134620000Y-95758000D01*
X199136000Y-62738000D02*
X200787000Y-64389000D01*
X114300000Y-97028000D02*
X114300000Y-99060000D01*
X194310000Y-62738000D02*
X199136000Y-62738000D01*
X177800000Y-95758000D02*
X176530000Y-97028000D01*
X176530000Y-97028000D02*
X175260000Y-95758000D01*
X156210000Y-97028000D02*
X154940000Y-95758000D01*
X104140000Y-97028000D02*
X102870000Y-95758000D01*
X200787000Y-64389000D02*
X200787000Y-94488000D01*
X175260000Y-95758000D02*
X167640000Y-95758000D01*
X95250000Y-95758000D02*
X93980000Y-97028000D01*
X125730000Y-95758000D02*
X134620000Y-95758000D01*
X147320000Y-95758000D02*
X146050000Y-97028000D01*
X167640000Y-95758000D02*
X166370000Y-97028000D01*
X144780000Y-95758000D02*
X137160000Y-95758000D01*
X104140000Y-97028000D02*
X104140000Y-99060000D01*
X166370000Y-97028000D02*
X166370000Y-99060000D01*
X85090000Y-95758000D02*
X83820000Y-97028000D01*
X93980000Y-97028000D02*
X93980000Y-99060000D01*
X166370000Y-97028000D02*
X165100000Y-95758000D01*
X193040000Y-97028000D02*
X191770000Y-95758000D01*
X165100000Y-95758000D02*
X157480000Y-95758000D01*
X115570000Y-95758000D02*
X114300000Y-97028000D01*
X125730000Y-95758000D02*
X124460000Y-97028000D01*
X83820000Y-97028000D02*
X83820000Y-99060000D01*
X113030000Y-95758000D02*
X105410000Y-95758000D01*
X193040000Y-97028000D02*
X193040000Y-99060000D01*
X105410000Y-95758000D02*
X104140000Y-97028000D01*
X92710000Y-95758000D02*
X85090000Y-95758000D01*
%TO.N,/Relays/Input/Sense pins/Sense_HIGH*%
X190500000Y-99060000D02*
X190500000Y-107696000D01*
%TO.N,/Relays/Input/Sense pins/Sense_LOW*%
X195580000Y-99060000D02*
X195580000Y-107696000D01*
%TD*%
%TA.AperFunction,Conductor*%
%TO.N,+3.3V*%
G36*
X75741431Y-48305502D02*
G01*
X75762405Y-48322405D01*
X76163095Y-48723095D01*
X76197121Y-48785407D01*
X76200000Y-48812190D01*
X76200000Y-76159905D01*
X76179998Y-76228026D01*
X76126342Y-76274519D01*
X76056068Y-76284623D01*
X75991488Y-76255129D01*
X75984905Y-76249000D01*
X64997244Y-65261339D01*
X64984171Y-65245021D01*
X64932348Y-65196356D01*
X64929506Y-65193601D01*
X64912574Y-65176669D01*
X64909770Y-65173865D01*
X64906575Y-65171386D01*
X64897554Y-65163682D01*
X64865320Y-65133413D01*
X64847567Y-65123653D01*
X64831041Y-65112797D01*
X64815041Y-65100386D01*
X64774466Y-65082828D01*
X64763804Y-65077604D01*
X64725063Y-65056305D01*
X64711313Y-65052775D01*
X64705437Y-65051266D01*
X64686731Y-65044862D01*
X64668145Y-65036819D01*
X64668144Y-65036819D01*
X64624474Y-65029901D01*
X64612853Y-65027495D01*
X64603050Y-65024978D01*
X64570030Y-65016500D01*
X64570029Y-65016500D01*
X64549776Y-65016500D01*
X64530066Y-65014949D01*
X64510057Y-65011779D01*
X64466039Y-65015941D01*
X64454181Y-65016500D01*
X58113853Y-65016500D01*
X58093064Y-65014204D01*
X58022014Y-65016438D01*
X58018055Y-65016500D01*
X57990144Y-65016500D01*
X57986218Y-65016995D01*
X57986200Y-65016997D01*
X57986108Y-65017009D01*
X57974303Y-65017937D01*
X57930110Y-65019326D01*
X57910657Y-65024978D01*
X57891303Y-65028986D01*
X57871202Y-65031525D01*
X57830098Y-65047800D01*
X57818869Y-65051645D01*
X57776405Y-65063982D01*
X57758964Y-65074296D01*
X57741217Y-65082990D01*
X57722384Y-65090447D01*
X57686611Y-65116437D01*
X57676693Y-65122951D01*
X57638639Y-65145457D01*
X57624312Y-65159783D01*
X57609283Y-65172618D01*
X57592894Y-65184525D01*
X57564701Y-65218604D01*
X57556713Y-65227381D01*
X56899499Y-65884595D01*
X56837187Y-65918621D01*
X56810404Y-65921500D01*
X55752661Y-65921500D01*
X55752641Y-65921500D01*
X55749456Y-65921501D01*
X55746279Y-65921825D01*
X55746270Y-65921826D01*
X55645573Y-65932113D01*
X55477262Y-65987885D01*
X55326344Y-66080972D01*
X55200972Y-66206344D01*
X55153382Y-66283500D01*
X55107885Y-66357262D01*
X55100842Y-66378517D01*
X55060981Y-66498813D01*
X55052113Y-66525574D01*
X55050301Y-66543307D01*
X55023480Y-66609041D01*
X54965377Y-66649840D01*
X54924954Y-66656500D01*
X52786747Y-66656500D01*
X52765958Y-66654204D01*
X52694908Y-66656438D01*
X52690949Y-66656500D01*
X52663038Y-66656500D01*
X52659112Y-66656995D01*
X52659094Y-66656997D01*
X52659002Y-66657009D01*
X52647197Y-66657937D01*
X52603004Y-66659326D01*
X52583551Y-66664978D01*
X52564197Y-66668986D01*
X52544098Y-66671525D01*
X52502990Y-66687801D01*
X52491764Y-66691644D01*
X52449302Y-66703981D01*
X52431858Y-66714297D01*
X52414109Y-66722991D01*
X52395278Y-66730446D01*
X52359519Y-66756427D01*
X52349600Y-66762943D01*
X52311530Y-66785457D01*
X52297203Y-66799785D01*
X52282173Y-66812622D01*
X52265788Y-66824526D01*
X52237605Y-66858593D01*
X52229617Y-66867370D01*
X48327095Y-70769892D01*
X48264783Y-70803918D01*
X48193968Y-70798853D01*
X48137132Y-70756306D01*
X48112321Y-70689786D01*
X48112000Y-70680797D01*
X48112000Y-70434000D01*
X47185116Y-70434000D01*
X47213493Y-70389844D01*
X47254000Y-70251889D01*
X47254000Y-70108111D01*
X47213493Y-69970156D01*
X47185116Y-69926000D01*
X48112000Y-69926000D01*
X48112000Y-69284777D01*
X48111640Y-69278063D01*
X48105494Y-69220906D01*
X48054445Y-69084037D01*
X47966904Y-68967095D01*
X47849962Y-68879554D01*
X47734827Y-68836611D01*
X47677991Y-68794064D01*
X47653180Y-68727544D01*
X47668271Y-68658170D01*
X47686152Y-68633224D01*
X47829722Y-68477268D01*
X47952860Y-68288791D01*
X48043296Y-68082616D01*
X48098564Y-67864368D01*
X48117156Y-67640000D01*
X48098564Y-67415632D01*
X48043296Y-67197384D01*
X47952860Y-66991209D01*
X47829722Y-66802732D01*
X47677240Y-66637094D01*
X47677239Y-66637093D01*
X47677237Y-66637091D01*
X47499579Y-66498813D01*
X47499577Y-66498812D01*
X47499576Y-66498811D01*
X47466317Y-66480812D01*
X47415929Y-66430801D01*
X47400576Y-66361484D01*
X47425136Y-66294871D01*
X47466316Y-66259187D01*
X47499576Y-66241189D01*
X47677240Y-66102906D01*
X47829722Y-65937268D01*
X47952860Y-65748791D01*
X48043296Y-65542616D01*
X48098564Y-65324368D01*
X48117156Y-65100000D01*
X48098564Y-64875632D01*
X48043296Y-64657384D01*
X47952860Y-64451209D01*
X47829722Y-64262732D01*
X47677240Y-64097094D01*
X47677239Y-64097093D01*
X47677237Y-64097091D01*
X47499578Y-63958812D01*
X47466317Y-63940812D01*
X47415927Y-63890798D01*
X47400576Y-63821481D01*
X47425138Y-63754868D01*
X47466315Y-63719188D01*
X47499576Y-63701189D01*
X47677240Y-63562906D01*
X47829722Y-63397268D01*
X47952860Y-63208791D01*
X48043296Y-63002616D01*
X48098564Y-62784368D01*
X48117156Y-62560000D01*
X48098564Y-62335632D01*
X48043296Y-62117384D01*
X47952860Y-61911209D01*
X47829722Y-61722732D01*
X47677240Y-61557094D01*
X47677239Y-61557093D01*
X47677237Y-61557091D01*
X47499579Y-61418813D01*
X47499577Y-61418812D01*
X47499576Y-61418811D01*
X47466317Y-61400812D01*
X47415929Y-61350801D01*
X47400576Y-61281484D01*
X47425136Y-61214871D01*
X47466316Y-61179187D01*
X47499576Y-61161189D01*
X47677240Y-61022906D01*
X47829722Y-60857268D01*
X47932089Y-60700582D01*
X47986092Y-60654496D01*
X48037571Y-60643500D01*
X49166147Y-60643500D01*
X49186935Y-60645795D01*
X49189907Y-60645701D01*
X49189909Y-60645702D01*
X49257985Y-60643562D01*
X49261945Y-60643500D01*
X49285894Y-60643500D01*
X49289856Y-60643500D01*
X49293856Y-60642994D01*
X49305699Y-60642061D01*
X49349889Y-60640673D01*
X49369338Y-60635021D01*
X49388698Y-60631012D01*
X49408797Y-60628474D01*
X49449915Y-60612193D01*
X49461117Y-60608357D01*
X49503593Y-60596018D01*
X49521039Y-60585699D01*
X49538780Y-60577009D01*
X49557617Y-60569552D01*
X49593392Y-60543558D01*
X49603303Y-60537048D01*
X49641362Y-60514542D01*
X49655691Y-60500212D01*
X49670719Y-60487377D01*
X49687107Y-60475472D01*
X49715303Y-60441386D01*
X49723272Y-60432630D01*
X51468659Y-58687244D01*
X51484980Y-58674169D01*
X51487014Y-58672001D01*
X51487018Y-58672000D01*
X51533661Y-58622328D01*
X51536353Y-58619550D01*
X51556135Y-58599770D01*
X51558613Y-58596574D01*
X51566308Y-58587563D01*
X51596586Y-58555321D01*
X51606342Y-58537571D01*
X51617195Y-58521050D01*
X51629614Y-58505041D01*
X51647175Y-58464454D01*
X51652388Y-58453813D01*
X51673695Y-58415060D01*
X51678733Y-58395434D01*
X51685137Y-58376732D01*
X51693181Y-58358145D01*
X51700096Y-58314481D01*
X51702504Y-58302853D01*
X51713500Y-58260029D01*
X51713500Y-58239775D01*
X51715051Y-58220063D01*
X51718220Y-58200057D01*
X51714059Y-58156036D01*
X51713500Y-58144179D01*
X51713500Y-53423848D01*
X51715794Y-53403070D01*
X51715700Y-53400093D01*
X51715701Y-53400091D01*
X51713562Y-53332031D01*
X51713500Y-53328073D01*
X51713500Y-53304100D01*
X51713500Y-53300144D01*
X51712993Y-53296134D01*
X51712061Y-53284295D01*
X51710673Y-53240110D01*
X51705020Y-53220656D01*
X51701012Y-53201299D01*
X51698474Y-53181203D01*
X51682197Y-53140092D01*
X51678358Y-53128882D01*
X51666018Y-53086406D01*
X51655700Y-53068961D01*
X51647008Y-53051216D01*
X51639552Y-53032383D01*
X51639551Y-53032381D01*
X51613564Y-52996613D01*
X51607046Y-52986690D01*
X51604714Y-52982747D01*
X51584542Y-52948637D01*
X51570213Y-52934308D01*
X51557376Y-52919277D01*
X51545473Y-52902893D01*
X51511406Y-52874711D01*
X51502626Y-52866721D01*
X51079244Y-52443339D01*
X51066171Y-52427021D01*
X51014348Y-52378356D01*
X51011506Y-52375601D01*
X50994574Y-52358669D01*
X50991770Y-52355865D01*
X50988575Y-52353386D01*
X50979554Y-52345682D01*
X50947320Y-52315413D01*
X50929567Y-52305653D01*
X50913041Y-52294797D01*
X50897041Y-52282386D01*
X50856466Y-52264828D01*
X50845804Y-52259604D01*
X50807063Y-52238305D01*
X50793313Y-52234775D01*
X50787437Y-52233266D01*
X50768731Y-52226862D01*
X50750145Y-52218819D01*
X50706475Y-52211902D01*
X50694853Y-52209495D01*
X50685050Y-52206978D01*
X50652030Y-52198500D01*
X50652029Y-52198500D01*
X50631776Y-52198500D01*
X50612066Y-52196949D01*
X50592057Y-52193779D01*
X50548039Y-52197941D01*
X50536181Y-52198500D01*
X37167853Y-52198500D01*
X37147064Y-52196204D01*
X37076014Y-52198438D01*
X37072055Y-52198500D01*
X37044144Y-52198500D01*
X37040218Y-52198995D01*
X37040200Y-52198997D01*
X37040108Y-52199009D01*
X37028303Y-52199937D01*
X36984111Y-52201326D01*
X36964658Y-52206978D01*
X36945304Y-52210986D01*
X36925205Y-52213525D01*
X36911834Y-52218819D01*
X36884091Y-52229802D01*
X36872874Y-52233643D01*
X36830407Y-52245982D01*
X36812964Y-52256297D01*
X36795217Y-52264990D01*
X36776384Y-52272446D01*
X36740611Y-52298437D01*
X36730693Y-52304951D01*
X36692639Y-52327457D01*
X36678312Y-52341783D01*
X36663283Y-52354618D01*
X36646894Y-52366525D01*
X36618701Y-52400604D01*
X36610713Y-52409381D01*
X29970147Y-59049946D01*
X29907835Y-59083972D01*
X29837020Y-59078907D01*
X29780184Y-59036360D01*
X29755373Y-58969840D01*
X29759555Y-58927466D01*
X29809693Y-58745019D01*
X29839198Y-58489445D01*
X29829344Y-58232362D01*
X29780361Y-57979797D01*
X29693399Y-57737668D01*
X29570496Y-57511652D01*
X29414531Y-57307046D01*
X29229162Y-57128646D01*
X29229158Y-57128643D01*
X29229157Y-57128642D01*
X29018734Y-56980634D01*
X28788173Y-56866475D01*
X28542889Y-56788850D01*
X28288638Y-56749580D01*
X28288636Y-56749580D01*
X28095773Y-56749580D01*
X28093382Y-56749763D01*
X28093370Y-56749764D01*
X27903488Y-56764342D01*
X27903484Y-56764342D01*
X27903483Y-56764343D01*
X27798756Y-56788850D01*
X27652974Y-56822964D01*
X27414360Y-56919135D01*
X27193216Y-57050606D01*
X26994735Y-57214291D01*
X26823562Y-57406362D01*
X26683721Y-57622304D01*
X26578478Y-57857065D01*
X26510307Y-58105137D01*
X26480802Y-58360714D01*
X26490656Y-58617801D01*
X26539638Y-58870360D01*
X26583718Y-58993094D01*
X26626601Y-59112492D01*
X26749504Y-59338508D01*
X26905469Y-59543114D01*
X27090838Y-59721514D01*
X27090841Y-59721516D01*
X27090842Y-59721517D01*
X27301265Y-59869525D01*
X27301268Y-59869527D01*
X27510751Y-59973249D01*
X27531826Y-59983684D01*
X27777110Y-60061309D01*
X28031362Y-60100580D01*
X28031364Y-60100580D01*
X28221821Y-60100580D01*
X28224227Y-60100580D01*
X28416517Y-60085817D01*
X28662182Y-60028329D01*
X28733065Y-60032284D01*
X28790560Y-60073934D01*
X28816411Y-60140057D01*
X28802409Y-60209659D01*
X28779983Y-60240110D01*
X28313336Y-60706757D01*
X28297016Y-60719833D01*
X28248370Y-60771635D01*
X28245621Y-60774472D01*
X28228667Y-60791427D01*
X28228660Y-60791434D01*
X28225865Y-60794230D01*
X28223442Y-60797352D01*
X28223426Y-60797371D01*
X28223365Y-60797451D01*
X28215689Y-60806436D01*
X28185414Y-60838677D01*
X28175652Y-60856434D01*
X28164801Y-60872952D01*
X28152385Y-60888959D01*
X28134824Y-60929539D01*
X28129604Y-60940195D01*
X28108304Y-60978940D01*
X28103267Y-60998559D01*
X28096864Y-61017261D01*
X28088818Y-61035855D01*
X28081901Y-61079524D01*
X28079495Y-61091144D01*
X28068500Y-61133969D01*
X28068500Y-61154223D01*
X28066949Y-61173933D01*
X28063779Y-61193942D01*
X28067941Y-61237961D01*
X28068500Y-61249819D01*
X28068500Y-79203227D01*
X28066204Y-79224015D01*
X28068438Y-79295064D01*
X28068500Y-79299023D01*
X28068500Y-79326936D01*
X28068995Y-79330854D01*
X28068997Y-79330886D01*
X28069008Y-79330968D01*
X28069937Y-79342777D01*
X28071326Y-79386972D01*
X28076977Y-79406421D01*
X28080986Y-79425776D01*
X28083525Y-79445874D01*
X28083525Y-79445876D01*
X28083526Y-79445877D01*
X28085770Y-79451546D01*
X28099801Y-79486983D01*
X28103644Y-79498210D01*
X28115980Y-79540670D01*
X28126294Y-79558110D01*
X28134987Y-79575854D01*
X28142448Y-79594697D01*
X28142449Y-79594699D01*
X28168431Y-79630460D01*
X28174948Y-79640381D01*
X28197458Y-79678443D01*
X28211778Y-79692763D01*
X28224618Y-79707796D01*
X28236526Y-79724185D01*
X28236527Y-79724186D01*
X28236528Y-79724187D01*
X28246034Y-79732051D01*
X28270598Y-79752372D01*
X28279378Y-79760362D01*
X29411259Y-80892243D01*
X29445285Y-80954555D01*
X29443871Y-81013946D01*
X29431171Y-81061344D01*
X29411597Y-81285080D01*
X29431171Y-81508809D01*
X29489296Y-81725740D01*
X29511582Y-81773531D01*
X29522243Y-81843723D01*
X29493263Y-81908536D01*
X29471448Y-81928717D01*
X29438111Y-81952936D01*
X29428197Y-81959449D01*
X29390136Y-81981958D01*
X29375811Y-81996283D01*
X29360784Y-82009117D01*
X29344394Y-82021025D01*
X29316201Y-82055104D01*
X29308213Y-82063881D01*
X28186336Y-83185757D01*
X28170016Y-83198833D01*
X28121370Y-83250635D01*
X28118621Y-83253472D01*
X28101667Y-83270427D01*
X28101660Y-83270434D01*
X28098865Y-83273230D01*
X28096442Y-83276352D01*
X28096426Y-83276371D01*
X28096365Y-83276451D01*
X28088689Y-83285436D01*
X28058414Y-83317677D01*
X28048652Y-83335434D01*
X28037801Y-83351952D01*
X28025385Y-83367959D01*
X28007824Y-83408539D01*
X28002604Y-83419195D01*
X27981304Y-83457940D01*
X27976267Y-83477559D01*
X27969864Y-83496261D01*
X27961818Y-83514855D01*
X27954901Y-83558524D01*
X27952495Y-83570144D01*
X27941500Y-83612969D01*
X27941500Y-83633223D01*
X27939949Y-83652933D01*
X27936779Y-83672942D01*
X27940941Y-83716961D01*
X27941500Y-83728819D01*
X27941500Y-103421147D01*
X27939204Y-103441935D01*
X27941438Y-103512984D01*
X27941500Y-103516943D01*
X27941500Y-103544856D01*
X27941995Y-103548774D01*
X27941997Y-103548806D01*
X27942008Y-103548888D01*
X27942937Y-103560697D01*
X27944326Y-103604892D01*
X27949977Y-103624341D01*
X27953986Y-103643696D01*
X27956525Y-103663794D01*
X27972801Y-103704903D01*
X27976644Y-103716130D01*
X27988980Y-103758590D01*
X27999294Y-103776030D01*
X28007987Y-103793774D01*
X28014355Y-103809857D01*
X28015449Y-103812619D01*
X28041431Y-103848380D01*
X28047948Y-103858301D01*
X28070458Y-103896363D01*
X28084778Y-103910683D01*
X28097618Y-103925716D01*
X28109526Y-103942105D01*
X28143598Y-103970292D01*
X28152378Y-103978282D01*
X29322754Y-105148659D01*
X29339647Y-105169619D01*
X29339656Y-105169633D01*
X29359668Y-105237751D01*
X29339675Y-105305874D01*
X29286026Y-105352374D01*
X29215754Y-105362488D01*
X29161178Y-105340827D01*
X29018734Y-105240634D01*
X28788173Y-105126475D01*
X28542889Y-105048850D01*
X28288638Y-105009580D01*
X28288636Y-105009580D01*
X28095773Y-105009580D01*
X28093382Y-105009763D01*
X28093370Y-105009764D01*
X27903488Y-105024342D01*
X27903484Y-105024342D01*
X27903483Y-105024343D01*
X27872899Y-105031500D01*
X27652974Y-105082964D01*
X27414360Y-105179135D01*
X27193216Y-105310606D01*
X26994735Y-105474291D01*
X26823562Y-105666362D01*
X26683721Y-105882304D01*
X26578478Y-106117065D01*
X26510307Y-106365137D01*
X26503271Y-106426087D01*
X26480802Y-106620715D01*
X26482486Y-106664639D01*
X26490656Y-106877801D01*
X26539638Y-107130360D01*
X26621806Y-107359143D01*
X26626601Y-107372492D01*
X26749504Y-107598508D01*
X26905469Y-107803114D01*
X27090838Y-107981514D01*
X27090841Y-107981516D01*
X27090842Y-107981517D01*
X27201786Y-108059553D01*
X27301268Y-108129527D01*
X27525097Y-108240352D01*
X27531826Y-108243684D01*
X27777110Y-108321309D01*
X28031362Y-108360580D01*
X28031364Y-108360580D01*
X28221821Y-108360580D01*
X28224227Y-108360580D01*
X28416517Y-108345817D01*
X28667021Y-108287197D01*
X28905641Y-108191024D01*
X29126783Y-108059554D01*
X29325265Y-107895867D01*
X29496435Y-107703800D01*
X29636279Y-107487855D01*
X29741521Y-107253094D01*
X29809693Y-107005019D01*
X29839198Y-106749445D01*
X29829344Y-106492362D01*
X29780361Y-106239797D01*
X29693399Y-105997668D01*
X29570496Y-105771652D01*
X29414531Y-105567046D01*
X29356612Y-105511304D01*
X29321400Y-105449657D01*
X29325107Y-105378757D01*
X29366557Y-105321117D01*
X29432590Y-105295036D01*
X29494023Y-105304882D01*
X29545535Y-105327172D01*
X29556193Y-105332393D01*
X29594940Y-105353695D01*
X29614560Y-105358732D01*
X29633267Y-105365137D01*
X29639880Y-105367998D01*
X29651854Y-105373181D01*
X29662505Y-105374867D01*
X29695530Y-105380098D01*
X29707125Y-105382498D01*
X29749970Y-105393500D01*
X29770224Y-105393500D01*
X29789934Y-105395051D01*
X29809942Y-105398220D01*
X29809942Y-105398219D01*
X29809943Y-105398220D01*
X29853961Y-105394058D01*
X29865819Y-105393500D01*
X32559565Y-105393500D01*
X32627686Y-105413502D01*
X32674179Y-105467158D01*
X32684283Y-105537432D01*
X32672122Y-105564059D01*
X32670714Y-105591505D01*
X33540365Y-106461155D01*
X33398052Y-106550577D01*
X33270577Y-106678052D01*
X33181156Y-106820365D01*
X32310541Y-105949750D01*
X32182796Y-106130724D01*
X32178335Y-106138061D01*
X32055917Y-106374317D01*
X32052495Y-106382193D01*
X31963384Y-106632927D01*
X31961069Y-106641192D01*
X31906928Y-106901731D01*
X31905760Y-106910230D01*
X31887602Y-107175701D01*
X31887602Y-107184298D01*
X31905760Y-107449769D01*
X31906928Y-107458268D01*
X31961069Y-107718807D01*
X31963384Y-107727072D01*
X32052495Y-107977806D01*
X32055917Y-107985682D01*
X32178333Y-108221934D01*
X32182804Y-108229287D01*
X32310540Y-108410248D01*
X32310541Y-108410248D01*
X33181155Y-107539634D01*
X33270577Y-107681948D01*
X33398052Y-107809423D01*
X33540364Y-107898843D01*
X32670715Y-108768492D01*
X32670715Y-108768494D01*
X32735984Y-108821595D01*
X32742995Y-108826543D01*
X32970352Y-108964802D01*
X32977981Y-108968754D01*
X33222039Y-109074764D01*
X33230132Y-109077641D01*
X33486359Y-109149433D01*
X33494777Y-109151182D01*
X33758380Y-109187413D01*
X33766954Y-109188000D01*
X34033046Y-109188000D01*
X34041619Y-109187413D01*
X34305222Y-109151182D01*
X34313640Y-109149433D01*
X34569867Y-109077641D01*
X34577960Y-109074764D01*
X34822018Y-108968754D01*
X34829647Y-108964802D01*
X35057004Y-108826543D01*
X35064016Y-108821594D01*
X35129283Y-108768494D01*
X35129283Y-108768492D01*
X34259634Y-107898843D01*
X34401948Y-107809423D01*
X34529423Y-107681948D01*
X34618844Y-107539634D01*
X35489458Y-108410247D01*
X35617199Y-108229280D01*
X35621666Y-108221934D01*
X35744082Y-107985682D01*
X35747504Y-107977806D01*
X35836615Y-107727072D01*
X35838930Y-107718807D01*
X35893071Y-107458268D01*
X35894239Y-107449769D01*
X35912398Y-107184298D01*
X35912398Y-107175701D01*
X35894239Y-106910230D01*
X35893071Y-106901731D01*
X35843877Y-106665000D01*
X43575000Y-106665000D01*
X44304000Y-106665000D01*
X44304000Y-106011000D01*
X44812000Y-106011000D01*
X44812000Y-106665000D01*
X45540999Y-106665000D01*
X45540999Y-106664639D01*
X45540739Y-106658922D01*
X45534518Y-106590443D01*
X45483366Y-106426293D01*
X45394417Y-106279153D01*
X45272846Y-106157582D01*
X45125706Y-106068633D01*
X44961556Y-106017481D01*
X44893074Y-106011258D01*
X44887363Y-106011000D01*
X44812000Y-106011000D01*
X44304000Y-106011000D01*
X44304000Y-106010999D01*
X44228639Y-106011000D01*
X44222922Y-106011260D01*
X44154443Y-106017481D01*
X43990293Y-106068633D01*
X43843153Y-106157582D01*
X43721582Y-106279153D01*
X43632633Y-106426293D01*
X43581481Y-106590443D01*
X43575258Y-106658925D01*
X43575000Y-106664636D01*
X43575000Y-106665000D01*
X35843877Y-106665000D01*
X35838930Y-106641192D01*
X35836615Y-106632927D01*
X35747504Y-106382193D01*
X35744082Y-106374317D01*
X35621666Y-106138065D01*
X35617199Y-106130719D01*
X35489457Y-105949750D01*
X34618843Y-106820363D01*
X34529423Y-106678052D01*
X34401948Y-106550577D01*
X34259634Y-106461155D01*
X35129283Y-105591505D01*
X35128160Y-105569590D01*
X35120696Y-105558732D01*
X35118494Y-105487769D01*
X35155006Y-105426881D01*
X35218641Y-105395399D01*
X35240433Y-105393500D01*
X36316147Y-105393500D01*
X36336935Y-105395795D01*
X36339907Y-105395701D01*
X36339909Y-105395702D01*
X36407985Y-105393562D01*
X36411945Y-105393500D01*
X36435894Y-105393500D01*
X36439856Y-105393500D01*
X36443856Y-105392994D01*
X36455699Y-105392061D01*
X36499889Y-105390673D01*
X36519338Y-105385021D01*
X36538698Y-105381012D01*
X36558797Y-105378474D01*
X36599915Y-105362193D01*
X36611117Y-105358357D01*
X36653593Y-105346018D01*
X36671039Y-105335699D01*
X36688780Y-105327009D01*
X36707617Y-105319552D01*
X36743392Y-105293558D01*
X36753303Y-105287048D01*
X36791362Y-105264542D01*
X36805691Y-105250212D01*
X36820719Y-105237377D01*
X36837107Y-105225472D01*
X36865303Y-105191386D01*
X36873272Y-105182630D01*
X37788658Y-104267244D01*
X37804979Y-104254170D01*
X37807014Y-104252002D01*
X37807018Y-104252000D01*
X37853676Y-104202312D01*
X37856368Y-104199534D01*
X37876135Y-104179769D01*
X37878597Y-104176593D01*
X37886318Y-104167551D01*
X37916586Y-104135321D01*
X37926345Y-104117567D01*
X37937198Y-104101045D01*
X37949614Y-104085040D01*
X37967174Y-104044459D01*
X37972388Y-104033815D01*
X37993695Y-103995060D01*
X37998732Y-103975439D01*
X38005138Y-103956730D01*
X38013181Y-103938144D01*
X38016419Y-103917697D01*
X38020096Y-103894477D01*
X38022504Y-103882853D01*
X38033500Y-103840030D01*
X38033500Y-103819774D01*
X38035051Y-103800063D01*
X38036046Y-103793780D01*
X38038220Y-103780057D01*
X38034059Y-103736036D01*
X38033500Y-103724179D01*
X38033500Y-103194500D01*
X38053502Y-103126379D01*
X38107158Y-103079886D01*
X38159500Y-103068500D01*
X38195269Y-103068500D01*
X38198638Y-103068500D01*
X38259201Y-103061989D01*
X38396204Y-103010889D01*
X38513261Y-102923261D01*
X38600889Y-102806204D01*
X38651989Y-102669201D01*
X38658500Y-102608638D01*
X38658500Y-102054632D01*
X38678502Y-101986512D01*
X38732158Y-101940019D01*
X38802432Y-101929915D01*
X38867012Y-101959409D01*
X38881898Y-101974699D01*
X38883432Y-101976568D01*
X38883434Y-101976570D01*
X38917135Y-102004227D01*
X38926298Y-102012532D01*
X39947461Y-103033695D01*
X39955766Y-103042857D01*
X39983434Y-103076571D01*
X40136993Y-103202593D01*
X40136994Y-103202593D01*
X40136996Y-103202595D01*
X40312196Y-103296241D01*
X40334318Y-103302951D01*
X40356441Y-103309662D01*
X40502299Y-103353909D01*
X40699998Y-103373380D01*
X40699999Y-103373379D01*
X40700000Y-103373380D01*
X40743387Y-103369106D01*
X40755737Y-103368500D01*
X41865437Y-103368500D01*
X41931582Y-103387258D01*
X42077262Y-103477115D01*
X42245574Y-103532887D01*
X42321637Y-103540658D01*
X42346253Y-103543173D01*
X42346255Y-103543173D01*
X42349455Y-103543500D01*
X42950544Y-103543499D01*
X43054426Y-103532887D01*
X43222738Y-103477115D01*
X43373652Y-103384030D01*
X43432424Y-103325258D01*
X43509444Y-103248239D01*
X43512377Y-103251172D01*
X43545537Y-103221344D01*
X43615612Y-103209936D01*
X43680729Y-103238224D01*
X43689940Y-103248854D01*
X43690556Y-103248239D01*
X43705263Y-103262946D01*
X43739289Y-103325258D01*
X43741478Y-103365210D01*
X43739500Y-103384030D01*
X43736771Y-103410000D01*
X43755635Y-103589475D01*
X43755636Y-103589478D01*
X43811400Y-103761106D01*
X43901631Y-103917391D01*
X43953900Y-103975441D01*
X44022387Y-104051504D01*
X44168385Y-104157578D01*
X44333248Y-104230980D01*
X44509768Y-104268500D01*
X44509770Y-104268500D01*
X44690230Y-104268500D01*
X44690232Y-104268500D01*
X44866752Y-104230980D01*
X45031615Y-104157578D01*
X45177613Y-104051504D01*
X45298367Y-103917393D01*
X45388599Y-103761107D01*
X45444365Y-103589475D01*
X45463229Y-103410000D01*
X45444782Y-103234496D01*
X45457554Y-103164661D01*
X45462844Y-103155191D01*
X45492115Y-103107738D01*
X45547887Y-102939426D01*
X45558500Y-102835545D01*
X45558499Y-101784456D01*
X45547887Y-101680574D01*
X45492115Y-101512262D01*
X45471830Y-101479375D01*
X45453094Y-101410899D01*
X45453761Y-101400073D01*
X45463229Y-101310000D01*
X45444365Y-101130525D01*
X45388599Y-100958893D01*
X45325044Y-100848812D01*
X45322937Y-100845163D01*
X45306199Y-100776168D01*
X45311057Y-100747016D01*
X45355562Y-100593831D01*
X45358500Y-100556502D01*
X45358500Y-99398498D01*
X45355562Y-99361169D01*
X45313503Y-99216399D01*
X45305724Y-99189623D01*
X45301200Y-99165450D01*
X45297770Y-99126241D01*
X45293537Y-99107147D01*
X45293079Y-99105889D01*
X45293079Y-99105887D01*
X45267137Y-99034611D01*
X45265977Y-99031277D01*
X45242114Y-98959261D01*
X45242111Y-98959256D01*
X45241691Y-98957988D01*
X45233170Y-98940386D01*
X45190776Y-98875928D01*
X45188809Y-98872840D01*
X45168197Y-98839424D01*
X45158940Y-98824417D01*
X45140202Y-98755941D01*
X45161460Y-98688201D01*
X45177080Y-98669179D01*
X45224453Y-98621807D01*
X45309145Y-98478601D01*
X45312920Y-98465606D01*
X45351132Y-98405771D01*
X45415628Y-98376092D01*
X45429954Y-98374820D01*
X45464194Y-98373744D01*
X45469987Y-98373562D01*
X45473945Y-98373500D01*
X45497894Y-98373500D01*
X45501856Y-98373500D01*
X45505856Y-98372994D01*
X45517699Y-98372061D01*
X45561889Y-98370673D01*
X45581338Y-98365021D01*
X45600698Y-98361012D01*
X45620797Y-98358474D01*
X45661915Y-98342193D01*
X45673117Y-98338357D01*
X45715593Y-98326018D01*
X45733039Y-98315699D01*
X45750780Y-98307009D01*
X45769617Y-98299552D01*
X45805392Y-98273558D01*
X45815303Y-98267048D01*
X45853362Y-98244542D01*
X45867691Y-98230212D01*
X45882719Y-98217377D01*
X45899107Y-98205472D01*
X45927299Y-98171392D01*
X45935267Y-98162635D01*
X46098500Y-97999404D01*
X46160814Y-97965379D01*
X46187596Y-97962500D01*
X46225835Y-97962500D01*
X46293956Y-97982502D01*
X46314500Y-98003427D01*
X46316301Y-98001627D01*
X46447956Y-98133282D01*
X46447958Y-98133283D01*
X46447960Y-98133285D01*
X46593899Y-98223302D01*
X46756664Y-98277236D01*
X46822058Y-98283917D01*
X46853926Y-98287173D01*
X46853928Y-98287173D01*
X46857128Y-98287500D01*
X46860333Y-98287500D01*
X47451667Y-98287500D01*
X47454872Y-98287500D01*
X47555336Y-98277236D01*
X47718101Y-98223302D01*
X47864040Y-98133285D01*
X47985285Y-98012040D01*
X48075302Y-97866101D01*
X48129236Y-97703336D01*
X48139500Y-97602872D01*
X48139500Y-97055128D01*
X48129236Y-96954664D01*
X48075302Y-96791899D01*
X47985285Y-96645960D01*
X47982421Y-96643096D01*
X47948396Y-96580788D01*
X47953458Y-96509972D01*
X47982421Y-96464903D01*
X47985285Y-96462040D01*
X48075302Y-96316101D01*
X48129236Y-96153336D01*
X48139500Y-96052872D01*
X48139500Y-95505128D01*
X48129236Y-95404664D01*
X48075302Y-95241899D01*
X47985285Y-95095960D01*
X47985283Y-95095958D01*
X47985282Y-95095956D01*
X47864043Y-94974717D01*
X47864040Y-94974715D01*
X47718101Y-94884698D01*
X47555336Y-94830764D01*
X47555333Y-94830763D01*
X47555331Y-94830763D01*
X47458073Y-94820826D01*
X47458052Y-94820824D01*
X47454872Y-94820500D01*
X46857128Y-94820500D01*
X46853948Y-94820824D01*
X46853926Y-94820826D01*
X46756668Y-94830763D01*
X46756665Y-94830763D01*
X46756664Y-94830764D01*
X46593899Y-94884698D01*
X46478754Y-94955720D01*
X46410277Y-94974457D01*
X46342538Y-94953198D01*
X46303490Y-94911479D01*
X46298368Y-94902608D01*
X46211565Y-94806204D01*
X46177613Y-94768496D01*
X46157534Y-94753908D01*
X46040944Y-94669200D01*
X46031615Y-94662422D01*
X45866752Y-94589020D01*
X45690232Y-94551500D01*
X45524959Y-94551500D01*
X45456838Y-94531498D01*
X45417719Y-94491647D01*
X45401006Y-94464552D01*
X45399030Y-94461348D01*
X45273652Y-94335970D01*
X45122738Y-94242885D01*
X44954426Y-94187113D01*
X44954423Y-94187112D01*
X44954421Y-94187112D01*
X44853746Y-94176826D01*
X44853725Y-94176824D01*
X44850545Y-94176500D01*
X44847339Y-94176500D01*
X44252661Y-94176500D01*
X44252641Y-94176500D01*
X44249456Y-94176501D01*
X44246279Y-94176825D01*
X44246270Y-94176826D01*
X44145573Y-94187113D01*
X43977262Y-94242885D01*
X43826344Y-94335972D01*
X43690556Y-94471761D01*
X43687735Y-94468940D01*
X43654126Y-94499152D01*
X43584047Y-94510534D01*
X43518940Y-94482222D01*
X43509639Y-94471483D01*
X43509049Y-94472074D01*
X43373342Y-94336367D01*
X43222522Y-94243340D01*
X43054327Y-94187606D01*
X42953692Y-94177325D01*
X42947303Y-94177000D01*
X42904000Y-94177000D01*
X42904000Y-97448500D01*
X43457999Y-97448500D01*
X43457999Y-97126016D01*
X43457805Y-97121082D01*
X43455064Y-97086247D01*
X43408682Y-96926601D01*
X43324052Y-96783498D01*
X43270068Y-96729514D01*
X43236042Y-96667202D01*
X43241107Y-96596387D01*
X43283654Y-96539551D01*
X43293017Y-96533178D01*
X43373341Y-96483633D01*
X43509049Y-96347926D01*
X43511945Y-96350822D01*
X43545205Y-96320884D01*
X43615276Y-96309454D01*
X43680403Y-96337721D01*
X43690001Y-96348793D01*
X43690556Y-96348239D01*
X43826344Y-96484027D01*
X43826346Y-96484028D01*
X43826348Y-96484030D01*
X43906182Y-96533272D01*
X43953660Y-96586058D01*
X43965063Y-96656133D01*
X43936770Y-96721249D01*
X43929131Y-96729608D01*
X43875547Y-96783191D01*
X43790854Y-96926400D01*
X43744438Y-97086167D01*
X43744437Y-97086169D01*
X43744438Y-97086169D01*
X43741500Y-97123498D01*
X43741500Y-97125967D01*
X43741500Y-97930500D01*
X43721498Y-97998621D01*
X43667842Y-98045114D01*
X43615500Y-98056500D01*
X43584000Y-98056500D01*
X43515879Y-98036498D01*
X43469386Y-97982842D01*
X43465227Y-97963726D01*
X43458001Y-97956500D01*
X41842001Y-97956500D01*
X41842001Y-98278983D01*
X41842194Y-98283917D01*
X41844935Y-98318752D01*
X41891317Y-98478398D01*
X41975947Y-98621501D01*
X42023785Y-98669339D01*
X42057811Y-98731651D01*
X42052746Y-98802466D01*
X42031213Y-98839424D01*
X42011116Y-98863374D01*
X42000589Y-98879899D01*
X41967995Y-98949794D01*
X41966401Y-98953087D01*
X41931795Y-99021997D01*
X41925363Y-99040500D01*
X41909759Y-99116064D01*
X41908967Y-99119637D01*
X41888104Y-99207672D01*
X41887750Y-99207588D01*
X41886497Y-99216399D01*
X41844438Y-99361167D01*
X41844437Y-99361169D01*
X41844438Y-99361169D01*
X41841500Y-99398498D01*
X41841500Y-100556502D01*
X41841692Y-100558950D01*
X41841693Y-100558958D01*
X41844438Y-100593832D01*
X41886497Y-100738601D01*
X41891500Y-100773754D01*
X41891500Y-100800811D01*
X41883638Y-100833984D01*
X41885785Y-100834493D01*
X41882782Y-100847158D01*
X41875363Y-100868500D01*
X41859759Y-100944064D01*
X41858967Y-100947637D01*
X41841192Y-101022640D01*
X41839202Y-101042115D01*
X41841447Y-101119258D01*
X41841500Y-101122922D01*
X41841500Y-101225500D01*
X41821498Y-101293621D01*
X41767842Y-101340114D01*
X41715500Y-101351500D01*
X41169924Y-101351500D01*
X41101803Y-101331498D01*
X41080829Y-101314595D01*
X40645405Y-100879171D01*
X40611379Y-100816859D01*
X40608500Y-100790076D01*
X40608500Y-98915734D01*
X40609107Y-98903382D01*
X40613048Y-98863374D01*
X40613380Y-98860000D01*
X40612861Y-98854735D01*
X40593908Y-98662298D01*
X40536241Y-98472197D01*
X40536241Y-98472196D01*
X40442595Y-98296996D01*
X40393284Y-98236911D01*
X40387793Y-98230220D01*
X40316570Y-98143434D01*
X40303326Y-98132565D01*
X40282857Y-98115766D01*
X40273696Y-98107462D01*
X39595405Y-97429171D01*
X39561379Y-97366859D01*
X39558500Y-97340076D01*
X39558500Y-95664000D01*
X41642000Y-95664000D01*
X41642000Y-95932302D01*
X41642325Y-95938692D01*
X41652606Y-96039327D01*
X41708340Y-96207522D01*
X41801367Y-96358342D01*
X41926657Y-96483632D01*
X42006983Y-96533178D01*
X42054461Y-96585964D01*
X42065864Y-96656039D01*
X42037571Y-96721155D01*
X42029932Y-96729514D01*
X41975946Y-96783500D01*
X41891318Y-96926600D01*
X41844935Y-97086247D01*
X41842193Y-97121084D01*
X41842000Y-97126013D01*
X41842000Y-97448500D01*
X42396000Y-97448500D01*
X42396000Y-95664000D01*
X41642000Y-95664000D01*
X39558500Y-95664000D01*
X39558500Y-95156000D01*
X41642000Y-95156000D01*
X42396000Y-95156000D01*
X42396000Y-94177000D01*
X42352697Y-94177000D01*
X42346307Y-94177325D01*
X42245672Y-94187606D01*
X42077477Y-94243340D01*
X41926657Y-94336367D01*
X41801367Y-94461657D01*
X41708340Y-94612477D01*
X41652606Y-94780672D01*
X41642325Y-94881307D01*
X41642000Y-94887697D01*
X41642000Y-95156000D01*
X39558500Y-95156000D01*
X39558500Y-94971557D01*
X39578502Y-94903436D01*
X39583633Y-94896047D01*
X39594667Y-94881307D01*
X39650889Y-94806204D01*
X39701989Y-94669201D01*
X39708500Y-94608638D01*
X39708500Y-92911362D01*
X39701989Y-92850799D01*
X39650889Y-92713796D01*
X39650888Y-92713794D01*
X39563261Y-92596738D01*
X39446205Y-92509111D01*
X39394720Y-92489908D01*
X39309201Y-92458011D01*
X39309198Y-92458010D01*
X39305923Y-92456789D01*
X39249087Y-92414242D01*
X39224276Y-92347722D01*
X39239367Y-92278348D01*
X39260857Y-92249640D01*
X39406198Y-92104300D01*
X39537523Y-91916749D01*
X39634284Y-91709243D01*
X39693543Y-91488087D01*
X39713498Y-91260000D01*
X39693543Y-91031913D01*
X39634284Y-90810757D01*
X39624041Y-90788791D01*
X39537522Y-90603249D01*
X39432134Y-90452740D01*
X39406198Y-90415700D01*
X39406197Y-90415699D01*
X39406195Y-90415696D01*
X39244303Y-90253804D01*
X39056750Y-90122477D01*
X38849243Y-90025715D01*
X38628087Y-89966457D01*
X38400000Y-89946502D01*
X38171912Y-89966457D01*
X37950756Y-90025715D01*
X37743249Y-90122477D01*
X37555696Y-90253804D01*
X37393804Y-90415696D01*
X37262477Y-90603249D01*
X37165715Y-90810756D01*
X37106457Y-91031912D01*
X37086502Y-91260000D01*
X37106457Y-91488087D01*
X37165715Y-91709243D01*
X37262477Y-91916750D01*
X37393804Y-92104303D01*
X37539139Y-92249638D01*
X37573165Y-92311950D01*
X37568100Y-92382765D01*
X37525553Y-92439601D01*
X37494076Y-92456789D01*
X37490799Y-92458010D01*
X37490799Y-92458011D01*
X37456763Y-92470705D01*
X37353794Y-92509111D01*
X37236739Y-92596737D01*
X37163866Y-92694084D01*
X37107030Y-92736630D01*
X37036214Y-92741694D01*
X36973903Y-92707669D01*
X35052532Y-90786298D01*
X35044227Y-90777135D01*
X35016569Y-90743433D01*
X34863003Y-90617404D01*
X34687805Y-90523759D01*
X34678684Y-90520992D01*
X34666858Y-90517405D01*
X34582279Y-90491747D01*
X34497699Y-90466090D01*
X34362150Y-90452740D01*
X34296318Y-90426158D01*
X34255308Y-90368203D01*
X34248500Y-90327347D01*
X34248500Y-89742234D01*
X34268502Y-89674113D01*
X34271287Y-89669963D01*
X34355790Y-89549282D01*
X34450703Y-89345740D01*
X34508829Y-89128809D01*
X34528403Y-88905080D01*
X34508829Y-88681351D01*
X34464926Y-88517500D01*
X34450703Y-88464419D01*
X34400496Y-88356750D01*
X34389835Y-88286558D01*
X34418815Y-88221745D01*
X34478235Y-88182889D01*
X34514691Y-88177500D01*
X35007114Y-88177500D01*
X35075235Y-88197502D01*
X35110052Y-88230838D01*
X35254859Y-88435984D01*
X35254864Y-88435990D01*
X35257343Y-88439502D01*
X35444889Y-88640314D01*
X35658031Y-88813718D01*
X35892800Y-88956484D01*
X36144823Y-89065953D01*
X36409404Y-89140085D01*
X36681615Y-89177500D01*
X36685920Y-89177500D01*
X36952080Y-89177500D01*
X36956385Y-89177500D01*
X37228596Y-89140085D01*
X37493177Y-89065953D01*
X37745200Y-88956484D01*
X37979969Y-88813718D01*
X38193111Y-88640314D01*
X38380657Y-88439502D01*
X38539111Y-88215023D01*
X38665523Y-87971058D01*
X38757538Y-87712153D01*
X38813442Y-87443130D01*
X38832193Y-87169000D01*
X38813442Y-86894870D01*
X38757538Y-86625847D01*
X38665523Y-86366942D01*
X38539111Y-86122977D01*
X38380657Y-85898498D01*
X38193111Y-85697686D01*
X38094693Y-85617617D01*
X37983304Y-85526995D01*
X37983301Y-85526993D01*
X37979969Y-85524282D01*
X37745200Y-85381516D01*
X37741259Y-85379804D01*
X37741253Y-85379801D01*
X37497112Y-85273756D01*
X37497109Y-85273755D01*
X37493177Y-85272047D01*
X37489052Y-85270891D01*
X37489043Y-85270888D01*
X37232742Y-85199076D01*
X37232732Y-85199074D01*
X37228596Y-85197915D01*
X37224335Y-85197329D01*
X37224324Y-85197327D01*
X36960653Y-85161086D01*
X36960643Y-85161085D01*
X36956385Y-85160500D01*
X36681615Y-85160500D01*
X36677357Y-85161085D01*
X36677346Y-85161086D01*
X36413675Y-85197327D01*
X36413661Y-85197329D01*
X36409404Y-85197915D01*
X36405269Y-85199073D01*
X36405257Y-85199076D01*
X36148956Y-85270888D01*
X36148942Y-85270892D01*
X36144823Y-85272047D01*
X36140895Y-85273753D01*
X36140887Y-85273756D01*
X35896746Y-85379801D01*
X35896733Y-85379807D01*
X35892800Y-85381516D01*
X35889129Y-85383748D01*
X35889122Y-85383752D01*
X35661704Y-85522048D01*
X35661699Y-85522050D01*
X35658031Y-85524282D01*
X35654704Y-85526988D01*
X35654695Y-85526995D01*
X35448225Y-85694971D01*
X35448217Y-85694978D01*
X35444889Y-85697686D01*
X35441957Y-85700824D01*
X35441952Y-85700830D01*
X35260282Y-85895350D01*
X35260274Y-85895358D01*
X35257343Y-85898498D01*
X35254869Y-85902001D01*
X35254859Y-85902015D01*
X35110052Y-86107162D01*
X35054427Y-86151280D01*
X35007114Y-86160500D01*
X34610643Y-86160500D01*
X34542522Y-86140498D01*
X34496029Y-86086842D01*
X34488936Y-86067110D01*
X34467912Y-85988648D01*
X34450703Y-85924420D01*
X34355790Y-85720879D01*
X34271287Y-85600196D01*
X34248599Y-85532922D01*
X34248500Y-85527925D01*
X34248500Y-84662234D01*
X34268502Y-84594113D01*
X34271287Y-84589963D01*
X34293837Y-84557759D01*
X34355790Y-84469282D01*
X34450703Y-84265740D01*
X34508829Y-84048809D01*
X34528403Y-83825080D01*
X34512102Y-83638765D01*
X34526091Y-83569162D01*
X34575491Y-83518169D01*
X34644617Y-83501979D01*
X34711522Y-83525732D01*
X34726718Y-83538690D01*
X34834842Y-83646814D01*
X34834844Y-83646815D01*
X34834845Y-83646816D01*
X34982087Y-83735827D01*
X35146351Y-83787013D01*
X35217735Y-83793500D01*
X35882264Y-83793499D01*
X35953649Y-83787013D01*
X36101925Y-83740808D01*
X36165602Y-83737857D01*
X36309768Y-83768500D01*
X36309770Y-83768500D01*
X36490230Y-83768500D01*
X36490232Y-83768500D01*
X36666752Y-83730980D01*
X36831615Y-83657578D01*
X36977613Y-83551504D01*
X37098367Y-83417393D01*
X37188599Y-83261107D01*
X37244365Y-83089475D01*
X37263229Y-82910000D01*
X37244365Y-82730525D01*
X37188599Y-82558893D01*
X37152162Y-82495783D01*
X37098368Y-82402608D01*
X36977612Y-82268495D01*
X36862537Y-82184888D01*
X36831615Y-82162422D01*
X36666752Y-82089020D01*
X36490232Y-82051500D01*
X36477402Y-82048773D01*
X36414929Y-82015045D01*
X36380607Y-81952895D01*
X36385335Y-81882056D01*
X36395771Y-81860341D01*
X36405817Y-81843723D01*
X36475827Y-81727913D01*
X36527013Y-81563649D01*
X36533500Y-81492265D01*
X36533499Y-80977736D01*
X36527013Y-80906351D01*
X36475827Y-80742087D01*
X36387514Y-80596000D01*
X38927200Y-80596000D01*
X40081200Y-80596000D01*
X40081200Y-79767000D01*
X39637897Y-79767000D01*
X39631507Y-79767325D01*
X39530872Y-79777606D01*
X39362677Y-79833340D01*
X39211857Y-79926367D01*
X39086567Y-80051657D01*
X38993540Y-80202477D01*
X38937806Y-80370672D01*
X38927525Y-80471307D01*
X38927200Y-80477697D01*
X38927200Y-80596000D01*
X36387514Y-80596000D01*
X36386816Y-80594845D01*
X36386815Y-80594844D01*
X36386814Y-80594842D01*
X36265157Y-80473185D01*
X36223329Y-80447899D01*
X36117913Y-80384173D01*
X36056326Y-80364982D01*
X35953648Y-80332986D01*
X35885114Y-80326758D01*
X35885094Y-80326757D01*
X35882265Y-80326500D01*
X35879403Y-80326500D01*
X35220599Y-80326500D01*
X35220577Y-80326500D01*
X35217736Y-80326501D01*
X35214887Y-80326759D01*
X35214883Y-80326760D01*
X35146352Y-80332986D01*
X34982087Y-80384173D01*
X34834842Y-80473185D01*
X34702366Y-80605662D01*
X34700940Y-80604236D01*
X34663287Y-80638715D01*
X34607822Y-80651580D01*
X34428874Y-80651580D01*
X34360753Y-80631578D01*
X34325661Y-80597851D01*
X34323556Y-80594845D01*
X34226974Y-80456911D01*
X34226973Y-80456910D01*
X34226971Y-80456907D01*
X34068172Y-80298108D01*
X33884202Y-80169290D01*
X33818172Y-80138500D01*
X33798388Y-80129274D01*
X33745104Y-80082358D01*
X33725643Y-80014081D01*
X33746185Y-79946121D01*
X33798389Y-79900885D01*
X33884202Y-79860870D01*
X34068169Y-79732054D01*
X34226974Y-79573249D01*
X34355790Y-79389282D01*
X34450703Y-79185740D01*
X34508829Y-78968809D01*
X34528403Y-78745080D01*
X34508829Y-78521351D01*
X34466277Y-78362545D01*
X34450703Y-78304419D01*
X34397163Y-78189603D01*
X34355790Y-78100879D01*
X34226974Y-77916911D01*
X34226973Y-77916910D01*
X34226971Y-77916907D01*
X34068172Y-77758108D01*
X33884202Y-77629290D01*
X33813654Y-77596393D01*
X33798388Y-77589274D01*
X33745104Y-77542358D01*
X33725643Y-77474081D01*
X33746185Y-77406121D01*
X33798389Y-77360885D01*
X33884202Y-77320870D01*
X34068169Y-77192054D01*
X34226974Y-77033249D01*
X34325661Y-76892309D01*
X34381119Y-76847981D01*
X34428875Y-76838580D01*
X34996485Y-76838580D01*
X35064606Y-76858582D01*
X35085581Y-76875485D01*
X35243757Y-77033662D01*
X35256834Y-77049984D01*
X35258999Y-77052017D01*
X35259000Y-77052018D01*
X35299979Y-77090500D01*
X35308651Y-77098643D01*
X35311493Y-77101398D01*
X35331230Y-77121135D01*
X35334360Y-77123563D01*
X35334432Y-77123619D01*
X35343442Y-77131314D01*
X35375679Y-77161586D01*
X35393426Y-77171342D01*
X35409950Y-77182196D01*
X35425959Y-77194614D01*
X35465719Y-77211818D01*
X35520293Y-77257228D01*
X35541654Y-77324935D01*
X35535513Y-77366391D01*
X35511562Y-77440107D01*
X35477635Y-77544525D01*
X35458771Y-77724000D01*
X35477635Y-77903475D01*
X35477636Y-77903478D01*
X35533400Y-78075106D01*
X35623631Y-78231391D01*
X35666254Y-78278729D01*
X35744387Y-78365504D01*
X35890385Y-78471578D01*
X36055248Y-78544980D01*
X36231768Y-78582500D01*
X36232404Y-78582500D01*
X36234066Y-78582988D01*
X36244722Y-78585253D01*
X36244549Y-78586066D01*
X36300525Y-78602502D01*
X36321498Y-78619403D01*
X36354978Y-78652882D01*
X36386179Y-78704494D01*
X36412173Y-78787913D01*
X36454426Y-78857808D01*
X36501185Y-78935157D01*
X36622842Y-79056814D01*
X36622844Y-79056815D01*
X36622845Y-79056816D01*
X36770087Y-79145827D01*
X36934351Y-79197013D01*
X37005735Y-79203500D01*
X37670264Y-79203499D01*
X37741649Y-79197013D01*
X37905913Y-79145827D01*
X38053155Y-79056816D01*
X38174816Y-78935155D01*
X38263827Y-78787913D01*
X38315013Y-78623649D01*
X38321500Y-78552265D01*
X38321499Y-78037736D01*
X38315013Y-77966351D01*
X38263827Y-77802087D01*
X38174816Y-77654845D01*
X38141659Y-77621688D01*
X38079066Y-77559094D01*
X38045041Y-77496782D01*
X38050107Y-77425966D01*
X38079067Y-77380904D01*
X38183275Y-77276696D01*
X38245587Y-77242670D01*
X38316402Y-77247735D01*
X38373238Y-77290282D01*
X38392203Y-77326855D01*
X38429000Y-77440107D01*
X38519231Y-77596391D01*
X38549419Y-77629918D01*
X38639987Y-77730504D01*
X38785985Y-77836578D01*
X38851949Y-77865946D01*
X38906044Y-77911926D01*
X38926694Y-77979853D01*
X38926700Y-77981053D01*
X38926700Y-78272338D01*
X38926700Y-78272357D01*
X38926701Y-78275544D01*
X38927025Y-78278721D01*
X38927026Y-78278729D01*
X38935891Y-78365504D01*
X38937313Y-78379426D01*
X38993085Y-78547738D01*
X39062686Y-78660578D01*
X39086172Y-78698655D01*
X39211544Y-78824027D01*
X39211546Y-78824028D01*
X39211548Y-78824030D01*
X39362462Y-78917115D01*
X39530774Y-78972887D01*
X39606837Y-78980658D01*
X39631453Y-78983173D01*
X39631455Y-78983173D01*
X39634655Y-78983500D01*
X41035744Y-78983499D01*
X41139626Y-78972887D01*
X41307938Y-78917115D01*
X41404091Y-78857806D01*
X41472566Y-78839070D01*
X41540305Y-78860329D01*
X41585797Y-78914835D01*
X41594599Y-78985284D01*
X41589840Y-79004679D01*
X41571256Y-79060761D01*
X41561325Y-79157971D01*
X41561000Y-79164361D01*
X41561000Y-79181000D01*
X42682905Y-79181000D01*
X42751026Y-79201002D01*
X42771999Y-79217904D01*
X42790230Y-79236135D01*
X42793360Y-79238563D01*
X42793432Y-79238619D01*
X42802442Y-79246314D01*
X42834679Y-79276586D01*
X42852426Y-79286342D01*
X42868950Y-79297196D01*
X42884959Y-79309614D01*
X42925542Y-79327175D01*
X42936193Y-79332393D01*
X42974940Y-79353695D01*
X42994560Y-79358732D01*
X43013267Y-79365137D01*
X43021182Y-79368562D01*
X43041797Y-79377484D01*
X43096370Y-79422897D01*
X43117727Y-79490605D01*
X43099088Y-79559111D01*
X43046371Y-79606665D01*
X43031399Y-79611010D01*
X43031719Y-79611887D01*
X42946634Y-79642853D01*
X42943176Y-79644055D01*
X42870000Y-79668303D01*
X42849668Y-79678147D01*
X42840731Y-79681400D01*
X42797634Y-79689000D01*
X41561000Y-79689000D01*
X41561000Y-79705638D01*
X41561325Y-79712030D01*
X41565640Y-79754264D01*
X41552664Y-79824064D01*
X41504012Y-79875770D01*
X41435128Y-79892963D01*
X41374146Y-79874310D01*
X41307724Y-79833341D01*
X41139527Y-79777606D01*
X41038892Y-79767325D01*
X41032503Y-79767000D01*
X40589200Y-79767000D01*
X40589200Y-80978000D01*
X40569198Y-81046121D01*
X40515542Y-81092614D01*
X40463200Y-81104000D01*
X38927200Y-81104000D01*
X38927200Y-81222302D01*
X38927525Y-81228692D01*
X38937806Y-81329327D01*
X38993540Y-81497522D01*
X39086567Y-81648342D01*
X39211857Y-81773632D01*
X39362677Y-81866659D01*
X39530871Y-81922393D01*
X39598444Y-81929296D01*
X39664179Y-81956118D01*
X39704979Y-82014221D01*
X39708634Y-82047013D01*
X39710387Y-82046829D01*
X39711771Y-82059998D01*
X39711771Y-82060000D01*
X39730635Y-82239475D01*
X39730636Y-82239478D01*
X39786400Y-82411106D01*
X39876631Y-82567391D01*
X39926124Y-82622358D01*
X39997387Y-82701504D01*
X40053325Y-82742145D01*
X40096679Y-82798367D01*
X40102755Y-82869103D01*
X40069623Y-82931895D01*
X40053327Y-82946016D01*
X40022387Y-82968495D01*
X39901631Y-83102608D01*
X39811400Y-83258893D01*
X39755636Y-83430521D01*
X39755635Y-83430525D01*
X39736771Y-83610000D01*
X39755635Y-83789475D01*
X39755636Y-83789478D01*
X39811400Y-83961106D01*
X39901631Y-84117391D01*
X39901633Y-84117393D01*
X40022387Y-84251504D01*
X40168385Y-84357578D01*
X40333248Y-84430980D01*
X40433587Y-84452307D01*
X40496059Y-84486034D01*
X40526992Y-84535918D01*
X40530698Y-84547101D01*
X40620715Y-84693040D01*
X40620717Y-84693043D01*
X40741956Y-84814282D01*
X40741958Y-84814283D01*
X40741960Y-84814285D01*
X40887899Y-84904302D01*
X41050664Y-84958236D01*
X41123725Y-84965700D01*
X41147926Y-84968173D01*
X41147928Y-84968173D01*
X41151128Y-84968500D01*
X41154333Y-84968500D01*
X41745667Y-84968500D01*
X41748872Y-84968500D01*
X41849336Y-84958236D01*
X41901759Y-84940864D01*
X41972712Y-84938424D01*
X42033722Y-84974731D01*
X42065418Y-85038260D01*
X42057736Y-85108840D01*
X42049220Y-85125652D01*
X42024174Y-85167084D01*
X42024173Y-85167086D01*
X42024173Y-85167087D01*
X42021041Y-85177135D01*
X41972986Y-85331351D01*
X41966758Y-85399885D01*
X41966757Y-85399906D01*
X41966500Y-85402735D01*
X41966500Y-85405595D01*
X41966500Y-85405596D01*
X41966500Y-85914400D01*
X41966500Y-85914421D01*
X41966501Y-85917264D01*
X41966759Y-85920113D01*
X41966760Y-85920116D01*
X41972986Y-85988647D01*
X41982227Y-86018302D01*
X42024173Y-86152913D01*
X42028760Y-86160500D01*
X42113185Y-86300157D01*
X42234843Y-86421815D01*
X42255683Y-86434413D01*
X42303632Y-86486771D01*
X42316500Y-86542242D01*
X42316500Y-86776147D01*
X42314204Y-86796935D01*
X42316438Y-86867984D01*
X42316500Y-86871943D01*
X42316500Y-86899856D01*
X42316995Y-86903774D01*
X42316997Y-86903806D01*
X42317008Y-86903888D01*
X42317937Y-86915697D01*
X42319326Y-86959892D01*
X42324977Y-86979341D01*
X42328986Y-86998696D01*
X42331525Y-87018794D01*
X42331525Y-87018796D01*
X42331526Y-87018797D01*
X42338522Y-87036468D01*
X42347801Y-87059903D01*
X42351644Y-87071130D01*
X42363980Y-87113590D01*
X42374294Y-87131030D01*
X42382987Y-87148774D01*
X42390448Y-87167617D01*
X42390449Y-87167619D01*
X42416431Y-87203380D01*
X42422948Y-87213301D01*
X42445458Y-87251363D01*
X42459778Y-87265683D01*
X42472618Y-87280716D01*
X42484526Y-87297105D01*
X42518598Y-87325292D01*
X42527378Y-87333282D01*
X43854595Y-88660499D01*
X43888621Y-88722811D01*
X43891500Y-88749593D01*
X43891500Y-89208638D01*
X43892652Y-89219358D01*
X43898011Y-89269200D01*
X43949111Y-89406205D01*
X44036738Y-89523261D01*
X44153794Y-89610888D01*
X44153795Y-89610888D01*
X44153796Y-89610889D01*
X44268808Y-89653786D01*
X44325642Y-89696331D01*
X44350453Y-89762852D01*
X44335362Y-89832226D01*
X44317475Y-89857178D01*
X44174281Y-90012728D01*
X44051139Y-90201209D01*
X43960702Y-90407388D01*
X43907519Y-90617405D01*
X43905436Y-90625632D01*
X43886844Y-90850000D01*
X43905436Y-91074368D01*
X43905436Y-91074371D01*
X43905437Y-91074372D01*
X43960702Y-91292611D01*
X44051139Y-91498790D01*
X44174278Y-91687268D01*
X44326762Y-91852908D01*
X44504421Y-91991187D01*
X44504424Y-91991189D01*
X44702426Y-92098342D01*
X44915365Y-92171444D01*
X45137431Y-92208500D01*
X45137434Y-92208500D01*
X45362566Y-92208500D01*
X45362569Y-92208500D01*
X45584635Y-92171444D01*
X45797574Y-92098342D01*
X45995576Y-91991189D01*
X46173240Y-91852906D01*
X46325722Y-91687268D01*
X46448860Y-91498791D01*
X46539296Y-91292616D01*
X46594564Y-91074368D01*
X46613156Y-90850000D01*
X46594564Y-90625632D01*
X46539296Y-90407384D01*
X46448860Y-90201209D01*
X46325722Y-90012732D01*
X46182524Y-89857179D01*
X46151103Y-89793514D01*
X46159090Y-89722968D01*
X46203949Y-89667939D01*
X46231183Y-89653789D01*
X46346204Y-89610889D01*
X46463261Y-89523261D01*
X46550889Y-89406204D01*
X46601989Y-89269201D01*
X46608500Y-89208638D01*
X46608500Y-88408594D01*
X46628502Y-88340473D01*
X46682158Y-88293980D01*
X46752432Y-88283876D01*
X46817012Y-88313370D01*
X46823595Y-88319499D01*
X47340730Y-88836634D01*
X47374756Y-88898946D01*
X47369691Y-88969761D01*
X47360755Y-88988728D01*
X47321399Y-89056894D01*
X47267675Y-89222245D01*
X47265635Y-89228525D01*
X47246771Y-89408000D01*
X47265635Y-89587475D01*
X47265636Y-89587478D01*
X47321400Y-89759106D01*
X47411631Y-89915391D01*
X47457611Y-89966457D01*
X47532387Y-90049504D01*
X47678385Y-90155578D01*
X47843248Y-90228980D01*
X48019768Y-90266500D01*
X48019770Y-90266500D01*
X48200230Y-90266500D01*
X48200232Y-90266500D01*
X48376752Y-90228980D01*
X48541615Y-90155578D01*
X48687613Y-90049504D01*
X48808367Y-89915393D01*
X48898599Y-89759107D01*
X48954365Y-89587475D01*
X48962057Y-89514286D01*
X48989069Y-89448633D01*
X49047290Y-89408003D01*
X49118235Y-89405300D01*
X49176461Y-89438365D01*
X54031751Y-94293655D01*
X54044835Y-94309985D01*
X54096666Y-94358657D01*
X54099509Y-94361413D01*
X54119230Y-94381134D01*
X54122351Y-94383555D01*
X54122359Y-94383562D01*
X54122425Y-94383613D01*
X54131445Y-94391317D01*
X54163679Y-94421586D01*
X54181435Y-94431347D01*
X54197951Y-94442196D01*
X54213959Y-94454613D01*
X54254310Y-94472074D01*
X54254525Y-94472167D01*
X54265188Y-94477391D01*
X54303935Y-94498693D01*
X54303937Y-94498693D01*
X54303940Y-94498695D01*
X54323574Y-94503736D01*
X54342259Y-94510134D01*
X54360855Y-94518181D01*
X54404530Y-94525098D01*
X54416125Y-94527498D01*
X54458970Y-94538500D01*
X54479224Y-94538500D01*
X54498934Y-94540051D01*
X54518942Y-94543220D01*
X54518942Y-94543219D01*
X54518943Y-94543220D01*
X54562961Y-94539058D01*
X54574819Y-94538500D01*
X55023177Y-94538500D01*
X55091298Y-94558502D01*
X55137791Y-94612158D01*
X55147895Y-94682432D01*
X55138564Y-94715114D01*
X55111180Y-94777542D01*
X55055931Y-94995716D01*
X55037346Y-95219999D01*
X55055931Y-95444283D01*
X55111180Y-95662456D01*
X55201580Y-95868548D01*
X55276922Y-95983866D01*
X55276923Y-95983866D01*
X55915638Y-95345150D01*
X55940507Y-95429844D01*
X56018239Y-95550798D01*
X56126900Y-95644952D01*
X56257685Y-95704680D01*
X56272412Y-95706797D01*
X55634310Y-96344899D01*
X55654697Y-96360767D01*
X55688206Y-96378901D01*
X55738597Y-96428914D01*
X55753949Y-96498231D01*
X55729388Y-96564844D01*
X55688207Y-96600528D01*
X55654423Y-96618811D01*
X55476762Y-96757091D01*
X55324278Y-96922731D01*
X55201139Y-97111209D01*
X55110702Y-97317388D01*
X55055437Y-97535627D01*
X55055436Y-97535632D01*
X55036844Y-97760000D01*
X55055436Y-97984368D01*
X55055436Y-97984371D01*
X55055437Y-97984372D01*
X55110702Y-98202611D01*
X55201139Y-98408790D01*
X55242564Y-98472196D01*
X55324278Y-98597268D01*
X55464063Y-98749114D01*
X55476762Y-98762908D01*
X55628606Y-98881094D01*
X55654424Y-98901189D01*
X55852426Y-99008342D01*
X56065365Y-99081444D01*
X56287431Y-99118500D01*
X56287434Y-99118500D01*
X56512566Y-99118500D01*
X56512569Y-99118500D01*
X56734635Y-99081444D01*
X56947574Y-99008342D01*
X57145576Y-98901189D01*
X57323240Y-98762906D01*
X57475722Y-98597268D01*
X57564518Y-98461354D01*
X57618521Y-98415268D01*
X57688869Y-98405693D01*
X57753226Y-98435670D01*
X57775480Y-98461353D01*
X57864278Y-98597268D01*
X58004063Y-98749114D01*
X58016762Y-98762908D01*
X58168606Y-98881094D01*
X58194424Y-98901189D01*
X58392426Y-99008342D01*
X58605365Y-99081444D01*
X58827431Y-99118500D01*
X58827434Y-99118500D01*
X59052566Y-99118500D01*
X59052569Y-99118500D01*
X59274635Y-99081444D01*
X59487574Y-99008342D01*
X59685576Y-98901189D01*
X59863240Y-98762906D01*
X60015722Y-98597268D01*
X60138860Y-98408791D01*
X60229296Y-98202616D01*
X60284564Y-97984368D01*
X60303156Y-97760000D01*
X60284564Y-97535632D01*
X60229296Y-97317384D01*
X60138860Y-97111209D01*
X60015722Y-96922732D01*
X59863240Y-96757094D01*
X59863239Y-96757093D01*
X59863237Y-96757091D01*
X59720458Y-96645961D01*
X59685576Y-96618811D01*
X59651792Y-96600528D01*
X59601402Y-96550516D01*
X59586050Y-96481199D01*
X59610611Y-96414586D01*
X59651793Y-96378901D01*
X59685303Y-96360765D01*
X59705688Y-96344899D01*
X59705689Y-96344898D01*
X59067588Y-95706797D01*
X59082315Y-95704680D01*
X59213100Y-95644952D01*
X59321761Y-95550798D01*
X59399493Y-95429844D01*
X59424360Y-95345152D01*
X60063076Y-95983867D01*
X60063077Y-95983866D01*
X60138418Y-95868551D01*
X60228819Y-95662457D01*
X60284068Y-95444283D01*
X60302653Y-95219999D01*
X60284068Y-94995716D01*
X60228819Y-94777543D01*
X60138417Y-94571446D01*
X60063076Y-94456132D01*
X59424360Y-95094847D01*
X59399493Y-95010156D01*
X59321761Y-94889202D01*
X59213100Y-94795048D01*
X59082315Y-94735320D01*
X59067586Y-94733202D01*
X59705689Y-94095100D01*
X59705688Y-94095099D01*
X59685300Y-94079230D01*
X59651792Y-94061097D01*
X59601402Y-94011084D01*
X59586050Y-93941767D01*
X59610611Y-93875154D01*
X59651790Y-93839472D01*
X59685576Y-93821189D01*
X59863240Y-93682906D01*
X60015722Y-93517268D01*
X60111555Y-93370583D01*
X60165559Y-93324496D01*
X60217038Y-93313500D01*
X69588853Y-93313500D01*
X69609641Y-93315795D01*
X69612613Y-93315701D01*
X69612615Y-93315702D01*
X69680691Y-93313562D01*
X69684651Y-93313500D01*
X69708600Y-93313500D01*
X69712562Y-93313500D01*
X69716562Y-93312994D01*
X69728405Y-93312061D01*
X69772595Y-93310673D01*
X69792044Y-93305021D01*
X69811404Y-93301012D01*
X69831503Y-93298474D01*
X69872621Y-93282193D01*
X69883823Y-93278357D01*
X69926299Y-93266018D01*
X69943745Y-93255699D01*
X69961486Y-93247009D01*
X69980323Y-93239552D01*
X70016098Y-93213558D01*
X70026009Y-93207048D01*
X70064068Y-93184542D01*
X70078397Y-93170212D01*
X70093425Y-93157377D01*
X70109813Y-93145472D01*
X70138009Y-93111386D01*
X70145978Y-93102630D01*
X74694204Y-88554405D01*
X74756517Y-88520379D01*
X74783300Y-88517500D01*
X76074000Y-88517500D01*
X76142121Y-88537502D01*
X76188614Y-88591158D01*
X76200000Y-88643500D01*
X76200000Y-116287809D01*
X76179998Y-116355930D01*
X76163096Y-116376904D01*
X75762403Y-116777596D01*
X75700093Y-116811620D01*
X75673310Y-116814500D01*
X27943806Y-116814500D01*
X27936198Y-116814270D01*
X27644518Y-116796626D01*
X27629414Y-116794792D01*
X27345739Y-116742807D01*
X27330969Y-116739167D01*
X27055618Y-116653364D01*
X27041392Y-116647968D01*
X26778407Y-116529608D01*
X26764935Y-116522538D01*
X26690324Y-116477434D01*
X26518119Y-116373333D01*
X26505605Y-116364695D01*
X26278572Y-116186826D01*
X26267184Y-116176736D01*
X26063263Y-115972815D01*
X26053173Y-115961427D01*
X25916455Y-115786920D01*
X25875301Y-115734391D01*
X25866668Y-115721884D01*
X25717459Y-115475060D01*
X25710391Y-115461592D01*
X25592031Y-115198607D01*
X25586638Y-115184390D01*
X25500829Y-114909018D01*
X25497194Y-114894272D01*
X25445205Y-114610573D01*
X25443374Y-114595493D01*
X25425730Y-114303802D01*
X25425500Y-114296194D01*
X25425500Y-112260000D01*
X31886807Y-112260000D01*
X31887101Y-112264298D01*
X31903793Y-112508336D01*
X31905558Y-112534130D01*
X31906431Y-112538331D01*
X31906432Y-112538338D01*
X31922507Y-112615692D01*
X31961462Y-112803153D01*
X31962899Y-112807196D01*
X31962902Y-112807207D01*
X32052037Y-113058008D01*
X32052040Y-113058015D01*
X32053477Y-113062058D01*
X32055451Y-113065869D01*
X32055453Y-113065872D01*
X32177906Y-113302197D01*
X32177909Y-113302202D01*
X32179889Y-113306023D01*
X32338343Y-113530502D01*
X32525889Y-113731314D01*
X32739031Y-113904718D01*
X32973800Y-114047484D01*
X33225823Y-114156953D01*
X33490404Y-114231085D01*
X33762615Y-114268500D01*
X33766920Y-114268500D01*
X34033080Y-114268500D01*
X34037385Y-114268500D01*
X34309596Y-114231085D01*
X34574177Y-114156953D01*
X34826200Y-114047484D01*
X35060969Y-113904718D01*
X35274111Y-113731314D01*
X35461657Y-113530502D01*
X35620111Y-113306023D01*
X35746523Y-113062058D01*
X35838538Y-112803153D01*
X35894442Y-112534130D01*
X35906933Y-112351523D01*
X43574500Y-112351523D01*
X43574501Y-112354710D01*
X43574825Y-112357889D01*
X43574826Y-112357893D01*
X43580454Y-112412988D01*
X43584676Y-112454314D01*
X43638151Y-112615692D01*
X43727400Y-112760387D01*
X43727402Y-112760390D01*
X43847609Y-112880597D01*
X43847611Y-112880598D01*
X43847613Y-112880600D01*
X43992305Y-112969847D01*
X43992310Y-112969850D01*
X44153686Y-113023324D01*
X44250087Y-113033173D01*
X44250089Y-113033173D01*
X44253289Y-113033500D01*
X44862710Y-113033499D01*
X44962314Y-113023324D01*
X45123692Y-112969849D01*
X45268387Y-112880600D01*
X45388600Y-112760387D01*
X45477849Y-112615692D01*
X45502966Y-112539889D01*
X45533475Y-112490428D01*
X45574501Y-112449402D01*
X45636815Y-112415379D01*
X45663595Y-112412500D01*
X45664230Y-112412500D01*
X45664232Y-112412500D01*
X45840752Y-112374980D01*
X46005615Y-112301578D01*
X46151613Y-112195504D01*
X46242364Y-112094713D01*
X46302809Y-112057475D01*
X46373793Y-112058827D01*
X46429635Y-112094713D01*
X46520387Y-112195504D01*
X46666385Y-112301578D01*
X46831248Y-112374980D01*
X47007768Y-112412500D01*
X47008405Y-112412500D01*
X47010069Y-112412988D01*
X47020722Y-112415253D01*
X47020549Y-112416065D01*
X47076526Y-112432502D01*
X47097500Y-112449405D01*
X47124255Y-112476160D01*
X47141541Y-112497735D01*
X47148027Y-112507954D01*
X47147424Y-112508336D01*
X47170599Y-112544618D01*
X47186074Y-112591319D01*
X47194151Y-112615693D01*
X47283402Y-112760390D01*
X47403609Y-112880597D01*
X47403611Y-112880598D01*
X47403613Y-112880600D01*
X47548305Y-112969847D01*
X47548310Y-112969850D01*
X47709686Y-113023324D01*
X47806087Y-113033173D01*
X47806089Y-113033173D01*
X47809289Y-113033500D01*
X48418710Y-113033499D01*
X48518314Y-113023324D01*
X48679692Y-112969849D01*
X48824387Y-112880600D01*
X48944600Y-112760387D01*
X49033849Y-112615692D01*
X49087324Y-112454314D01*
X49097500Y-112354711D01*
X49097499Y-111820290D01*
X49087324Y-111720686D01*
X49033849Y-111559308D01*
X48944600Y-111414613D01*
X48944598Y-111414611D01*
X48944597Y-111414609D01*
X48919082Y-111389094D01*
X48885056Y-111326782D01*
X48890121Y-111255967D01*
X48919080Y-111210905D01*
X48944600Y-111185387D01*
X49033849Y-111040692D01*
X49087324Y-110879314D01*
X49097500Y-110779711D01*
X49097499Y-110245290D01*
X49087324Y-110145686D01*
X49033849Y-109984308D01*
X48944600Y-109839613D01*
X48944598Y-109839611D01*
X48944597Y-109839609D01*
X48824390Y-109719402D01*
X48807351Y-109708892D01*
X48759874Y-109656105D01*
X48747500Y-109601652D01*
X48747500Y-109451242D01*
X48767502Y-109383121D01*
X48808317Y-109343413D01*
X48809913Y-109342447D01*
X48829155Y-109330816D01*
X48950816Y-109209155D01*
X49039827Y-109061913D01*
X49091013Y-108897649D01*
X49097500Y-108826265D01*
X49097499Y-108311736D01*
X49091013Y-108240351D01*
X49039827Y-108076087D01*
X48950816Y-107928845D01*
X48950815Y-107928844D01*
X48950814Y-107928842D01*
X48855067Y-107833095D01*
X48821041Y-107770783D01*
X48826106Y-107699968D01*
X48855067Y-107654905D01*
X48950814Y-107559157D01*
X48950814Y-107559156D01*
X48950816Y-107559155D01*
X49039827Y-107411913D01*
X49091013Y-107247649D01*
X49097500Y-107176265D01*
X49097499Y-106661736D01*
X49091013Y-106590351D01*
X49039827Y-106426087D01*
X48950816Y-106278845D01*
X48950815Y-106278844D01*
X48942901Y-106265752D01*
X48945501Y-106264180D01*
X48922721Y-106222463D01*
X48926009Y-106156744D01*
X48954365Y-106069475D01*
X48973229Y-105890000D01*
X48954365Y-105710525D01*
X48898599Y-105538893D01*
X48882672Y-105511306D01*
X48808368Y-105382608D01*
X48687612Y-105248495D01*
X48592146Y-105179135D01*
X48541615Y-105142422D01*
X48376752Y-105069020D01*
X48200232Y-105031500D01*
X48019768Y-105031500D01*
X47902087Y-105056513D01*
X47843247Y-105069020D01*
X47678384Y-105142423D01*
X47532387Y-105248495D01*
X47411631Y-105382608D01*
X47321400Y-105538893D01*
X47279984Y-105666362D01*
X47265635Y-105710525D01*
X47246771Y-105890000D01*
X47265635Y-106069475D01*
X47265636Y-106069478D01*
X47296111Y-106163273D01*
X47298138Y-106234240D01*
X47284107Y-106267392D01*
X47188173Y-106426087D01*
X47136986Y-106590351D01*
X47130758Y-106658885D01*
X47130757Y-106658906D01*
X47130500Y-106661735D01*
X47130500Y-106664595D01*
X47130500Y-106664596D01*
X47130500Y-107173400D01*
X47130500Y-107173421D01*
X47130501Y-107176264D01*
X47130759Y-107179113D01*
X47130760Y-107179116D01*
X47136986Y-107247647D01*
X47165002Y-107337555D01*
X47188173Y-107411913D01*
X47211058Y-107449769D01*
X47277184Y-107559155D01*
X47372933Y-107654905D01*
X47406958Y-107717217D01*
X47401892Y-107788033D01*
X47372933Y-107833095D01*
X47277184Y-107928844D01*
X47188173Y-108076087D01*
X47136986Y-108240351D01*
X47130758Y-108308885D01*
X47130757Y-108308906D01*
X47130500Y-108311735D01*
X47130500Y-108314595D01*
X47130500Y-108314596D01*
X47130500Y-108823400D01*
X47130500Y-108823421D01*
X47130501Y-108826264D01*
X47130759Y-108829113D01*
X47130760Y-108829116D01*
X47136986Y-108897647D01*
X47136987Y-108897649D01*
X47188173Y-109061913D01*
X47195942Y-109074764D01*
X47277185Y-109209157D01*
X47398843Y-109330815D01*
X47419683Y-109343413D01*
X47467632Y-109395771D01*
X47480500Y-109451242D01*
X47480500Y-109601652D01*
X47460498Y-109669773D01*
X47420649Y-109708892D01*
X47403609Y-109719402D01*
X47283402Y-109839609D01*
X47194149Y-109984310D01*
X47140675Y-110145686D01*
X47130826Y-110242087D01*
X47130825Y-110242106D01*
X47130500Y-110245289D01*
X47130500Y-110248493D01*
X47130500Y-110248494D01*
X47130501Y-110569500D01*
X47110499Y-110637620D01*
X47056844Y-110684113D01*
X47020564Y-110692005D01*
X47020722Y-110692747D01*
X47007770Y-110695500D01*
X47007768Y-110695500D01*
X46894698Y-110719533D01*
X46831247Y-110733020D01*
X46666384Y-110806423D01*
X46520387Y-110912495D01*
X46429636Y-111013285D01*
X46369190Y-111050524D01*
X46298206Y-111049172D01*
X46242364Y-111013285D01*
X46151612Y-110912495D01*
X46005616Y-110806423D01*
X46005615Y-110806422D01*
X45840752Y-110733020D01*
X45664232Y-110695500D01*
X45664230Y-110695500D01*
X45651278Y-110692747D01*
X45651680Y-110690854D01*
X45599379Y-110675498D01*
X45552886Y-110621842D01*
X45541500Y-110569500D01*
X45541499Y-110248495D01*
X45541499Y-110248494D01*
X45541499Y-110245290D01*
X45531324Y-110145686D01*
X45477849Y-109984308D01*
X45388600Y-109839613D01*
X45388598Y-109839611D01*
X45388597Y-109839609D01*
X45268390Y-109719402D01*
X45268387Y-109719400D01*
X45251351Y-109708892D01*
X45203874Y-109656107D01*
X45191500Y-109601655D01*
X45191500Y-109451241D01*
X45211503Y-109383121D01*
X45252317Y-109343413D01*
X45253913Y-109342447D01*
X45273155Y-109330816D01*
X45394816Y-109209155D01*
X45483827Y-109061913D01*
X45535013Y-108897649D01*
X45541500Y-108826265D01*
X45541499Y-108311736D01*
X45535013Y-108240351D01*
X45483827Y-108076087D01*
X45394816Y-107928845D01*
X45298710Y-107832739D01*
X45264687Y-107770430D01*
X45269751Y-107699614D01*
X45298712Y-107654550D01*
X45394419Y-107558843D01*
X45483366Y-107411706D01*
X45534518Y-107247556D01*
X45540741Y-107179074D01*
X45541000Y-107173363D01*
X45541000Y-107173000D01*
X43575001Y-107173000D01*
X43575001Y-107173360D01*
X43575260Y-107179077D01*
X43581481Y-107247556D01*
X43632633Y-107411706D01*
X43721582Y-107558846D01*
X43817287Y-107654551D01*
X43851313Y-107716863D01*
X43846248Y-107787678D01*
X43817287Y-107832741D01*
X43721185Y-107928842D01*
X43632173Y-108076087D01*
X43580986Y-108240351D01*
X43574758Y-108308885D01*
X43574757Y-108308906D01*
X43574500Y-108311735D01*
X43574500Y-108314595D01*
X43574500Y-108314596D01*
X43574500Y-108823400D01*
X43574500Y-108823421D01*
X43574501Y-108826264D01*
X43574759Y-108829113D01*
X43574760Y-108829116D01*
X43580986Y-108897647D01*
X43580987Y-108897649D01*
X43632173Y-109061913D01*
X43639942Y-109074764D01*
X43721185Y-109209157D01*
X43842843Y-109330815D01*
X43863683Y-109343413D01*
X43911632Y-109395771D01*
X43924500Y-109451242D01*
X43924500Y-109601652D01*
X43904498Y-109669773D01*
X43864649Y-109708892D01*
X43847609Y-109719402D01*
X43727402Y-109839609D01*
X43638149Y-109984310D01*
X43584675Y-110145686D01*
X43574826Y-110242087D01*
X43574825Y-110242106D01*
X43574500Y-110245289D01*
X43574500Y-110248493D01*
X43574500Y-110248494D01*
X43574500Y-110776504D01*
X43574500Y-110776523D01*
X43574501Y-110779710D01*
X43574825Y-110782889D01*
X43574826Y-110782893D01*
X43575418Y-110788686D01*
X43584676Y-110879314D01*
X43638151Y-111040692D01*
X43727400Y-111185387D01*
X43727402Y-111185390D01*
X43752917Y-111210905D01*
X43786943Y-111273217D01*
X43781878Y-111344032D01*
X43752919Y-111389093D01*
X43727400Y-111414613D01*
X43698177Y-111461991D01*
X43638149Y-111559311D01*
X43584675Y-111720686D01*
X43574826Y-111817087D01*
X43574825Y-111817106D01*
X43574500Y-111820289D01*
X43574500Y-111823493D01*
X43574500Y-111823494D01*
X43574500Y-112351504D01*
X43574500Y-112351523D01*
X35906933Y-112351523D01*
X35913193Y-112260000D01*
X35894442Y-111985870D01*
X35838538Y-111716847D01*
X35746523Y-111457942D01*
X35620111Y-111213977D01*
X35461657Y-110989498D01*
X35274111Y-110788686D01*
X35267014Y-110782912D01*
X35064304Y-110617995D01*
X35064301Y-110617993D01*
X35060969Y-110615282D01*
X34826200Y-110472516D01*
X34822259Y-110470804D01*
X34822253Y-110470801D01*
X34578112Y-110364756D01*
X34578109Y-110364755D01*
X34574177Y-110363047D01*
X34570052Y-110361891D01*
X34570043Y-110361888D01*
X34313742Y-110290076D01*
X34313732Y-110290074D01*
X34309596Y-110288915D01*
X34305335Y-110288329D01*
X34305324Y-110288327D01*
X34041653Y-110252086D01*
X34041643Y-110252085D01*
X34037385Y-110251500D01*
X33762615Y-110251500D01*
X33758357Y-110252085D01*
X33758346Y-110252086D01*
X33494675Y-110288327D01*
X33494661Y-110288329D01*
X33490404Y-110288915D01*
X33486269Y-110290073D01*
X33486257Y-110290076D01*
X33229956Y-110361888D01*
X33229942Y-110361892D01*
X33225823Y-110363047D01*
X33221895Y-110364753D01*
X33221887Y-110364756D01*
X32977746Y-110470801D01*
X32977733Y-110470807D01*
X32973800Y-110472516D01*
X32970129Y-110474748D01*
X32970122Y-110474752D01*
X32742704Y-110613048D01*
X32742699Y-110613050D01*
X32739031Y-110615282D01*
X32735704Y-110617988D01*
X32735695Y-110617995D01*
X32529225Y-110785971D01*
X32529217Y-110785978D01*
X32525889Y-110788686D01*
X32522957Y-110791824D01*
X32522952Y-110791830D01*
X32341282Y-110986350D01*
X32341274Y-110986358D01*
X32338343Y-110989498D01*
X32335863Y-110993010D01*
X32335860Y-110993015D01*
X32182375Y-111210454D01*
X32182370Y-111210462D01*
X32179889Y-111213977D01*
X32177913Y-111217790D01*
X32177906Y-111217802D01*
X32055453Y-111454127D01*
X32055449Y-111454136D01*
X32053477Y-111457942D01*
X32052042Y-111461978D01*
X32052037Y-111461991D01*
X31962902Y-111712792D01*
X31962897Y-111712807D01*
X31961462Y-111716847D01*
X31960587Y-111721054D01*
X31960587Y-111721057D01*
X31906432Y-111981661D01*
X31906430Y-111981670D01*
X31905558Y-111985870D01*
X31905264Y-111990157D01*
X31905264Y-111990163D01*
X31887101Y-112255701D01*
X31886807Y-112260000D01*
X25425500Y-112260000D01*
X25425500Y-50803804D01*
X25425730Y-50796196D01*
X25434215Y-50655925D01*
X25443374Y-50504504D01*
X25445205Y-50489428D01*
X25497195Y-50205723D01*
X25500828Y-50190984D01*
X25586640Y-49915603D01*
X25592027Y-49901402D01*
X25710395Y-49638397D01*
X25717455Y-49624945D01*
X25866673Y-49378107D01*
X25875295Y-49365616D01*
X26053181Y-49138562D01*
X26063255Y-49127192D01*
X26267192Y-48923255D01*
X26278562Y-48913181D01*
X26505616Y-48735295D01*
X26518107Y-48726673D01*
X26764945Y-48577455D01*
X26778397Y-48570395D01*
X27041402Y-48452027D01*
X27055603Y-48446640D01*
X27330984Y-48360828D01*
X27345723Y-48357195D01*
X27629428Y-48305205D01*
X27644504Y-48303374D01*
X27936197Y-48285730D01*
X27943806Y-48285500D01*
X75673310Y-48285500D01*
X75741431Y-48305502D01*
G37*
%TD.AperFunction*%
%TA.AperFunction,Conductor*%
G36*
X58480507Y-95429844D02*
G01*
X58558239Y-95550798D01*
X58666900Y-95644952D01*
X58797685Y-95704680D01*
X58812412Y-95706797D01*
X58174310Y-96344899D01*
X58194697Y-96360767D01*
X58228206Y-96378901D01*
X58278597Y-96428914D01*
X58293949Y-96498231D01*
X58269388Y-96564844D01*
X58228207Y-96600528D01*
X58194423Y-96618811D01*
X58016762Y-96757091D01*
X57864278Y-96922731D01*
X57775483Y-97058643D01*
X57721479Y-97104731D01*
X57651131Y-97114306D01*
X57586774Y-97084328D01*
X57564517Y-97058643D01*
X57496584Y-96954664D01*
X57475722Y-96922732D01*
X57323240Y-96757094D01*
X57323239Y-96757093D01*
X57323237Y-96757091D01*
X57180458Y-96645961D01*
X57145576Y-96618811D01*
X57111792Y-96600528D01*
X57061402Y-96550516D01*
X57046050Y-96481199D01*
X57070611Y-96414586D01*
X57111793Y-96378901D01*
X57145303Y-96360765D01*
X57165688Y-96344899D01*
X57165689Y-96344898D01*
X56527588Y-95706797D01*
X56542315Y-95704680D01*
X56673100Y-95644952D01*
X56781761Y-95550798D01*
X56859493Y-95429844D01*
X56884360Y-95345151D01*
X57523076Y-95983867D01*
X57564516Y-95920439D01*
X57618520Y-95874351D01*
X57688868Y-95864776D01*
X57753225Y-95894754D01*
X57775482Y-95920439D01*
X57816921Y-95983866D01*
X57816923Y-95983866D01*
X58455638Y-95345150D01*
X58480507Y-95429844D01*
G37*
%TD.AperFunction*%
%TA.AperFunction,Conductor*%
G36*
X47008000Y-71538000D02*
G01*
X47254798Y-71538000D01*
X47322919Y-71558002D01*
X47369412Y-71611658D01*
X47379516Y-71681932D01*
X47350022Y-71746512D01*
X47343893Y-71753095D01*
X45711336Y-73385651D01*
X45695016Y-73398727D01*
X45646370Y-73450529D01*
X45643621Y-73453366D01*
X45626667Y-73470321D01*
X45626660Y-73470328D01*
X45623865Y-73473124D01*
X45621442Y-73476246D01*
X45621426Y-73476265D01*
X45621365Y-73476345D01*
X45613711Y-73485307D01*
X45611376Y-73487795D01*
X45550174Y-73523778D01*
X45479233Y-73520961D01*
X45421077Y-73480238D01*
X45394169Y-73414538D01*
X45393500Y-73401569D01*
X45393500Y-71534131D01*
X45413502Y-71466010D01*
X45467158Y-71419517D01*
X45537432Y-71409413D01*
X45595009Y-71433263D01*
X45658037Y-71480445D01*
X45794906Y-71531494D01*
X45852063Y-71537640D01*
X45858777Y-71538000D01*
X46500000Y-71538000D01*
X46500000Y-70613674D01*
X46611685Y-70664680D01*
X46718237Y-70680000D01*
X46789763Y-70680000D01*
X46896315Y-70664680D01*
X47008000Y-70613674D01*
X47008000Y-71538000D01*
G37*
%TD.AperFunction*%
%TD*%
M02*
