%TF.GenerationSoftware,KiCad,Pcbnew,7.0.2-0*%
%TF.CreationDate,2023-06-04T18:07:01+02:00*%
%TF.ProjectId,main,6d61696e-2e6b-4696-9361-645f70636258,v.1.2.1*%
%TF.SameCoordinates,Original*%
%TF.FileFunction,Copper,L1,Top*%
%TF.FilePolarity,Positive*%
%FSLAX46Y46*%
G04 Gerber Fmt 4.6, Leading zero omitted, Abs format (unit mm)*
G04 Created by KiCad (PCBNEW 7.0.2-0) date 2023-06-04 18:07:01*
%MOMM*%
%LPD*%
G01*
G04 APERTURE LIST*
G04 Aperture macros list*
%AMRoundRect*
0 Rectangle with rounded corners*
0 $1 Rounding radius*
0 $2 $3 $4 $5 $6 $7 $8 $9 X,Y pos of 4 corners*
0 Add a 4 corners polygon primitive as box body*
4,1,4,$2,$3,$4,$5,$6,$7,$8,$9,$2,$3,0*
0 Add four circle primitives for the rounded corners*
1,1,$1+$1,$2,$3*
1,1,$1+$1,$4,$5*
1,1,$1+$1,$6,$7*
1,1,$1+$1,$8,$9*
0 Add four rect primitives between the rounded corners*
20,1,$1+$1,$2,$3,$4,$5,0*
20,1,$1+$1,$4,$5,$6,$7,0*
20,1,$1+$1,$6,$7,$8,$9,0*
20,1,$1+$1,$8,$9,$2,$3,0*%
G04 Aperture macros list end*
%TA.AperFunction,EtchedComponent*%
%ADD10C,1.270000*%
%TD*%
%TA.AperFunction,EtchedComponent*%
%ADD11C,0.381000*%
%TD*%
%TA.AperFunction,ComponentPad*%
%ADD12C,3.000000*%
%TD*%
%TA.AperFunction,ComponentPad*%
%ADD13R,2.600000X2.600000*%
%TD*%
%TA.AperFunction,ComponentPad*%
%ADD14C,2.600000*%
%TD*%
%TA.AperFunction,SMDPad,CuDef*%
%ADD15RoundRect,0.200000X0.275000X-0.200000X0.275000X0.200000X-0.275000X0.200000X-0.275000X-0.200000X0*%
%TD*%
%TA.AperFunction,SMDPad,CuDef*%
%ADD16RoundRect,0.200000X0.200000X0.275000X-0.200000X0.275000X-0.200000X-0.275000X0.200000X-0.275000X0*%
%TD*%
%TA.AperFunction,ComponentPad*%
%ADD17R,1.600000X1.600000*%
%TD*%
%TA.AperFunction,ComponentPad*%
%ADD18O,1.600000X1.600000*%
%TD*%
%TA.AperFunction,SMDPad,CuDef*%
%ADD19RoundRect,0.200000X-0.275000X0.200000X-0.275000X-0.200000X0.275000X-0.200000X0.275000X0.200000X0*%
%TD*%
%TA.AperFunction,ComponentPad*%
%ADD20R,1.700000X1.700000*%
%TD*%
%TA.AperFunction,ComponentPad*%
%ADD21O,1.700000X1.700000*%
%TD*%
%TA.AperFunction,SMDPad,CuDef*%
%ADD22R,1.500000X1.000000*%
%TD*%
%TA.AperFunction,SMDPad,CuDef*%
%ADD23RoundRect,0.218750X0.256250X-0.218750X0.256250X0.218750X-0.256250X0.218750X-0.256250X-0.218750X0*%
%TD*%
%TA.AperFunction,SMDPad,CuDef*%
%ADD24RoundRect,0.225000X-0.250000X0.225000X-0.250000X-0.225000X0.250000X-0.225000X0.250000X0.225000X0*%
%TD*%
%TA.AperFunction,ComponentPad*%
%ADD25C,1.600000*%
%TD*%
%TA.AperFunction,SMDPad,CuDef*%
%ADD26RoundRect,0.125000X-0.625000X-0.125000X0.625000X-0.125000X0.625000X0.125000X-0.625000X0.125000X0*%
%TD*%
%TA.AperFunction,SMDPad,CuDef*%
%ADD27RoundRect,0.125000X-0.125000X-0.625000X0.125000X-0.625000X0.125000X0.625000X-0.125000X0.625000X0*%
%TD*%
%TA.AperFunction,SMDPad,CuDef*%
%ADD28RoundRect,0.250000X-0.475000X0.250000X-0.475000X-0.250000X0.475000X-0.250000X0.475000X0.250000X0*%
%TD*%
%TA.AperFunction,ComponentPad*%
%ADD29RoundRect,0.249999X0.525001X-0.525001X0.525001X0.525001X-0.525001X0.525001X-0.525001X-0.525001X0*%
%TD*%
%TA.AperFunction,ComponentPad*%
%ADD30C,1.550000*%
%TD*%
%TA.AperFunction,SMDPad,CuDef*%
%ADD31RoundRect,0.250000X0.475000X-0.250000X0.475000X0.250000X-0.475000X0.250000X-0.475000X-0.250000X0*%
%TD*%
%TA.AperFunction,SMDPad,CuDef*%
%ADD32RoundRect,0.250000X-0.650000X0.325000X-0.650000X-0.325000X0.650000X-0.325000X0.650000X0.325000X0*%
%TD*%
%TA.AperFunction,SMDPad,CuDef*%
%ADD33RoundRect,0.250000X-0.850000X-0.350000X0.850000X-0.350000X0.850000X0.350000X-0.850000X0.350000X0*%
%TD*%
%TA.AperFunction,SMDPad,CuDef*%
%ADD34RoundRect,0.250000X-1.275000X-1.125000X1.275000X-1.125000X1.275000X1.125000X-1.275000X1.125000X0*%
%TD*%
%TA.AperFunction,SMDPad,CuDef*%
%ADD35RoundRect,0.249997X-2.950003X-2.650003X2.950003X-2.650003X2.950003X2.650003X-2.950003X2.650003X0*%
%TD*%
%TA.AperFunction,ComponentPad*%
%ADD36RoundRect,0.250000X-0.600000X-0.600000X0.600000X-0.600000X0.600000X0.600000X-0.600000X0.600000X0*%
%TD*%
%TA.AperFunction,ComponentPad*%
%ADD37C,1.700000*%
%TD*%
%TA.AperFunction,SMDPad,CuDef*%
%ADD38R,2.795000X0.740000*%
%TD*%
%TA.AperFunction,ViaPad*%
%ADD39C,0.700000*%
%TD*%
%TA.AperFunction,Conductor*%
%ADD40C,0.250000*%
%TD*%
%TA.AperFunction,Conductor*%
%ADD41C,0.500000*%
%TD*%
%TA.AperFunction,Conductor*%
%ADD42C,1.000000*%
%TD*%
%TA.AperFunction,Conductor*%
%ADD43C,0.750000*%
%TD*%
G04 APERTURE END LIST*
D10*
%TO.C,SYM1*%
X206248000Y-66548000D02*
X215138000Y-55118000D01*
D11*
X213741000Y-61849000D02*
X215138000Y-61849000D01*
X213741000Y-64643000D02*
X214503000Y-64008000D01*
X213868000Y-63627000D02*
X213741000Y-64643000D01*
X213995000Y-64135000D02*
X213868000Y-63627000D01*
X213995000Y-64262000D02*
X215773000Y-61468000D01*
X214122000Y-61722000D02*
X215392000Y-61722000D01*
X214503000Y-61468000D02*
X216281000Y-59436000D01*
X214503000Y-64008000D02*
X213995000Y-64262000D01*
D10*
X215138000Y-55118000D02*
X224028000Y-66548000D01*
D11*
X215138000Y-61849000D02*
X213995000Y-64135000D01*
X215265000Y-59563000D02*
X213741000Y-61849000D01*
X215519000Y-59817000D02*
X214122000Y-61722000D01*
X215519000Y-59944000D02*
X215392000Y-59436000D01*
X215773000Y-61468000D02*
X214503000Y-61468000D01*
X216281000Y-59436000D02*
X215519000Y-59944000D01*
D10*
X224028000Y-66548000D02*
X206248000Y-66548000D01*
%TA.AperFunction,EtchedComponent*%
%TO.C,JP1*%
G36*
X37130000Y-101660000D02*
G01*
X36530000Y-101660000D01*
X36530000Y-101160000D01*
X37130000Y-101160000D01*
X37130000Y-101660000D01*
G37*
%TD.AperFunction*%
%TD*%
D12*
%TO.P,TP7,1,1*%
%TO.N,/Microcontroller/LED*%
X53340000Y-112260000D03*
%TD*%
%TO.P,TP2,1,1*%
%TO.N,+3.3V*%
X33900000Y-107180000D03*
%TD*%
D13*
%TO.P,J5,1,Pin_1*%
%TO.N,Net-(J5-Pin_1)*%
X138430000Y-57404000D03*
D14*
%TO.P,J5,2,Pin_2*%
%TO.N,Net-(J5-Pin_2)*%
X143510000Y-57404000D03*
%TO.P,J5,3,Pin_3*%
%TO.N,Net-(J5-Pin_3)*%
X148590000Y-57404000D03*
%TO.P,J5,4,Pin_4*%
%TO.N,Net-(J5-Pin_4)*%
X153670000Y-57404000D03*
%TO.P,J5,5,Pin_5*%
%TO.N,Net-(J5-Pin_5)*%
X158750000Y-57404000D03*
%TO.P,J5,6,Pin_6*%
%TO.N,Net-(J5-Pin_6)*%
X163830000Y-57404000D03*
%TO.P,J5,7,Pin_7*%
%TO.N,Net-(J5-Pin_7)*%
X168910000Y-57404000D03*
%TO.P,J5,8,Pin_8*%
%TO.N,Net-(J5-Pin_8)*%
X173990000Y-57404000D03*
%TO.P,J5,9,Pin_9*%
%TO.N,Net-(J5-Pin_9)*%
X179070000Y-57404000D03*
%TO.P,J5,10,Pin_10*%
%TO.N,Net-(J5-Pin_10)*%
X184150000Y-57404000D03*
%TD*%
D13*
%TO.P,J4,1,Pin_1*%
%TO.N,/Relays/Input pins/Out_HIGH*%
X190500000Y-57404000D03*
D14*
%TO.P,J4,2,Pin_2*%
%TO.N,/Relays/Input pins/Out_LOW*%
X195580000Y-57404000D03*
%TD*%
D15*
%TO.P,R11,1*%
%TO.N,Net-(J3-Pin_1)*%
X42950000Y-85660000D03*
%TO.P,R11,2*%
%TO.N,/Microcontroller/TX*%
X42950000Y-84010000D03*
%TD*%
D16*
%TO.P,R38,1*%
%TO.N,Net-(R38-Pad1)*%
X183959000Y-89154000D03*
%TO.P,R38,2*%
%TO.N,/Microcontroller/CH11*%
X182309000Y-89154000D03*
%TD*%
D17*
%TO.P,U19,1*%
%TO.N,Net-(R29-Pad1)*%
X99060000Y-73660000D03*
D18*
%TO.P,U19,2*%
%TO.N,GND*%
X101600000Y-73660000D03*
%TO.P,U19,3*%
%TO.N,Net-(J6-Pin_4)*%
X101600000Y-66040000D03*
%TO.P,U19,4*%
%TO.N,/Relays/Input pins/Out_HIGH*%
X99060000Y-66040000D03*
%TD*%
D19*
%TO.P,R4,1*%
%TO.N,/DATA*%
X37338000Y-66485000D03*
%TO.P,R4,2*%
%TO.N,GND*%
X37338000Y-68135000D03*
%TD*%
D17*
%TO.P,U34,1*%
%TO.N,Net-(R46-Pad1)*%
X168910000Y-91440000D03*
D18*
%TO.P,U34,2*%
%TO.N,GND*%
X166370000Y-91440000D03*
%TO.P,U34,3*%
%TO.N,/Relays/Input pins/Bus_LOW*%
X166370000Y-99060000D03*
%TO.P,U34,4*%
%TO.N,Net-(J8-Pin_4)*%
X168910000Y-99060000D03*
%TD*%
D16*
%TO.P,R30,1*%
%TO.N,Net-(R30-Pad1)*%
X145859000Y-75946000D03*
%TO.P,R30,2*%
%TO.N,/Microcontroller/CH4*%
X144209000Y-75946000D03*
%TD*%
D12*
%TO.P,TP6,1,1*%
%TO.N,/STROBE*%
X43882000Y-55880000D03*
%TD*%
D20*
%TO.P,J2,1,Pin_1*%
%TO.N,+3.3V*%
X44704000Y-69850000D03*
D21*
%TO.P,J2,2,Pin_2*%
%TO.N,/Microcontroller/SWCLK*%
X44704000Y-67310000D03*
%TO.P,J2,3,Pin_3*%
%TO.N,GND*%
X44704000Y-64770000D03*
%TO.P,J2,4,Pin_4*%
%TO.N,/Microcontroller/SWDIO*%
X44704000Y-62230000D03*
%TO.P,J2,5,Pin_5*%
%TO.N,/~{NRST}*%
X44704000Y-59690000D03*
%TD*%
D17*
%TO.P,U41,1*%
%TO.N,Net-(R53-Pad1)*%
X101600000Y-91440000D03*
D18*
%TO.P,U41,2*%
%TO.N,GND*%
X99060000Y-91440000D03*
%TO.P,U41,3*%
%TO.N,/Relays/Input pins/Bus_HIGH*%
X99060000Y-99060000D03*
%TO.P,U41,4*%
%TO.N,Net-(J9-Pin_7)*%
X101600000Y-99060000D03*
%TD*%
D17*
%TO.P,U42,1*%
%TO.N,Net-(R54-Pad1)*%
X148590000Y-91440000D03*
D18*
%TO.P,U42,2*%
%TO.N,GND*%
X146050000Y-91440000D03*
%TO.P,U42,3*%
%TO.N,/Relays/Input pins/Bus_LOW*%
X146050000Y-99060000D03*
%TO.P,U42,4*%
%TO.N,Net-(J8-Pin_8)*%
X148590000Y-99060000D03*
%TD*%
D16*
%TO.P,R15,1*%
%TO.N,Net-(R15-Pad1)*%
X129349000Y-75946000D03*
%TO.P,R15,2*%
%TO.N,/Microcontroller/CH6*%
X127699000Y-75946000D03*
%TD*%
D17*
%TO.P,U36,1*%
%TO.N,Net-(R48-Pad1)*%
X163830000Y-91440000D03*
D18*
%TO.P,U36,2*%
%TO.N,GND*%
X161290000Y-91440000D03*
%TO.P,U36,3*%
%TO.N,/Relays/Input pins/Bus_HIGH*%
X161290000Y-99060000D03*
%TO.P,U36,4*%
%TO.N,Net-(J8-Pin_5)*%
X163830000Y-99060000D03*
%TD*%
D17*
%TO.P,U31,1*%
%TO.N,Net-(R43-Pad1)*%
X127000000Y-91440000D03*
D18*
%TO.P,U31,2*%
%TO.N,GND*%
X124460000Y-91440000D03*
%TO.P,U31,3*%
%TO.N,/Relays/Input pins/Bus_LOW*%
X124460000Y-99060000D03*
%TO.P,U31,4*%
%TO.N,Net-(J9-Pin_2)*%
X127000000Y-99060000D03*
%TD*%
D16*
%TO.P,R35,1*%
%TO.N,Net-(R35-Pad1)*%
X83629000Y-75946000D03*
%TO.P,R35,2*%
%TO.N,/Microcontroller/CH10*%
X81979000Y-75946000D03*
%TD*%
D17*
%TO.P,U11,1*%
%TO.N,Net-(R21-Pad1)*%
X119380000Y-73660000D03*
D18*
%TO.P,U11,2*%
%TO.N,GND*%
X121920000Y-73660000D03*
%TO.P,U11,3*%
%TO.N,Net-(J6-Pin_8)*%
X121920000Y-66040000D03*
%TO.P,U11,4*%
%TO.N,/Relays/Input pins/Out_HIGH*%
X119380000Y-66040000D03*
%TD*%
D17*
%TO.P,U6,1*%
%TO.N,Net-(R14-Pad1)*%
X181610000Y-73660000D03*
D18*
%TO.P,U6,2*%
%TO.N,GND*%
X184150000Y-73660000D03*
%TO.P,U6,3*%
%TO.N,Net-(J5-Pin_10)*%
X184150000Y-66040000D03*
%TO.P,U6,4*%
%TO.N,/Relays/Input pins/Out_HIGH*%
X181610000Y-66040000D03*
%TD*%
D17*
%TO.P,U20,1*%
%TO.N,Net-(R30-Pad1)*%
X146050000Y-73660000D03*
D18*
%TO.P,U20,2*%
%TO.N,GND*%
X148590000Y-73660000D03*
%TO.P,U20,3*%
%TO.N,Net-(J5-Pin_3)*%
X148590000Y-66040000D03*
%TO.P,U20,4*%
%TO.N,/Relays/Input pins/Out_LOW*%
X146050000Y-66040000D03*
%TD*%
D17*
%TO.P,U44,1*%
%TO.N,Net-(R56-Pad1)*%
X143510000Y-91440000D03*
D18*
%TO.P,U44,2*%
%TO.N,GND*%
X140970000Y-91440000D03*
%TO.P,U44,3*%
%TO.N,/Relays/Input pins/Bus_HIGH*%
X140970000Y-99060000D03*
%TO.P,U44,4*%
%TO.N,Net-(J8-Pin_9)*%
X143510000Y-99060000D03*
%TD*%
D16*
%TO.P,R52,1*%
%TO.N,Net-(R52-Pad1)*%
X153479000Y-89154000D03*
%TO.P,R52,2*%
%TO.N,/Microcontroller/CH14*%
X151829000Y-89154000D03*
%TD*%
%TO.P,R33,1*%
%TO.N,Net-(R33-Pad1)*%
X88709000Y-75946000D03*
%TO.P,R33,2*%
%TO.N,/Microcontroller/CH10*%
X87059000Y-75946000D03*
%TD*%
%TO.P,R39,1*%
%TO.N,Net-(R39-Pad1)*%
X131889000Y-89154000D03*
%TO.P,R39,2*%
%TO.N,/Microcontroller/CH16*%
X130239000Y-89154000D03*
%TD*%
D17*
%TO.P,U12,1*%
%TO.N,Net-(R22-Pad1)*%
X166370000Y-73660000D03*
D18*
%TO.P,U12,2*%
%TO.N,GND*%
X168910000Y-73660000D03*
%TO.P,U12,3*%
%TO.N,Net-(J5-Pin_7)*%
X168910000Y-66040000D03*
%TO.P,U12,4*%
%TO.N,/Relays/Input pins/Out_LOW*%
X166370000Y-66040000D03*
%TD*%
D17*
%TO.P,U4,1*%
%TO.N,Net-(R12-Pad1)*%
X187960000Y-73660000D03*
D18*
%TO.P,U4,2*%
%TO.N,GND*%
X190500000Y-73660000D03*
%TO.P,U4,3*%
%TO.N,/Relays/Input pins/Out_HIGH*%
X190500000Y-66040000D03*
%TO.P,U4,4*%
%TO.N,/Relays/Input pins/Bus_HIGH*%
X187960000Y-66040000D03*
%TD*%
D17*
%TO.P,U13,1*%
%TO.N,Net-(R23-Pad1)*%
X114300000Y-73660000D03*
D18*
%TO.P,U13,2*%
%TO.N,GND*%
X116840000Y-73660000D03*
%TO.P,U13,3*%
%TO.N,Net-(J6-Pin_7)*%
X116840000Y-66040000D03*
%TO.P,U13,4*%
%TO.N,/Relays/Input pins/Out_LOW*%
X114300000Y-66040000D03*
%TD*%
D17*
%TO.P,U8,1*%
%TO.N,Net-(R18-Pad1)*%
X176530000Y-73660000D03*
D18*
%TO.P,U8,2*%
%TO.N,GND*%
X179070000Y-73660000D03*
%TO.P,U8,3*%
%TO.N,Net-(J5-Pin_9)*%
X179070000Y-66040000D03*
%TO.P,U8,4*%
%TO.N,/Relays/Input pins/Out_LOW*%
X176530000Y-66040000D03*
%TD*%
D16*
%TO.P,R27,1*%
%TO.N,Net-(R27-Pad1)*%
X103949000Y-75946000D03*
%TO.P,R27,2*%
%TO.N,/Microcontroller/CH8*%
X102299000Y-75946000D03*
%TD*%
D22*
%TO.P,JP1,1,A*%
%TO.N,/DATA*%
X36830000Y-102060000D03*
%TO.P,JP1,2,C*%
%TO.N,/ID*%
X36830000Y-100760000D03*
%TO.P,JP1,3,B*%
%TO.N,+5V*%
X36830000Y-99460000D03*
%TD*%
D16*
%TO.P,R14,1*%
%TO.N,Net-(R14-Pad1)*%
X181419000Y-75946000D03*
%TO.P,R14,2*%
%TO.N,/Microcontroller/CH1*%
X179769000Y-75946000D03*
%TD*%
D17*
%TO.P,U7,1*%
%TO.N,Net-(R15-Pad1)*%
X129540000Y-73660000D03*
D18*
%TO.P,U7,2*%
%TO.N,GND*%
X132080000Y-73660000D03*
%TO.P,U7,3*%
%TO.N,Net-(J6-Pin_10)*%
X132080000Y-66040000D03*
%TO.P,U7,4*%
%TO.N,/Relays/Input pins/Out_HIGH*%
X129540000Y-66040000D03*
%TD*%
D23*
%TO.P,D1,1,K*%
%TO.N,GND*%
X44558000Y-112087500D03*
%TO.P,D1,2,A*%
%TO.N,Net-(D1-A)*%
X44558000Y-110512500D03*
%TD*%
D16*
%TO.P,R45,1*%
%TO.N,Net-(R45-Pad1)*%
X121729000Y-89154000D03*
%TO.P,R45,2*%
%TO.N,/Microcontroller/CH17*%
X120079000Y-89154000D03*
%TD*%
D17*
%TO.P,U18,1*%
%TO.N,Net-(R28-Pad1)*%
X151130000Y-73660000D03*
D18*
%TO.P,U18,2*%
%TO.N,GND*%
X153670000Y-73660000D03*
%TO.P,U18,3*%
%TO.N,Net-(J5-Pin_4)*%
X153670000Y-66040000D03*
%TO.P,U18,4*%
%TO.N,/Relays/Input pins/Out_HIGH*%
X151130000Y-66040000D03*
%TD*%
D24*
%TO.P,C6,1*%
%TO.N,Net-(U3-NRST)*%
X41450000Y-82460000D03*
%TO.P,C6,2*%
%TO.N,GND*%
X41450000Y-84010000D03*
%TD*%
D16*
%TO.P,R21,1*%
%TO.N,Net-(R21-Pad1)*%
X119189000Y-75946000D03*
%TO.P,R21,2*%
%TO.N,/Microcontroller/CH7*%
X117539000Y-75946000D03*
%TD*%
D17*
%TO.P,C1,1*%
%TO.N,+5V*%
X38400000Y-93760000D03*
D25*
%TO.P,C1,2*%
%TO.N,GND*%
X38400000Y-91260000D03*
%TD*%
D16*
%TO.P,R32,1*%
%TO.N,Net-(R32-Pad1)*%
X140779000Y-75946000D03*
%TO.P,R32,2*%
%TO.N,/Microcontroller/CH5*%
X139129000Y-75946000D03*
%TD*%
%TO.P,R34,1*%
%TO.N,Net-(R34-Pad1)*%
X135699000Y-75946000D03*
%TO.P,R34,2*%
%TO.N,/Microcontroller/CH5*%
X134049000Y-75946000D03*
%TD*%
%TO.P,R42,1*%
%TO.N,Net-(R42-Pad1)*%
X178879000Y-89154000D03*
%TO.P,R42,2*%
%TO.N,/Microcontroller/CH11*%
X177229000Y-89154000D03*
%TD*%
D17*
%TO.P,U24,1*%
%TO.N,Net-(R34-Pad1)*%
X135890000Y-73660000D03*
D18*
%TO.P,U24,2*%
%TO.N,GND*%
X138430000Y-73660000D03*
%TO.P,U24,3*%
%TO.N,Net-(J5-Pin_1)*%
X138430000Y-66040000D03*
%TO.P,U24,4*%
%TO.N,/Relays/Input pins/Out_LOW*%
X135890000Y-66040000D03*
%TD*%
D16*
%TO.P,R54,1*%
%TO.N,Net-(R54-Pad1)*%
X148399000Y-89154000D03*
%TO.P,R54,2*%
%TO.N,/Microcontroller/CH14*%
X146749000Y-89154000D03*
%TD*%
D12*
%TO.P,TP5,1,1*%
%TO.N,/CLK*%
X38832000Y-55880000D03*
%TD*%
D16*
%TO.P,R29,1*%
%TO.N,Net-(R29-Pad1)*%
X98869000Y-75946000D03*
%TO.P,R29,2*%
%TO.N,/Microcontroller/CH9*%
X97219000Y-75946000D03*
%TD*%
%TO.P,R20,1*%
%TO.N,Net-(R20-Pad1)*%
X171259000Y-75946000D03*
%TO.P,R20,2*%
%TO.N,/Microcontroller/CH2*%
X169609000Y-75946000D03*
%TD*%
D17*
%TO.P,U43,1*%
%TO.N,Net-(R55-Pad1)*%
X96520000Y-91440000D03*
D18*
%TO.P,U43,2*%
%TO.N,GND*%
X93980000Y-91440000D03*
%TO.P,U43,3*%
%TO.N,/Relays/Input pins/Bus_LOW*%
X93980000Y-99060000D03*
%TO.P,U43,4*%
%TO.N,Net-(J9-Pin_8)*%
X96520000Y-99060000D03*
%TD*%
D16*
%TO.P,R46,1*%
%TO.N,Net-(R46-Pad1)*%
X168719000Y-89154000D03*
%TO.P,R46,2*%
%TO.N,/Microcontroller/CH12*%
X167069000Y-89154000D03*
%TD*%
%TO.P,R19,1*%
%TO.N,Net-(R19-Pad1)*%
X124269000Y-75946000D03*
%TO.P,R19,2*%
%TO.N,/Microcontroller/CH6*%
X122619000Y-75946000D03*
%TD*%
D26*
%TO.P,U3,1,PB9*%
%TO.N,/Microcontroller/DATA*%
X44725000Y-77160000D03*
%TO.P,U3,2,PC14*%
%TO.N,/Microcontroller/CLK*%
X44725000Y-77960000D03*
%TO.P,U3,3,PC15*%
%TO.N,/Microcontroller/STROBE*%
X44725000Y-78760000D03*
%TO.P,U3,4,VDD/VDDA*%
%TO.N,+3.3V*%
X44725000Y-79560000D03*
%TO.P,U3,5,VSS/VSSA*%
%TO.N,GND*%
X44725000Y-80360000D03*
%TO.P,U3,6,NRST*%
%TO.N,Net-(U3-NRST)*%
X44725000Y-81160000D03*
%TO.P,U3,7,PA0*%
%TO.N,/Microcontroller/TX*%
X44725000Y-81960000D03*
%TO.P,U3,8,PA1*%
%TO.N,/Microcontroller/LED*%
X44725000Y-82760000D03*
D27*
%TO.P,U3,9,PA2*%
%TO.N,/Microcontroller/CH20*%
X46100000Y-84135000D03*
%TO.P,U3,10,PA3*%
%TO.N,/Microcontroller/CH19*%
X46900000Y-84135000D03*
%TO.P,U3,11,PA4*%
%TO.N,/Microcontroller/CH18*%
X47700000Y-84135000D03*
%TO.P,U3,12,PA5*%
%TO.N,/Microcontroller/CH17*%
X48500000Y-84135000D03*
%TO.P,U3,13,PA6*%
%TO.N,/Microcontroller/CH16*%
X49300000Y-84135000D03*
%TO.P,U3,14,PA7*%
%TO.N,/Microcontroller/CH15*%
X50100000Y-84135000D03*
%TO.P,U3,15,PB0*%
%TO.N,/Microcontroller/CH14*%
X50900000Y-84135000D03*
%TO.P,U3,16,PB1*%
%TO.N,/Microcontroller/CH13*%
X51700000Y-84135000D03*
D26*
%TO.P,U3,17,PB2*%
%TO.N,/Microcontroller/CH12*%
X53075000Y-82760000D03*
%TO.P,U3,18,PA8*%
%TO.N,/Microcontroller/CH11*%
X53075000Y-81960000D03*
%TO.P,U3,19,PA9*%
%TO.N,/Microcontroller/Bus2_sense_enable*%
X53075000Y-81160000D03*
%TO.P,U3,20,PC6*%
%TO.N,/Microcontroller/Bus2_input_enable*%
X53075000Y-80360000D03*
%TO.P,U3,21,PA10*%
%TO.N,/Microcontroller/CH1*%
X53075000Y-79560000D03*
%TO.P,U3,22,PA11*%
%TO.N,/Microcontroller/CH2*%
X53075000Y-78760000D03*
%TO.P,U3,23,PA12*%
%TO.N,/Microcontroller/CH3*%
X53075000Y-77960000D03*
%TO.P,U3,24,PA13*%
%TO.N,/Microcontroller/SWDIO*%
X53075000Y-77160000D03*
D27*
%TO.P,U3,25,PA14*%
%TO.N,/Microcontroller/SWCLK*%
X51700000Y-75785000D03*
%TO.P,U3,26,PA15*%
%TO.N,/Microcontroller/CH4*%
X50900000Y-75785000D03*
%TO.P,U3,27,PB3*%
%TO.N,/Microcontroller/CH5*%
X50100000Y-75785000D03*
%TO.P,U3,28,PB4*%
%TO.N,/Microcontroller/CH6*%
X49300000Y-75785000D03*
%TO.P,U3,29,PB5*%
%TO.N,/Microcontroller/CH7*%
X48500000Y-75785000D03*
%TO.P,U3,30,PB6*%
%TO.N,/Microcontroller/CH8*%
X47700000Y-75785000D03*
%TO.P,U3,31,PB7*%
%TO.N,/Microcontroller/CH9*%
X46900000Y-75785000D03*
%TO.P,U3,32,PB8*%
%TO.N,/Microcontroller/CH10*%
X46100000Y-75785000D03*
%TD*%
D19*
%TO.P,R3,1*%
%TO.N,/CLK*%
X37338000Y-71565000D03*
%TO.P,R3,2*%
%TO.N,GND*%
X37338000Y-73215000D03*
%TD*%
D16*
%TO.P,R44,1*%
%TO.N,Net-(R44-Pad1)*%
X173799000Y-89154000D03*
%TO.P,R44,2*%
%TO.N,/Microcontroller/CH12*%
X172149000Y-89154000D03*
%TD*%
D17*
%TO.P,U25,1*%
%TO.N,Net-(R35-Pad1)*%
X83820000Y-73660000D03*
D18*
%TO.P,U25,2*%
%TO.N,GND*%
X86360000Y-73660000D03*
%TO.P,U25,3*%
%TO.N,Net-(J6-Pin_1)*%
X86360000Y-66040000D03*
%TO.P,U25,4*%
%TO.N,/Relays/Input pins/Out_LOW*%
X83820000Y-66040000D03*
%TD*%
D16*
%TO.P,R37,1*%
%TO.N,Net-(R37-Pad1)*%
X195389000Y-89154000D03*
%TO.P,R37,2*%
%TO.N,/Microcontroller/Bus2_sense_enable*%
X193739000Y-89154000D03*
%TD*%
D17*
%TO.P,U17,1*%
%TO.N,Net-(R27-Pad1)*%
X104140000Y-73660000D03*
D18*
%TO.P,U17,2*%
%TO.N,GND*%
X106680000Y-73660000D03*
%TO.P,U17,3*%
%TO.N,Net-(J6-Pin_5)*%
X106680000Y-66040000D03*
%TO.P,U17,4*%
%TO.N,/Relays/Input pins/Out_LOW*%
X104140000Y-66040000D03*
%TD*%
D17*
%TO.P,U10,1*%
%TO.N,Net-(R20-Pad1)*%
X171450000Y-73660000D03*
D18*
%TO.P,U10,2*%
%TO.N,GND*%
X173990000Y-73660000D03*
%TO.P,U10,3*%
%TO.N,Net-(J5-Pin_8)*%
X173990000Y-66040000D03*
%TO.P,U10,4*%
%TO.N,/Relays/Input pins/Out_HIGH*%
X171450000Y-66040000D03*
%TD*%
D16*
%TO.P,R25,1*%
%TO.N,Net-(R25-Pad1)*%
X109029000Y-75946000D03*
%TO.P,R25,2*%
%TO.N,/Microcontroller/CH8*%
X107379000Y-75946000D03*
%TD*%
D20*
%TO.P,J3,1,Pin_1*%
%TO.N,Net-(J3-Pin_1)*%
X45250000Y-88310000D03*
D21*
%TO.P,J3,2,Pin_2*%
%TO.N,GND*%
X45250000Y-90850000D03*
%TD*%
D16*
%TO.P,R9,1*%
%TO.N,/Microcontroller/SWDIO*%
X41148000Y-71310000D03*
%TO.P,R9,2*%
%TO.N,GND*%
X39498000Y-71310000D03*
%TD*%
D17*
%TO.P,U38,1*%
%TO.N,Net-(R50-Pad1)*%
X158750000Y-91440000D03*
D18*
%TO.P,U38,2*%
%TO.N,GND*%
X156210000Y-91440000D03*
%TO.P,U38,3*%
%TO.N,/Relays/Input pins/Bus_LOW*%
X156210000Y-99060000D03*
%TO.P,U38,4*%
%TO.N,Net-(J8-Pin_6)*%
X158750000Y-99060000D03*
%TD*%
D16*
%TO.P,R57,1*%
%TO.N,Net-(R57-Pad1)*%
X91249000Y-89154000D03*
%TO.P,R57,2*%
%TO.N,/Microcontroller/CH20*%
X89599000Y-89154000D03*
%TD*%
D17*
%TO.P,U15,1*%
%TO.N,Net-(R25-Pad1)*%
X109220000Y-73660000D03*
D18*
%TO.P,U15,2*%
%TO.N,GND*%
X111760000Y-73660000D03*
%TO.P,U15,3*%
%TO.N,Net-(J6-Pin_6)*%
X111760000Y-66040000D03*
%TO.P,U15,4*%
%TO.N,/Relays/Input pins/Out_HIGH*%
X109220000Y-66040000D03*
%TD*%
D28*
%TO.P,C5,1*%
%TO.N,+3.3V*%
X41910000Y-96078000D03*
%TO.P,C5,2*%
%TO.N,GND*%
X41910000Y-97978000D03*
%TD*%
D17*
%TO.P,U5,1*%
%TO.N,Net-(R13-Pad1)*%
X193040000Y-73660000D03*
D18*
%TO.P,U5,2*%
%TO.N,GND*%
X195580000Y-73660000D03*
%TO.P,U5,3*%
%TO.N,/Relays/Input pins/Out_LOW*%
X195580000Y-66040000D03*
%TO.P,U5,4*%
%TO.N,/Relays/Input pins/Bus_LOW*%
X193040000Y-66040000D03*
%TD*%
D19*
%TO.P,R2,1*%
%TO.N,/STROBE*%
X37338000Y-76645000D03*
%TO.P,R2,2*%
%TO.N,GND*%
X37338000Y-78295000D03*
%TD*%
D17*
%TO.P,U37,1*%
%TO.N,Net-(R49-Pad1)*%
X111760000Y-91440000D03*
D18*
%TO.P,U37,2*%
%TO.N,GND*%
X109220000Y-91440000D03*
%TO.P,U37,3*%
%TO.N,/Relays/Input pins/Bus_HIGH*%
X109220000Y-99060000D03*
%TO.P,U37,4*%
%TO.N,Net-(J9-Pin_5)*%
X111760000Y-99060000D03*
%TD*%
D19*
%TO.P,R8,1*%
%TO.N,+3.3V*%
X44558000Y-106919000D03*
%TO.P,R8,2*%
%TO.N,Net-(D1-A)*%
X44558000Y-108569000D03*
%TD*%
D16*
%TO.P,R23,1*%
%TO.N,Net-(R23-Pad1)*%
X114109000Y-75946000D03*
%TO.P,R23,2*%
%TO.N,/Microcontroller/CH7*%
X112459000Y-75946000D03*
%TD*%
%TO.P,R53,1*%
%TO.N,Net-(R53-Pad1)*%
X101409000Y-89154000D03*
%TO.P,R53,2*%
%TO.N,/Microcontroller/CH19*%
X99759000Y-89154000D03*
%TD*%
%TO.P,R13,1*%
%TO.N,Net-(R13-Pad1)*%
X192849000Y-75946000D03*
%TO.P,R13,2*%
%TO.N,/Microcontroller/Bus2_input_enable*%
X191199000Y-75946000D03*
%TD*%
%TO.P,R28,1*%
%TO.N,Net-(R28-Pad1)*%
X150939000Y-75946000D03*
%TO.P,R28,2*%
%TO.N,/Microcontroller/CH4*%
X149289000Y-75946000D03*
%TD*%
%TO.P,R5,1*%
%TO.N,/Microcontroller/DATA*%
X41148000Y-72898000D03*
%TO.P,R5,2*%
%TO.N,/DATA*%
X39498000Y-72898000D03*
%TD*%
D17*
%TO.P,U22,1*%
%TO.N,Net-(R32-Pad1)*%
X140970000Y-73660000D03*
D18*
%TO.P,U22,2*%
%TO.N,GND*%
X143510000Y-73660000D03*
%TO.P,U22,3*%
%TO.N,Net-(J5-Pin_2)*%
X143510000Y-66040000D03*
%TO.P,U22,4*%
%TO.N,/Relays/Input pins/Out_HIGH*%
X140970000Y-66040000D03*
%TD*%
D16*
%TO.P,R18,1*%
%TO.N,Net-(R18-Pad1)*%
X176339000Y-75946000D03*
%TO.P,R18,2*%
%TO.N,/Microcontroller/CH1*%
X174689000Y-75946000D03*
%TD*%
D17*
%TO.P,U33,1*%
%TO.N,Net-(R45-Pad1)*%
X121920000Y-91440000D03*
D18*
%TO.P,U33,2*%
%TO.N,GND*%
X119380000Y-91440000D03*
%TO.P,U33,3*%
%TO.N,/Relays/Input pins/Bus_HIGH*%
X119380000Y-99060000D03*
%TO.P,U33,4*%
%TO.N,Net-(J9-Pin_3)*%
X121920000Y-99060000D03*
%TD*%
D16*
%TO.P,R48,1*%
%TO.N,Net-(R48-Pad1)*%
X163639000Y-89154000D03*
%TO.P,R48,2*%
%TO.N,/Microcontroller/CH13*%
X161989000Y-89154000D03*
%TD*%
D29*
%TO.P,J1,a1,Pin_a1*%
%TO.N,GND*%
X30700000Y-101605080D03*
D30*
%TO.P,J1,a2,Pin_a2*%
X30700000Y-99065080D03*
%TO.P,J1,a3,Pin_a3*%
X30700000Y-96525080D03*
%TO.P,J1,a4,Pin_a4*%
X30700000Y-93985080D03*
%TO.P,J1,a5,Pin_a5*%
%TO.N,+5V*%
X30700000Y-91445080D03*
%TO.P,J1,a6,Pin_a6*%
X30700000Y-88905080D03*
%TO.P,J1,a7,Pin_a7*%
X30700000Y-86365080D03*
%TO.P,J1,a8,Pin_a8*%
X30700000Y-83825080D03*
%TO.P,J1,a9,Pin_a9*%
%TO.N,/~{NRST}*%
X30700000Y-81285080D03*
%TO.P,J1,a10,Pin_a10*%
%TO.N,GND*%
X30700000Y-78745080D03*
%TO.P,J1,a11,Pin_a11*%
%TO.N,/STROBE*%
X30700000Y-76205080D03*
%TO.P,J1,a12,Pin_a12*%
%TO.N,GND*%
X30700000Y-73665080D03*
%TO.P,J1,a13,Pin_a13*%
%TO.N,/CLK*%
X30700000Y-71125080D03*
%TO.P,J1,a14,Pin_a14*%
%TO.N,GND*%
X30700000Y-68585080D03*
%TO.P,J1,a15,Pin_a15*%
%TO.N,/DATA*%
X30700000Y-66045080D03*
%TO.P,J1,a16,Pin_a16*%
%TO.N,GND*%
X30700000Y-63505080D03*
%TO.P,J1,b1,Pin_b1*%
X33240000Y-101605080D03*
%TO.P,J1,b2,Pin_b2*%
X33240000Y-99065080D03*
%TO.P,J1,b3,Pin_b3*%
X33240000Y-96525080D03*
%TO.P,J1,b4,Pin_b4*%
%TO.N,/ID*%
X33240000Y-93985080D03*
%TO.P,J1,b5,Pin_b5*%
%TO.N,+5V*%
X33240000Y-91445080D03*
%TO.P,J1,b6,Pin_b6*%
X33240000Y-88905080D03*
%TO.P,J1,b7,Pin_b7*%
X33240000Y-86365080D03*
%TO.P,J1,b8,Pin_b8*%
X33240000Y-83825080D03*
%TO.P,J1,b9,Pin_b9*%
%TO.N,/~{NRST}*%
X33240000Y-81285080D03*
%TO.P,J1,b10,Pin_b10*%
%TO.N,GND*%
X33240000Y-78745080D03*
%TO.P,J1,b11,Pin_b11*%
%TO.N,/STROBE*%
X33240000Y-76205080D03*
%TO.P,J1,b12,Pin_b12*%
%TO.N,GND*%
X33240000Y-73665080D03*
%TO.P,J1,b13,Pin_b13*%
%TO.N,/CLK*%
X33240000Y-71125080D03*
%TO.P,J1,b14,Pin_b14*%
%TO.N,GND*%
X33240000Y-68585080D03*
%TO.P,J1,b15,Pin_b15*%
%TO.N,/DATA*%
X33240000Y-66045080D03*
%TO.P,J1,b16,Pin_b16*%
%TO.N,GND*%
X33240000Y-63505080D03*
%TD*%
D17*
%TO.P,U23,1*%
%TO.N,Net-(R33-Pad1)*%
X88900000Y-73660000D03*
D18*
%TO.P,U23,2*%
%TO.N,GND*%
X91440000Y-73660000D03*
%TO.P,U23,3*%
%TO.N,Net-(J6-Pin_2)*%
X91440000Y-66040000D03*
%TO.P,U23,4*%
%TO.N,/Relays/Input pins/Out_HIGH*%
X88900000Y-66040000D03*
%TD*%
D17*
%TO.P,U39,1*%
%TO.N,Net-(R51-Pad1)*%
X106680000Y-91440000D03*
D18*
%TO.P,U39,2*%
%TO.N,GND*%
X104140000Y-91440000D03*
%TO.P,U39,3*%
%TO.N,/Relays/Input pins/Bus_LOW*%
X104140000Y-99060000D03*
%TO.P,U39,4*%
%TO.N,Net-(J9-Pin_6)*%
X106680000Y-99060000D03*
%TD*%
D16*
%TO.P,R59,1*%
%TO.N,Net-(R59-Pad1)*%
X86169000Y-89154000D03*
%TO.P,R59,2*%
%TO.N,/Microcontroller/CH20*%
X84519000Y-89154000D03*
%TD*%
D17*
%TO.P,U47,1*%
%TO.N,Net-(R59-Pad1)*%
X86360000Y-91440000D03*
D18*
%TO.P,U47,2*%
%TO.N,GND*%
X83820000Y-91440000D03*
%TO.P,U47,3*%
%TO.N,/Relays/Input pins/Bus_LOW*%
X83820000Y-99060000D03*
%TO.P,U47,4*%
%TO.N,Net-(J9-Pin_10)*%
X86360000Y-99060000D03*
%TD*%
D31*
%TO.P,C2,1*%
%TO.N,+5V*%
X41910000Y-101600000D03*
%TO.P,C2,2*%
%TO.N,GND*%
X41910000Y-99700000D03*
%TD*%
D17*
%TO.P,U46,1*%
%TO.N,Net-(R58-Pad1)*%
X138430000Y-91440000D03*
D18*
%TO.P,U46,2*%
%TO.N,GND*%
X135890000Y-91440000D03*
%TO.P,U46,3*%
%TO.N,/Relays/Input pins/Bus_LOW*%
X135890000Y-99060000D03*
%TO.P,U46,4*%
%TO.N,Net-(J8-Pin_10)*%
X138430000Y-99060000D03*
%TD*%
D12*
%TO.P,TP1,1,1*%
%TO.N,+5V*%
X36819000Y-87169000D03*
%TD*%
D24*
%TO.P,C8,1*%
%TO.N,+3.3V*%
X42544000Y-79435000D03*
%TO.P,C8,2*%
%TO.N,GND*%
X42544000Y-80985000D03*
%TD*%
D13*
%TO.P,J7,1,Pin_1*%
%TO.N,/Relays/Input/Sense pins/Sense_LOW*%
X195580000Y-107696000D03*
D14*
%TO.P,J7,2,Pin_2*%
%TO.N,/Relays/Input/Sense pins/Sense_HIGH*%
X190500000Y-107696000D03*
%TD*%
D13*
%TO.P,J9,1,Pin_1*%
%TO.N,Net-(J9-Pin_1)*%
X132080000Y-107696000D03*
D14*
%TO.P,J9,2,Pin_2*%
%TO.N,Net-(J9-Pin_2)*%
X127000000Y-107696000D03*
%TO.P,J9,3,Pin_3*%
%TO.N,Net-(J9-Pin_3)*%
X121920000Y-107696000D03*
%TO.P,J9,4,Pin_4*%
%TO.N,Net-(J9-Pin_4)*%
X116840000Y-107696000D03*
%TO.P,J9,5,Pin_5*%
%TO.N,Net-(J9-Pin_5)*%
X111760000Y-107696000D03*
%TO.P,J9,6,Pin_6*%
%TO.N,Net-(J9-Pin_6)*%
X106680000Y-107696000D03*
%TO.P,J9,7,Pin_7*%
%TO.N,Net-(J9-Pin_7)*%
X101600000Y-107696000D03*
%TO.P,J9,8,Pin_8*%
%TO.N,Net-(J9-Pin_8)*%
X96520000Y-107696000D03*
%TO.P,J9,9,Pin_9*%
%TO.N,Net-(J9-Pin_9)*%
X91440000Y-107696000D03*
%TO.P,J9,10,Pin_10*%
%TO.N,Net-(J9-Pin_10)*%
X86360000Y-107696000D03*
%TD*%
D32*
%TO.P,C7,1*%
%TO.N,+3.3V*%
X40335200Y-77900000D03*
%TO.P,C7,2*%
%TO.N,GND*%
X40335200Y-80850000D03*
%TD*%
D12*
%TO.P,TP3,1,1*%
%TO.N,GND*%
X33900000Y-112260000D03*
%TD*%
D17*
%TO.P,U16,1*%
%TO.N,Net-(R26-Pad1)*%
X156210000Y-73660000D03*
D18*
%TO.P,U16,2*%
%TO.N,GND*%
X158750000Y-73660000D03*
%TO.P,U16,3*%
%TO.N,Net-(J5-Pin_5)*%
X158750000Y-66040000D03*
%TO.P,U16,4*%
%TO.N,/Relays/Input pins/Out_LOW*%
X156210000Y-66040000D03*
%TD*%
D17*
%TO.P,U35,1*%
%TO.N,Net-(R47-Pad1)*%
X116840000Y-91440000D03*
D18*
%TO.P,U35,2*%
%TO.N,GND*%
X114300000Y-91440000D03*
%TO.P,U35,3*%
%TO.N,/Relays/Input pins/Bus_LOW*%
X114300000Y-99060000D03*
%TO.P,U35,4*%
%TO.N,Net-(J9-Pin_4)*%
X116840000Y-99060000D03*
%TD*%
D17*
%TO.P,U9,1*%
%TO.N,Net-(R19-Pad1)*%
X124460000Y-73660000D03*
D18*
%TO.P,U9,2*%
%TO.N,GND*%
X127000000Y-73660000D03*
%TO.P,U9,3*%
%TO.N,Net-(J6-Pin_9)*%
X127000000Y-66040000D03*
%TO.P,U9,4*%
%TO.N,/Relays/Input pins/Out_LOW*%
X124460000Y-66040000D03*
%TD*%
D16*
%TO.P,R58,1*%
%TO.N,Net-(R58-Pad1)*%
X138239000Y-89154000D03*
%TO.P,R58,2*%
%TO.N,/Microcontroller/CH15*%
X136589000Y-89154000D03*
%TD*%
D23*
%TO.P,D2,1,K*%
%TO.N,GND*%
X48114000Y-112087500D03*
%TO.P,D2,2,A*%
%TO.N,Net-(D2-A)*%
X48114000Y-110512500D03*
%TD*%
D16*
%TO.P,R6,1*%
%TO.N,/Microcontroller/CLK*%
X41148000Y-74422000D03*
%TO.P,R6,2*%
%TO.N,/CLK*%
X39498000Y-74422000D03*
%TD*%
%TO.P,R56,1*%
%TO.N,Net-(R56-Pad1)*%
X143319000Y-89154000D03*
%TO.P,R56,2*%
%TO.N,/Microcontroller/CH15*%
X141669000Y-89154000D03*
%TD*%
%TO.P,R55,1*%
%TO.N,Net-(R55-Pad1)*%
X96329000Y-89154000D03*
%TO.P,R55,2*%
%TO.N,/Microcontroller/CH19*%
X94679000Y-89154000D03*
%TD*%
D17*
%TO.P,U21,1*%
%TO.N,Net-(R31-Pad1)*%
X93980000Y-73660000D03*
D18*
%TO.P,U21,2*%
%TO.N,GND*%
X96520000Y-73660000D03*
%TO.P,U21,3*%
%TO.N,Net-(J6-Pin_3)*%
X96520000Y-66040000D03*
%TO.P,U21,4*%
%TO.N,/Relays/Input pins/Out_LOW*%
X93980000Y-66040000D03*
%TD*%
D16*
%TO.P,R51,1*%
%TO.N,Net-(R51-Pad1)*%
X106489000Y-89154000D03*
%TO.P,R51,2*%
%TO.N,/Microcontroller/CH18*%
X104839000Y-89154000D03*
%TD*%
%TO.P,R31,1*%
%TO.N,Net-(R31-Pad1)*%
X93789000Y-75946000D03*
%TO.P,R31,2*%
%TO.N,/Microcontroller/CH9*%
X92139000Y-75946000D03*
%TD*%
D17*
%TO.P,U28,1*%
%TO.N,Net-(R38-Pad1)*%
X184150000Y-91440000D03*
D18*
%TO.P,U28,2*%
%TO.N,GND*%
X181610000Y-91440000D03*
%TO.P,U28,3*%
%TO.N,/Relays/Input pins/Bus_HIGH*%
X181610000Y-99060000D03*
%TO.P,U28,4*%
%TO.N,Net-(J8-Pin_1)*%
X184150000Y-99060000D03*
%TD*%
D17*
%TO.P,U29,1*%
%TO.N,Net-(R39-Pad1)*%
X132080000Y-91440000D03*
D18*
%TO.P,U29,2*%
%TO.N,GND*%
X129540000Y-91440000D03*
%TO.P,U29,3*%
%TO.N,/Relays/Input pins/Bus_HIGH*%
X129540000Y-99060000D03*
%TO.P,U29,4*%
%TO.N,Net-(J9-Pin_1)*%
X132080000Y-99060000D03*
%TD*%
D16*
%TO.P,R49,1*%
%TO.N,Net-(R49-Pad1)*%
X111569000Y-89154000D03*
%TO.P,R49,2*%
%TO.N,/Microcontroller/CH18*%
X109919000Y-89154000D03*
%TD*%
D17*
%TO.P,U40,1*%
%TO.N,Net-(R52-Pad1)*%
X153670000Y-91440000D03*
D18*
%TO.P,U40,2*%
%TO.N,GND*%
X151130000Y-91440000D03*
%TO.P,U40,3*%
%TO.N,/Relays/Input pins/Bus_HIGH*%
X151130000Y-99060000D03*
%TO.P,U40,4*%
%TO.N,Net-(J8-Pin_7)*%
X153670000Y-99060000D03*
%TD*%
D16*
%TO.P,R43,1*%
%TO.N,Net-(R43-Pad1)*%
X126809000Y-89154000D03*
%TO.P,R43,2*%
%TO.N,/Microcontroller/CH16*%
X125159000Y-89154000D03*
%TD*%
D17*
%TO.P,U45,1*%
%TO.N,Net-(R57-Pad1)*%
X91440000Y-91440000D03*
D18*
%TO.P,U45,2*%
%TO.N,GND*%
X88900000Y-91440000D03*
%TO.P,U45,3*%
%TO.N,/Relays/Input pins/Bus_HIGH*%
X88900000Y-99060000D03*
%TO.P,U45,4*%
%TO.N,Net-(J9-Pin_9)*%
X91440000Y-99060000D03*
%TD*%
D16*
%TO.P,R47,1*%
%TO.N,Net-(R47-Pad1)*%
X116649000Y-89154000D03*
%TO.P,R47,2*%
%TO.N,/Microcontroller/CH17*%
X114999000Y-89154000D03*
%TD*%
D17*
%TO.P,U14,1*%
%TO.N,Net-(R24-Pad1)*%
X161290000Y-73660000D03*
D18*
%TO.P,U14,2*%
%TO.N,GND*%
X163830000Y-73660000D03*
%TO.P,U14,3*%
%TO.N,Net-(J5-Pin_6)*%
X163830000Y-66040000D03*
%TO.P,U14,4*%
%TO.N,/Relays/Input pins/Out_HIGH*%
X161290000Y-66040000D03*
%TD*%
D17*
%TO.P,U26,1*%
%TO.N,Net-(R36-Pad1)*%
X190500000Y-91440000D03*
D18*
%TO.P,U26,2*%
%TO.N,GND*%
X187960000Y-91440000D03*
%TO.P,U26,3*%
%TO.N,/Relays/Input pins/Bus_HIGH*%
X187960000Y-99060000D03*
%TO.P,U26,4*%
%TO.N,/Relays/Input/Sense pins/Sense_HIGH*%
X190500000Y-99060000D03*
%TD*%
D16*
%TO.P,R26,1*%
%TO.N,Net-(R26-Pad1)*%
X156019000Y-75946000D03*
%TO.P,R26,2*%
%TO.N,/Microcontroller/CH3*%
X154369000Y-75946000D03*
%TD*%
D17*
%TO.P,U32,1*%
%TO.N,Net-(R44-Pad1)*%
X173990000Y-91440000D03*
D18*
%TO.P,U32,2*%
%TO.N,GND*%
X171450000Y-91440000D03*
%TO.P,U32,3*%
%TO.N,/Relays/Input pins/Bus_HIGH*%
X171450000Y-99060000D03*
%TO.P,U32,4*%
%TO.N,Net-(J8-Pin_3)*%
X173990000Y-99060000D03*
%TD*%
D16*
%TO.P,R36,1*%
%TO.N,Net-(R36-Pad1)*%
X190309000Y-89154000D03*
%TO.P,R36,2*%
%TO.N,/Microcontroller/Bus2_sense_enable*%
X188659000Y-89154000D03*
%TD*%
D17*
%TO.P,U30,1*%
%TO.N,Net-(R42-Pad1)*%
X179070000Y-91440000D03*
D18*
%TO.P,U30,2*%
%TO.N,GND*%
X176530000Y-91440000D03*
%TO.P,U30,3*%
%TO.N,/Relays/Input pins/Bus_LOW*%
X176530000Y-99060000D03*
%TO.P,U30,4*%
%TO.N,Net-(J8-Pin_2)*%
X179070000Y-99060000D03*
%TD*%
D16*
%TO.P,R50,1*%
%TO.N,Net-(R50-Pad1)*%
X158559000Y-89154000D03*
%TO.P,R50,2*%
%TO.N,/Microcontroller/CH13*%
X156909000Y-89154000D03*
%TD*%
%TO.P,R12,1*%
%TO.N,Net-(R12-Pad1)*%
X187769000Y-75946000D03*
%TO.P,R12,2*%
%TO.N,/Microcontroller/Bus2_input_enable*%
X186119000Y-75946000D03*
%TD*%
D19*
%TO.P,R10,1*%
%TO.N,/Microcontroller/LED*%
X48114000Y-106919000D03*
%TO.P,R10,2*%
%TO.N,Net-(D2-A)*%
X48114000Y-108569000D03*
%TD*%
D16*
%TO.P,R24,1*%
%TO.N,Net-(R24-Pad1)*%
X161099000Y-75946000D03*
%TO.P,R24,2*%
%TO.N,/Microcontroller/CH3*%
X159449000Y-75946000D03*
%TD*%
%TO.P,R7,1*%
%TO.N,/Microcontroller/STROBE*%
X41148000Y-75946000D03*
%TO.P,R7,2*%
%TO.N,/STROBE*%
X39498000Y-75946000D03*
%TD*%
%TO.P,R22,1*%
%TO.N,Net-(R22-Pad1)*%
X166179000Y-75946000D03*
%TO.P,R22,2*%
%TO.N,/Microcontroller/CH2*%
X164529000Y-75946000D03*
%TD*%
D13*
%TO.P,J8,1,Pin_1*%
%TO.N,Net-(J8-Pin_1)*%
X184150000Y-107696000D03*
D14*
%TO.P,J8,2,Pin_2*%
%TO.N,Net-(J8-Pin_2)*%
X179070000Y-107696000D03*
%TO.P,J8,3,Pin_3*%
%TO.N,Net-(J8-Pin_3)*%
X173990000Y-107696000D03*
%TO.P,J8,4,Pin_4*%
%TO.N,Net-(J8-Pin_4)*%
X168910000Y-107696000D03*
%TO.P,J8,5,Pin_5*%
%TO.N,Net-(J8-Pin_5)*%
X163830000Y-107696000D03*
%TO.P,J8,6,Pin_6*%
%TO.N,Net-(J8-Pin_6)*%
X158750000Y-107696000D03*
%TO.P,J8,7,Pin_7*%
%TO.N,Net-(J8-Pin_7)*%
X153670000Y-107696000D03*
%TO.P,J8,8,Pin_8*%
%TO.N,Net-(J8-Pin_8)*%
X148590000Y-107696000D03*
%TO.P,J8,9,Pin_9*%
%TO.N,Net-(J8-Pin_9)*%
X143510000Y-107696000D03*
%TO.P,J8,10,Pin_10*%
%TO.N,Net-(J8-Pin_10)*%
X138430000Y-107696000D03*
%TD*%
D12*
%TO.P,TP4,1,1*%
%TO.N,/DATA*%
X33782000Y-55880000D03*
%TD*%
D17*
%TO.P,U27,1*%
%TO.N,Net-(R37-Pad1)*%
X195580000Y-91440000D03*
D18*
%TO.P,U27,2*%
%TO.N,GND*%
X193040000Y-91440000D03*
%TO.P,U27,3*%
%TO.N,/Relays/Input pins/Bus_LOW*%
X193040000Y-99060000D03*
%TO.P,U27,4*%
%TO.N,/Relays/Input/Sense pins/Sense_LOW*%
X195580000Y-99060000D03*
%TD*%
D13*
%TO.P,J6,1,Pin_1*%
%TO.N,Net-(J6-Pin_1)*%
X86360000Y-57404000D03*
D14*
%TO.P,J6,2,Pin_2*%
%TO.N,Net-(J6-Pin_2)*%
X91440000Y-57404000D03*
%TO.P,J6,3,Pin_3*%
%TO.N,Net-(J6-Pin_3)*%
X96520000Y-57404000D03*
%TO.P,J6,4,Pin_4*%
%TO.N,Net-(J6-Pin_4)*%
X101600000Y-57404000D03*
%TO.P,J6,5,Pin_5*%
%TO.N,Net-(J6-Pin_5)*%
X106680000Y-57404000D03*
%TO.P,J6,6,Pin_6*%
%TO.N,Net-(J6-Pin_6)*%
X111760000Y-57404000D03*
%TO.P,J6,7,Pin_7*%
%TO.N,Net-(J6-Pin_7)*%
X116840000Y-57404000D03*
%TO.P,J6,8,Pin_8*%
%TO.N,Net-(J6-Pin_8)*%
X121920000Y-57404000D03*
%TO.P,J6,9,Pin_9*%
%TO.N,Net-(J6-Pin_9)*%
X127000000Y-57404000D03*
%TO.P,J6,10,Pin_10*%
%TO.N,Net-(J6-Pin_10)*%
X132080000Y-57404000D03*
%TD*%
D33*
%TO.P,U2,1,GND*%
%TO.N,GND*%
X44500000Y-98305000D03*
D34*
%TO.P,U2,2,VO*%
%TO.N,+3.3V*%
X49125000Y-99060000D03*
X49125000Y-102110000D03*
D35*
X50800000Y-100585000D03*
D34*
X52475000Y-99060000D03*
X52475000Y-102110000D03*
D33*
%TO.P,U2,3,VI*%
%TO.N,+5V*%
X44500000Y-102865000D03*
%TD*%
D36*
%TO.P,J10,1,Pin_1*%
%TO.N,/Microcontroller/CH10*%
X56400000Y-67280000D03*
D37*
%TO.P,J10,2,Pin_2*%
%TO.N,/Microcontroller/CH9*%
X58940000Y-67280000D03*
%TO.P,J10,3,Pin_3*%
%TO.N,/Microcontroller/CH8*%
X56400000Y-69820000D03*
%TO.P,J10,4,Pin_4*%
%TO.N,/Microcontroller/CH7*%
X58940000Y-69820000D03*
%TO.P,J10,5,Pin_5*%
%TO.N,/Microcontroller/CH6*%
X56400000Y-72360000D03*
%TO.P,J10,6,Pin_6*%
%TO.N,/Microcontroller/CH5*%
X58940000Y-72360000D03*
%TO.P,J10,7,Pin_7*%
%TO.N,/Microcontroller/CH4*%
X56400000Y-74900000D03*
%TO.P,J10,8,Pin_8*%
%TO.N,/Microcontroller/CH3*%
X58940000Y-74900000D03*
%TO.P,J10,9,Pin_9*%
%TO.N,/Microcontroller/CH2*%
X56400000Y-77440000D03*
%TO.P,J10,10,Pin_10*%
%TO.N,/Microcontroller/CH1*%
X58940000Y-77440000D03*
%TO.P,J10,11,Pin_11*%
%TO.N,/Microcontroller/Bus2_input_enable*%
X56400000Y-79980000D03*
%TO.P,J10,12,Pin_12*%
%TO.N,/Microcontroller/Bus2_sense_enable*%
X58940000Y-79980000D03*
%TO.P,J10,13,Pin_13*%
%TO.N,/Microcontroller/CH11*%
X56400000Y-82520000D03*
%TO.P,J10,14,Pin_14*%
%TO.N,/Microcontroller/CH12*%
X58940000Y-82520000D03*
%TO.P,J10,15,Pin_15*%
%TO.N,/Microcontroller/CH13*%
X56400000Y-85060000D03*
%TO.P,J10,16,Pin_16*%
%TO.N,/Microcontroller/CH14*%
X58940000Y-85060000D03*
%TO.P,J10,17,Pin_17*%
%TO.N,/Microcontroller/CH15*%
X56400000Y-87600000D03*
%TO.P,J10,18,Pin_18*%
%TO.N,/Microcontroller/CH16*%
X58940000Y-87600000D03*
%TO.P,J10,19,Pin_19*%
%TO.N,/Microcontroller/CH17*%
X56400000Y-90140000D03*
%TO.P,J10,20,Pin_20*%
%TO.N,/Microcontroller/CH18*%
X58940000Y-90140000D03*
%TO.P,J10,21,Pin_21*%
%TO.N,/Microcontroller/CH19*%
X56400000Y-92680000D03*
%TO.P,J10,22,Pin_22*%
%TO.N,/Microcontroller/CH20*%
X58940000Y-92680000D03*
%TO.P,J10,23,Pin_23*%
%TO.N,+3.3V*%
X56400000Y-95220000D03*
%TO.P,J10,24,Pin_24*%
X58940000Y-95220000D03*
%TO.P,J10,25,Pin_25*%
%TO.N,GND*%
X56400000Y-97760000D03*
%TO.P,J10,26,Pin_26*%
X58940000Y-97760000D03*
%TD*%
D38*
%TO.P,J11,1,VTref*%
%TO.N,+3.3V*%
X52324500Y-60706000D03*
%TO.P,J11,2,SWDIO/TMS*%
%TO.N,/Microcontroller/SWDIO*%
X48259500Y-60706000D03*
%TO.P,J11,3,GND*%
%TO.N,GND*%
X52324500Y-59436000D03*
%TO.P,J11,4,SWDCLK/TCK*%
%TO.N,/Microcontroller/SWCLK*%
X48259500Y-59436000D03*
%TO.P,J11,5,GND*%
%TO.N,GND*%
X52324500Y-58166000D03*
%TO.P,J11,6,SWO/TDO*%
%TO.N,unconnected-(J11-SWO{slash}TDO-Pad6)*%
X48259500Y-58166000D03*
%TO.P,J11,7,KEY*%
%TO.N,unconnected-(J11-KEY-Pad7)*%
X52324500Y-56896000D03*
%TO.P,J11,8,NC/TDI*%
%TO.N,unconnected-(J11-NC{slash}TDI-Pad8)*%
X48259500Y-56896000D03*
%TO.P,J11,9,GNDDetect*%
%TO.N,GND*%
X52324500Y-55626000D03*
%TO.P,J11,10,~{RESET}*%
%TO.N,/~{NRST}*%
X48259500Y-55626000D03*
%TD*%
D15*
%TO.P,R1,1*%
%TO.N,Net-(U3-NRST)*%
X35550000Y-82885000D03*
%TO.P,R1,2*%
%TO.N,/~{NRST}*%
X35550000Y-81235000D03*
%TD*%
D39*
%TO.N,GND*%
X47098000Y-111554000D03*
X36322000Y-67564000D03*
X45574000Y-111554000D03*
X36322000Y-72644000D03*
X36322000Y-77724000D03*
X41656000Y-81330000D03*
X41656000Y-80518000D03*
X40600000Y-83610000D03*
X39116000Y-70358000D03*
X54356000Y-58674000D03*
X41148000Y-98806000D03*
X42672000Y-98806000D03*
%TO.N,Net-(U3-NRST)*%
X40575000Y-82060000D03*
X36400000Y-82910000D03*
%TO.N,/Microcontroller/SWDIO*%
X44958000Y-74676000D03*
X46228000Y-77470000D03*
%TO.N,/Microcontroller/SWCLK*%
X47490000Y-77180000D03*
X46482000Y-59436000D03*
X46482000Y-63246000D03*
X45375500Y-73823212D03*
%TO.N,/Microcontroller/LED*%
X48110000Y-89408000D03*
X48110000Y-105890000D03*
%TD*%
D40*
%TO.N,/Microcontroller/LED*%
X49134000Y-106919000D02*
X53340000Y-111125000D01*
X48114000Y-106919000D02*
X49134000Y-106919000D01*
%TO.N,GND*%
X37338000Y-73215000D02*
X36893000Y-73215000D01*
X36893000Y-68135000D02*
X37338000Y-68135000D01*
X47631500Y-112087500D02*
X47098000Y-111554000D01*
X48114000Y-112087500D02*
X47631500Y-112087500D01*
X36322000Y-77724000D02*
X36893000Y-78295000D01*
X45040500Y-112087500D02*
X45574000Y-111554000D01*
X44558000Y-112087500D02*
X45040500Y-112087500D01*
X36893000Y-78295000D02*
X37338000Y-78295000D01*
X36893000Y-73215000D02*
X36322000Y-72644000D01*
X36322000Y-67564000D02*
X36893000Y-68135000D01*
D41*
X52324500Y-58166000D02*
X54356000Y-58166000D01*
X41098000Y-80772000D02*
X40386000Y-80772000D01*
D42*
X42171000Y-98305000D02*
X41910000Y-98566000D01*
D41*
X54356000Y-58674000D02*
X54222000Y-58808000D01*
X41324000Y-80850000D02*
X41656000Y-80518000D01*
D40*
X39498000Y-71310000D02*
X39116000Y-70358000D01*
D41*
X54222000Y-59062000D02*
X53594000Y-59690000D01*
X42544000Y-80985000D02*
X41951000Y-80985000D01*
X42123000Y-80985000D02*
X41656000Y-80518000D01*
X53848000Y-55626000D02*
X54222000Y-56000000D01*
X42544000Y-81010000D02*
X43194000Y-80360000D01*
D42*
X41910000Y-98566000D02*
X41910000Y-99568000D01*
X44500000Y-98305000D02*
X42171000Y-98305000D01*
D41*
X53594000Y-59690000D02*
X52324000Y-59690000D01*
D42*
X41148000Y-98806000D02*
X42672000Y-98806000D01*
D41*
X41656000Y-81330000D02*
X41098000Y-80772000D01*
X54222000Y-58540000D02*
X54356000Y-58674000D01*
X42544000Y-80985000D02*
X42123000Y-80985000D01*
X54222000Y-56000000D02*
X54222000Y-58540000D01*
X54222000Y-58808000D02*
X54222000Y-59062000D01*
D40*
X41450000Y-84010000D02*
X40600000Y-83610000D01*
D41*
X40335200Y-80850000D02*
X41324000Y-80850000D01*
X43194000Y-80360000D02*
X44725000Y-80360000D01*
X41951000Y-80985000D02*
X41656000Y-81280000D01*
X52324500Y-55626000D02*
X53848000Y-55626000D01*
D42*
%TO.N,+5V*%
X30600000Y-83760000D02*
X30600000Y-91260000D01*
X39600000Y-101322000D02*
X39878000Y-101600000D01*
X38550000Y-97810000D02*
X39600000Y-98860000D01*
X34300000Y-91460000D02*
X33200000Y-91460000D01*
X36600000Y-93760000D02*
X34300000Y-91460000D01*
X30700000Y-91360000D02*
X33300000Y-91360000D01*
X36819000Y-87169000D02*
X33309000Y-87169000D01*
X43180000Y-101600000D02*
X44450000Y-102870000D01*
X38400000Y-93760000D02*
X36600000Y-93760000D01*
X39878000Y-101600000D02*
X43180000Y-101600000D01*
X33240000Y-91445080D02*
X33240000Y-83820000D01*
X38550000Y-93760000D02*
X38550000Y-97810000D01*
X39600000Y-98860000D02*
X39600000Y-101322000D01*
D40*
X37400000Y-99460000D02*
X39600000Y-99460000D01*
D42*
X33180000Y-83760000D02*
X30600000Y-83760000D01*
X33309000Y-87169000D02*
X33300000Y-87160000D01*
D41*
%TO.N,+3.3V*%
X42534800Y-79425800D02*
X40309800Y-79425800D01*
X42351000Y-79435000D02*
X40640000Y-77724000D01*
X44725000Y-79560000D02*
X42594000Y-79560000D01*
D40*
%TO.N,/~{NRST}*%
X33240000Y-81285080D02*
X35625080Y-81285080D01*
X44704000Y-59690000D02*
X44704000Y-58928000D01*
X48342000Y-55626000D02*
X46228000Y-55626000D01*
X30700000Y-81285080D02*
X28702000Y-79287080D01*
X32050893Y-52078000D02*
X45966000Y-52078000D01*
X28702000Y-79287080D02*
X28702000Y-61214000D01*
X28702000Y-61214000D02*
X30996000Y-58920000D01*
X46228000Y-57404000D02*
X46228000Y-52324000D01*
X30996000Y-53132894D02*
X32050893Y-52078000D01*
X30996000Y-58920000D02*
X30996000Y-53132894D01*
X45966000Y-52078000D02*
X45974000Y-52070000D01*
X44704000Y-58928000D02*
X46228000Y-57404000D01*
X45974000Y-52070000D02*
X46122000Y-52218000D01*
%TO.N,Net-(U3-NRST)*%
X40575000Y-82060000D02*
X41050000Y-82060000D01*
X41850000Y-82080000D02*
X42772894Y-82080000D01*
X36400000Y-82910000D02*
X35650000Y-82910000D01*
X42772894Y-82080000D02*
X43572894Y-81280000D01*
X43572894Y-81280000D02*
X44958000Y-81280000D01*
X41520000Y-82410000D02*
X41850000Y-82080000D01*
X41050000Y-82060000D02*
X41425000Y-82435000D01*
%TO.N,Net-(D1-A)*%
X44558000Y-110512500D02*
X44558000Y-108569000D01*
%TO.N,/ID*%
X29845000Y-95250000D02*
X31975080Y-95250000D01*
X31975080Y-95250000D02*
X33240000Y-93985080D01*
X30480000Y-104140000D02*
X29210000Y-102870000D01*
X29210000Y-102870000D02*
X29210000Y-95885000D01*
X29210000Y-95885000D02*
X29845000Y-95250000D01*
X35400000Y-102760000D02*
X35400000Y-101260000D01*
X30480000Y-104140000D02*
X34020000Y-104140000D01*
X34020000Y-104140000D02*
X35400000Y-102760000D01*
X37400000Y-100760000D02*
X35900000Y-100760000D01*
X35900000Y-100760000D02*
X35400000Y-101260000D01*
%TO.N,/Microcontroller/SWDIO*%
X46228000Y-60706000D02*
X48260000Y-60706000D01*
X52208000Y-77160000D02*
X53075000Y-77160000D01*
X46686000Y-77928000D02*
X46228000Y-77470000D01*
X45974000Y-60960000D02*
X46228000Y-60706000D01*
X41656000Y-71374000D02*
X41656000Y-63246000D01*
X45720000Y-62230000D02*
X45974000Y-61976000D01*
X41656000Y-63246000D02*
X42672000Y-62230000D01*
X42672000Y-62230000D02*
X45720000Y-62230000D01*
X41656000Y-71374000D02*
X44958000Y-74676000D01*
X41656000Y-71374000D02*
X41148000Y-71374000D01*
X51440000Y-77928000D02*
X52208000Y-77160000D01*
X45974000Y-61976000D02*
X45974000Y-60960000D01*
X46686000Y-77928000D02*
X51440000Y-77928000D01*
%TO.N,/Microcontroller/SWCLK*%
X44649106Y-73660000D02*
X42418000Y-71428894D01*
X46228000Y-67310000D02*
X44704000Y-67310000D01*
X46482000Y-63246000D02*
X46482000Y-67056000D01*
X42926000Y-67310000D02*
X44704000Y-67310000D01*
X45212288Y-73660000D02*
X44649106Y-73660000D01*
X47490000Y-77180000D02*
X51440000Y-77166000D01*
X42418000Y-71428894D02*
X42418000Y-67818000D01*
X51440000Y-77166000D02*
X51700000Y-76906000D01*
X46482000Y-67056000D02*
X46228000Y-67310000D01*
X51700000Y-76906000D02*
X51700000Y-75785000D01*
X48259500Y-59436000D02*
X46690412Y-59436000D01*
X46690412Y-59436000D02*
X46482000Y-59436000D01*
X42418000Y-67818000D02*
X42926000Y-67310000D01*
X45375500Y-73823212D02*
X45212288Y-73660000D01*
%TO.N,Net-(D2-A)*%
X48114000Y-108569000D02*
X48114000Y-110512500D01*
D43*
%TO.N,/Relays/Input pins/Out_HIGH*%
X120650000Y-62738000D02*
X119380000Y-64008000D01*
X149860000Y-62738000D02*
X142240000Y-62738000D01*
X130810000Y-62738000D02*
X139700000Y-62738000D01*
X118110000Y-62738000D02*
X110490000Y-62738000D01*
X129540000Y-64008000D02*
X129540000Y-66040000D01*
X190500000Y-61468000D02*
X189230000Y-62738000D01*
X182880000Y-62738000D02*
X181610000Y-64008000D01*
X170180000Y-62738000D02*
X162560000Y-62738000D01*
X109220000Y-64008000D02*
X109220000Y-66040000D01*
X172720000Y-62738000D02*
X171450000Y-64008000D01*
X128270000Y-62738000D02*
X120650000Y-62738000D01*
X130810000Y-62738000D02*
X129540000Y-64008000D01*
X110490000Y-62738000D02*
X109220000Y-64008000D01*
X181610000Y-64008000D02*
X180340000Y-62738000D01*
X119380000Y-64008000D02*
X119380000Y-66040000D01*
X161290000Y-64008000D02*
X160020000Y-62738000D01*
X162560000Y-62738000D02*
X161290000Y-64008000D01*
X171450000Y-64008000D02*
X170180000Y-62738000D01*
X100330000Y-62738000D02*
X99060000Y-64008000D01*
X90170000Y-62738000D02*
X88900000Y-64008000D01*
X171450000Y-64008000D02*
X171450000Y-66040000D01*
X180340000Y-62738000D02*
X172720000Y-62738000D01*
X88900000Y-64008000D02*
X88900000Y-66040000D01*
X181610000Y-64008000D02*
X181610000Y-66040000D01*
X119380000Y-64008000D02*
X118110000Y-62738000D01*
X151130000Y-64008000D02*
X149860000Y-62738000D01*
X140970000Y-64008000D02*
X140970000Y-66040000D01*
X99060000Y-64008000D02*
X97790000Y-62738000D01*
X140970000Y-64008000D02*
X139700000Y-62738000D01*
X152400000Y-62738000D02*
X151130000Y-64008000D01*
X151130000Y-64008000D02*
X151130000Y-66040000D01*
X129540000Y-64008000D02*
X128270000Y-62738000D01*
X97790000Y-62738000D02*
X90170000Y-62738000D01*
X107950000Y-62738000D02*
X100330000Y-62738000D01*
X190500000Y-64008000D02*
X189230000Y-62738000D01*
X161290000Y-64008000D02*
X161290000Y-66040000D01*
X109220000Y-64008000D02*
X107950000Y-62738000D01*
X190500000Y-66040000D02*
X190500000Y-64008000D01*
X160020000Y-62738000D02*
X152400000Y-62738000D01*
X99060000Y-64008000D02*
X99060000Y-66040000D01*
X142240000Y-62738000D02*
X140970000Y-64008000D01*
X189230000Y-62738000D02*
X182880000Y-62738000D01*
X190500000Y-61468000D02*
X190500000Y-57404000D01*
%TO.N,/Relays/Input pins/Out_LOW*%
X167640000Y-69342000D02*
X166370000Y-68072000D01*
X157480000Y-69342000D02*
X156210000Y-68072000D01*
X92710000Y-69342000D02*
X85090000Y-69342000D01*
X123190000Y-69342000D02*
X115570000Y-69342000D01*
X93980000Y-68072000D02*
X92710000Y-69342000D01*
X124460000Y-68072000D02*
X124460000Y-66040000D01*
X114300000Y-68072000D02*
X114300000Y-66040000D01*
X85090000Y-69342000D02*
X83820000Y-68072000D01*
X125730000Y-69342000D02*
X134620000Y-69342000D01*
X93980000Y-68072000D02*
X93980000Y-66040000D01*
X135890000Y-68072000D02*
X134620000Y-69342000D01*
X95250000Y-69342000D02*
X93980000Y-68072000D01*
X166370000Y-68072000D02*
X165100000Y-69342000D01*
X125730000Y-69342000D02*
X124460000Y-68072000D01*
X115570000Y-69342000D02*
X114300000Y-68072000D01*
X166370000Y-68072000D02*
X166370000Y-66040000D01*
X113030000Y-69342000D02*
X105410000Y-69342000D01*
X146050000Y-68072000D02*
X146050000Y-66040000D01*
X154940000Y-69342000D02*
X147320000Y-69342000D01*
X193802000Y-69342000D02*
X177800000Y-69342000D01*
X147320000Y-69342000D02*
X146050000Y-68072000D01*
X135890000Y-68072000D02*
X135890000Y-66040000D01*
X177800000Y-69342000D02*
X176530000Y-68072000D01*
X156210000Y-68072000D02*
X156210000Y-66040000D01*
X105410000Y-69342000D02*
X104140000Y-68072000D01*
X146050000Y-68072000D02*
X144780000Y-69342000D01*
X156210000Y-68072000D02*
X154940000Y-69342000D01*
X114300000Y-68072000D02*
X113030000Y-69342000D01*
X104140000Y-68072000D02*
X102870000Y-69342000D01*
X83820000Y-68072000D02*
X83820000Y-66040000D01*
X137160000Y-69342000D02*
X135890000Y-68072000D01*
X104140000Y-68072000D02*
X104140000Y-66040000D01*
X165100000Y-69342000D02*
X157480000Y-69342000D01*
X144780000Y-69342000D02*
X137160000Y-69342000D01*
X195580000Y-67564000D02*
X193802000Y-69342000D01*
X195580000Y-66040000D02*
X195580000Y-67564000D01*
X175260000Y-69342000D02*
X167640000Y-69342000D01*
X102870000Y-69342000D02*
X95250000Y-69342000D01*
X124460000Y-68072000D02*
X123190000Y-69342000D01*
X176530000Y-68072000D02*
X176530000Y-66040000D01*
X176530000Y-68072000D02*
X175260000Y-69342000D01*
D40*
%TO.N,Net-(J3-Pin_1)*%
X44400000Y-88310000D02*
X45250000Y-88310000D01*
X42950000Y-86860000D02*
X44400000Y-88310000D01*
X42950000Y-85660000D02*
X42950000Y-86860000D01*
%TO.N,/DATA*%
X33240000Y-66045080D02*
X34803080Y-66045080D01*
X31978600Y-67306480D02*
X33240000Y-66045080D01*
X34803080Y-66045080D02*
X35243000Y-66485000D01*
X31978600Y-82003900D02*
X31978600Y-67306480D01*
X28575000Y-83693000D02*
X29781500Y-82486500D01*
X35243000Y-66485000D02*
X37338000Y-66485000D01*
X31496000Y-82486500D02*
X31978600Y-82003900D01*
X29781500Y-82486500D02*
X31496000Y-82486500D01*
X28575000Y-103505000D02*
X28575000Y-83693000D01*
X38723000Y-71489000D02*
X38354000Y-71120000D01*
X28575000Y-103505000D02*
X29830000Y-104760000D01*
X29830000Y-104760000D02*
X34940000Y-104760000D01*
X37338000Y-62230000D02*
X33782000Y-58674000D01*
X38100000Y-66548000D02*
X37592000Y-66548000D01*
X39498000Y-72898000D02*
X39116000Y-72898000D01*
X37338000Y-66485000D02*
X37338000Y-62230000D01*
X39116000Y-72898000D02*
X38723000Y-72505000D01*
X38354000Y-71120000D02*
X38354000Y-66802000D01*
X36830000Y-102870000D02*
X36830000Y-102108000D01*
X34940000Y-104760000D02*
X36830000Y-102870000D01*
X38354000Y-66802000D02*
X38100000Y-66548000D01*
X33782000Y-58674000D02*
X33782000Y-55880000D01*
X38723000Y-72505000D02*
X38723000Y-71489000D01*
%TO.N,/STROBE*%
X33240000Y-76205080D02*
X35311080Y-76205080D01*
X29210000Y-74715080D02*
X30700000Y-76205080D01*
X29210000Y-61468000D02*
X29210000Y-74715080D01*
X35311080Y-76205080D02*
X35751000Y-76645000D01*
X35751000Y-76645000D02*
X37338000Y-76645000D01*
X43434000Y-52578000D02*
X43942000Y-53086000D01*
X37846000Y-76708000D02*
X38608000Y-75946000D01*
X38608000Y-75946000D02*
X39624000Y-75946000D01*
X29210000Y-61468000D02*
X31496000Y-59182000D01*
X37846000Y-76708000D02*
X37338000Y-76708000D01*
X31496000Y-53340000D02*
X32258000Y-52578000D01*
X43942000Y-53086000D02*
X43942000Y-55880000D01*
X31496000Y-59182000D02*
X31496000Y-53340000D01*
X32258000Y-52578000D02*
X43434000Y-52578000D01*
%TO.N,/CLK*%
X35184080Y-71125080D02*
X35624000Y-71565000D01*
X35624000Y-71565000D02*
X37338000Y-71565000D01*
X33240000Y-71125080D02*
X35184080Y-71125080D01*
X38223000Y-71751000D02*
X38223000Y-73783000D01*
X39878000Y-69342000D02*
X39370000Y-69342000D01*
X38862000Y-68834000D02*
X38862000Y-66602894D01*
X37838000Y-65696827D02*
X37838000Y-59444000D01*
X38862000Y-74422000D02*
X40132000Y-74422000D01*
X40373000Y-74181000D02*
X40373000Y-69837000D01*
X37338000Y-71628000D02*
X38100000Y-71628000D01*
X39370000Y-69342000D02*
X38862000Y-68834000D01*
X38223000Y-73783000D02*
X38862000Y-74422000D01*
X38862000Y-58420000D02*
X38862000Y-55880000D01*
X37838000Y-59444000D02*
X38862000Y-58420000D01*
X40373000Y-69837000D02*
X39878000Y-69342000D01*
X38862000Y-66602894D02*
X37955933Y-65696827D01*
X40132000Y-74422000D02*
X40373000Y-74181000D01*
X37955933Y-65696827D02*
X37838000Y-65696827D01*
X38100000Y-71628000D02*
X38223000Y-71751000D01*
%TO.N,/Microcontroller/DATA*%
X43267893Y-76917893D02*
X43267893Y-75017893D01*
X41148000Y-72898000D02*
X43267893Y-75017893D01*
X43267893Y-76917893D02*
X43390000Y-77040000D01*
X44725000Y-77160000D02*
X43500000Y-77160000D01*
X43500000Y-77160000D02*
X43400000Y-77060000D01*
%TO.N,/Microcontroller/CLK*%
X42767893Y-77467893D02*
X42767893Y-75533893D01*
X44725000Y-77960000D02*
X43250000Y-77960000D01*
X43250000Y-77960000D02*
X42950000Y-77660000D01*
X41656000Y-74422000D02*
X41148000Y-74422000D01*
X42767893Y-77467893D02*
X42950000Y-77650000D01*
X42767893Y-75533893D02*
X41656000Y-74422000D01*
%TO.N,/Microcontroller/STROBE*%
X42227000Y-77777000D02*
X43210000Y-78760000D01*
X44725000Y-78760000D02*
X43210000Y-78760000D01*
X42203200Y-76763295D02*
X42203200Y-77763200D01*
X41385905Y-75946000D02*
X42203200Y-76763295D01*
%TO.N,/Microcontroller/LED*%
X48130000Y-88730000D02*
X44710000Y-85310000D01*
X44710000Y-85310000D02*
X44710000Y-82730000D01*
X48110000Y-88750000D02*
X48130000Y-88730000D01*
X48110000Y-89408000D02*
X48110000Y-88750000D01*
X48110000Y-105890000D02*
X48110000Y-106860000D01*
%TO.N,/Microcontroller/TX*%
X43600000Y-81960000D02*
X42980000Y-82580000D01*
X44725000Y-81960000D02*
X43600000Y-81960000D01*
X42980000Y-82580000D02*
X42980000Y-83960000D01*
%TO.N,/Microcontroller/Bus2_input_enable*%
X191199000Y-75946000D02*
X191199000Y-76834000D01*
X191199000Y-76834000D02*
X190817000Y-77216000D01*
X186182000Y-77216000D02*
X186119000Y-77153000D01*
X186119000Y-77153000D02*
X186119000Y-75946000D01*
X190817000Y-77216000D02*
X186182000Y-77216000D01*
X74064940Y-82296000D02*
X180976000Y-82296000D01*
X186119000Y-77153000D02*
X180976000Y-82296000D01*
X56400000Y-79980000D02*
X57625000Y-78755000D01*
X57625000Y-78755000D02*
X70523940Y-78755000D01*
X70523940Y-78755000D02*
X74064940Y-82296000D01*
X53075000Y-80360000D02*
X56030000Y-80360000D01*
%TO.N,Net-(R12-Pad1)*%
X187769000Y-74867000D02*
X187769000Y-75946000D01*
X187960000Y-73660000D02*
X187960000Y-74676000D01*
X187960000Y-74676000D02*
X187769000Y-74867000D01*
%TO.N,Net-(R13-Pad1)*%
X192849000Y-74867000D02*
X192849000Y-75946000D01*
X193040000Y-73660000D02*
X193040000Y-74676000D01*
X193040000Y-74676000D02*
X192849000Y-74867000D01*
%TO.N,/Microcontroller/CH1*%
X179769000Y-75946000D02*
X179769000Y-76834000D01*
X174689000Y-77153000D02*
X174689000Y-75946000D01*
X179769000Y-76834000D02*
X179387000Y-77216000D01*
X174752000Y-77216000D02*
X174689000Y-77153000D01*
X179387000Y-77216000D02*
X174752000Y-77216000D01*
X58940000Y-77440000D02*
X69916046Y-77440000D01*
X170054000Y-81788000D02*
X76000000Y-81788000D01*
X55455000Y-78755000D02*
X56817412Y-78755000D01*
X69916046Y-77440000D02*
X74272046Y-81796000D01*
X54650000Y-79560000D02*
X55455000Y-78755000D01*
X56817412Y-78755000D02*
X58122412Y-77450000D01*
X53075000Y-79560000D02*
X54650000Y-79560000D01*
X74272046Y-81796000D02*
X76174600Y-81796000D01*
X174689000Y-77153000D02*
X170054000Y-81788000D01*
X58122412Y-77450000D02*
X58950000Y-77450000D01*
%TO.N,Net-(R14-Pad1)*%
X181419000Y-74867000D02*
X181419000Y-75946000D01*
X181610000Y-73660000D02*
X181610000Y-74676000D01*
X181610000Y-74676000D02*
X181419000Y-74867000D01*
%TO.N,/Microcontroller/CH6*%
X127699000Y-76834000D02*
X127317000Y-77216000D01*
X122682000Y-77216000D02*
X122619000Y-77153000D01*
X122619000Y-75946000D02*
X122619000Y-77153000D01*
X127699000Y-75946000D02*
X127699000Y-76834000D01*
X127317000Y-77216000D02*
X122682000Y-77216000D01*
X56450000Y-72340000D02*
X51110000Y-72340000D01*
X49300000Y-74154000D02*
X49300000Y-75785000D01*
X56400000Y-72360000D02*
X57715000Y-71045000D01*
X57715000Y-71045000D02*
X67056576Y-71045000D01*
X67056576Y-71045000D02*
X75251576Y-79240000D01*
X120524000Y-79248000D02*
X76000000Y-79248000D01*
X51110000Y-72340000D02*
X49300000Y-74150000D01*
X122619000Y-77153000D02*
X120524000Y-79248000D01*
X75301575Y-79250000D02*
X76010000Y-79250000D01*
%TO.N,Net-(R15-Pad1)*%
X129540000Y-74676000D02*
X129349000Y-74867000D01*
X129540000Y-73660000D02*
X129540000Y-74676000D01*
X129349000Y-74867000D02*
X129349000Y-75946000D01*
%TO.N,Net-(R18-Pad1)*%
X176339000Y-74867000D02*
X176339000Y-75946000D01*
X176530000Y-74676000D02*
X176339000Y-74867000D01*
X176530000Y-73660000D02*
X176530000Y-74676000D01*
%TO.N,Net-(R19-Pad1)*%
X124460000Y-73660000D02*
X124460000Y-74676000D01*
X124460000Y-74676000D02*
X124269000Y-74867000D01*
X124269000Y-74867000D02*
X124269000Y-75946000D01*
%TO.N,/Microcontroller/CH2*%
X169227000Y-77216000D02*
X164592000Y-77216000D01*
X164592000Y-77216000D02*
X164529000Y-77153000D01*
X169609000Y-76834000D02*
X169227000Y-77216000D01*
X169609000Y-75946000D02*
X169609000Y-76834000D01*
X164529000Y-77153000D02*
X164529000Y-75946000D01*
X69308152Y-76125000D02*
X74455152Y-81272000D01*
X74455152Y-81272000D02*
X76377800Y-81272000D01*
X164529000Y-77153000D02*
X160402000Y-81280000D01*
X56400000Y-77440000D02*
X57715000Y-76125000D01*
X160402000Y-81280000D02*
X76000000Y-81280000D01*
X57715000Y-76125000D02*
X69308152Y-76125000D01*
X54400000Y-78760000D02*
X55710000Y-77450000D01*
X53075000Y-78760000D02*
X54400000Y-78760000D01*
%TO.N,Net-(R20-Pad1)*%
X171450000Y-74676000D02*
X171259000Y-74867000D01*
X171259000Y-74867000D02*
X171259000Y-75946000D01*
X171450000Y-73660000D02*
X171450000Y-74676000D01*
%TO.N,/Microcontroller/CH7*%
X117539000Y-76834000D02*
X117157000Y-77216000D01*
X112522000Y-77216000D02*
X112459000Y-77153000D01*
X117157000Y-77216000D02*
X112522000Y-77216000D01*
X117539000Y-75946000D02*
X117539000Y-76834000D01*
X112459000Y-75946000D02*
X112459000Y-77153000D01*
X58940000Y-69820000D02*
X66538682Y-69820000D01*
X66538682Y-69820000D02*
X75458682Y-78740000D01*
X48500000Y-74054000D02*
X51509000Y-71045000D01*
X48500000Y-75785000D02*
X48500000Y-74054000D01*
X75458681Y-78740000D02*
X110890000Y-78740000D01*
X56907412Y-71045000D02*
X58142412Y-69810000D01*
X110872000Y-78740000D02*
X112459000Y-77153000D01*
X51509000Y-71045000D02*
X56907412Y-71045000D01*
X58142412Y-69810000D02*
X58950000Y-69810000D01*
%TO.N,Net-(R21-Pad1)*%
X119380000Y-74676000D02*
X119189000Y-74867000D01*
X119380000Y-73660000D02*
X119380000Y-74676000D01*
X119189000Y-74867000D02*
X119189000Y-75946000D01*
%TO.N,Net-(R22-Pad1)*%
X166179000Y-74867000D02*
X166179000Y-75946000D01*
X166370000Y-74676000D02*
X166179000Y-74867000D01*
X166370000Y-73660000D02*
X166370000Y-74676000D01*
%TO.N,Net-(R23-Pad1)*%
X114300000Y-73660000D02*
X114300000Y-74676000D01*
X114300000Y-74676000D02*
X114109000Y-74867000D01*
X114109000Y-74867000D02*
X114109000Y-75946000D01*
%TO.N,/Microcontroller/CH3*%
X159449000Y-76834000D02*
X159067000Y-77216000D01*
X154432000Y-77216000D02*
X154369000Y-77153000D01*
X154369000Y-77153000D02*
X154369000Y-75946000D01*
X159067000Y-77216000D02*
X154432000Y-77216000D01*
X159449000Y-75946000D02*
X159449000Y-76834000D01*
X55892588Y-76125000D02*
X56945000Y-76125000D01*
X58180000Y-74890000D02*
X58940000Y-74890000D01*
X68790258Y-74900000D02*
X74654258Y-80764000D01*
X56945000Y-76125000D02*
X58180000Y-74890000D01*
X150750000Y-80772000D02*
X76000000Y-80772000D01*
X53075000Y-77960000D02*
X54057588Y-77960000D01*
X54057588Y-77960000D02*
X55892588Y-76125000D01*
X74654258Y-80764000D02*
X76098400Y-80764000D01*
X154369000Y-77153000D02*
X150750000Y-80772000D01*
X58940000Y-74900000D02*
X68790258Y-74900000D01*
%TO.N,Net-(R24-Pad1)*%
X161099000Y-74867000D02*
X161099000Y-75946000D01*
X161290000Y-74676000D02*
X161099000Y-74867000D01*
X161290000Y-73660000D02*
X161290000Y-74676000D01*
%TO.N,/Microcontroller/CH8*%
X102299000Y-77153000D02*
X102299000Y-75946000D01*
X106997000Y-77216000D02*
X102362000Y-77216000D01*
X107379000Y-75946000D02*
X107379000Y-76834000D01*
X107379000Y-76834000D02*
X106997000Y-77216000D01*
X102362000Y-77216000D02*
X102299000Y-77153000D01*
X66005788Y-68580000D02*
X75665788Y-78240000D01*
X51296000Y-70358000D02*
X54864000Y-70358000D01*
X102299000Y-77153000D02*
X101220000Y-78232000D01*
X47700000Y-73954000D02*
X51296000Y-70358000D01*
X75665788Y-78240000D02*
X75980000Y-78240000D01*
X101220000Y-78232000D02*
X76000000Y-78232000D01*
X47700000Y-75785000D02*
X47700000Y-73954000D01*
X54864000Y-70358000D02*
X55372000Y-69850000D01*
X57207588Y-69820000D02*
X58447588Y-68580000D01*
X58447588Y-68580000D02*
X66005788Y-68580000D01*
X55372000Y-69850000D02*
X56388000Y-69850000D01*
X56400000Y-69820000D02*
X57207588Y-69820000D01*
%TO.N,Net-(R25-Pad1)*%
X109220000Y-74676000D02*
X109029000Y-74867000D01*
X109220000Y-73660000D02*
X109220000Y-74676000D01*
X109029000Y-74867000D02*
X109029000Y-75946000D01*
%TO.N,Net-(R26-Pad1)*%
X156210000Y-74676000D02*
X156019000Y-74867000D01*
X156210000Y-73660000D02*
X156210000Y-74676000D01*
X156019000Y-74867000D02*
X156019000Y-75946000D01*
%TO.N,Net-(R27-Pad1)*%
X104140000Y-73660000D02*
X104140000Y-74676000D01*
X103949000Y-74867000D02*
X103949000Y-75946000D01*
X104140000Y-74676000D02*
X103949000Y-74867000D01*
%TO.N,/Microcontroller/CH4*%
X144209000Y-75946000D02*
X144209000Y-77153000D01*
X149289000Y-76834000D02*
X148907000Y-77216000D01*
X148907000Y-77216000D02*
X144272000Y-77216000D01*
X149289000Y-75946000D02*
X149289000Y-76834000D01*
X144272000Y-77216000D02*
X144209000Y-77153000D01*
X68272364Y-73675000D02*
X74861364Y-80264000D01*
X144209000Y-77153000D02*
X141098000Y-80264000D01*
X50900000Y-74554000D02*
X50900000Y-75785000D01*
X74861364Y-80264000D02*
X141098000Y-80264000D01*
X51444000Y-74010000D02*
X55510000Y-74010000D01*
X51444000Y-74010000D02*
X50900000Y-74554000D01*
X57625000Y-73675000D02*
X68272364Y-73675000D01*
X55510000Y-74010000D02*
X56430000Y-74930000D01*
X56400000Y-74900000D02*
X57625000Y-73675000D01*
%TO.N,Net-(R28-Pad1)*%
X150939000Y-74867000D02*
X150939000Y-75946000D01*
X151130000Y-74676000D02*
X150939000Y-74867000D01*
X151130000Y-73660000D02*
X151130000Y-74676000D01*
%TO.N,/Microcontroller/CH9*%
X92139000Y-75946000D02*
X92139000Y-77153000D01*
X97219000Y-76771000D02*
X96774000Y-77216000D01*
X97219000Y-75946000D02*
X97219000Y-76771000D01*
X92202000Y-77216000D02*
X92139000Y-77153000D01*
X96774000Y-77216000D02*
X92202000Y-77216000D01*
X46900000Y-75785000D02*
X46900000Y-73800000D01*
X92139000Y-77279000D02*
X91694000Y-77724000D01*
X50850000Y-69850000D02*
X54356000Y-69850000D01*
X65412894Y-67280000D02*
X75852894Y-77720000D01*
X46900000Y-73800000D02*
X50850000Y-69850000D01*
X91694000Y-77724000D02*
X76000000Y-77724000D01*
X57245000Y-68595000D02*
X58550000Y-67290000D01*
X57245000Y-68595000D02*
X55611000Y-68595000D01*
X75852894Y-77720000D02*
X75970000Y-77720000D01*
X58940000Y-67280000D02*
X65412894Y-67280000D01*
X55611000Y-68595000D02*
X54348000Y-69858000D01*
X92139000Y-77153000D02*
X92139000Y-77279000D01*
%TO.N,Net-(R29-Pad1)*%
X99060000Y-74676000D02*
X98869000Y-74867000D01*
X99060000Y-73660000D02*
X99060000Y-74676000D01*
X98869000Y-74867000D02*
X98869000Y-75946000D01*
%TO.N,Net-(R30-Pad1)*%
X145859000Y-74867000D02*
X145859000Y-75946000D01*
X146050000Y-73660000D02*
X146050000Y-74676000D01*
X146050000Y-74676000D02*
X145859000Y-74867000D01*
%TO.N,Net-(R31-Pad1)*%
X93789000Y-74867000D02*
X93789000Y-75946000D01*
X93980000Y-73660000D02*
X93980000Y-74676000D01*
X93980000Y-74676000D02*
X93789000Y-74867000D01*
%TO.N,/Microcontroller/CH5*%
X139129000Y-75946000D02*
X139129000Y-76834000D01*
X134049000Y-77153000D02*
X134049000Y-75946000D01*
X134112000Y-77216000D02*
X134049000Y-77153000D01*
X139129000Y-76834000D02*
X138747000Y-77216000D01*
X138747000Y-77216000D02*
X134112000Y-77216000D01*
X50100000Y-75785000D02*
X50100000Y-74223867D01*
X58092412Y-72400000D02*
X58950000Y-72400000D01*
X75054470Y-79750000D02*
X75996800Y-79750000D01*
X50100000Y-74223867D02*
X50813867Y-73510000D01*
X55817588Y-73510000D02*
X55892588Y-73585000D01*
X131446000Y-79756000D02*
X76000000Y-79756000D01*
X67634470Y-72330000D02*
X75054470Y-79750000D01*
X55892588Y-73585000D02*
X56907412Y-73585000D01*
X56907412Y-73585000D02*
X58092412Y-72400000D01*
X58930000Y-72330000D02*
X67634470Y-72330000D01*
X134049000Y-77153000D02*
X131446000Y-79756000D01*
X50813867Y-73510000D02*
X55817588Y-73510000D01*
%TO.N,Net-(R32-Pad1)*%
X140779000Y-74867000D02*
X140779000Y-75946000D01*
X140970000Y-74676000D02*
X140779000Y-74867000D01*
X140970000Y-73660000D02*
X140970000Y-74676000D01*
%TO.N,/Microcontroller/CH10*%
X86677000Y-77153000D02*
X81979000Y-77153000D01*
X87059000Y-76771000D02*
X86677000Y-77153000D01*
X81979000Y-77153000D02*
X81979000Y-75946000D01*
X87059000Y-75946000D02*
X87059000Y-76771000D01*
X56400000Y-67280000D02*
X58030000Y-65650000D01*
X58030000Y-65650000D02*
X64490000Y-65650000D01*
X51808000Y-69350000D02*
X53848000Y-67310000D01*
X46100000Y-75785000D02*
X46100000Y-73788000D01*
X53848000Y-67310000D02*
X56388000Y-67310000D01*
X76000000Y-77160000D02*
X64490000Y-65650000D01*
X50538000Y-69350000D02*
X51808000Y-69350000D01*
X46100000Y-73788000D02*
X50538000Y-69350000D01*
X81979000Y-77153000D02*
X76000000Y-77160000D01*
%TO.N,Net-(R33-Pad1)*%
X88900000Y-73660000D02*
X88900000Y-74676000D01*
X88900000Y-74676000D02*
X88709000Y-74867000D01*
X88709000Y-74867000D02*
X88709000Y-75946000D01*
%TO.N,Net-(R34-Pad1)*%
X135890000Y-73660000D02*
X135890000Y-74676000D01*
X135699000Y-74867000D02*
X135699000Y-75946000D01*
X135890000Y-74676000D02*
X135699000Y-74867000D01*
%TO.N,Net-(R35-Pad1)*%
X83629000Y-74867000D02*
X83629000Y-75946000D01*
X83820000Y-74676000D02*
X83629000Y-74867000D01*
X83820000Y-73660000D02*
X83820000Y-74676000D01*
%TO.N,/Microcontroller/Bus2_sense_enable*%
X193739000Y-88583000D02*
X193739000Y-89154000D01*
X193040000Y-87884000D02*
X193739000Y-88583000D01*
X188596000Y-87884000D02*
X193040000Y-87884000D01*
X58130000Y-79980000D02*
X57750000Y-80360000D01*
X53120000Y-81205000D02*
X56907412Y-81205000D01*
X183516000Y-82804000D02*
X188659000Y-87947000D01*
X73865834Y-82804000D02*
X76123800Y-82804000D01*
X58940000Y-79980000D02*
X58130000Y-79980000D01*
X188659000Y-87947000D02*
X188659000Y-89154000D01*
X58940000Y-79980000D02*
X71041834Y-79980000D01*
X56907412Y-81205000D02*
X57740000Y-80372412D01*
X183510000Y-82800000D02*
X76000000Y-82804000D01*
X71041834Y-79980000D02*
X73865834Y-82804000D01*
%TO.N,Net-(R36-Pad1)*%
X190309000Y-89154000D02*
X190309000Y-89979000D01*
X190500000Y-90170000D02*
X190500000Y-91440000D01*
X190309000Y-89979000D02*
X190500000Y-90170000D01*
%TO.N,Net-(R37-Pad1)*%
X195580000Y-90170000D02*
X195580000Y-91440000D01*
X195389000Y-89979000D02*
X195580000Y-90170000D01*
X195389000Y-89154000D02*
X195389000Y-89979000D01*
%TO.N,/Microcontroller/CH11*%
X177166000Y-87884000D02*
X181610000Y-87884000D01*
X182309000Y-88583000D02*
X182309000Y-89154000D01*
X181610000Y-87884000D02*
X182309000Y-88583000D01*
X73658735Y-83304008D02*
X75792912Y-83304008D01*
X57715000Y-81205000D02*
X71559728Y-81205000D01*
X53075000Y-81960000D02*
X55860000Y-81960000D01*
X56400000Y-82520000D02*
X57715000Y-81205000D01*
X71559728Y-81205000D02*
X73658735Y-83304008D01*
X75792912Y-83304008D02*
X75792935Y-83303985D01*
X177229000Y-87947000D02*
X172594000Y-83312000D01*
X172594000Y-83312000D02*
X76000000Y-83312000D01*
X177229000Y-89154000D02*
X177229000Y-87947000D01*
X55860000Y-81960000D02*
X56410000Y-82510000D01*
%TO.N,Net-(R38-Pad1)*%
X183959000Y-89979000D02*
X184150000Y-90170000D01*
X184150000Y-90170000D02*
X184150000Y-91440000D01*
X183959000Y-89154000D02*
X183959000Y-89979000D01*
%TO.N,/Microcontroller/CH16*%
X129540000Y-87884000D02*
X130239000Y-88583000D01*
X125159000Y-87947000D02*
X125159000Y-89154000D01*
X125096000Y-87884000D02*
X125159000Y-87947000D01*
X125096000Y-87884000D02*
X129540000Y-87884000D01*
X130239000Y-88583000D02*
X130239000Y-89154000D01*
X58092412Y-87640000D02*
X58960000Y-87640000D01*
X56907412Y-88825000D02*
X58092412Y-87640000D01*
X52939000Y-88825000D02*
X56907412Y-88825000D01*
X123063000Y-85852000D02*
X76000000Y-85852000D01*
X125095000Y-87884000D02*
X123063000Y-85852000D01*
X49300000Y-85186000D02*
X52939000Y-88825000D01*
X73448800Y-85860000D02*
X75996800Y-85860000D01*
X125096000Y-87884000D02*
X125095000Y-87884000D01*
X71708800Y-87600000D02*
X73448800Y-85860000D01*
X58940000Y-87600000D02*
X71708800Y-87600000D01*
X49300000Y-84135000D02*
X49300000Y-85186000D01*
%TO.N,Net-(R39-Pad1)*%
X132080000Y-90170000D02*
X132080000Y-91440000D01*
X131889000Y-89979000D02*
X132080000Y-90170000D01*
X131889000Y-89154000D02*
X131889000Y-89979000D01*
%TO.N,Net-(R42-Pad1)*%
X178879000Y-89154000D02*
X178879000Y-89979000D01*
X178879000Y-89979000D02*
X179070000Y-90170000D01*
X179070000Y-90170000D02*
X179070000Y-91440000D01*
%TO.N,Net-(R43-Pad1)*%
X127000000Y-90170000D02*
X127000000Y-91440000D01*
X126809000Y-89154000D02*
X126809000Y-89979000D01*
X126809000Y-89979000D02*
X127000000Y-90170000D01*
%TO.N,/Microcontroller/CH12*%
X172149000Y-88583000D02*
X172149000Y-89154000D01*
X171450000Y-87884000D02*
X172149000Y-88583000D01*
X167006000Y-87884000D02*
X171450000Y-87884000D01*
X58142412Y-82510000D02*
X58980000Y-82510000D01*
X167069000Y-87947000D02*
X162942000Y-83820000D01*
X72167622Y-82520000D02*
X73459622Y-83812000D01*
X73459622Y-83812000D02*
X76098400Y-83812000D01*
X56907412Y-83745000D02*
X58142412Y-82510000D01*
X58940000Y-82520000D02*
X72167622Y-82520000D01*
X167069000Y-89154000D02*
X167069000Y-87947000D01*
X162942000Y-83820000D02*
X76000000Y-83820000D01*
X55255000Y-83745000D02*
X56907412Y-83745000D01*
X53075000Y-82760000D02*
X54270000Y-82760000D01*
X54270000Y-82760000D02*
X55255000Y-83745000D01*
%TO.N,Net-(R44-Pad1)*%
X173799000Y-89154000D02*
X173799000Y-89979000D01*
X173990000Y-90170000D02*
X173990000Y-91440000D01*
X173799000Y-89979000D02*
X173990000Y-90170000D01*
%TO.N,/Microcontroller/CH17*%
X114936000Y-87884000D02*
X119380000Y-87884000D01*
X119380000Y-87884000D02*
X120079000Y-88583000D01*
X120079000Y-88583000D02*
X120079000Y-89154000D01*
X57715000Y-88825000D02*
X71296600Y-88825000D01*
X56400000Y-90140000D02*
X57715000Y-88825000D01*
X71296600Y-88825000D02*
X73753600Y-86368000D01*
X73753600Y-86368000D02*
X75996800Y-86368000D01*
X48500000Y-84135000D02*
X48500000Y-85148000D01*
X114999000Y-87947000D02*
X113412000Y-86360000D01*
X113412000Y-86360000D02*
X76000000Y-86360000D01*
X53502000Y-90150000D02*
X56440000Y-90150000D01*
X114999000Y-89154000D02*
X114999000Y-87947000D01*
X48500000Y-85148000D02*
X53502000Y-90150000D01*
%TO.N,Net-(R45-Pad1)*%
X121920000Y-90170000D02*
X121920000Y-91440000D01*
X121729000Y-89979000D02*
X121920000Y-90170000D01*
X121729000Y-89154000D02*
X121729000Y-89979000D01*
%TO.N,Net-(R46-Pad1)*%
X168719000Y-89979000D02*
X168910000Y-90170000D01*
X168910000Y-90170000D02*
X168910000Y-91440000D01*
X168719000Y-89154000D02*
X168719000Y-89979000D01*
%TO.N,Net-(R47-Pad1)*%
X116649000Y-89154000D02*
X116649000Y-89979000D01*
X116840000Y-90170000D02*
X116840000Y-91440000D01*
X116649000Y-89979000D02*
X116840000Y-90170000D01*
%TO.N,/Microcontroller/CH13*%
X156846000Y-87884000D02*
X161290000Y-87884000D01*
X161290000Y-87884000D02*
X161989000Y-88583000D01*
X161989000Y-88583000D02*
X161989000Y-89154000D01*
X72543600Y-83745000D02*
X73126600Y-84328000D01*
X51700000Y-85300000D02*
X51948000Y-85548000D01*
X156909000Y-89154000D02*
X156909000Y-87947000D01*
X51948000Y-85548000D02*
X55942000Y-85548000D01*
X57715000Y-83745000D02*
X72543600Y-83745000D01*
X156909000Y-87947000D02*
X153290000Y-84328000D01*
X73126600Y-84328000D02*
X153290000Y-84328000D01*
X51700000Y-84135000D02*
X51700000Y-85300000D01*
X56400000Y-85060000D02*
X57715000Y-83745000D01*
%TO.N,Net-(R48-Pad1)*%
X163830000Y-90170000D02*
X163830000Y-91440000D01*
X163639000Y-89979000D02*
X163830000Y-90170000D01*
X163639000Y-89154000D02*
X163639000Y-89979000D01*
%TO.N,/Microcontroller/CH18*%
X109919000Y-88583000D02*
X109919000Y-89154000D01*
X109220000Y-87884000D02*
X109919000Y-88583000D01*
X104776000Y-87884000D02*
X109220000Y-87884000D01*
X58940000Y-90140000D02*
X70794400Y-90140000D01*
X104839000Y-89154000D02*
X104839000Y-87947000D01*
X58142412Y-90130000D02*
X58960000Y-90130000D01*
X104839000Y-87947000D02*
X103760000Y-86868000D01*
X74066400Y-86868000D02*
X103760000Y-86868000D01*
X54045000Y-91455000D02*
X56817412Y-91455000D01*
X47700000Y-84135000D02*
X47700000Y-85110000D01*
X47700000Y-85110000D02*
X54045000Y-91455000D01*
X56817412Y-91455000D02*
X58142412Y-90130000D01*
X70794400Y-90140000D02*
X74066400Y-86868000D01*
%TO.N,Net-(R49-Pad1)*%
X111760000Y-90170000D02*
X111760000Y-91440000D01*
X111569000Y-89154000D02*
X111569000Y-89979000D01*
X111569000Y-89979000D02*
X111760000Y-90170000D01*
%TO.N,Net-(R50-Pad1)*%
X158559000Y-89154000D02*
X158559000Y-89979000D01*
X158559000Y-89979000D02*
X158750000Y-90170000D01*
X158750000Y-90170000D02*
X158750000Y-91440000D01*
%TO.N,Net-(R51-Pad1)*%
X106489000Y-89154000D02*
X106489000Y-89979000D01*
X106680000Y-90170000D02*
X106680000Y-91440000D01*
X106489000Y-89979000D02*
X106680000Y-90170000D01*
%TO.N,/Microcontroller/CH14*%
X151130000Y-87884000D02*
X151829000Y-88583000D01*
X146686000Y-87884000D02*
X151130000Y-87884000D01*
X151829000Y-88583000D02*
X151829000Y-89154000D01*
X51923000Y-86285000D02*
X56907412Y-86285000D01*
X56907412Y-86285000D02*
X58020000Y-85172412D01*
X72829800Y-84828000D02*
X76073000Y-84828000D01*
X50900000Y-84135000D02*
X50900000Y-85262000D01*
X72597800Y-85060000D02*
X72829800Y-84828000D01*
X143638000Y-84836000D02*
X76000000Y-84836000D01*
X146749000Y-87947000D02*
X143638000Y-84836000D01*
X58020000Y-85172412D02*
X58847588Y-85172412D01*
X146749000Y-89154000D02*
X146749000Y-87947000D01*
X58940000Y-85060000D02*
X72597800Y-85060000D01*
X50900000Y-85262000D02*
X51923000Y-86285000D01*
%TO.N,Net-(R52-Pad1)*%
X153670000Y-90170000D02*
X153670000Y-91440000D01*
X153479000Y-89154000D02*
X153479000Y-89979000D01*
X153479000Y-89979000D02*
X153670000Y-90170000D01*
%TO.N,/Microcontroller/CH19*%
X99060000Y-87884000D02*
X99759000Y-88583000D01*
X94616000Y-87884000D02*
X99060000Y-87884000D01*
X99759000Y-88583000D02*
X99759000Y-89154000D01*
X74273506Y-87368000D02*
X76073000Y-87368000D01*
X57715000Y-91365000D02*
X70280600Y-91365000D01*
X94679000Y-89154000D02*
X94679000Y-87947000D01*
X94679000Y-87947000D02*
X94108000Y-87376000D01*
X94108000Y-87376000D02*
X76000000Y-87376000D01*
X70458400Y-91183106D02*
X74273506Y-87368000D01*
X46900000Y-85266000D02*
X54344000Y-92710000D01*
X56400000Y-92680000D02*
X57715000Y-91365000D01*
X70280600Y-91365000D02*
X70459600Y-91186000D01*
X46900000Y-84135000D02*
X46900000Y-85266000D01*
X54344000Y-92710000D02*
X56410000Y-92710000D01*
%TO.N,Net-(R53-Pad1)*%
X101600000Y-90170000D02*
X101600000Y-91440000D01*
X101409000Y-89979000D02*
X101600000Y-90170000D01*
X101409000Y-89154000D02*
X101409000Y-89979000D01*
%TO.N,Net-(R54-Pad1)*%
X148399000Y-89979000D02*
X148590000Y-90170000D01*
X148399000Y-89154000D02*
X148399000Y-89979000D01*
X148590000Y-90170000D02*
X148590000Y-91440000D01*
%TO.N,Net-(R55-Pad1)*%
X96520000Y-90170000D02*
X96520000Y-91440000D01*
X96329000Y-89154000D02*
X96329000Y-89979000D01*
X96329000Y-89979000D02*
X96520000Y-90170000D01*
%TO.N,/Microcontroller/CH15*%
X136526000Y-87884000D02*
X140970000Y-87884000D01*
X141669000Y-88583000D02*
X141669000Y-89154000D01*
X140970000Y-87884000D02*
X141669000Y-88583000D01*
X133986000Y-85344000D02*
X76000000Y-85344000D01*
X136589000Y-87947000D02*
X133986000Y-85344000D01*
X136589000Y-89154000D02*
X136589000Y-87947000D01*
X73220200Y-85352000D02*
X76022200Y-85352000D01*
X72232200Y-86340000D02*
X73220200Y-85352000D01*
X56400000Y-87600000D02*
X57660000Y-86340000D01*
X50100000Y-84135000D02*
X50100000Y-85224000D01*
X52496000Y-87620000D02*
X56420000Y-87620000D01*
X50100000Y-85224000D02*
X52496000Y-87620000D01*
X57660000Y-86340000D02*
X72232200Y-86340000D01*
%TO.N,Net-(R56-Pad1)*%
X143319000Y-89154000D02*
X143319000Y-89979000D01*
X143319000Y-89979000D02*
X143510000Y-90170000D01*
X143510000Y-90170000D02*
X143510000Y-91440000D01*
%TO.N,/Microcontroller/CH20*%
X84519000Y-89154000D02*
X84519000Y-87947000D01*
X84456000Y-87884000D02*
X84519000Y-87947000D01*
X89599000Y-88583000D02*
X89599000Y-89154000D01*
X88900000Y-87884000D02*
X89599000Y-88583000D01*
X84456000Y-87884000D02*
X88900000Y-87884000D01*
X58940000Y-92680000D02*
X69672706Y-92680000D01*
X54539000Y-93905000D02*
X57745000Y-93905000D01*
X46100000Y-84135000D02*
X46100000Y-85466000D01*
X57745000Y-93905000D02*
X58990000Y-92660000D01*
X46100000Y-85466000D02*
X54539000Y-93905000D01*
X69672706Y-92680000D02*
X74468706Y-87884000D01*
X74468706Y-87884000D02*
X84456000Y-87884000D01*
%TO.N,Net-(R57-Pad1)*%
X91249000Y-89979000D02*
X91440000Y-90170000D01*
X91440000Y-90170000D02*
X91440000Y-91440000D01*
X91249000Y-89154000D02*
X91249000Y-89979000D01*
%TO.N,Net-(R58-Pad1)*%
X138430000Y-90170000D02*
X138430000Y-91440000D01*
X138239000Y-89154000D02*
X138239000Y-89979000D01*
X138239000Y-89979000D02*
X138430000Y-90170000D01*
%TO.N,Net-(R59-Pad1)*%
X86169000Y-89154000D02*
X86169000Y-89979000D01*
X86169000Y-89979000D02*
X86360000Y-90170000D01*
X86360000Y-90170000D02*
X86360000Y-91440000D01*
D43*
%TO.N,/Relays/Input pins/Bus_HIGH*%
X187960000Y-101092000D02*
X187960000Y-99060000D01*
X149860000Y-102362000D02*
X142240000Y-102362000D01*
X109220000Y-101092000D02*
X109220000Y-99060000D01*
X118110000Y-102362000D02*
X110490000Y-102362000D01*
X186690000Y-102362000D02*
X182880000Y-102362000D01*
X151130000Y-101092000D02*
X149860000Y-102362000D01*
X129540000Y-101092000D02*
X128270000Y-102362000D01*
X128270000Y-102362000D02*
X120650000Y-102362000D01*
X180340000Y-102362000D02*
X172720000Y-102362000D01*
X119380000Y-101092000D02*
X118110000Y-102362000D01*
X181610000Y-101092000D02*
X181610000Y-99060000D01*
X100330000Y-102362000D02*
X99060000Y-101092000D01*
X97790000Y-102362000D02*
X90170000Y-102362000D01*
X88900000Y-101092000D02*
X88900000Y-99060000D01*
X182880000Y-102362000D02*
X181610000Y-101092000D01*
X151130000Y-101092000D02*
X151130000Y-99060000D01*
X142240000Y-102362000D02*
X140970000Y-101092000D01*
X110490000Y-102362000D02*
X109220000Y-101092000D01*
X129540000Y-101092000D02*
X129540000Y-99060000D01*
X107950000Y-102362000D02*
X100330000Y-102362000D01*
X160020000Y-102362000D02*
X152400000Y-102362000D01*
X109220000Y-101092000D02*
X107950000Y-102362000D01*
X181610000Y-101092000D02*
X180340000Y-102362000D01*
X161290000Y-101092000D02*
X161290000Y-99060000D01*
X162560000Y-102362000D02*
X161290000Y-101092000D01*
X187960000Y-101092000D02*
X186690000Y-102362000D01*
X152400000Y-102362000D02*
X151130000Y-101092000D01*
X130810000Y-102362000D02*
X129540000Y-101092000D01*
X119380000Y-101092000D02*
X119380000Y-99060000D01*
X171450000Y-101092000D02*
X170180000Y-102362000D01*
X171450000Y-101092000D02*
X171450000Y-99060000D01*
X161290000Y-101092000D02*
X160020000Y-102362000D01*
X120650000Y-102362000D02*
X119380000Y-101092000D01*
X172720000Y-102362000D02*
X171450000Y-101092000D01*
X130810000Y-102362000D02*
X139700000Y-102362000D01*
X140970000Y-101092000D02*
X140970000Y-99060000D01*
X170180000Y-102362000D02*
X162560000Y-102362000D01*
X99060000Y-101092000D02*
X97790000Y-102362000D01*
X90170000Y-102362000D02*
X88900000Y-101092000D01*
X140970000Y-101092000D02*
X139700000Y-102362000D01*
X99060000Y-101092000D02*
X99060000Y-99060000D01*
%TO.N,/Relays/Input pins/Bus_LOW*%
X146050000Y-97028000D02*
X144780000Y-95758000D01*
X156210000Y-97028000D02*
X156210000Y-99060000D01*
X102870000Y-95758000D02*
X95250000Y-95758000D01*
X114300000Y-97028000D02*
X113030000Y-95758000D01*
X157480000Y-95758000D02*
X156210000Y-97028000D01*
X200787000Y-94488000D02*
X199517000Y-95758000D01*
X191770000Y-95758000D02*
X177800000Y-95758000D01*
X193040000Y-64008000D02*
X194310000Y-62738000D01*
X176530000Y-97028000D02*
X176530000Y-99060000D01*
X93980000Y-97028000D02*
X92710000Y-95758000D01*
X137160000Y-95758000D02*
X135890000Y-97028000D01*
X135890000Y-97028000D02*
X135890000Y-99060000D01*
X154940000Y-95758000D02*
X147320000Y-95758000D01*
X123190000Y-95758000D02*
X115570000Y-95758000D01*
X194310000Y-95758000D02*
X193040000Y-97028000D01*
X124460000Y-97028000D02*
X123190000Y-95758000D01*
X146050000Y-97028000D02*
X146050000Y-99060000D01*
X124460000Y-97028000D02*
X124460000Y-99060000D01*
X199517000Y-95758000D02*
X194310000Y-95758000D01*
X193040000Y-66040000D02*
X193040000Y-64008000D01*
X135890000Y-97028000D02*
X134620000Y-95758000D01*
X199136000Y-62738000D02*
X200787000Y-64389000D01*
X114300000Y-97028000D02*
X114300000Y-99060000D01*
X194310000Y-62738000D02*
X199136000Y-62738000D01*
X177800000Y-95758000D02*
X176530000Y-97028000D01*
X176530000Y-97028000D02*
X175260000Y-95758000D01*
X156210000Y-97028000D02*
X154940000Y-95758000D01*
X104140000Y-97028000D02*
X102870000Y-95758000D01*
X200787000Y-64389000D02*
X200787000Y-94488000D01*
X175260000Y-95758000D02*
X167640000Y-95758000D01*
X95250000Y-95758000D02*
X93980000Y-97028000D01*
X125730000Y-95758000D02*
X134620000Y-95758000D01*
X147320000Y-95758000D02*
X146050000Y-97028000D01*
X167640000Y-95758000D02*
X166370000Y-97028000D01*
X144780000Y-95758000D02*
X137160000Y-95758000D01*
X104140000Y-97028000D02*
X104140000Y-99060000D01*
X166370000Y-97028000D02*
X166370000Y-99060000D01*
X85090000Y-95758000D02*
X83820000Y-97028000D01*
X93980000Y-97028000D02*
X93980000Y-99060000D01*
X166370000Y-97028000D02*
X165100000Y-95758000D01*
X193040000Y-97028000D02*
X191770000Y-95758000D01*
X165100000Y-95758000D02*
X157480000Y-95758000D01*
X115570000Y-95758000D02*
X114300000Y-97028000D01*
X125730000Y-95758000D02*
X124460000Y-97028000D01*
X83820000Y-97028000D02*
X83820000Y-99060000D01*
X113030000Y-95758000D02*
X105410000Y-95758000D01*
X193040000Y-97028000D02*
X193040000Y-99060000D01*
X105410000Y-95758000D02*
X104140000Y-97028000D01*
X92710000Y-95758000D02*
X85090000Y-95758000D01*
%TO.N,/Relays/Input/Sense pins/Sense_HIGH*%
X190500000Y-99060000D02*
X190500000Y-107696000D01*
%TO.N,/Relays/Input/Sense pins/Sense_LOW*%
X195580000Y-99060000D02*
X195580000Y-107696000D01*
%TD*%
%TA.AperFunction,Conductor*%
%TO.N,+3.3V*%
G36*
X75741431Y-48305502D02*
G01*
X75762405Y-48322405D01*
X76163095Y-48723095D01*
X76197121Y-48785407D01*
X76200000Y-48812190D01*
X76200000Y-76159905D01*
X76179998Y-76228026D01*
X76126342Y-76274519D01*
X76056068Y-76284623D01*
X75991488Y-76255129D01*
X75984905Y-76249000D01*
X64997244Y-65261339D01*
X64984171Y-65245021D01*
X64932348Y-65196356D01*
X64929506Y-65193601D01*
X64912574Y-65176669D01*
X64909770Y-65173865D01*
X64906575Y-65171386D01*
X64897554Y-65163682D01*
X64865320Y-65133413D01*
X64847567Y-65123653D01*
X64831041Y-65112797D01*
X64815041Y-65100386D01*
X64774466Y-65082828D01*
X64763804Y-65077604D01*
X64725063Y-65056305D01*
X64711313Y-65052775D01*
X64705437Y-65051266D01*
X64686731Y-65044862D01*
X64668145Y-65036819D01*
X64624475Y-65029902D01*
X64612853Y-65027495D01*
X64603050Y-65024978D01*
X64570030Y-65016500D01*
X64570029Y-65016500D01*
X64549776Y-65016500D01*
X64530066Y-65014949D01*
X64510057Y-65011779D01*
X64466039Y-65015941D01*
X64454181Y-65016500D01*
X58113853Y-65016500D01*
X58093064Y-65014204D01*
X58022014Y-65016438D01*
X58018055Y-65016500D01*
X57990144Y-65016500D01*
X57986218Y-65016995D01*
X57986200Y-65016997D01*
X57986108Y-65017009D01*
X57974303Y-65017937D01*
X57930110Y-65019326D01*
X57910657Y-65024978D01*
X57891303Y-65028986D01*
X57871202Y-65031525D01*
X57830098Y-65047800D01*
X57818869Y-65051645D01*
X57776405Y-65063982D01*
X57758964Y-65074296D01*
X57741217Y-65082990D01*
X57722384Y-65090447D01*
X57686611Y-65116437D01*
X57676693Y-65122951D01*
X57638639Y-65145457D01*
X57624312Y-65159783D01*
X57609283Y-65172618D01*
X57592894Y-65184525D01*
X57564701Y-65218604D01*
X57556713Y-65227381D01*
X56899499Y-65884595D01*
X56837187Y-65918621D01*
X56810404Y-65921500D01*
X55752661Y-65921500D01*
X55752641Y-65921500D01*
X55749456Y-65921501D01*
X55746279Y-65921825D01*
X55746270Y-65921826D01*
X55645573Y-65932113D01*
X55477262Y-65987885D01*
X55326344Y-66080972D01*
X55200972Y-66206344D01*
X55153382Y-66283500D01*
X55107885Y-66357262D01*
X55052113Y-66525574D01*
X55052112Y-66525578D01*
X55048257Y-66563308D01*
X55021435Y-66629042D01*
X54963331Y-66669840D01*
X54922910Y-66676500D01*
X53931854Y-66676500D01*
X53911064Y-66674204D01*
X53840002Y-66676438D01*
X53836044Y-66676500D01*
X53808144Y-66676500D01*
X53804219Y-66676995D01*
X53804198Y-66676997D01*
X53804124Y-66677007D01*
X53792313Y-66677936D01*
X53748109Y-66679325D01*
X53728653Y-66684978D01*
X53709301Y-66688986D01*
X53689200Y-66691526D01*
X53648094Y-66707800D01*
X53636870Y-66711643D01*
X53594405Y-66723981D01*
X53576960Y-66734297D01*
X53559217Y-66742989D01*
X53540384Y-66750446D01*
X53504616Y-66776433D01*
X53494697Y-66782949D01*
X53456636Y-66805458D01*
X53442311Y-66819783D01*
X53427284Y-66832617D01*
X53410894Y-66844525D01*
X53382701Y-66878604D01*
X53374713Y-66887381D01*
X51582500Y-68679595D01*
X51520188Y-68713620D01*
X51493405Y-68716500D01*
X50621853Y-68716500D01*
X50601063Y-68714204D01*
X50530001Y-68716438D01*
X50526043Y-68716500D01*
X50498144Y-68716500D01*
X50494219Y-68716995D01*
X50494198Y-68716997D01*
X50494124Y-68717007D01*
X50482313Y-68717936D01*
X50438108Y-68719325D01*
X50418651Y-68724978D01*
X50399301Y-68728986D01*
X50379202Y-68731525D01*
X50338093Y-68747802D01*
X50326865Y-68751646D01*
X50284408Y-68763981D01*
X50266964Y-68774297D01*
X50249217Y-68782990D01*
X50230384Y-68790446D01*
X50194611Y-68816437D01*
X50184693Y-68822951D01*
X50146639Y-68845457D01*
X50132312Y-68859783D01*
X50117283Y-68872618D01*
X50100894Y-68884525D01*
X50072701Y-68918604D01*
X50064713Y-68927381D01*
X45944007Y-73048086D01*
X45881695Y-73082112D01*
X45810879Y-73077047D01*
X45803688Y-73074108D01*
X45642252Y-73002232D01*
X45465732Y-72964712D01*
X45285268Y-72964712D01*
X45168201Y-72989595D01*
X45108747Y-73002232D01*
X45099167Y-73006498D01*
X45078708Y-73015606D01*
X45027461Y-73026500D01*
X44963701Y-73026500D01*
X44895580Y-73006498D01*
X44874606Y-72989595D01*
X43088405Y-71203394D01*
X43054379Y-71141082D01*
X43051500Y-71114299D01*
X43051500Y-68132594D01*
X43071502Y-68064473D01*
X43088405Y-68043499D01*
X43151499Y-67980405D01*
X43213811Y-67946379D01*
X43240594Y-67943500D01*
X43426962Y-67943500D01*
X43495083Y-67963502D01*
X43532444Y-68000583D01*
X43584594Y-68080404D01*
X43628278Y-68147268D01*
X43771841Y-68303217D01*
X43803262Y-68366882D01*
X43795275Y-68437428D01*
X43750416Y-68492457D01*
X43723173Y-68506611D01*
X43608036Y-68549554D01*
X43491095Y-68637095D01*
X43403554Y-68754037D01*
X43352505Y-68890906D01*
X43346359Y-68948063D01*
X43346000Y-68954777D01*
X43346000Y-69596000D01*
X44272884Y-69596000D01*
X44244507Y-69640156D01*
X44204000Y-69778111D01*
X44204000Y-69921889D01*
X44244507Y-70059844D01*
X44272884Y-70104000D01*
X43346000Y-70104000D01*
X43346000Y-70745222D01*
X43346359Y-70751936D01*
X43352505Y-70809093D01*
X43403554Y-70945962D01*
X43491095Y-71062904D01*
X43608037Y-71150445D01*
X43744906Y-71201494D01*
X43802063Y-71207640D01*
X43808777Y-71208000D01*
X44450000Y-71208000D01*
X44450000Y-70283674D01*
X44561685Y-70334680D01*
X44668237Y-70350000D01*
X44739763Y-70350000D01*
X44846315Y-70334680D01*
X44958000Y-70283674D01*
X44958000Y-71208000D01*
X45599223Y-71208000D01*
X45605936Y-71207640D01*
X45663093Y-71201494D01*
X45799962Y-71150445D01*
X45916904Y-71062904D01*
X46004445Y-70945962D01*
X46055494Y-70809093D01*
X46061640Y-70751936D01*
X46062000Y-70745222D01*
X46062000Y-70104000D01*
X45135116Y-70104000D01*
X45163493Y-70059844D01*
X45204000Y-69921889D01*
X45204000Y-69778111D01*
X45163493Y-69640156D01*
X45135116Y-69596000D01*
X46062000Y-69596000D01*
X46062000Y-68954777D01*
X46061640Y-68948063D01*
X46055494Y-68890906D01*
X46004445Y-68754037D01*
X45916904Y-68637095D01*
X45799962Y-68549554D01*
X45684827Y-68506611D01*
X45627991Y-68464064D01*
X45603180Y-68397544D01*
X45618271Y-68328170D01*
X45636152Y-68303224D01*
X45779722Y-68147268D01*
X45875555Y-68000583D01*
X45929559Y-67954496D01*
X45981038Y-67943500D01*
X46144147Y-67943500D01*
X46164935Y-67945795D01*
X46167907Y-67945701D01*
X46167909Y-67945702D01*
X46235985Y-67943562D01*
X46239945Y-67943500D01*
X46263894Y-67943500D01*
X46267856Y-67943500D01*
X46271856Y-67942994D01*
X46283699Y-67942061D01*
X46327889Y-67940673D01*
X46347338Y-67935021D01*
X46366698Y-67931012D01*
X46386797Y-67928474D01*
X46427915Y-67912193D01*
X46439117Y-67908357D01*
X46481593Y-67896018D01*
X46499039Y-67885699D01*
X46516780Y-67877009D01*
X46535617Y-67869552D01*
X46571392Y-67843558D01*
X46581303Y-67837048D01*
X46619362Y-67814542D01*
X46633691Y-67800212D01*
X46648719Y-67787377D01*
X46665107Y-67775472D01*
X46693303Y-67741386D01*
X46701272Y-67732630D01*
X46870658Y-67563244D01*
X46886979Y-67550170D01*
X46889014Y-67548002D01*
X46889018Y-67548000D01*
X46935676Y-67498312D01*
X46938368Y-67495534D01*
X46958134Y-67475770D01*
X46960601Y-67472588D01*
X46968308Y-67463562D01*
X46998586Y-67431321D01*
X47008343Y-67413570D01*
X47019199Y-67397043D01*
X47031613Y-67381041D01*
X47049172Y-67340461D01*
X47054392Y-67329809D01*
X47075694Y-67291061D01*
X47075695Y-67291060D01*
X47080732Y-67271439D01*
X47087138Y-67252730D01*
X47095181Y-67234144D01*
X47100448Y-67200885D01*
X47102096Y-67190477D01*
X47104504Y-67178853D01*
X47115500Y-67136029D01*
X47115500Y-67115775D01*
X47117051Y-67096063D01*
X47120220Y-67076057D01*
X47116303Y-67034614D01*
X47116059Y-67032036D01*
X47115500Y-67020179D01*
X47115500Y-63873802D01*
X47135502Y-63805681D01*
X47147864Y-63789491D01*
X47180367Y-63753393D01*
X47270599Y-63597107D01*
X47326365Y-63425475D01*
X47345229Y-63246000D01*
X47326365Y-63066525D01*
X47270599Y-62894893D01*
X47264022Y-62883502D01*
X47180368Y-62738608D01*
X47059612Y-62604495D01*
X46940710Y-62518108D01*
X46913615Y-62498422D01*
X46748752Y-62425020D01*
X46647270Y-62403449D01*
X46584798Y-62369721D01*
X46550476Y-62307572D01*
X46555204Y-62236733D01*
X46563050Y-62219508D01*
X46567695Y-62211060D01*
X46572732Y-62191439D01*
X46579138Y-62172730D01*
X46587181Y-62154144D01*
X46594096Y-62110481D01*
X46596504Y-62098853D01*
X46607500Y-62056029D01*
X46607500Y-62035775D01*
X46609051Y-62016063D01*
X46612220Y-61996057D01*
X46608059Y-61952036D01*
X46607500Y-61940179D01*
X46607500Y-61702639D01*
X46627502Y-61634518D01*
X46681158Y-61588025D01*
X46746970Y-61577361D01*
X46752794Y-61577987D01*
X46752799Y-61577989D01*
X46813362Y-61584500D01*
X46816731Y-61584500D01*
X49702269Y-61584500D01*
X49705638Y-61584500D01*
X49766201Y-61577989D01*
X49903204Y-61526889D01*
X50020261Y-61439261D01*
X50107889Y-61322204D01*
X50158989Y-61185201D01*
X50165500Y-61124638D01*
X50165500Y-60960000D01*
X50419000Y-60960000D01*
X50419000Y-61121222D01*
X50419359Y-61127936D01*
X50425505Y-61185093D01*
X50476554Y-61321962D01*
X50564095Y-61438904D01*
X50681037Y-61526445D01*
X50817906Y-61577494D01*
X50875063Y-61583640D01*
X50881777Y-61584000D01*
X52070500Y-61584000D01*
X52070500Y-60960000D01*
X52578500Y-60960000D01*
X52578500Y-61584000D01*
X53767223Y-61584000D01*
X53773936Y-61583640D01*
X53831093Y-61577494D01*
X53967962Y-61526445D01*
X54084904Y-61438904D01*
X54172445Y-61321962D01*
X54223494Y-61185093D01*
X54229640Y-61127936D01*
X54230000Y-61121222D01*
X54230000Y-60960000D01*
X52578500Y-60960000D01*
X52070500Y-60960000D01*
X50419000Y-60960000D01*
X50165500Y-60960000D01*
X50165500Y-60767500D01*
X50185502Y-60699379D01*
X50239158Y-60652886D01*
X50291500Y-60641500D01*
X50325598Y-60641500D01*
X50329720Y-60641500D01*
X50442236Y-60626687D01*
X50582233Y-60568698D01*
X50700383Y-60478037D01*
X50766603Y-60452437D01*
X50777087Y-60452000D01*
X53553454Y-60452000D01*
X53571713Y-60453330D01*
X53571788Y-60453341D01*
X53571788Y-60453340D01*
X53571789Y-60453341D01*
X53581631Y-60452479D01*
X53592613Y-60452000D01*
X54230000Y-60452000D01*
X54230000Y-60290777D01*
X54229640Y-60284063D01*
X54221803Y-60211172D01*
X54224640Y-60210866D01*
X54221268Y-60163693D01*
X54255290Y-60101389D01*
X54712781Y-59643898D01*
X54726628Y-59631933D01*
X54746058Y-59617469D01*
X54759231Y-59601770D01*
X54778221Y-59579138D01*
X54785660Y-59571020D01*
X54789580Y-59567101D01*
X54809070Y-59542450D01*
X54811234Y-59539794D01*
X54860032Y-59481640D01*
X54860035Y-59481632D01*
X54860892Y-59480612D01*
X54871402Y-59464117D01*
X54893447Y-59416842D01*
X54903992Y-59394226D01*
X54905587Y-59390932D01*
X54946220Y-59310024D01*
X54949152Y-59311496D01*
X54965763Y-59279796D01*
X55054367Y-59181393D01*
X55144599Y-59025107D01*
X55200365Y-58853475D01*
X55219229Y-58674000D01*
X55200365Y-58494525D01*
X55144599Y-58322893D01*
X55128986Y-58295850D01*
X55112248Y-58226855D01*
X55112312Y-58225627D01*
X55118372Y-58121597D01*
X55087582Y-57946979D01*
X55017352Y-57784168D01*
X55010705Y-57775239D01*
X55005431Y-57768154D01*
X54980798Y-57701568D01*
X54980500Y-57692914D01*
X54980500Y-56064441D01*
X54981830Y-56046180D01*
X54985341Y-56022211D01*
X54980979Y-55972353D01*
X54980500Y-55961372D01*
X54980500Y-55959487D01*
X54980500Y-55955820D01*
X54976866Y-55924734D01*
X54976496Y-55921122D01*
X54969887Y-55845574D01*
X54969885Y-55845569D01*
X54969770Y-55844250D01*
X54965534Y-55825138D01*
X54939156Y-55752666D01*
X54937952Y-55749203D01*
X54922373Y-55702188D01*
X54914114Y-55677262D01*
X54914112Y-55677260D01*
X54913692Y-55675990D01*
X54905170Y-55658386D01*
X54888224Y-55632621D01*
X54862756Y-55593900D01*
X54860812Y-55590846D01*
X54820330Y-55525213D01*
X54807964Y-55510034D01*
X54751825Y-55457069D01*
X54749197Y-55454516D01*
X54429909Y-55135228D01*
X54417937Y-55121375D01*
X54403470Y-55101943D01*
X54365127Y-55069769D01*
X54357024Y-55062343D01*
X54355694Y-55061013D01*
X54353101Y-55058420D01*
X54350235Y-55056153D01*
X54350224Y-55056144D01*
X54328530Y-55038991D01*
X54325708Y-55036692D01*
X54267640Y-54987968D01*
X54267639Y-54987967D01*
X54266621Y-54987113D01*
X54250110Y-54976594D01*
X54180205Y-54943996D01*
X54176909Y-54942401D01*
X54110015Y-54908806D01*
X54091059Y-54897079D01*
X53968205Y-54805111D01*
X53899702Y-54779561D01*
X53831201Y-54754011D01*
X53770638Y-54747500D01*
X50878362Y-54747500D01*
X50875013Y-54747859D01*
X50875013Y-54747860D01*
X50817799Y-54754011D01*
X50680794Y-54805111D01*
X50563738Y-54892738D01*
X50476111Y-55009794D01*
X50434494Y-55121375D01*
X50425011Y-55146799D01*
X50418500Y-55207362D01*
X50418499Y-55210711D01*
X50418499Y-55210730D01*
X50418499Y-55564500D01*
X50398497Y-55632621D01*
X50344841Y-55679114D01*
X50292499Y-55690500D01*
X50291500Y-55690500D01*
X50223379Y-55670498D01*
X50176886Y-55616842D01*
X50165500Y-55564500D01*
X50165500Y-55210730D01*
X50165500Y-55210729D01*
X50165500Y-55207362D01*
X50158989Y-55146799D01*
X50107889Y-55009796D01*
X50087798Y-54982957D01*
X50020261Y-54892738D01*
X49903205Y-54805111D01*
X49834702Y-54779561D01*
X49766201Y-54754011D01*
X49705638Y-54747500D01*
X49702269Y-54747500D01*
X46987500Y-54747500D01*
X46919379Y-54727498D01*
X46872886Y-54673842D01*
X46861500Y-54621500D01*
X46861500Y-52288103D01*
X46861500Y-52288102D01*
X46861500Y-52284144D01*
X46846474Y-52165203D01*
X46787552Y-52016383D01*
X46693472Y-51886893D01*
X46649140Y-51850218D01*
X46638236Y-51837451D01*
X46637796Y-51837892D01*
X46472716Y-51672811D01*
X46457600Y-51654539D01*
X46452972Y-51647729D01*
X46451690Y-51646599D01*
X46410841Y-51610585D01*
X46405071Y-51605166D01*
X46396577Y-51596672D01*
X46393770Y-51593865D01*
X46381125Y-51584056D01*
X46375038Y-51579020D01*
X46332910Y-51541878D01*
X46325565Y-51538136D01*
X46305544Y-51525429D01*
X46299045Y-51520388D01*
X46299041Y-51520386D01*
X46247504Y-51498084D01*
X46240354Y-51494719D01*
X46190295Y-51469213D01*
X46182249Y-51467415D01*
X46159694Y-51460086D01*
X46152144Y-51456818D01*
X46096689Y-51448034D01*
X46088919Y-51446552D01*
X46034090Y-51434297D01*
X46025846Y-51434556D01*
X46002198Y-51433068D01*
X45994061Y-51431779D01*
X45938152Y-51437064D01*
X45930255Y-51437561D01*
X45874112Y-51439325D01*
X45873636Y-51439463D01*
X45873521Y-51439497D01*
X45838369Y-51444500D01*
X32134746Y-51444500D01*
X32113956Y-51442204D01*
X32042894Y-51444438D01*
X32038936Y-51444500D01*
X32011037Y-51444500D01*
X32007112Y-51444995D01*
X32007091Y-51444997D01*
X32007017Y-51445007D01*
X31995206Y-51445936D01*
X31951000Y-51447325D01*
X31931543Y-51452978D01*
X31912193Y-51456986D01*
X31892095Y-51459525D01*
X31850986Y-51475802D01*
X31839758Y-51479646D01*
X31797301Y-51491981D01*
X31779857Y-51502297D01*
X31762110Y-51510990D01*
X31743277Y-51518446D01*
X31707504Y-51544437D01*
X31697586Y-51550951D01*
X31659532Y-51573457D01*
X31645205Y-51587783D01*
X31630176Y-51600618D01*
X31613786Y-51612526D01*
X31585598Y-51646599D01*
X31577611Y-51655377D01*
X30607339Y-52625650D01*
X30591013Y-52638730D01*
X30542354Y-52690546D01*
X30539606Y-52693382D01*
X30522660Y-52710329D01*
X30522653Y-52710336D01*
X30519865Y-52713125D01*
X30517452Y-52716234D01*
X30517433Y-52716257D01*
X30517376Y-52716332D01*
X30509684Y-52725337D01*
X30479413Y-52757573D01*
X30469652Y-52775328D01*
X30458801Y-52791847D01*
X30446385Y-52807853D01*
X30428829Y-52848423D01*
X30423610Y-52859077D01*
X30402304Y-52897834D01*
X30397266Y-52917456D01*
X30390865Y-52936151D01*
X30382818Y-52954747D01*
X30375901Y-52998418D01*
X30373495Y-53010038D01*
X30362500Y-53052863D01*
X30362500Y-53073117D01*
X30360949Y-53092827D01*
X30357779Y-53112838D01*
X30361940Y-53156857D01*
X30362499Y-53168713D01*
X30362499Y-58605404D01*
X30342497Y-58673525D01*
X30325594Y-58694499D01*
X29970147Y-59049946D01*
X29907835Y-59083972D01*
X29837020Y-59078907D01*
X29780184Y-59036360D01*
X29755373Y-58969840D01*
X29759555Y-58927466D01*
X29809693Y-58745019D01*
X29839198Y-58489445D01*
X29829344Y-58232362D01*
X29780361Y-57979797D01*
X29693399Y-57737668D01*
X29570496Y-57511652D01*
X29414531Y-57307046D01*
X29229162Y-57128646D01*
X29229158Y-57128643D01*
X29229157Y-57128642D01*
X29018734Y-56980634D01*
X28788173Y-56866475D01*
X28542889Y-56788850D01*
X28288638Y-56749580D01*
X28288636Y-56749580D01*
X28095773Y-56749580D01*
X28093382Y-56749763D01*
X28093370Y-56749764D01*
X27903488Y-56764342D01*
X27903484Y-56764342D01*
X27903483Y-56764343D01*
X27798756Y-56788850D01*
X27652974Y-56822964D01*
X27414360Y-56919135D01*
X27193216Y-57050606D01*
X26994735Y-57214291D01*
X26823562Y-57406362D01*
X26683721Y-57622304D01*
X26578478Y-57857065D01*
X26510307Y-58105137D01*
X26480802Y-58360714D01*
X26490656Y-58617801D01*
X26539638Y-58870360D01*
X26539639Y-58870363D01*
X26544943Y-58885130D01*
X26626103Y-59111107D01*
X26626601Y-59112492D01*
X26749504Y-59338508D01*
X26905469Y-59543114D01*
X27090838Y-59721514D01*
X27090841Y-59721516D01*
X27090842Y-59721517D01*
X27201787Y-59799554D01*
X27301268Y-59869527D01*
X27391840Y-59914372D01*
X27531826Y-59983684D01*
X27777110Y-60061309D01*
X28031362Y-60100580D01*
X28031364Y-60100580D01*
X28221821Y-60100580D01*
X28224227Y-60100580D01*
X28416517Y-60085817D01*
X28662182Y-60028329D01*
X28733065Y-60032284D01*
X28790560Y-60073934D01*
X28816411Y-60140057D01*
X28802409Y-60209659D01*
X28779983Y-60240110D01*
X28313336Y-60706757D01*
X28297016Y-60719833D01*
X28248370Y-60771635D01*
X28245621Y-60774472D01*
X28228667Y-60791427D01*
X28228660Y-60791434D01*
X28225865Y-60794230D01*
X28223442Y-60797352D01*
X28223426Y-60797371D01*
X28223365Y-60797451D01*
X28215689Y-60806436D01*
X28185414Y-60838677D01*
X28175652Y-60856434D01*
X28164801Y-60872952D01*
X28152385Y-60888959D01*
X28134824Y-60929539D01*
X28129604Y-60940195D01*
X28108304Y-60978940D01*
X28103267Y-60998559D01*
X28096864Y-61017261D01*
X28088818Y-61035855D01*
X28081901Y-61079524D01*
X28079495Y-61091144D01*
X28068500Y-61133969D01*
X28068500Y-61154223D01*
X28066949Y-61173933D01*
X28063779Y-61193942D01*
X28067941Y-61237961D01*
X28068500Y-61249819D01*
X28068500Y-79203227D01*
X28066204Y-79224015D01*
X28068438Y-79295064D01*
X28068500Y-79299023D01*
X28068500Y-79326936D01*
X28068995Y-79330854D01*
X28068997Y-79330886D01*
X28069008Y-79330968D01*
X28069937Y-79342777D01*
X28071326Y-79386972D01*
X28076977Y-79406421D01*
X28080986Y-79425776D01*
X28083525Y-79445874D01*
X28083525Y-79445876D01*
X28083526Y-79445877D01*
X28085770Y-79451546D01*
X28099801Y-79486983D01*
X28103644Y-79498210D01*
X28115980Y-79540670D01*
X28126294Y-79558110D01*
X28134987Y-79575854D01*
X28142448Y-79594697D01*
X28142449Y-79594699D01*
X28168431Y-79630460D01*
X28174948Y-79640381D01*
X28197458Y-79678443D01*
X28211778Y-79692763D01*
X28224618Y-79707796D01*
X28236526Y-79724185D01*
X28236527Y-79724186D01*
X28236528Y-79724187D01*
X28246034Y-79732051D01*
X28270598Y-79752372D01*
X28279378Y-79760362D01*
X29411259Y-80892243D01*
X29445285Y-80954555D01*
X29443871Y-81013946D01*
X29431171Y-81061344D01*
X29411597Y-81285080D01*
X29431171Y-81508809D01*
X29489296Y-81725740D01*
X29511582Y-81773531D01*
X29522243Y-81843723D01*
X29493263Y-81908536D01*
X29471448Y-81928717D01*
X29438111Y-81952936D01*
X29428197Y-81959449D01*
X29390136Y-81981958D01*
X29375811Y-81996283D01*
X29360784Y-82009117D01*
X29344394Y-82021025D01*
X29316201Y-82055104D01*
X29308213Y-82063881D01*
X28186336Y-83185757D01*
X28170016Y-83198833D01*
X28121370Y-83250635D01*
X28118621Y-83253472D01*
X28101667Y-83270427D01*
X28101660Y-83270434D01*
X28098865Y-83273230D01*
X28096442Y-83276352D01*
X28096426Y-83276371D01*
X28096365Y-83276451D01*
X28088689Y-83285436D01*
X28058414Y-83317677D01*
X28048652Y-83335434D01*
X28037801Y-83351952D01*
X28025385Y-83367959D01*
X28007824Y-83408539D01*
X28002604Y-83419195D01*
X27981304Y-83457940D01*
X27976267Y-83477559D01*
X27969864Y-83496261D01*
X27961818Y-83514855D01*
X27954901Y-83558524D01*
X27952495Y-83570144D01*
X27941500Y-83612969D01*
X27941500Y-83633223D01*
X27939949Y-83652933D01*
X27936779Y-83672942D01*
X27940941Y-83716961D01*
X27941500Y-83728819D01*
X27941500Y-103421147D01*
X27939204Y-103441935D01*
X27941438Y-103512984D01*
X27941500Y-103516943D01*
X27941500Y-103544856D01*
X27941995Y-103548774D01*
X27941997Y-103548806D01*
X27942008Y-103548888D01*
X27942937Y-103560697D01*
X27944326Y-103604892D01*
X27949977Y-103624341D01*
X27953986Y-103643696D01*
X27956525Y-103663794D01*
X27972801Y-103704903D01*
X27976644Y-103716130D01*
X27988980Y-103758590D01*
X27999294Y-103776030D01*
X28007987Y-103793774D01*
X28015448Y-103812617D01*
X28015449Y-103812619D01*
X28041431Y-103848380D01*
X28047948Y-103858301D01*
X28070458Y-103896363D01*
X28084778Y-103910683D01*
X28097618Y-103925716D01*
X28109526Y-103942105D01*
X28143598Y-103970292D01*
X28152378Y-103978282D01*
X29322754Y-105148659D01*
X29339647Y-105169619D01*
X29339656Y-105169633D01*
X29359668Y-105237751D01*
X29339675Y-105305874D01*
X29286026Y-105352374D01*
X29215754Y-105362488D01*
X29161178Y-105340827D01*
X29018734Y-105240634D01*
X28788173Y-105126475D01*
X28542889Y-105048850D01*
X28288638Y-105009580D01*
X28288636Y-105009580D01*
X28095773Y-105009580D01*
X28093382Y-105009763D01*
X28093370Y-105009764D01*
X27903488Y-105024342D01*
X27903484Y-105024342D01*
X27903483Y-105024343D01*
X27872899Y-105031500D01*
X27652974Y-105082964D01*
X27414360Y-105179135D01*
X27193216Y-105310606D01*
X26994735Y-105474291D01*
X26823562Y-105666362D01*
X26683721Y-105882304D01*
X26578478Y-106117065D01*
X26510307Y-106365137D01*
X26488899Y-106550577D01*
X26480802Y-106620715D01*
X26482486Y-106664639D01*
X26490656Y-106877801D01*
X26539638Y-107130360D01*
X26621806Y-107359143D01*
X26626601Y-107372492D01*
X26749504Y-107598508D01*
X26905469Y-107803114D01*
X27090838Y-107981514D01*
X27090841Y-107981516D01*
X27090842Y-107981517D01*
X27112772Y-107996942D01*
X27301268Y-108129527D01*
X27525097Y-108240352D01*
X27531826Y-108243684D01*
X27777110Y-108321309D01*
X28031362Y-108360580D01*
X28031364Y-108360580D01*
X28221821Y-108360580D01*
X28224227Y-108360580D01*
X28416517Y-108345817D01*
X28667021Y-108287197D01*
X28905641Y-108191024D01*
X29126783Y-108059554D01*
X29325265Y-107895867D01*
X29496435Y-107703800D01*
X29636279Y-107487855D01*
X29741521Y-107253094D01*
X29809693Y-107005019D01*
X29839198Y-106749445D01*
X29829344Y-106492362D01*
X29780361Y-106239797D01*
X29693399Y-105997668D01*
X29570496Y-105771652D01*
X29414531Y-105567046D01*
X29356612Y-105511304D01*
X29321400Y-105449657D01*
X29325107Y-105378757D01*
X29366557Y-105321117D01*
X29432590Y-105295036D01*
X29494023Y-105304882D01*
X29545535Y-105327172D01*
X29556193Y-105332393D01*
X29594940Y-105353695D01*
X29614560Y-105358732D01*
X29633267Y-105365137D01*
X29639880Y-105367998D01*
X29651854Y-105373181D01*
X29662505Y-105374867D01*
X29695530Y-105380098D01*
X29707125Y-105382498D01*
X29749970Y-105393500D01*
X29770224Y-105393500D01*
X29789934Y-105395051D01*
X29809942Y-105398220D01*
X29809942Y-105398219D01*
X29809943Y-105398220D01*
X29853961Y-105394058D01*
X29865819Y-105393500D01*
X32559565Y-105393500D01*
X32627686Y-105413502D01*
X32674179Y-105467158D01*
X32684283Y-105537432D01*
X32672122Y-105564059D01*
X32670714Y-105591505D01*
X33540365Y-106461155D01*
X33398052Y-106550577D01*
X33270577Y-106678052D01*
X33181156Y-106820365D01*
X32310541Y-105949750D01*
X32182796Y-106130724D01*
X32178335Y-106138061D01*
X32055917Y-106374317D01*
X32052495Y-106382193D01*
X31963384Y-106632927D01*
X31961069Y-106641192D01*
X31906928Y-106901731D01*
X31905760Y-106910230D01*
X31887602Y-107175701D01*
X31887602Y-107184298D01*
X31905760Y-107449769D01*
X31906928Y-107458268D01*
X31961069Y-107718807D01*
X31963384Y-107727072D01*
X32052495Y-107977806D01*
X32055917Y-107985682D01*
X32178333Y-108221934D01*
X32182804Y-108229287D01*
X32310540Y-108410248D01*
X32310541Y-108410248D01*
X33181155Y-107539634D01*
X33270577Y-107681948D01*
X33398052Y-107809423D01*
X33540364Y-107898843D01*
X32670715Y-108768492D01*
X32670715Y-108768494D01*
X32735984Y-108821595D01*
X32742995Y-108826543D01*
X32970352Y-108964802D01*
X32977981Y-108968754D01*
X33222039Y-109074764D01*
X33230132Y-109077641D01*
X33486359Y-109149433D01*
X33494777Y-109151182D01*
X33758380Y-109187413D01*
X33766954Y-109188000D01*
X34033046Y-109188000D01*
X34041619Y-109187413D01*
X34305222Y-109151182D01*
X34313640Y-109149433D01*
X34569867Y-109077641D01*
X34577960Y-109074764D01*
X34822018Y-108968754D01*
X34829647Y-108964802D01*
X35057004Y-108826543D01*
X35064016Y-108821594D01*
X35129283Y-108768494D01*
X35129283Y-108768492D01*
X34259634Y-107898843D01*
X34401948Y-107809423D01*
X34529423Y-107681948D01*
X34618844Y-107539634D01*
X35489458Y-108410247D01*
X35617199Y-108229280D01*
X35621666Y-108221934D01*
X35744082Y-107985682D01*
X35747504Y-107977806D01*
X35836615Y-107727072D01*
X35838930Y-107718807D01*
X35893071Y-107458268D01*
X35894239Y-107449769D01*
X35912398Y-107184298D01*
X35912398Y-107175701D01*
X35894239Y-106910230D01*
X35893071Y-106901731D01*
X35843877Y-106665000D01*
X43575000Y-106665000D01*
X44304000Y-106665000D01*
X44304000Y-106011000D01*
X44812000Y-106011000D01*
X44812000Y-106665000D01*
X45540999Y-106665000D01*
X45540999Y-106664639D01*
X45540739Y-106658922D01*
X45534518Y-106590443D01*
X45483366Y-106426293D01*
X45394417Y-106279153D01*
X45272846Y-106157582D01*
X45125706Y-106068633D01*
X44961556Y-106017481D01*
X44893074Y-106011258D01*
X44887363Y-106011000D01*
X44812000Y-106011000D01*
X44304000Y-106011000D01*
X44304000Y-106010999D01*
X44228639Y-106011000D01*
X44222922Y-106011260D01*
X44154443Y-106017481D01*
X43990293Y-106068633D01*
X43843153Y-106157582D01*
X43721582Y-106279153D01*
X43632633Y-106426293D01*
X43581481Y-106590443D01*
X43575258Y-106658925D01*
X43575000Y-106664636D01*
X43575000Y-106665000D01*
X35843877Y-106665000D01*
X35838930Y-106641192D01*
X35836615Y-106632927D01*
X35747504Y-106382193D01*
X35744082Y-106374317D01*
X35621666Y-106138065D01*
X35617199Y-106130719D01*
X35489457Y-105949750D01*
X34618843Y-106820363D01*
X34529423Y-106678052D01*
X34401948Y-106550577D01*
X34259634Y-106461155D01*
X35129283Y-105591505D01*
X35129283Y-105591504D01*
X35110301Y-105576061D01*
X35070083Y-105517555D01*
X35067880Y-105446592D01*
X35104391Y-105385704D01*
X35154663Y-105357327D01*
X35193593Y-105346018D01*
X35211039Y-105335699D01*
X35228780Y-105327009D01*
X35247617Y-105319552D01*
X35283392Y-105293558D01*
X35293303Y-105287048D01*
X35331362Y-105264542D01*
X35345691Y-105250212D01*
X35360719Y-105237377D01*
X35377107Y-105225472D01*
X35405303Y-105191386D01*
X35413272Y-105182630D01*
X37218658Y-103377244D01*
X37234979Y-103364170D01*
X37237014Y-103362002D01*
X37237018Y-103362000D01*
X37283676Y-103312312D01*
X37286368Y-103309534D01*
X37306135Y-103289769D01*
X37308597Y-103286593D01*
X37316318Y-103277551D01*
X37346586Y-103245321D01*
X37356345Y-103227567D01*
X37367198Y-103211045D01*
X37379614Y-103195040D01*
X37397174Y-103154459D01*
X37402389Y-103143814D01*
X37407901Y-103133787D01*
X37458251Y-103083735D01*
X37518310Y-103068500D01*
X37625269Y-103068500D01*
X37628638Y-103068500D01*
X37689201Y-103061989D01*
X37826204Y-103010889D01*
X37943261Y-102923261D01*
X38030889Y-102806204D01*
X38081989Y-102669201D01*
X38088500Y-102608638D01*
X38088500Y-101511362D01*
X38081989Y-101450799D01*
X38081988Y-101450797D01*
X38080297Y-101435063D01*
X38081826Y-101434898D01*
X38078128Y-101383223D01*
X38081840Y-101370581D01*
X38081988Y-101369203D01*
X38081989Y-101369201D01*
X38088500Y-101308638D01*
X38088500Y-100219500D01*
X38108502Y-100151379D01*
X38162158Y-100104886D01*
X38214500Y-100093500D01*
X38465500Y-100093500D01*
X38533621Y-100113502D01*
X38580114Y-100167158D01*
X38591500Y-100219500D01*
X38591500Y-101266262D01*
X38590893Y-101278613D01*
X38586619Y-101322000D01*
X38606090Y-101519699D01*
X38655407Y-101682271D01*
X38663758Y-101709802D01*
X38757404Y-101885004D01*
X38883433Y-102038569D01*
X38917135Y-102066227D01*
X38926298Y-102074532D01*
X39125461Y-102273695D01*
X39133766Y-102282857D01*
X39161431Y-102316568D01*
X39278112Y-102412324D01*
X39303608Y-102433249D01*
X39314996Y-102442595D01*
X39490196Y-102536241D01*
X39585247Y-102565074D01*
X39680298Y-102593908D01*
X39877998Y-102613380D01*
X39877999Y-102613379D01*
X39878000Y-102613380D01*
X39921384Y-102609106D01*
X39933735Y-102608500D01*
X41384455Y-102608500D01*
X42710076Y-102608500D01*
X42778197Y-102628502D01*
X42799171Y-102645405D01*
X42854595Y-102700829D01*
X42888621Y-102763141D01*
X42891500Y-102789924D01*
X42891500Y-103262338D01*
X42891500Y-103262357D01*
X42891501Y-103265544D01*
X42891825Y-103268721D01*
X42891826Y-103268729D01*
X42895991Y-103309500D01*
X42902113Y-103369426D01*
X42957885Y-103537738D01*
X43035639Y-103663797D01*
X43050972Y-103688655D01*
X43176344Y-103814027D01*
X43176346Y-103814028D01*
X43176348Y-103814030D01*
X43327262Y-103907115D01*
X43495574Y-103962887D01*
X43568055Y-103970292D01*
X43596253Y-103973173D01*
X43596255Y-103973173D01*
X43599455Y-103973500D01*
X45400544Y-103973499D01*
X45504426Y-103962887D01*
X45672738Y-103907115D01*
X45823652Y-103814030D01*
X45949030Y-103688652D01*
X46042115Y-103537738D01*
X46097887Y-103369426D01*
X46108500Y-103265545D01*
X46108499Y-102464456D01*
X46098237Y-102364000D01*
X47092000Y-102364000D01*
X47092000Y-103282302D01*
X47092325Y-103288692D01*
X47099657Y-103360457D01*
X47102606Y-103389325D01*
X47158342Y-103557528D01*
X47251367Y-103708343D01*
X47376656Y-103833632D01*
X47527475Y-103926659D01*
X47695668Y-103982393D01*
X47781132Y-103991124D01*
X47788563Y-103993000D01*
X47793070Y-103993000D01*
X47804502Y-103993582D01*
X47810918Y-103993000D01*
X48871000Y-103993000D01*
X48871000Y-102364000D01*
X49379000Y-102364000D01*
X49379000Y-103993000D01*
X50466015Y-103993000D01*
X50466023Y-103992999D01*
X50546000Y-103992999D01*
X50546000Y-102364000D01*
X51054000Y-102364000D01*
X51054000Y-103992999D01*
X51139058Y-103992999D01*
X51139070Y-103993000D01*
X52221000Y-103993000D01*
X52221000Y-102364000D01*
X52729000Y-102364000D01*
X52729000Y-103993000D01*
X53797289Y-103993000D01*
X53803713Y-103992672D01*
X53875457Y-103985342D01*
X53904328Y-103982394D01*
X54072524Y-103926659D01*
X54223343Y-103833632D01*
X54348632Y-103708343D01*
X54441659Y-103557524D01*
X54497393Y-103389330D01*
X54507674Y-103288695D01*
X54508000Y-103282305D01*
X54508000Y-102364000D01*
X52729000Y-102364000D01*
X52221000Y-102364000D01*
X51054000Y-102364000D01*
X50546000Y-102364000D01*
X49379000Y-102364000D01*
X48871000Y-102364000D01*
X47092000Y-102364000D01*
X46098237Y-102364000D01*
X46097887Y-102360574D01*
X46042115Y-102192262D01*
X45949030Y-102041348D01*
X45949028Y-102041346D01*
X45949027Y-102041344D01*
X45823655Y-101915972D01*
X45773448Y-101885004D01*
X45672738Y-101822885D01*
X45504426Y-101767113D01*
X45504423Y-101767112D01*
X45504421Y-101767112D01*
X45403746Y-101756826D01*
X45403725Y-101756824D01*
X45400545Y-101756500D01*
X45397340Y-101756500D01*
X44814924Y-101756500D01*
X44746803Y-101736498D01*
X44725829Y-101719595D01*
X43932532Y-100926298D01*
X43924227Y-100917135D01*
X43896569Y-100883433D01*
X43842428Y-100839000D01*
X47092000Y-100839000D01*
X47092000Y-101856000D01*
X48871000Y-101856000D01*
X48871000Y-100839000D01*
X49379000Y-100839000D01*
X49379000Y-101856000D01*
X50546000Y-101856000D01*
X50546000Y-100839000D01*
X51054000Y-100839000D01*
X51054000Y-101856000D01*
X52221000Y-101856000D01*
X52221000Y-100839000D01*
X52729000Y-100839000D01*
X52729000Y-101856000D01*
X54508000Y-101856000D01*
X54507999Y-100839000D01*
X52729000Y-100839000D01*
X52221000Y-100839000D01*
X51054000Y-100839000D01*
X50546000Y-100839000D01*
X49379000Y-100839000D01*
X48871000Y-100839000D01*
X47092000Y-100839000D01*
X43842428Y-100839000D01*
X43743004Y-100757404D01*
X43623454Y-100693504D01*
X43567804Y-100663759D01*
X43548440Y-100657885D01*
X43439309Y-100624780D01*
X43377699Y-100606090D01*
X43180001Y-100586619D01*
X43139741Y-100590584D01*
X43136612Y-100590893D01*
X43124263Y-100591500D01*
X43106258Y-100591500D01*
X43038137Y-100571498D01*
X42991644Y-100517842D01*
X42981540Y-100447568D01*
X42999015Y-100399356D01*
X43077115Y-100272738D01*
X43132887Y-100104426D01*
X43143500Y-100000545D01*
X43143499Y-99773026D01*
X43163501Y-99704906D01*
X43210106Y-99661902D01*
X43235004Y-99648595D01*
X43388568Y-99522568D01*
X43444554Y-99454347D01*
X43503229Y-99414379D01*
X43554761Y-99408934D01*
X43583450Y-99411864D01*
X43599455Y-99413500D01*
X45400544Y-99413499D01*
X45504426Y-99402887D01*
X45672738Y-99347115D01*
X45726426Y-99314000D01*
X47092000Y-99314000D01*
X47092000Y-100331000D01*
X48871000Y-100331000D01*
X48871000Y-99314000D01*
X49379000Y-99314000D01*
X49379000Y-100331000D01*
X50546000Y-100331000D01*
X50546000Y-99314000D01*
X51054000Y-99314000D01*
X51054000Y-100331000D01*
X52221000Y-100331000D01*
X52221000Y-99314000D01*
X52729000Y-99314000D01*
X52729000Y-100331000D01*
X54507999Y-100331000D01*
X54507999Y-100247989D01*
X54508000Y-100247978D01*
X54508000Y-99314000D01*
X52729000Y-99314000D01*
X52221000Y-99314000D01*
X51054000Y-99314000D01*
X50546000Y-99314000D01*
X49379000Y-99314000D01*
X48871000Y-99314000D01*
X47092000Y-99314000D01*
X45726426Y-99314000D01*
X45823652Y-99254030D01*
X45949030Y-99128652D01*
X46042115Y-98977738D01*
X46097887Y-98809426D01*
X46098237Y-98806000D01*
X47092000Y-98806000D01*
X48871000Y-98806000D01*
X48871000Y-97177000D01*
X49379000Y-97177000D01*
X49379000Y-98806000D01*
X50546000Y-98806000D01*
X50546000Y-97177000D01*
X51054000Y-97177000D01*
X51054000Y-98806000D01*
X52221000Y-98806000D01*
X52221000Y-97177000D01*
X52729000Y-97177000D01*
X52729000Y-98806000D01*
X54508000Y-98806000D01*
X54508000Y-97887697D01*
X54507674Y-97881307D01*
X54498046Y-97787058D01*
X54497780Y-97781836D01*
X54441659Y-97612475D01*
X54348632Y-97461656D01*
X54223343Y-97336367D01*
X54072524Y-97243340D01*
X53904330Y-97187606D01*
X53803695Y-97177325D01*
X53797306Y-97177000D01*
X52729000Y-97177000D01*
X52221000Y-97177000D01*
X51054000Y-97177000D01*
X50546000Y-97177000D01*
X49379000Y-97177000D01*
X48871000Y-97177000D01*
X47802697Y-97177000D01*
X47796307Y-97177325D01*
X47724542Y-97184657D01*
X47695677Y-97187605D01*
X47527471Y-97243342D01*
X47376656Y-97336367D01*
X47251367Y-97461656D01*
X47158340Y-97612475D01*
X47102606Y-97780669D01*
X47092325Y-97881304D01*
X47092000Y-97887694D01*
X47092000Y-98806000D01*
X46098237Y-98806000D01*
X46108500Y-98705545D01*
X46108499Y-97904456D01*
X46097887Y-97800574D01*
X46042115Y-97632262D01*
X45949030Y-97481348D01*
X45949028Y-97481346D01*
X45949027Y-97481344D01*
X45823655Y-97355972D01*
X45819245Y-97353252D01*
X45672738Y-97262885D01*
X45504426Y-97207113D01*
X45504423Y-97207112D01*
X45504421Y-97207112D01*
X45403746Y-97196826D01*
X45403725Y-97196824D01*
X45400545Y-97196500D01*
X45397339Y-97196500D01*
X43602661Y-97196500D01*
X43602641Y-97196500D01*
X43599456Y-97196501D01*
X43596279Y-97196825D01*
X43596270Y-97196826D01*
X43495573Y-97207113D01*
X43327259Y-97262886D01*
X43303176Y-97277741D01*
X43237030Y-97296500D01*
X43078373Y-97296500D01*
X43010252Y-97276498D01*
X42989278Y-97259595D01*
X42848239Y-97118556D01*
X42851060Y-97115734D01*
X42820855Y-97082144D01*
X42809462Y-97012067D01*
X42837764Y-96946955D01*
X42848518Y-96937641D01*
X42847926Y-96937049D01*
X42983632Y-96801342D01*
X43076659Y-96650522D01*
X43132393Y-96482327D01*
X43142674Y-96381692D01*
X43143000Y-96375302D01*
X43143000Y-96332000D01*
X40677000Y-96332000D01*
X40677000Y-96375302D01*
X40677325Y-96381692D01*
X40687606Y-96482327D01*
X40743340Y-96650522D01*
X40836367Y-96801342D01*
X40972074Y-96937049D01*
X40969177Y-96939945D01*
X40999124Y-96973225D01*
X41010542Y-97043298D01*
X40982264Y-97108420D01*
X40971209Y-97118004D01*
X40971761Y-97118556D01*
X40835972Y-97254344D01*
X40821541Y-97277741D01*
X40742885Y-97405262D01*
X40687113Y-97573574D01*
X40687112Y-97573578D01*
X40676826Y-97674253D01*
X40676824Y-97674275D01*
X40676500Y-97677455D01*
X40676500Y-97680660D01*
X40676500Y-97838973D01*
X40656498Y-97907094D01*
X40609897Y-97950095D01*
X40584995Y-97963405D01*
X40423169Y-98096212D01*
X40357822Y-98123965D01*
X40287844Y-98111983D01*
X40254141Y-98087907D01*
X39595405Y-97429171D01*
X39561379Y-97366859D01*
X39558500Y-97340076D01*
X39558500Y-95824000D01*
X40677000Y-95824000D01*
X41656000Y-95824000D01*
X41656000Y-95070000D01*
X42164000Y-95070000D01*
X42164000Y-95824000D01*
X43143000Y-95824000D01*
X43143000Y-95780697D01*
X43142674Y-95774307D01*
X43132393Y-95673672D01*
X43076659Y-95505477D01*
X42983632Y-95354657D01*
X42858342Y-95229367D01*
X42707522Y-95136340D01*
X42539327Y-95080606D01*
X42438692Y-95070325D01*
X42432303Y-95070000D01*
X42164000Y-95070000D01*
X41656000Y-95070000D01*
X41387697Y-95070000D01*
X41381307Y-95070325D01*
X41280672Y-95080606D01*
X41112477Y-95136340D01*
X40961657Y-95229367D01*
X40836367Y-95354657D01*
X40743340Y-95505477D01*
X40687606Y-95673672D01*
X40677325Y-95774307D01*
X40677000Y-95780697D01*
X40677000Y-95824000D01*
X39558500Y-95824000D01*
X39558500Y-94971557D01*
X39578502Y-94903436D01*
X39583633Y-94896047D01*
X39650888Y-94806205D01*
X39650887Y-94806205D01*
X39650889Y-94806204D01*
X39701989Y-94669201D01*
X39708500Y-94608638D01*
X39708500Y-92911362D01*
X39701989Y-92850799D01*
X39650889Y-92713796D01*
X39650888Y-92713794D01*
X39563261Y-92596738D01*
X39446205Y-92509111D01*
X39394720Y-92489908D01*
X39309201Y-92458011D01*
X39309198Y-92458010D01*
X39305923Y-92456789D01*
X39249087Y-92414242D01*
X39224276Y-92347722D01*
X39239367Y-92278348D01*
X39260857Y-92249640D01*
X39406198Y-92104300D01*
X39537523Y-91916749D01*
X39634284Y-91709243D01*
X39693543Y-91488087D01*
X39713498Y-91260000D01*
X39693543Y-91031913D01*
X39634284Y-90810757D01*
X39624041Y-90788791D01*
X39537522Y-90603249D01*
X39432134Y-90452740D01*
X39406198Y-90415700D01*
X39406197Y-90415699D01*
X39406195Y-90415696D01*
X39244303Y-90253804D01*
X39056750Y-90122477D01*
X38849243Y-90025715D01*
X38628087Y-89966457D01*
X38400000Y-89946502D01*
X38171912Y-89966457D01*
X37950756Y-90025715D01*
X37743249Y-90122477D01*
X37555696Y-90253804D01*
X37393804Y-90415696D01*
X37262477Y-90603249D01*
X37165715Y-90810756D01*
X37106457Y-91031912D01*
X37086502Y-91260000D01*
X37106457Y-91488087D01*
X37165715Y-91709243D01*
X37262477Y-91916750D01*
X37393804Y-92104303D01*
X37539139Y-92249638D01*
X37573165Y-92311950D01*
X37568100Y-92382765D01*
X37525553Y-92439601D01*
X37494076Y-92456789D01*
X37490799Y-92458010D01*
X37490799Y-92458011D01*
X37456763Y-92470705D01*
X37353794Y-92509111D01*
X37236739Y-92596737D01*
X37163866Y-92694084D01*
X37107030Y-92736630D01*
X37036214Y-92741694D01*
X36973903Y-92707669D01*
X35052532Y-90786298D01*
X35044227Y-90777135D01*
X35016569Y-90743433D01*
X34863003Y-90617404D01*
X34687805Y-90523759D01*
X34678684Y-90520992D01*
X34666858Y-90517405D01*
X34582279Y-90491747D01*
X34497699Y-90466090D01*
X34362150Y-90452740D01*
X34296318Y-90426158D01*
X34255308Y-90368203D01*
X34248500Y-90327347D01*
X34248500Y-89742234D01*
X34268502Y-89674113D01*
X34271287Y-89669963D01*
X34355790Y-89549282D01*
X34450703Y-89345740D01*
X34508829Y-89128809D01*
X34528403Y-88905080D01*
X34508829Y-88681351D01*
X34464926Y-88517500D01*
X34450703Y-88464419D01*
X34400496Y-88356750D01*
X34389835Y-88286558D01*
X34418815Y-88221745D01*
X34478235Y-88182889D01*
X34514691Y-88177500D01*
X35007114Y-88177500D01*
X35075235Y-88197502D01*
X35110052Y-88230838D01*
X35254859Y-88435984D01*
X35254864Y-88435990D01*
X35257343Y-88439502D01*
X35444889Y-88640314D01*
X35658031Y-88813718D01*
X35892800Y-88956484D01*
X36144823Y-89065953D01*
X36409404Y-89140085D01*
X36681615Y-89177500D01*
X36685920Y-89177500D01*
X36952080Y-89177500D01*
X36956385Y-89177500D01*
X37228596Y-89140085D01*
X37493177Y-89065953D01*
X37745200Y-88956484D01*
X37979969Y-88813718D01*
X38193111Y-88640314D01*
X38380657Y-88439502D01*
X38539111Y-88215023D01*
X38665523Y-87971058D01*
X38757538Y-87712153D01*
X38813442Y-87443130D01*
X38832193Y-87169000D01*
X38813442Y-86894870D01*
X38757538Y-86625847D01*
X38665523Y-86366942D01*
X38539111Y-86122977D01*
X38380657Y-85898498D01*
X38193111Y-85697686D01*
X38094693Y-85617617D01*
X37983304Y-85526995D01*
X37983301Y-85526993D01*
X37979969Y-85524282D01*
X37745200Y-85381516D01*
X37741259Y-85379804D01*
X37741253Y-85379801D01*
X37497112Y-85273756D01*
X37497109Y-85273755D01*
X37493177Y-85272047D01*
X37489052Y-85270891D01*
X37489043Y-85270888D01*
X37232742Y-85199076D01*
X37232732Y-85199074D01*
X37228596Y-85197915D01*
X37224335Y-85197329D01*
X37224324Y-85197327D01*
X36960653Y-85161086D01*
X36960643Y-85161085D01*
X36956385Y-85160500D01*
X36681615Y-85160500D01*
X36677357Y-85161085D01*
X36677346Y-85161086D01*
X36413675Y-85197327D01*
X36413661Y-85197329D01*
X36409404Y-85197915D01*
X36405269Y-85199073D01*
X36405257Y-85199076D01*
X36148956Y-85270888D01*
X36148942Y-85270892D01*
X36144823Y-85272047D01*
X36140895Y-85273753D01*
X36140887Y-85273756D01*
X35896746Y-85379801D01*
X35896733Y-85379807D01*
X35892800Y-85381516D01*
X35889129Y-85383748D01*
X35889122Y-85383752D01*
X35661704Y-85522048D01*
X35661699Y-85522050D01*
X35658031Y-85524282D01*
X35654704Y-85526988D01*
X35654695Y-85526995D01*
X35448225Y-85694971D01*
X35448217Y-85694978D01*
X35444889Y-85697686D01*
X35441957Y-85700824D01*
X35441952Y-85700830D01*
X35260282Y-85895350D01*
X35260274Y-85895358D01*
X35257343Y-85898498D01*
X35254869Y-85902001D01*
X35254859Y-85902015D01*
X35110052Y-86107162D01*
X35054427Y-86151280D01*
X35007114Y-86160500D01*
X34610643Y-86160500D01*
X34542522Y-86140498D01*
X34496029Y-86086842D01*
X34488936Y-86067110D01*
X34467912Y-85988648D01*
X34450703Y-85924420D01*
X34355790Y-85720879D01*
X34271287Y-85600196D01*
X34248599Y-85532922D01*
X34248500Y-85527925D01*
X34248500Y-84662234D01*
X34268502Y-84594113D01*
X34271287Y-84589963D01*
X34293837Y-84557759D01*
X34355790Y-84469282D01*
X34450703Y-84265740D01*
X34508829Y-84048809D01*
X34528403Y-83825080D01*
X34512102Y-83638765D01*
X34526091Y-83569162D01*
X34575491Y-83518169D01*
X34644617Y-83501979D01*
X34711522Y-83525732D01*
X34726718Y-83538690D01*
X34834842Y-83646814D01*
X34834844Y-83646815D01*
X34834845Y-83646816D01*
X34982087Y-83735827D01*
X35146351Y-83787013D01*
X35217735Y-83793500D01*
X35882264Y-83793499D01*
X35953649Y-83787013D01*
X36101925Y-83740808D01*
X36165602Y-83737857D01*
X36309768Y-83768500D01*
X36309770Y-83768500D01*
X36490230Y-83768500D01*
X36490232Y-83768500D01*
X36666752Y-83730980D01*
X36831615Y-83657578D01*
X36977613Y-83551504D01*
X37098367Y-83417393D01*
X37188599Y-83261107D01*
X37244365Y-83089475D01*
X37263229Y-82910000D01*
X37244365Y-82730525D01*
X37188599Y-82558893D01*
X37152162Y-82495783D01*
X37098368Y-82402608D01*
X36977612Y-82268495D01*
X36862537Y-82184888D01*
X36831615Y-82162422D01*
X36666752Y-82089020D01*
X36490232Y-82051500D01*
X36477402Y-82048773D01*
X36414929Y-82015045D01*
X36380607Y-81952895D01*
X36385335Y-81882056D01*
X36395771Y-81860341D01*
X36405817Y-81843723D01*
X36475827Y-81727913D01*
X36527013Y-81563649D01*
X36533500Y-81492265D01*
X36533499Y-80977736D01*
X36527013Y-80906351D01*
X36475827Y-80742087D01*
X36386816Y-80594845D01*
X36386815Y-80594844D01*
X36386814Y-80594842D01*
X36265157Y-80473185D01*
X36227322Y-80450313D01*
X36117913Y-80384173D01*
X36056326Y-80364982D01*
X35953648Y-80332986D01*
X35885114Y-80326758D01*
X35885094Y-80326757D01*
X35882265Y-80326500D01*
X35879403Y-80326500D01*
X35220599Y-80326500D01*
X35220577Y-80326500D01*
X35217736Y-80326501D01*
X35214887Y-80326759D01*
X35214883Y-80326760D01*
X35146352Y-80332986D01*
X34982087Y-80384173D01*
X34834842Y-80473185D01*
X34702366Y-80605662D01*
X34700940Y-80604236D01*
X34663287Y-80638715D01*
X34607822Y-80651580D01*
X34428874Y-80651580D01*
X34360753Y-80631578D01*
X34325661Y-80597851D01*
X34323556Y-80594845D01*
X34226974Y-80456911D01*
X34226973Y-80456910D01*
X34226971Y-80456907D01*
X34068172Y-80298108D01*
X33884202Y-80169290D01*
X33818172Y-80138500D01*
X33798388Y-80129274D01*
X33745104Y-80082358D01*
X33725643Y-80014081D01*
X33746185Y-79946121D01*
X33798389Y-79900885D01*
X33884202Y-79860870D01*
X34068169Y-79732054D01*
X34226974Y-79573249D01*
X34355790Y-79389282D01*
X34450703Y-79185740D01*
X34508829Y-78968809D01*
X34528403Y-78745080D01*
X34508829Y-78521351D01*
X34466277Y-78362545D01*
X34450703Y-78304419D01*
X34380561Y-78154000D01*
X34355790Y-78100879D01*
X34226974Y-77916911D01*
X34226973Y-77916910D01*
X34226971Y-77916907D01*
X34068172Y-77758108D01*
X33884202Y-77629290D01*
X33798389Y-77589275D01*
X33745104Y-77542358D01*
X33725643Y-77474081D01*
X33746185Y-77406121D01*
X33798389Y-77360885D01*
X33884202Y-77320870D01*
X34068169Y-77192054D01*
X34226974Y-77033249D01*
X34325661Y-76892309D01*
X34381119Y-76847981D01*
X34428875Y-76838580D01*
X34996485Y-76838580D01*
X35064606Y-76858582D01*
X35085581Y-76875485D01*
X35243757Y-77033662D01*
X35256834Y-77049984D01*
X35258999Y-77052017D01*
X35259000Y-77052018D01*
X35299979Y-77090500D01*
X35308651Y-77098643D01*
X35311493Y-77101398D01*
X35331230Y-77121135D01*
X35334360Y-77123563D01*
X35334432Y-77123619D01*
X35343442Y-77131314D01*
X35375679Y-77161586D01*
X35393426Y-77171342D01*
X35409950Y-77182196D01*
X35425959Y-77194614D01*
X35465719Y-77211818D01*
X35520293Y-77257228D01*
X35541654Y-77324935D01*
X35535513Y-77366391D01*
X35507657Y-77452125D01*
X35477635Y-77544525D01*
X35458771Y-77724000D01*
X35477635Y-77903475D01*
X35477636Y-77903478D01*
X35533400Y-78075106D01*
X35623631Y-78231391D01*
X35666221Y-78278692D01*
X35744387Y-78365504D01*
X35890385Y-78471578D01*
X36055248Y-78544980D01*
X36231768Y-78582500D01*
X36232404Y-78582500D01*
X36234066Y-78582988D01*
X36244722Y-78585253D01*
X36244549Y-78586066D01*
X36300525Y-78602502D01*
X36321498Y-78619403D01*
X36354978Y-78652882D01*
X36386179Y-78704494D01*
X36412173Y-78787913D01*
X36478313Y-78897322D01*
X36501185Y-78935157D01*
X36622842Y-79056814D01*
X36622844Y-79056815D01*
X36622845Y-79056816D01*
X36770087Y-79145827D01*
X36934351Y-79197013D01*
X37005735Y-79203500D01*
X37670264Y-79203499D01*
X37741649Y-79197013D01*
X37905913Y-79145827D01*
X38053155Y-79056816D01*
X38174816Y-78935155D01*
X38263827Y-78787913D01*
X38315013Y-78623649D01*
X38321500Y-78552265D01*
X38321499Y-78154000D01*
X38927200Y-78154000D01*
X38927200Y-78272302D01*
X38927525Y-78278692D01*
X38937806Y-78379327D01*
X38993540Y-78547522D01*
X39086567Y-78698342D01*
X39211857Y-78823632D01*
X39362677Y-78916659D01*
X39530872Y-78972393D01*
X39631507Y-78982674D01*
X39637897Y-78983000D01*
X40081200Y-78983000D01*
X40081200Y-78154000D01*
X38927200Y-78154000D01*
X38321499Y-78154000D01*
X38321499Y-78037736D01*
X38315013Y-77966351D01*
X38263827Y-77802087D01*
X38174816Y-77654845D01*
X38141659Y-77621688D01*
X38079066Y-77559094D01*
X38045041Y-77496782D01*
X38050107Y-77425966D01*
X38079065Y-77380905D01*
X38174816Y-77285155D01*
X38191933Y-77256838D01*
X38235624Y-77213569D01*
X38237362Y-77212542D01*
X38251691Y-77198212D01*
X38266719Y-77185377D01*
X38283107Y-77173472D01*
X38311303Y-77139386D01*
X38319272Y-77130630D01*
X38673372Y-76776530D01*
X38735682Y-76742506D01*
X38806497Y-76747571D01*
X38851560Y-76776532D01*
X38857842Y-76782814D01*
X38857844Y-76782815D01*
X38857845Y-76782816D01*
X39005087Y-76871827D01*
X39043444Y-76883779D01*
X39102530Y-76923141D01*
X39130956Y-76988198D01*
X39119696Y-77058296D01*
X39095058Y-77093167D01*
X39086566Y-77101658D01*
X38993540Y-77252477D01*
X38937806Y-77420672D01*
X38927525Y-77521307D01*
X38927200Y-77527697D01*
X38927200Y-77646000D01*
X40463200Y-77646000D01*
X40531321Y-77666002D01*
X40577814Y-77719658D01*
X40589200Y-77772000D01*
X40589200Y-78983000D01*
X41032503Y-78983000D01*
X41038892Y-78982674D01*
X41139527Y-78972393D01*
X41307725Y-78916658D01*
X41404333Y-78857069D01*
X41472812Y-78838331D01*
X41540551Y-78859590D01*
X41586043Y-78914097D01*
X41594844Y-78984546D01*
X41590085Y-79003941D01*
X41571256Y-79060763D01*
X41561325Y-79157971D01*
X41561000Y-79164361D01*
X41561000Y-79181000D01*
X42682905Y-79181000D01*
X42751026Y-79201002D01*
X42771999Y-79217904D01*
X42790230Y-79236135D01*
X42793360Y-79238563D01*
X42793432Y-79238619D01*
X42802442Y-79246314D01*
X42834679Y-79276586D01*
X42852426Y-79286342D01*
X42868950Y-79297196D01*
X42884959Y-79309614D01*
X42925542Y-79327175D01*
X42936193Y-79332393D01*
X42974940Y-79353695D01*
X42994560Y-79358732D01*
X43013267Y-79365137D01*
X43021182Y-79368562D01*
X43041797Y-79377484D01*
X43096370Y-79422897D01*
X43117727Y-79490605D01*
X43099088Y-79559111D01*
X43046371Y-79606665D01*
X43031399Y-79611010D01*
X43031719Y-79611887D01*
X42946634Y-79642853D01*
X42943176Y-79644055D01*
X42870000Y-79668303D01*
X42849668Y-79678147D01*
X42840731Y-79681400D01*
X42797634Y-79689000D01*
X41898265Y-79689000D01*
X41872069Y-79686247D01*
X41797066Y-79670305D01*
X41746232Y-79659500D01*
X41565768Y-79659500D01*
X41448087Y-79684513D01*
X41389247Y-79697020D01*
X41224174Y-79770516D01*
X41153807Y-79779950D01*
X41143774Y-79777536D01*
X41038946Y-79766826D01*
X41038925Y-79766824D01*
X41035745Y-79766500D01*
X41032539Y-79766500D01*
X39637861Y-79766500D01*
X39637841Y-79766500D01*
X39634656Y-79766501D01*
X39631479Y-79766825D01*
X39631470Y-79766826D01*
X39530773Y-79777113D01*
X39362462Y-79832885D01*
X39211544Y-79925972D01*
X39086172Y-80051344D01*
X39038104Y-80129275D01*
X38993085Y-80202262D01*
X38949768Y-80332987D01*
X38937312Y-80370578D01*
X38927026Y-80471253D01*
X38927024Y-80471275D01*
X38926700Y-80474455D01*
X38926700Y-80477659D01*
X38926700Y-80477660D01*
X38926700Y-81222338D01*
X38926700Y-81222357D01*
X38926701Y-81225544D01*
X38937313Y-81329426D01*
X38993085Y-81497738D01*
X39044693Y-81581407D01*
X39086172Y-81648655D01*
X39211544Y-81774027D01*
X39211546Y-81774028D01*
X39211548Y-81774030D01*
X39362462Y-81867115D01*
X39530774Y-81922887D01*
X39598393Y-81929795D01*
X39664128Y-81956618D01*
X39704927Y-82014721D01*
X39708527Y-82047025D01*
X39710387Y-82046830D01*
X39711771Y-82059998D01*
X39711771Y-82060000D01*
X39730635Y-82239475D01*
X39730636Y-82239478D01*
X39786400Y-82411106D01*
X39876631Y-82567391D01*
X39926124Y-82622358D01*
X39997387Y-82701504D01*
X40053325Y-82742145D01*
X40096679Y-82798367D01*
X40102755Y-82869103D01*
X40069623Y-82931895D01*
X40053327Y-82946016D01*
X40022387Y-82968495D01*
X39901631Y-83102608D01*
X39811400Y-83258893D01*
X39755636Y-83430521D01*
X39755635Y-83430525D01*
X39736771Y-83610000D01*
X39755635Y-83789475D01*
X39755636Y-83789478D01*
X39811400Y-83961106D01*
X39901631Y-84117391D01*
X39901633Y-84117393D01*
X40022387Y-84251504D01*
X40168385Y-84357578D01*
X40333248Y-84430980D01*
X40433587Y-84452307D01*
X40496059Y-84486034D01*
X40526992Y-84535918D01*
X40530698Y-84547101D01*
X40620715Y-84693040D01*
X40620717Y-84693043D01*
X40741956Y-84814282D01*
X40741958Y-84814283D01*
X40741960Y-84814285D01*
X40887899Y-84904302D01*
X41050664Y-84958236D01*
X41123725Y-84965700D01*
X41147926Y-84968173D01*
X41147928Y-84968173D01*
X41151128Y-84968500D01*
X41154333Y-84968500D01*
X41745667Y-84968500D01*
X41748872Y-84968500D01*
X41849336Y-84958236D01*
X41901759Y-84940864D01*
X41972712Y-84938424D01*
X42033722Y-84974731D01*
X42065418Y-85038260D01*
X42057736Y-85108840D01*
X42049220Y-85125652D01*
X42024174Y-85167084D01*
X42024173Y-85167086D01*
X42024173Y-85167087D01*
X42021041Y-85177135D01*
X41972986Y-85331351D01*
X41966758Y-85399885D01*
X41966757Y-85399906D01*
X41966500Y-85402735D01*
X41966500Y-85405595D01*
X41966500Y-85405596D01*
X41966500Y-85914400D01*
X41966500Y-85914421D01*
X41966501Y-85917264D01*
X41966759Y-85920113D01*
X41966760Y-85920116D01*
X41972986Y-85988647D01*
X41982227Y-86018302D01*
X42024173Y-86152913D01*
X42028760Y-86160500D01*
X42113185Y-86300157D01*
X42234843Y-86421815D01*
X42255683Y-86434413D01*
X42303632Y-86486771D01*
X42316500Y-86542242D01*
X42316500Y-86776147D01*
X42314204Y-86796935D01*
X42316438Y-86867984D01*
X42316500Y-86871943D01*
X42316500Y-86899856D01*
X42316995Y-86903774D01*
X42316997Y-86903806D01*
X42317008Y-86903888D01*
X42317937Y-86915697D01*
X42319326Y-86959892D01*
X42324977Y-86979341D01*
X42328986Y-86998696D01*
X42331525Y-87018794D01*
X42331525Y-87018796D01*
X42331526Y-87018797D01*
X42338522Y-87036468D01*
X42347801Y-87059903D01*
X42351644Y-87071130D01*
X42363980Y-87113590D01*
X42374294Y-87131030D01*
X42382987Y-87148774D01*
X42390448Y-87167617D01*
X42390449Y-87167619D01*
X42416431Y-87203380D01*
X42422948Y-87213301D01*
X42445458Y-87251363D01*
X42459778Y-87265683D01*
X42472618Y-87280716D01*
X42484526Y-87297105D01*
X42518598Y-87325292D01*
X42527378Y-87333282D01*
X43854595Y-88660499D01*
X43888621Y-88722811D01*
X43891500Y-88749593D01*
X43891500Y-89208638D01*
X43892652Y-89219358D01*
X43898011Y-89269200D01*
X43949111Y-89406205D01*
X44036738Y-89523261D01*
X44153794Y-89610888D01*
X44153795Y-89610888D01*
X44153796Y-89610889D01*
X44268808Y-89653786D01*
X44325642Y-89696331D01*
X44350453Y-89762852D01*
X44335362Y-89832226D01*
X44317475Y-89857178D01*
X44174281Y-90012728D01*
X44051139Y-90201209D01*
X43960702Y-90407388D01*
X43907519Y-90617405D01*
X43905436Y-90625632D01*
X43886844Y-90850000D01*
X43905436Y-91074368D01*
X43905436Y-91074371D01*
X43905437Y-91074372D01*
X43960702Y-91292611D01*
X44051139Y-91498790D01*
X44174278Y-91687268D01*
X44326762Y-91852908D01*
X44504421Y-91991187D01*
X44504424Y-91991189D01*
X44702426Y-92098342D01*
X44915365Y-92171444D01*
X45137431Y-92208500D01*
X45137434Y-92208500D01*
X45362566Y-92208500D01*
X45362569Y-92208500D01*
X45584635Y-92171444D01*
X45797574Y-92098342D01*
X45995576Y-91991189D01*
X46173240Y-91852906D01*
X46325722Y-91687268D01*
X46448860Y-91498791D01*
X46539296Y-91292616D01*
X46594564Y-91074368D01*
X46613156Y-90850000D01*
X46594564Y-90625632D01*
X46539296Y-90407384D01*
X46448860Y-90201209D01*
X46325722Y-90012732D01*
X46182524Y-89857179D01*
X46151103Y-89793514D01*
X46159090Y-89722968D01*
X46203949Y-89667939D01*
X46231183Y-89653789D01*
X46346204Y-89610889D01*
X46463261Y-89523261D01*
X46550889Y-89406204D01*
X46601989Y-89269201D01*
X46608500Y-89208638D01*
X46608500Y-88408594D01*
X46628502Y-88340473D01*
X46682158Y-88293980D01*
X46752432Y-88283876D01*
X46817012Y-88313370D01*
X46823595Y-88319499D01*
X47340730Y-88836634D01*
X47374756Y-88898946D01*
X47369691Y-88969761D01*
X47360755Y-88988728D01*
X47321399Y-89056894D01*
X47267675Y-89222245D01*
X47265635Y-89228525D01*
X47246771Y-89408000D01*
X47265635Y-89587475D01*
X47265636Y-89587478D01*
X47321400Y-89759106D01*
X47411631Y-89915391D01*
X47457611Y-89966457D01*
X47532387Y-90049504D01*
X47678385Y-90155578D01*
X47843248Y-90228980D01*
X48019768Y-90266500D01*
X48019770Y-90266500D01*
X48200230Y-90266500D01*
X48200232Y-90266500D01*
X48376752Y-90228980D01*
X48541615Y-90155578D01*
X48687613Y-90049504D01*
X48808367Y-89915393D01*
X48898599Y-89759107D01*
X48954365Y-89587475D01*
X48962057Y-89514286D01*
X48989069Y-89448633D01*
X49047290Y-89408003D01*
X49118235Y-89405300D01*
X49176461Y-89438365D01*
X54031751Y-94293655D01*
X54044835Y-94309985D01*
X54096666Y-94358657D01*
X54099509Y-94361413D01*
X54119230Y-94381134D01*
X54122351Y-94383555D01*
X54122359Y-94383562D01*
X54122425Y-94383613D01*
X54131445Y-94391317D01*
X54163679Y-94421586D01*
X54181435Y-94431347D01*
X54197951Y-94442196D01*
X54213959Y-94454613D01*
X54254525Y-94472167D01*
X54265188Y-94477391D01*
X54303935Y-94498693D01*
X54303937Y-94498693D01*
X54303940Y-94498695D01*
X54323574Y-94503736D01*
X54342259Y-94510134D01*
X54360855Y-94518181D01*
X54404530Y-94525098D01*
X54416125Y-94527498D01*
X54458970Y-94538500D01*
X54479224Y-94538500D01*
X54498934Y-94540051D01*
X54518942Y-94543220D01*
X54518942Y-94543219D01*
X54518943Y-94543220D01*
X54562961Y-94539058D01*
X54574819Y-94538500D01*
X55023177Y-94538500D01*
X55091298Y-94558502D01*
X55137791Y-94612158D01*
X55147895Y-94682432D01*
X55138564Y-94715114D01*
X55111180Y-94777542D01*
X55055931Y-94995716D01*
X55037346Y-95219999D01*
X55055931Y-95444283D01*
X55111180Y-95662456D01*
X55201580Y-95868548D01*
X55276922Y-95983866D01*
X55276923Y-95983866D01*
X55915638Y-95345150D01*
X55940507Y-95429844D01*
X56018239Y-95550798D01*
X56126900Y-95644952D01*
X56257685Y-95704680D01*
X56272412Y-95706797D01*
X55634310Y-96344899D01*
X55654697Y-96360767D01*
X55688206Y-96378901D01*
X55738597Y-96428914D01*
X55753949Y-96498231D01*
X55729388Y-96564844D01*
X55688207Y-96600528D01*
X55654423Y-96618811D01*
X55476762Y-96757091D01*
X55324278Y-96922731D01*
X55201139Y-97111209D01*
X55110702Y-97317388D01*
X55055437Y-97535627D01*
X55055436Y-97535632D01*
X55036844Y-97760000D01*
X55055436Y-97984368D01*
X55055436Y-97984371D01*
X55055437Y-97984372D01*
X55110702Y-98202611D01*
X55201139Y-98408790D01*
X55229043Y-98451500D01*
X55324278Y-98597268D01*
X55349272Y-98624419D01*
X55476762Y-98762908D01*
X55654421Y-98901187D01*
X55654424Y-98901189D01*
X55852426Y-99008342D01*
X56065365Y-99081444D01*
X56287431Y-99118500D01*
X56287434Y-99118500D01*
X56512566Y-99118500D01*
X56512569Y-99118500D01*
X56734635Y-99081444D01*
X56947574Y-99008342D01*
X57145576Y-98901189D01*
X57323240Y-98762906D01*
X57475722Y-98597268D01*
X57564518Y-98461354D01*
X57618521Y-98415268D01*
X57688869Y-98405693D01*
X57753226Y-98435670D01*
X57775480Y-98461353D01*
X57864278Y-98597268D01*
X57889272Y-98624419D01*
X58016762Y-98762908D01*
X58194421Y-98901187D01*
X58194424Y-98901189D01*
X58392426Y-99008342D01*
X58605365Y-99081444D01*
X58827431Y-99118500D01*
X58827434Y-99118500D01*
X59052566Y-99118500D01*
X59052569Y-99118500D01*
X59274635Y-99081444D01*
X59487574Y-99008342D01*
X59685576Y-98901189D01*
X59863240Y-98762906D01*
X60015722Y-98597268D01*
X60138860Y-98408791D01*
X60229296Y-98202616D01*
X60284564Y-97984368D01*
X60303156Y-97760000D01*
X60284564Y-97535632D01*
X60229296Y-97317384D01*
X60138860Y-97111209D01*
X60015722Y-96922732D01*
X59863240Y-96757094D01*
X59863239Y-96757093D01*
X59863237Y-96757091D01*
X59726318Y-96650522D01*
X59685576Y-96618811D01*
X59651792Y-96600528D01*
X59601402Y-96550516D01*
X59586050Y-96481199D01*
X59610611Y-96414586D01*
X59651793Y-96378901D01*
X59685303Y-96360765D01*
X59705688Y-96344899D01*
X59705689Y-96344898D01*
X59067588Y-95706797D01*
X59082315Y-95704680D01*
X59213100Y-95644952D01*
X59321761Y-95550798D01*
X59399493Y-95429844D01*
X59424360Y-95345152D01*
X60063076Y-95983867D01*
X60063077Y-95983866D01*
X60138418Y-95868551D01*
X60228819Y-95662457D01*
X60284068Y-95444283D01*
X60302653Y-95219999D01*
X60284068Y-94995716D01*
X60228819Y-94777543D01*
X60138417Y-94571446D01*
X60063076Y-94456132D01*
X59424360Y-95094847D01*
X59399493Y-95010156D01*
X59321761Y-94889202D01*
X59213100Y-94795048D01*
X59082315Y-94735320D01*
X59067586Y-94733202D01*
X59705689Y-94095100D01*
X59705688Y-94095099D01*
X59685300Y-94079230D01*
X59651792Y-94061097D01*
X59601402Y-94011084D01*
X59586050Y-93941767D01*
X59610611Y-93875154D01*
X59651790Y-93839472D01*
X59685576Y-93821189D01*
X59863240Y-93682906D01*
X60015722Y-93517268D01*
X60111555Y-93370583D01*
X60165559Y-93324496D01*
X60217038Y-93313500D01*
X69588853Y-93313500D01*
X69609641Y-93315795D01*
X69612613Y-93315701D01*
X69612615Y-93315702D01*
X69680691Y-93313562D01*
X69684651Y-93313500D01*
X69708600Y-93313500D01*
X69712562Y-93313500D01*
X69716562Y-93312994D01*
X69728405Y-93312061D01*
X69772595Y-93310673D01*
X69792044Y-93305021D01*
X69811404Y-93301012D01*
X69831503Y-93298474D01*
X69872621Y-93282193D01*
X69883823Y-93278357D01*
X69926299Y-93266018D01*
X69943745Y-93255699D01*
X69961486Y-93247009D01*
X69980323Y-93239552D01*
X70016098Y-93213558D01*
X70026009Y-93207048D01*
X70064068Y-93184542D01*
X70078397Y-93170212D01*
X70093425Y-93157377D01*
X70109813Y-93145472D01*
X70138009Y-93111386D01*
X70145978Y-93102630D01*
X74694204Y-88554405D01*
X74756517Y-88520379D01*
X74783300Y-88517500D01*
X76074000Y-88517500D01*
X76142121Y-88537502D01*
X76188614Y-88591158D01*
X76200000Y-88643500D01*
X76200000Y-116287809D01*
X76179998Y-116355930D01*
X76163096Y-116376904D01*
X75762403Y-116777596D01*
X75700093Y-116811620D01*
X75673310Y-116814500D01*
X27943806Y-116814500D01*
X27936198Y-116814270D01*
X27644518Y-116796626D01*
X27629414Y-116794792D01*
X27345739Y-116742807D01*
X27330969Y-116739167D01*
X27055618Y-116653364D01*
X27041392Y-116647968D01*
X26778407Y-116529608D01*
X26764935Y-116522538D01*
X26690324Y-116477434D01*
X26518119Y-116373333D01*
X26505605Y-116364695D01*
X26278572Y-116186826D01*
X26267184Y-116176736D01*
X26063263Y-115972815D01*
X26053173Y-115961427D01*
X25916455Y-115786920D01*
X25875301Y-115734391D01*
X25866668Y-115721884D01*
X25717459Y-115475060D01*
X25710391Y-115461592D01*
X25592031Y-115198607D01*
X25586638Y-115184390D01*
X25500829Y-114909018D01*
X25497194Y-114894272D01*
X25445205Y-114610573D01*
X25443374Y-114595493D01*
X25425730Y-114303802D01*
X25425500Y-114296194D01*
X25425500Y-112260000D01*
X31886807Y-112260000D01*
X31887101Y-112264298D01*
X31903793Y-112508336D01*
X31905558Y-112534130D01*
X31906431Y-112538331D01*
X31906432Y-112538338D01*
X31922507Y-112615692D01*
X31961462Y-112803153D01*
X31962899Y-112807196D01*
X31962902Y-112807207D01*
X32052037Y-113058008D01*
X32052040Y-113058015D01*
X32053477Y-113062058D01*
X32055451Y-113065869D01*
X32055453Y-113065872D01*
X32177906Y-113302197D01*
X32177909Y-113302202D01*
X32179889Y-113306023D01*
X32338343Y-113530502D01*
X32525889Y-113731314D01*
X32739031Y-113904718D01*
X32973800Y-114047484D01*
X33225823Y-114156953D01*
X33490404Y-114231085D01*
X33762615Y-114268500D01*
X33766920Y-114268500D01*
X34033080Y-114268500D01*
X34037385Y-114268500D01*
X34309596Y-114231085D01*
X34574177Y-114156953D01*
X34826200Y-114047484D01*
X35060969Y-113904718D01*
X35274111Y-113731314D01*
X35461657Y-113530502D01*
X35620111Y-113306023D01*
X35746523Y-113062058D01*
X35838538Y-112803153D01*
X35894442Y-112534130D01*
X35906933Y-112351523D01*
X43574500Y-112351523D01*
X43574501Y-112354710D01*
X43574825Y-112357889D01*
X43574826Y-112357893D01*
X43580454Y-112412988D01*
X43584676Y-112454314D01*
X43638151Y-112615692D01*
X43727400Y-112760387D01*
X43727402Y-112760390D01*
X43847609Y-112880597D01*
X43847611Y-112880598D01*
X43847613Y-112880600D01*
X43992305Y-112969847D01*
X43992310Y-112969850D01*
X44153686Y-113023324D01*
X44250087Y-113033173D01*
X44250089Y-113033173D01*
X44253289Y-113033500D01*
X44862710Y-113033499D01*
X44962314Y-113023324D01*
X45123692Y-112969849D01*
X45268387Y-112880600D01*
X45388600Y-112760387D01*
X45477849Y-112615692D01*
X45502966Y-112539889D01*
X45533475Y-112490428D01*
X45574501Y-112449402D01*
X45636815Y-112415379D01*
X45663595Y-112412500D01*
X45664230Y-112412500D01*
X45664232Y-112412500D01*
X45840752Y-112374980D01*
X46005615Y-112301578D01*
X46151613Y-112195504D01*
X46242364Y-112094713D01*
X46302809Y-112057475D01*
X46373793Y-112058827D01*
X46429635Y-112094713D01*
X46520387Y-112195504D01*
X46666385Y-112301578D01*
X46831248Y-112374980D01*
X47007768Y-112412500D01*
X47008405Y-112412500D01*
X47010069Y-112412988D01*
X47020722Y-112415253D01*
X47020549Y-112416065D01*
X47076526Y-112432502D01*
X47097500Y-112449405D01*
X47124255Y-112476160D01*
X47141541Y-112497735D01*
X47148027Y-112507954D01*
X47147424Y-112508336D01*
X47170599Y-112544618D01*
X47186074Y-112591319D01*
X47194151Y-112615693D01*
X47283402Y-112760390D01*
X47403609Y-112880597D01*
X47403611Y-112880598D01*
X47403613Y-112880600D01*
X47548305Y-112969847D01*
X47548310Y-112969850D01*
X47709686Y-113023324D01*
X47806087Y-113033173D01*
X47806089Y-113033173D01*
X47809289Y-113033500D01*
X48418710Y-113033499D01*
X48518314Y-113023324D01*
X48679692Y-112969849D01*
X48824387Y-112880600D01*
X48944600Y-112760387D01*
X49033849Y-112615692D01*
X49087324Y-112454314D01*
X49097500Y-112354711D01*
X49097499Y-111820290D01*
X49087324Y-111720686D01*
X49033849Y-111559308D01*
X48944600Y-111414613D01*
X48944598Y-111414611D01*
X48944597Y-111414609D01*
X48919082Y-111389094D01*
X48885056Y-111326782D01*
X48890121Y-111255967D01*
X48919080Y-111210905D01*
X48944600Y-111185387D01*
X49033849Y-111040692D01*
X49087324Y-110879314D01*
X49097500Y-110779711D01*
X49097499Y-110245290D01*
X49087324Y-110145686D01*
X49033849Y-109984308D01*
X48944600Y-109839613D01*
X48944598Y-109839611D01*
X48944597Y-109839609D01*
X48824390Y-109719402D01*
X48807351Y-109708892D01*
X48759874Y-109656105D01*
X48747500Y-109601652D01*
X48747500Y-109451242D01*
X48767502Y-109383121D01*
X48808317Y-109343413D01*
X48809913Y-109342447D01*
X48829155Y-109330816D01*
X48950816Y-109209155D01*
X49039827Y-109061913D01*
X49091013Y-108897649D01*
X49097500Y-108826265D01*
X49097499Y-108311736D01*
X49091013Y-108240351D01*
X49039827Y-108076087D01*
X49033477Y-108065583D01*
X49015353Y-107996942D01*
X49037218Y-107929395D01*
X49092129Y-107884393D01*
X49162654Y-107876222D01*
X49226401Y-107907476D01*
X49230401Y-107911305D01*
X51948308Y-110629212D01*
X51982334Y-110691524D01*
X51977269Y-110762339D01*
X51951298Y-110804309D01*
X51781282Y-110986350D01*
X51781274Y-110986358D01*
X51778343Y-110989498D01*
X51775863Y-110993010D01*
X51775860Y-110993015D01*
X51622375Y-111210454D01*
X51622370Y-111210462D01*
X51619889Y-111213977D01*
X51617913Y-111217790D01*
X51617906Y-111217802D01*
X51495453Y-111454127D01*
X51495449Y-111454136D01*
X51493477Y-111457942D01*
X51492042Y-111461978D01*
X51492037Y-111461991D01*
X51402902Y-111712792D01*
X51402897Y-111712807D01*
X51401462Y-111716847D01*
X51400587Y-111721054D01*
X51400587Y-111721057D01*
X51346432Y-111981661D01*
X51346430Y-111981670D01*
X51345558Y-111985870D01*
X51345264Y-111990157D01*
X51345264Y-111990163D01*
X51327101Y-112255701D01*
X51326807Y-112260000D01*
X51327101Y-112264298D01*
X51343793Y-112508336D01*
X51345558Y-112534130D01*
X51346431Y-112538331D01*
X51346432Y-112538338D01*
X51362507Y-112615692D01*
X51401462Y-112803153D01*
X51402899Y-112807196D01*
X51402902Y-112807207D01*
X51492037Y-113058008D01*
X51492040Y-113058015D01*
X51493477Y-113062058D01*
X51495451Y-113065869D01*
X51495453Y-113065872D01*
X51617906Y-113302197D01*
X51617909Y-113302202D01*
X51619889Y-113306023D01*
X51778343Y-113530502D01*
X51965889Y-113731314D01*
X52179031Y-113904718D01*
X52413800Y-114047484D01*
X52665823Y-114156953D01*
X52930404Y-114231085D01*
X53202615Y-114268500D01*
X53206920Y-114268500D01*
X53473080Y-114268500D01*
X53477385Y-114268500D01*
X53749596Y-114231085D01*
X54014177Y-114156953D01*
X54266200Y-114047484D01*
X54500969Y-113904718D01*
X54714111Y-113731314D01*
X54901657Y-113530502D01*
X55060111Y-113306023D01*
X55186523Y-113062058D01*
X55278538Y-112803153D01*
X55334442Y-112534130D01*
X55353193Y-112260000D01*
X55334442Y-111985870D01*
X55278538Y-111716847D01*
X55186523Y-111457942D01*
X55060111Y-111213977D01*
X54901657Y-110989498D01*
X54714111Y-110788686D01*
X54707014Y-110782912D01*
X54504304Y-110617995D01*
X54504301Y-110617993D01*
X54500969Y-110615282D01*
X54266200Y-110472516D01*
X54262259Y-110470804D01*
X54262253Y-110470801D01*
X54018112Y-110364756D01*
X54018109Y-110364755D01*
X54014177Y-110363047D01*
X54010052Y-110361891D01*
X54010043Y-110361888D01*
X53753742Y-110290076D01*
X53753732Y-110290074D01*
X53749596Y-110288915D01*
X53745335Y-110288329D01*
X53745324Y-110288327D01*
X53481653Y-110252086D01*
X53481643Y-110252085D01*
X53477385Y-110251500D01*
X53473080Y-110251500D01*
X53414595Y-110251500D01*
X53346474Y-110231498D01*
X53325500Y-110214595D01*
X49641244Y-106530339D01*
X49628171Y-106514021D01*
X49605106Y-106492362D01*
X49576348Y-106465356D01*
X49573506Y-106462601D01*
X49556574Y-106445669D01*
X49553770Y-106442865D01*
X49550575Y-106440386D01*
X49541554Y-106432682D01*
X49509320Y-106402413D01*
X49491567Y-106392653D01*
X49475041Y-106381797D01*
X49459041Y-106369386D01*
X49418466Y-106351828D01*
X49407804Y-106346604D01*
X49369063Y-106325305D01*
X49355313Y-106321775D01*
X49349437Y-106320266D01*
X49330731Y-106313862D01*
X49312145Y-106305819D01*
X49268475Y-106298902D01*
X49256853Y-106296495D01*
X49214030Y-106285500D01*
X49214029Y-106285500D01*
X49193776Y-106285500D01*
X49174066Y-106283949D01*
X49154057Y-106280779D01*
X49110039Y-106284941D01*
X49098181Y-106285500D01*
X49057598Y-106285500D01*
X48989477Y-106265498D01*
X48942984Y-106211842D01*
X48932880Y-106141568D01*
X48937765Y-106120564D01*
X48938902Y-106117065D01*
X48954365Y-106069475D01*
X48973229Y-105890000D01*
X48954365Y-105710525D01*
X48898599Y-105538893D01*
X48897755Y-105537432D01*
X48808368Y-105382608D01*
X48687612Y-105248495D01*
X48592146Y-105179135D01*
X48541615Y-105142422D01*
X48376752Y-105069020D01*
X48200232Y-105031500D01*
X48019768Y-105031500D01*
X47902087Y-105056513D01*
X47843247Y-105069020D01*
X47678384Y-105142423D01*
X47532387Y-105248495D01*
X47411631Y-105382608D01*
X47321400Y-105538893D01*
X47279984Y-105666362D01*
X47265635Y-105710525D01*
X47246771Y-105890000D01*
X47265635Y-106069475D01*
X47265636Y-106069478D01*
X47296111Y-106163273D01*
X47298138Y-106234240D01*
X47284107Y-106267392D01*
X47188173Y-106426087D01*
X47136986Y-106590351D01*
X47130758Y-106658885D01*
X47130757Y-106658906D01*
X47130500Y-106661735D01*
X47130500Y-106664595D01*
X47130500Y-106664596D01*
X47130500Y-107173400D01*
X47130500Y-107173421D01*
X47130501Y-107176264D01*
X47130759Y-107179113D01*
X47130760Y-107179116D01*
X47136986Y-107247647D01*
X47165002Y-107337555D01*
X47188173Y-107411913D01*
X47211058Y-107449769D01*
X47277184Y-107559155D01*
X47372933Y-107654905D01*
X47406958Y-107717217D01*
X47401892Y-107788033D01*
X47372933Y-107833095D01*
X47277184Y-107928844D01*
X47188173Y-108076087D01*
X47136986Y-108240351D01*
X47130758Y-108308885D01*
X47130757Y-108308906D01*
X47130500Y-108311735D01*
X47130500Y-108314595D01*
X47130500Y-108314596D01*
X47130500Y-108823400D01*
X47130500Y-108823421D01*
X47130501Y-108826264D01*
X47130759Y-108829113D01*
X47130760Y-108829116D01*
X47136986Y-108897647D01*
X47136987Y-108897649D01*
X47188173Y-109061913D01*
X47195942Y-109074764D01*
X47277185Y-109209157D01*
X47398843Y-109330815D01*
X47419683Y-109343413D01*
X47467632Y-109395771D01*
X47480500Y-109451242D01*
X47480500Y-109601652D01*
X47460498Y-109669773D01*
X47420649Y-109708892D01*
X47403609Y-109719402D01*
X47283402Y-109839609D01*
X47194149Y-109984310D01*
X47140675Y-110145686D01*
X47130826Y-110242087D01*
X47130825Y-110242106D01*
X47130500Y-110245289D01*
X47130500Y-110248493D01*
X47130500Y-110248494D01*
X47130501Y-110569500D01*
X47110499Y-110637620D01*
X47056844Y-110684113D01*
X47020564Y-110692005D01*
X47020722Y-110692747D01*
X47007770Y-110695500D01*
X47007768Y-110695500D01*
X46894698Y-110719533D01*
X46831247Y-110733020D01*
X46666384Y-110806423D01*
X46520387Y-110912495D01*
X46429636Y-111013285D01*
X46369190Y-111050524D01*
X46298206Y-111049172D01*
X46242364Y-111013285D01*
X46151612Y-110912495D01*
X46005616Y-110806423D01*
X46005615Y-110806422D01*
X45840752Y-110733020D01*
X45664232Y-110695500D01*
X45664230Y-110695500D01*
X45651278Y-110692747D01*
X45651680Y-110690854D01*
X45599379Y-110675498D01*
X45552886Y-110621842D01*
X45541500Y-110569500D01*
X45541499Y-110248495D01*
X45541499Y-110248494D01*
X45541499Y-110245290D01*
X45531324Y-110145686D01*
X45477849Y-109984308D01*
X45388600Y-109839613D01*
X45388598Y-109839611D01*
X45388597Y-109839609D01*
X45268390Y-109719402D01*
X45268387Y-109719400D01*
X45251351Y-109708892D01*
X45203874Y-109656107D01*
X45191500Y-109601655D01*
X45191500Y-109451241D01*
X45211503Y-109383121D01*
X45252317Y-109343413D01*
X45253913Y-109342447D01*
X45273155Y-109330816D01*
X45394816Y-109209155D01*
X45483827Y-109061913D01*
X45535013Y-108897649D01*
X45541500Y-108826265D01*
X45541499Y-108311736D01*
X45535013Y-108240351D01*
X45483827Y-108076087D01*
X45394816Y-107928845D01*
X45298710Y-107832739D01*
X45264687Y-107770430D01*
X45269751Y-107699614D01*
X45298712Y-107654550D01*
X45394419Y-107558843D01*
X45483366Y-107411706D01*
X45534518Y-107247556D01*
X45540741Y-107179074D01*
X45541000Y-107173363D01*
X45541000Y-107173000D01*
X43575001Y-107173000D01*
X43575001Y-107173360D01*
X43575260Y-107179077D01*
X43581481Y-107247556D01*
X43632633Y-107411706D01*
X43721582Y-107558846D01*
X43817287Y-107654551D01*
X43851313Y-107716863D01*
X43846248Y-107787678D01*
X43817287Y-107832741D01*
X43721185Y-107928842D01*
X43632173Y-108076087D01*
X43580986Y-108240351D01*
X43574758Y-108308885D01*
X43574757Y-108308906D01*
X43574500Y-108311735D01*
X43574500Y-108314595D01*
X43574500Y-108314596D01*
X43574500Y-108823400D01*
X43574500Y-108823421D01*
X43574501Y-108826264D01*
X43574759Y-108829113D01*
X43574760Y-108829116D01*
X43580986Y-108897647D01*
X43580987Y-108897649D01*
X43632173Y-109061913D01*
X43639942Y-109074764D01*
X43721185Y-109209157D01*
X43842843Y-109330815D01*
X43863683Y-109343413D01*
X43911632Y-109395771D01*
X43924500Y-109451242D01*
X43924500Y-109601652D01*
X43904498Y-109669773D01*
X43864649Y-109708892D01*
X43847609Y-109719402D01*
X43727402Y-109839609D01*
X43638149Y-109984310D01*
X43584675Y-110145686D01*
X43574826Y-110242087D01*
X43574825Y-110242106D01*
X43574500Y-110245289D01*
X43574500Y-110248493D01*
X43574500Y-110248494D01*
X43574500Y-110776504D01*
X43574500Y-110776523D01*
X43574501Y-110779710D01*
X43574825Y-110782889D01*
X43574826Y-110782893D01*
X43575418Y-110788686D01*
X43584676Y-110879314D01*
X43638151Y-111040692D01*
X43727400Y-111185387D01*
X43727402Y-111185390D01*
X43752917Y-111210905D01*
X43786943Y-111273217D01*
X43781878Y-111344032D01*
X43752919Y-111389093D01*
X43727400Y-111414613D01*
X43698177Y-111461991D01*
X43638149Y-111559311D01*
X43584675Y-111720686D01*
X43574826Y-111817087D01*
X43574825Y-111817106D01*
X43574500Y-111820289D01*
X43574500Y-111823493D01*
X43574500Y-111823494D01*
X43574500Y-112351504D01*
X43574500Y-112351523D01*
X35906933Y-112351523D01*
X35913193Y-112260000D01*
X35894442Y-111985870D01*
X35838538Y-111716847D01*
X35746523Y-111457942D01*
X35620111Y-111213977D01*
X35461657Y-110989498D01*
X35274111Y-110788686D01*
X35267014Y-110782912D01*
X35064304Y-110617995D01*
X35064301Y-110617993D01*
X35060969Y-110615282D01*
X34826200Y-110472516D01*
X34822259Y-110470804D01*
X34822253Y-110470801D01*
X34578112Y-110364756D01*
X34578109Y-110364755D01*
X34574177Y-110363047D01*
X34570052Y-110361891D01*
X34570043Y-110361888D01*
X34313742Y-110290076D01*
X34313732Y-110290074D01*
X34309596Y-110288915D01*
X34305335Y-110288329D01*
X34305324Y-110288327D01*
X34041653Y-110252086D01*
X34041643Y-110252085D01*
X34037385Y-110251500D01*
X33762615Y-110251500D01*
X33758357Y-110252085D01*
X33758346Y-110252086D01*
X33494675Y-110288327D01*
X33494661Y-110288329D01*
X33490404Y-110288915D01*
X33486269Y-110290073D01*
X33486257Y-110290076D01*
X33229956Y-110361888D01*
X33229942Y-110361892D01*
X33225823Y-110363047D01*
X33221895Y-110364753D01*
X33221887Y-110364756D01*
X32977746Y-110470801D01*
X32977733Y-110470807D01*
X32973800Y-110472516D01*
X32970129Y-110474748D01*
X32970122Y-110474752D01*
X32742704Y-110613048D01*
X32742699Y-110613050D01*
X32739031Y-110615282D01*
X32735704Y-110617988D01*
X32735695Y-110617995D01*
X32529225Y-110785971D01*
X32529217Y-110785978D01*
X32525889Y-110788686D01*
X32522957Y-110791824D01*
X32522952Y-110791830D01*
X32341282Y-110986350D01*
X32341274Y-110986358D01*
X32338343Y-110989498D01*
X32335863Y-110993010D01*
X32335860Y-110993015D01*
X32182375Y-111210454D01*
X32182370Y-111210462D01*
X32179889Y-111213977D01*
X32177913Y-111217790D01*
X32177906Y-111217802D01*
X32055453Y-111454127D01*
X32055449Y-111454136D01*
X32053477Y-111457942D01*
X32052042Y-111461978D01*
X32052037Y-111461991D01*
X31962902Y-111712792D01*
X31962897Y-111712807D01*
X31961462Y-111716847D01*
X31960587Y-111721054D01*
X31960587Y-111721057D01*
X31906432Y-111981661D01*
X31906430Y-111981670D01*
X31905558Y-111985870D01*
X31905264Y-111990157D01*
X31905264Y-111990163D01*
X31887101Y-112255701D01*
X31886807Y-112260000D01*
X25425500Y-112260000D01*
X25425500Y-50803804D01*
X25425730Y-50796196D01*
X25434215Y-50655925D01*
X25443374Y-50504504D01*
X25445205Y-50489428D01*
X25497195Y-50205723D01*
X25500828Y-50190984D01*
X25586640Y-49915603D01*
X25592027Y-49901402D01*
X25710395Y-49638397D01*
X25717455Y-49624945D01*
X25866673Y-49378107D01*
X25875295Y-49365616D01*
X26053181Y-49138562D01*
X26063255Y-49127192D01*
X26267192Y-48923255D01*
X26278562Y-48913181D01*
X26505616Y-48735295D01*
X26518107Y-48726673D01*
X26764945Y-48577455D01*
X26778397Y-48570395D01*
X27041402Y-48452027D01*
X27055603Y-48446640D01*
X27330984Y-48360828D01*
X27345723Y-48357195D01*
X27629428Y-48305205D01*
X27644504Y-48303374D01*
X27936197Y-48285730D01*
X27943806Y-48285500D01*
X75673310Y-48285500D01*
X75741431Y-48305502D01*
G37*
%TD.AperFunction*%
%TA.AperFunction,Conductor*%
G36*
X58480507Y-95429844D02*
G01*
X58558239Y-95550798D01*
X58666900Y-95644952D01*
X58797685Y-95704680D01*
X58812412Y-95706797D01*
X58174310Y-96344899D01*
X58194697Y-96360767D01*
X58228206Y-96378901D01*
X58278597Y-96428914D01*
X58293949Y-96498231D01*
X58269388Y-96564844D01*
X58228207Y-96600528D01*
X58194423Y-96618811D01*
X58016762Y-96757091D01*
X57864278Y-96922731D01*
X57775483Y-97058643D01*
X57721479Y-97104731D01*
X57651131Y-97114306D01*
X57586774Y-97084328D01*
X57564517Y-97058643D01*
X57513211Y-96980113D01*
X57475722Y-96922732D01*
X57323240Y-96757094D01*
X57323239Y-96757093D01*
X57323237Y-96757091D01*
X57186318Y-96650522D01*
X57145576Y-96618811D01*
X57111792Y-96600528D01*
X57061402Y-96550516D01*
X57046050Y-96481199D01*
X57070611Y-96414586D01*
X57111793Y-96378901D01*
X57145303Y-96360765D01*
X57165688Y-96344899D01*
X57165689Y-96344898D01*
X56527588Y-95706797D01*
X56542315Y-95704680D01*
X56673100Y-95644952D01*
X56781761Y-95550798D01*
X56859493Y-95429844D01*
X56884360Y-95345151D01*
X57523076Y-95983867D01*
X57564516Y-95920439D01*
X57618520Y-95874351D01*
X57688868Y-95864776D01*
X57753225Y-95894754D01*
X57775482Y-95920439D01*
X57816921Y-95983866D01*
X57816923Y-95983866D01*
X58455638Y-95345150D01*
X58480507Y-95429844D01*
G37*
%TD.AperFunction*%
%TD*%
M02*
