%TF.GenerationSoftware,KiCad,Pcbnew,7.0.2-0*%
%TF.CreationDate,2023-05-12T21:43:59+02:00*%
%TF.ProjectId,main,6d61696e-2e6b-4696-9361-645f70636258,v.1.2.0*%
%TF.SameCoordinates,Original*%
%TF.FileFunction,Legend,Bot*%
%TF.FilePolarity,Positive*%
%FSLAX46Y46*%
G04 Gerber Fmt 4.6, Leading zero omitted, Abs format (unit mm)*
G04 Created by KiCad (PCBNEW 7.0.2-0) date 2023-05-12 21:43:59*
%MOMM*%
%LPD*%
G01*
G04 APERTURE LIST*
%ADD10C,0.150000*%
%ADD11C,0.120000*%
G04 APERTURE END LIST*
D10*
%TO.C,R40*%
X187840857Y-103078619D02*
X188174190Y-102602428D01*
X188412285Y-103078619D02*
X188412285Y-102078619D01*
X188412285Y-102078619D02*
X188031333Y-102078619D01*
X188031333Y-102078619D02*
X187936095Y-102126238D01*
X187936095Y-102126238D02*
X187888476Y-102173857D01*
X187888476Y-102173857D02*
X187840857Y-102269095D01*
X187840857Y-102269095D02*
X187840857Y-102411952D01*
X187840857Y-102411952D02*
X187888476Y-102507190D01*
X187888476Y-102507190D02*
X187936095Y-102554809D01*
X187936095Y-102554809D02*
X188031333Y-102602428D01*
X188031333Y-102602428D02*
X188412285Y-102602428D01*
X186983714Y-102411952D02*
X186983714Y-103078619D01*
X187221809Y-102031000D02*
X187459904Y-102745285D01*
X187459904Y-102745285D02*
X186840857Y-102745285D01*
X186269428Y-102078619D02*
X186174190Y-102078619D01*
X186174190Y-102078619D02*
X186078952Y-102126238D01*
X186078952Y-102126238D02*
X186031333Y-102173857D01*
X186031333Y-102173857D02*
X185983714Y-102269095D01*
X185983714Y-102269095D02*
X185936095Y-102459571D01*
X185936095Y-102459571D02*
X185936095Y-102697666D01*
X185936095Y-102697666D02*
X185983714Y-102888142D01*
X185983714Y-102888142D02*
X186031333Y-102983380D01*
X186031333Y-102983380D02*
X186078952Y-103031000D01*
X186078952Y-103031000D02*
X186174190Y-103078619D01*
X186174190Y-103078619D02*
X186269428Y-103078619D01*
X186269428Y-103078619D02*
X186364666Y-103031000D01*
X186364666Y-103031000D02*
X186412285Y-102983380D01*
X186412285Y-102983380D02*
X186459904Y-102888142D01*
X186459904Y-102888142D02*
X186507523Y-102697666D01*
X186507523Y-102697666D02*
X186507523Y-102459571D01*
X186507523Y-102459571D02*
X186459904Y-102269095D01*
X186459904Y-102269095D02*
X186412285Y-102173857D01*
X186412285Y-102173857D02*
X186364666Y-102126238D01*
X186364666Y-102126238D02*
X186269428Y-102078619D01*
%TO.C,R41*%
X135770857Y-103078619D02*
X136104190Y-102602428D01*
X136342285Y-103078619D02*
X136342285Y-102078619D01*
X136342285Y-102078619D02*
X135961333Y-102078619D01*
X135961333Y-102078619D02*
X135866095Y-102126238D01*
X135866095Y-102126238D02*
X135818476Y-102173857D01*
X135818476Y-102173857D02*
X135770857Y-102269095D01*
X135770857Y-102269095D02*
X135770857Y-102411952D01*
X135770857Y-102411952D02*
X135818476Y-102507190D01*
X135818476Y-102507190D02*
X135866095Y-102554809D01*
X135866095Y-102554809D02*
X135961333Y-102602428D01*
X135961333Y-102602428D02*
X136342285Y-102602428D01*
X134913714Y-102411952D02*
X134913714Y-103078619D01*
X135151809Y-102031000D02*
X135389904Y-102745285D01*
X135389904Y-102745285D02*
X134770857Y-102745285D01*
X133866095Y-103078619D02*
X134437523Y-103078619D01*
X134151809Y-103078619D02*
X134151809Y-102078619D01*
X134151809Y-102078619D02*
X134247047Y-102221476D01*
X134247047Y-102221476D02*
X134342285Y-102316714D01*
X134342285Y-102316714D02*
X134437523Y-102364333D01*
%TO.C,R16*%
X187840857Y-62946619D02*
X188174190Y-62470428D01*
X188412285Y-62946619D02*
X188412285Y-61946619D01*
X188412285Y-61946619D02*
X188031333Y-61946619D01*
X188031333Y-61946619D02*
X187936095Y-61994238D01*
X187936095Y-61994238D02*
X187888476Y-62041857D01*
X187888476Y-62041857D02*
X187840857Y-62137095D01*
X187840857Y-62137095D02*
X187840857Y-62279952D01*
X187840857Y-62279952D02*
X187888476Y-62375190D01*
X187888476Y-62375190D02*
X187936095Y-62422809D01*
X187936095Y-62422809D02*
X188031333Y-62470428D01*
X188031333Y-62470428D02*
X188412285Y-62470428D01*
X186888476Y-62946619D02*
X187459904Y-62946619D01*
X187174190Y-62946619D02*
X187174190Y-61946619D01*
X187174190Y-61946619D02*
X187269428Y-62089476D01*
X187269428Y-62089476D02*
X187364666Y-62184714D01*
X187364666Y-62184714D02*
X187459904Y-62232333D01*
X186031333Y-61946619D02*
X186221809Y-61946619D01*
X186221809Y-61946619D02*
X186317047Y-61994238D01*
X186317047Y-61994238D02*
X186364666Y-62041857D01*
X186364666Y-62041857D02*
X186459904Y-62184714D01*
X186459904Y-62184714D02*
X186507523Y-62375190D01*
X186507523Y-62375190D02*
X186507523Y-62756142D01*
X186507523Y-62756142D02*
X186459904Y-62851380D01*
X186459904Y-62851380D02*
X186412285Y-62899000D01*
X186412285Y-62899000D02*
X186317047Y-62946619D01*
X186317047Y-62946619D02*
X186126571Y-62946619D01*
X186126571Y-62946619D02*
X186031333Y-62899000D01*
X186031333Y-62899000D02*
X185983714Y-62851380D01*
X185983714Y-62851380D02*
X185936095Y-62756142D01*
X185936095Y-62756142D02*
X185936095Y-62518047D01*
X185936095Y-62518047D02*
X185983714Y-62422809D01*
X185983714Y-62422809D02*
X186031333Y-62375190D01*
X186031333Y-62375190D02*
X186126571Y-62327571D01*
X186126571Y-62327571D02*
X186317047Y-62327571D01*
X186317047Y-62327571D02*
X186412285Y-62375190D01*
X186412285Y-62375190D02*
X186459904Y-62422809D01*
X186459904Y-62422809D02*
X186507523Y-62518047D01*
%TO.C,R17*%
X136024857Y-62946619D02*
X136358190Y-62470428D01*
X136596285Y-62946619D02*
X136596285Y-61946619D01*
X136596285Y-61946619D02*
X136215333Y-61946619D01*
X136215333Y-61946619D02*
X136120095Y-61994238D01*
X136120095Y-61994238D02*
X136072476Y-62041857D01*
X136072476Y-62041857D02*
X136024857Y-62137095D01*
X136024857Y-62137095D02*
X136024857Y-62279952D01*
X136024857Y-62279952D02*
X136072476Y-62375190D01*
X136072476Y-62375190D02*
X136120095Y-62422809D01*
X136120095Y-62422809D02*
X136215333Y-62470428D01*
X136215333Y-62470428D02*
X136596285Y-62470428D01*
X135072476Y-62946619D02*
X135643904Y-62946619D01*
X135358190Y-62946619D02*
X135358190Y-61946619D01*
X135358190Y-61946619D02*
X135453428Y-62089476D01*
X135453428Y-62089476D02*
X135548666Y-62184714D01*
X135548666Y-62184714D02*
X135643904Y-62232333D01*
X134739142Y-61946619D02*
X134072476Y-61946619D01*
X134072476Y-61946619D02*
X134501047Y-62946619D01*
D11*
%TO.C,R40*%
X179432936Y-100906000D02*
X183787064Y-100906000D01*
X179432936Y-104326000D02*
X183787064Y-104326000D01*
%TO.C,R41*%
X127362936Y-100906000D02*
X131717064Y-100906000D01*
X127362936Y-104326000D02*
X131717064Y-104326000D01*
%TO.C,R16*%
X179432936Y-60774000D02*
X183787064Y-60774000D01*
X179432936Y-64194000D02*
X183787064Y-64194000D01*
%TO.C,R17*%
X127362936Y-60774000D02*
X131717064Y-60774000D01*
X127362936Y-64194000D02*
X131717064Y-64194000D01*
%TD*%
M02*
